%FSLAX45Y45*%
G04 Gerber Fmt 4.5, Leading zero omitted, Abs format (unit mm)*
G04 Created by KiCad (PCBNEW (6.0.0)) date 2022-10-01 22:44:21*
%MOMM*%
%LPD*%
G01*
G04 APERTURE LIST*
%TA.AperFunction,Profile*%
%ADD10C,0.100000*%
%TD*%
%ADD11C,0.200000*%
G04 APERTURE END LIST*
D10*
X8996680Y-9906500D02*
X19578820Y-9906500D01*
X19578820Y-9906500D02*
X19578820Y-1590040D01*
X19578820Y-1590040D02*
X8996680Y-1590040D01*
X8996680Y-1590040D02*
X8996680Y-9906500D01*
D11*
X9249299Y-10221976D02*
X9249299Y-10021976D01*
X9296918Y-10021976D01*
X9325490Y-10031500D01*
X9344537Y-10050548D01*
X9354061Y-10069595D01*
X9363585Y-10107690D01*
X9363585Y-10136262D01*
X9354061Y-10174357D01*
X9344537Y-10193405D01*
X9325490Y-10212452D01*
X9296918Y-10221976D01*
X9249299Y-10221976D01*
X9449299Y-10221976D02*
X9449299Y-10088643D01*
X9449299Y-10126738D02*
X9458823Y-10107690D01*
X9468347Y-10098167D01*
X9487394Y-10088643D01*
X9506442Y-10088643D01*
X9573109Y-10221976D02*
X9573109Y-10088643D01*
X9573109Y-10021976D02*
X9563585Y-10031500D01*
X9573109Y-10041024D01*
X9582632Y-10031500D01*
X9573109Y-10021976D01*
X9573109Y-10041024D01*
X9696918Y-10221976D02*
X9677870Y-10212452D01*
X9668347Y-10193405D01*
X9668347Y-10021976D01*
X9801680Y-10221976D02*
X9782632Y-10212452D01*
X9773109Y-10193405D01*
X9773109Y-10021976D01*
X10030251Y-10221976D02*
X10030251Y-10021976D01*
X10096918Y-10164833D01*
X10163585Y-10021976D01*
X10163585Y-10221976D01*
X10344537Y-10221976D02*
X10344537Y-10117214D01*
X10335013Y-10098167D01*
X10315966Y-10088643D01*
X10277870Y-10088643D01*
X10258823Y-10098167D01*
X10344537Y-10212452D02*
X10325490Y-10221976D01*
X10277870Y-10221976D01*
X10258823Y-10212452D01*
X10249299Y-10193405D01*
X10249299Y-10174357D01*
X10258823Y-10155310D01*
X10277870Y-10145786D01*
X10325490Y-10145786D01*
X10344537Y-10136262D01*
X10439775Y-10088643D02*
X10439775Y-10288643D01*
X10439775Y-10098167D02*
X10458823Y-10088643D01*
X10496918Y-10088643D01*
X10515966Y-10098167D01*
X10525490Y-10107690D01*
X10535013Y-10126738D01*
X10535013Y-10183881D01*
X10525490Y-10202929D01*
X10515966Y-10212452D01*
X10496918Y-10221976D01*
X10458823Y-10221976D01*
X10439775Y-10212452D01*
X10620728Y-10202929D02*
X10630251Y-10212452D01*
X10620728Y-10221976D01*
X10611204Y-10212452D01*
X10620728Y-10202929D01*
X10620728Y-10221976D01*
X10620728Y-10098167D02*
X10630251Y-10107690D01*
X10620728Y-10117214D01*
X10611204Y-10107690D01*
X10620728Y-10098167D01*
X10620728Y-10117214D01*
M02*
