M48
; DRILL file {KiCad (6.0.0)} date Sat Oct  1 22:44:22 2022
; FORMAT={-:-/ absolute / inch / decimal}
; #@! TF.CreationDate,2022-10-01T22:44:22+02:00
; #@! TF.GenerationSoftware,Kicad,Pcbnew,(6.0.0)
; #@! TF.FileFunction,Plated,1,2,PTH
FMAT,2
INCH
; #@! TA.AperFunction,Plated,PTH,ViaDrill
T1C0.0157
; #@! TA.AperFunction,Plated,PTH,ComponentDrill
T2C0.0394
; #@! TA.AperFunction,Plated,PTH,ComponentDrill
T3C0.0598
%
G90
G05
T1
X3.74Y-0.8
X3.7402Y-1.9122
X3.7422Y-3.0262
X3.756Y-1.588
X3.7562Y-2.7002
X3.7582Y-3.8142
X3.804Y-1.206
X3.8042Y-2.3182
X3.8062Y-3.4322
X3.872Y-0.762
X3.8722Y-1.8742
X3.8742Y-2.9882
X3.946Y-1.47
X3.9462Y-2.5822
X3.9482Y-3.6962
X4.146Y-1.57
X4.1462Y-2.6822
X4.1482Y-3.7962
X4.256Y-0.744
X4.2562Y-1.8562
X4.2582Y-2.9702
X4.33Y-1.44
X4.3302Y-2.5522
X4.3322Y-3.6662
X4.848Y-0.752
X4.8482Y-1.8642
X4.8502Y-2.9782
X4.88Y-0.752
X4.8802Y-1.8642
X4.8822Y-2.9782
X5.138Y-1.59
X5.1382Y-2.7022
X5.1402Y-3.8162
X5.15Y-0.898
X5.1502Y-2.0102
X5.1522Y-3.1242
X5.18Y-1.356
X5.1802Y-2.4682
X5.182Y-1.148
X5.1822Y-2.2602
X5.1822Y-3.5822
X5.1842Y-3.3742
X5.188Y-0.688
X5.1882Y-1.8002
X5.1902Y-2.9142
X5.204Y-1.174
X5.204Y-1.334
X5.2042Y-2.2862
X5.2042Y-2.4462
X5.2062Y-3.4002
X5.2062Y-3.5602
X5.21Y-1.0606
X5.2102Y-2.1728
X5.2122Y-3.2868
X5.284Y-0.76
X5.2842Y-1.8722
X5.2862Y-2.9862
X5.4Y-1.588
X5.4002Y-2.7002
X5.4022Y-3.8142
X5.8518Y-0.7992
X5.852Y-1.9114
X5.854Y-3.0254
X5.8678Y-1.5872
X5.868Y-2.6994
X5.87Y-3.8134
X5.9158Y-1.2052
X5.916Y-2.3174
X5.918Y-3.4314
X5.9838Y-0.7612
X5.984Y-1.8734
X5.986Y-2.9874
X6.0578Y-1.4692
X6.058Y-2.5814
X6.06Y-3.6954
X6.2578Y-1.5692
X6.258Y-2.6814
X6.26Y-3.7954
X6.3678Y-0.7432
X6.368Y-1.8554
X6.37Y-2.9694
X6.4418Y-1.4392
X6.442Y-2.5514
X6.444Y-3.6654
X6.9598Y-0.7512
X6.96Y-1.8634
X6.962Y-2.9774
X6.9918Y-0.7512
X6.992Y-1.8634
X6.994Y-2.9774
X7.2498Y-1.5892
X7.25Y-2.7014
X7.252Y-3.8154
X7.2618Y-0.8972
X7.262Y-2.0094
X7.264Y-3.1234
X7.2918Y-1.3552
X7.292Y-2.4674
X7.2938Y-1.1472
X7.294Y-2.2594
X7.294Y-3.5814
X7.296Y-3.3734
X7.2998Y-0.6872
X7.3Y-1.7994
X7.302Y-2.9134
X7.3158Y-1.1732
X7.3158Y-1.3332
X7.316Y-2.2854
X7.316Y-2.4454
X7.318Y-3.3994
X7.318Y-3.5594
X7.3218Y-1.0598
X7.322Y-2.172
X7.324Y-3.286
X7.3958Y-0.7592
X7.396Y-1.8714
X7.398Y-2.9854
X7.5118Y-1.5872
X7.512Y-2.6994
X7.514Y-3.8134
T2
X3.704Y-0.6924
X3.704Y-1.2924
X3.7042Y-1.8046
X3.7042Y-2.4046
X3.7062Y-2.9186
X3.7062Y-3.5186
X3.804Y-0.6924
X3.804Y-1.2924
X3.8042Y-1.8046
X3.8042Y-2.4046
X3.8062Y-2.9186
X3.8062Y-3.5186
X3.904Y-0.6924
X3.904Y-1.2924
X3.9042Y-1.8046
X3.9042Y-2.4046
X3.9062Y-2.9186
X3.9062Y-3.5186
X4.004Y-0.6924
X4.004Y-1.2924
X4.0042Y-1.8046
X4.0042Y-2.4046
X4.0062Y-2.9186
X4.0062Y-3.5186
X4.104Y-0.6924
X4.104Y-1.2924
X4.1042Y-1.8046
X4.1042Y-2.4046
X4.1062Y-2.9186
X4.1062Y-3.5186
X4.204Y-0.6924
X4.204Y-1.2924
X4.2042Y-1.8046
X4.2042Y-2.4046
X4.2062Y-2.9186
X4.2062Y-3.5186
X4.304Y-0.6924
X4.304Y-1.2924
X4.3042Y-1.8046
X4.3042Y-2.4046
X4.3062Y-2.9186
X4.3062Y-3.5186
X4.404Y-0.6924
X4.404Y-1.2924
X4.4042Y-1.8046
X4.4042Y-2.4046
X4.4062Y-2.9186
X4.4062Y-3.5186
X4.504Y-0.6924
X4.504Y-1.2924
X4.5042Y-1.8046
X4.5042Y-2.4046
X4.5062Y-2.9186
X4.5062Y-3.5186
X4.604Y-0.6924
X4.604Y-1.2924
X4.6042Y-1.8046
X4.6042Y-2.4046
X4.6062Y-2.9186
X4.6062Y-3.5186
X4.704Y-0.6924
X4.704Y-1.2924
X4.7042Y-1.8046
X4.7042Y-2.4046
X4.7062Y-2.9186
X4.7062Y-3.5186
X4.788Y-0.894
X4.788Y-0.994
X4.788Y-1.094
X4.7882Y-2.0062
X4.7882Y-2.1062
X4.7882Y-2.2062
X4.7902Y-3.1202
X4.7902Y-3.2202
X4.7902Y-3.3202
X4.804Y-0.6924
X4.804Y-1.2924
X4.8042Y-1.8046
X4.8042Y-2.4046
X4.8062Y-2.9186
X4.8062Y-3.5186
X4.904Y-0.6924
X4.904Y-1.2924
X4.9042Y-1.8046
X4.9042Y-2.4046
X4.9062Y-2.9186
X4.9062Y-3.5186
X5.004Y-0.6924
X5.004Y-1.2924
X5.0042Y-1.8046
X5.0042Y-2.4046
X5.0062Y-2.9186
X5.0062Y-3.5186
X5.104Y-0.6924
X5.104Y-1.2924
X5.1042Y-1.8046
X5.1042Y-2.4046
X5.1062Y-2.9186
X5.1062Y-3.5186
X5.358Y-0.794
X5.358Y-0.894
X5.358Y-0.994
X5.358Y-1.094
X5.358Y-1.194
X5.3582Y-1.9062
X5.3582Y-2.0062
X5.3582Y-2.1062
X5.3582Y-2.2062
X5.3582Y-2.3062
X5.3602Y-3.0202
X5.3602Y-3.1202
X5.3602Y-3.2202
X5.3602Y-3.3202
X5.3602Y-3.4202
X5.52Y-0.6986
X5.52Y-0.7986
X5.52Y-0.8986
X5.5202Y-1.8108
X5.5202Y-1.9108
X5.5202Y-2.0108
X5.521Y-1.0774
X5.521Y-1.1774
X5.521Y-1.2774
X5.5212Y-2.1896
X5.5212Y-2.2896
X5.5212Y-2.3896
X5.5222Y-2.9248
X5.5222Y-3.0248
X5.5222Y-3.1248
X5.5232Y-3.3036
X5.5232Y-3.4036
X5.5232Y-3.5036
X5.8158Y-0.6916
X5.8158Y-1.2916
X5.816Y-1.8038
X5.816Y-2.4038
X5.818Y-2.9178
X5.818Y-3.5178
X5.9158Y-0.6916
X5.9158Y-1.2916
X5.916Y-1.8038
X5.916Y-2.4038
X5.918Y-2.9178
X5.918Y-3.5178
X6.0158Y-0.6916
X6.0158Y-1.2916
X6.016Y-1.8038
X6.016Y-2.4038
X6.018Y-2.9178
X6.018Y-3.5178
X6.1158Y-0.6916
X6.1158Y-1.2916
X6.116Y-1.8038
X6.116Y-2.4038
X6.118Y-2.9178
X6.118Y-3.5178
X6.2158Y-0.6916
X6.2158Y-1.2916
X6.216Y-1.8038
X6.216Y-2.4038
X6.218Y-2.9178
X6.218Y-3.5178
X6.3158Y-0.6916
X6.3158Y-1.2916
X6.316Y-1.8038
X6.316Y-2.4038
X6.318Y-2.9178
X6.318Y-3.5178
X6.4158Y-0.6916
X6.4158Y-1.2916
X6.416Y-1.8038
X6.416Y-2.4038
X6.418Y-2.9178
X6.418Y-3.5178
X6.5158Y-0.6916
X6.5158Y-1.2916
X6.516Y-1.8038
X6.516Y-2.4038
X6.518Y-2.9178
X6.518Y-3.5178
X6.6158Y-0.6916
X6.6158Y-1.2916
X6.616Y-1.8038
X6.616Y-2.4038
X6.618Y-2.9178
X6.618Y-3.5178
X6.7158Y-0.6916
X6.7158Y-1.2916
X6.716Y-1.8038
X6.716Y-2.4038
X6.718Y-2.9178
X6.718Y-3.5178
X6.8158Y-0.6916
X6.8158Y-1.2916
X6.816Y-1.8038
X6.816Y-2.4038
X6.818Y-2.9178
X6.818Y-3.5178
X6.8998Y-0.8932
X6.8998Y-0.9932
X6.8998Y-1.0932
X6.9Y-2.0054
X6.9Y-2.1054
X6.9Y-2.2054
X6.902Y-3.1194
X6.902Y-3.2194
X6.902Y-3.3194
X6.9158Y-0.6916
X6.9158Y-1.2916
X6.916Y-1.8038
X6.916Y-2.4038
X6.918Y-2.9178
X6.918Y-3.5178
X7.0158Y-0.6916
X7.0158Y-1.2916
X7.016Y-1.8038
X7.016Y-2.4038
X7.018Y-2.9178
X7.018Y-3.5178
X7.1158Y-0.6916
X7.1158Y-1.2916
X7.116Y-1.8038
X7.116Y-2.4038
X7.118Y-2.9178
X7.118Y-3.5178
X7.2158Y-0.6916
X7.2158Y-1.2916
X7.216Y-1.8038
X7.216Y-2.4038
X7.218Y-2.9178
X7.218Y-3.5178
X7.4698Y-0.7932
X7.4698Y-0.8932
X7.4698Y-0.9932
X7.4698Y-1.0932
X7.4698Y-1.1932
X7.47Y-1.9054
X7.47Y-2.0054
X7.47Y-2.1054
X7.47Y-2.2054
X7.47Y-2.3054
X7.472Y-3.0194
X7.472Y-3.1194
X7.472Y-3.2194
X7.472Y-3.3194
X7.472Y-3.4194
X7.6318Y-0.6978
X7.6318Y-0.7978
X7.6318Y-0.8978
X7.632Y-1.81
X7.632Y-1.91
X7.632Y-2.01
X7.6328Y-1.0767
X7.6328Y-1.1767
X7.6328Y-1.2767
X7.633Y-2.1889
X7.633Y-2.2889
X7.633Y-2.3889
X7.634Y-2.924
X7.634Y-3.024
X7.634Y-3.124
X7.635Y-3.3029
X7.635Y-3.4029
X7.635Y-3.5029
T3
X3.65Y-1.512
X3.6502Y-2.6242
X3.6522Y-3.7382
X3.85Y-1.512
X3.8502Y-2.6242
X3.8522Y-3.7382
X4.05Y-1.512
X4.0502Y-2.6242
X4.0522Y-3.7382
X4.25Y-1.512
X4.2502Y-2.6242
X4.2522Y-3.7382
X4.468Y-1.512
X4.4682Y-2.6242
X4.4702Y-3.7382
X4.668Y-1.512
X4.6682Y-2.6242
X4.6702Y-3.7382
X4.868Y-1.512
X4.8682Y-2.6242
X4.8702Y-3.7382
X5.068Y-1.512
X5.0682Y-2.6242
X5.0702Y-3.7382
X5.286Y-1.512
X5.2862Y-2.6242
X5.2882Y-3.7382
X5.486Y-1.512
X5.4862Y-2.6242
X5.4882Y-3.7382
X5.7618Y-1.5112
X5.762Y-2.6234
X5.764Y-3.7374
X5.9618Y-1.5112
X5.962Y-2.6234
X5.964Y-3.7374
X6.1618Y-1.5112
X6.162Y-2.6234
X6.164Y-3.7374
X6.3618Y-1.5112
X6.362Y-2.6234
X6.364Y-3.7374
X6.5798Y-1.5112
X6.58Y-2.6234
X6.582Y-3.7374
X6.7798Y-1.5112
X6.78Y-2.6234
X6.782Y-3.7374
X6.9798Y-1.5112
X6.98Y-2.6234
X6.982Y-3.7374
X7.1798Y-1.5112
X7.18Y-2.6234
X7.182Y-3.7374
X7.3978Y-1.5112
X7.398Y-2.6234
X7.4Y-3.7374
X7.5978Y-1.5112
X7.598Y-2.6234
X7.6Y-3.7374
T0
M30
