%FSLAX45Y45*%
G04 Gerber Fmt 4.5, Leading zero omitted, Abs format (unit mm)*
G04 Created by KiCad (PCBNEW (6.0.0)) date 2022-10-01 22:44:21*
%MOMM*%
%LPD*%
G01*
G04 APERTURE LIST*
%TA.AperFunction,Profile*%
%ADD10C,0.100000*%
%TD*%
%ADD11C,0.200000*%
%ADD12C,0.040000*%
%ADD13C,0.100000*%
%ADD14C,0.152000*%
G04 APERTURE END LIST*
D10*
X8996680Y-9906500D02*
X19578820Y-9906500D01*
X19578820Y-9906500D02*
X19578820Y-1590040D01*
X19578820Y-1590040D02*
X8996680Y-1590040D01*
X8996680Y-1590040D02*
X8996680Y-9906500D01*
D11*
D12*
X9479600Y-2012000D02*
X9519600Y-2052000D01*
X9519600Y-2012000D02*
X9479600Y-2052000D01*
X9480100Y-4836980D02*
X9520100Y-4876980D01*
X9520100Y-4836980D02*
X9480100Y-4876980D01*
X9485180Y-7666540D02*
X9525180Y-7706540D01*
X9525180Y-7666540D02*
X9485180Y-7706540D01*
X9520240Y-4013520D02*
X9560240Y-4053520D01*
X9560240Y-4013520D02*
X9520240Y-4053520D01*
X9520740Y-6838500D02*
X9560740Y-6878500D01*
X9560740Y-6838500D02*
X9520740Y-6878500D01*
X9525820Y-9668060D02*
X9565820Y-9708060D01*
X9565820Y-9668060D02*
X9525820Y-9708060D01*
X9642160Y-3043240D02*
X9682160Y-3083240D01*
X9682160Y-3043240D02*
X9642160Y-3083240D01*
X9642660Y-5868220D02*
X9682660Y-5908220D01*
X9682660Y-5868220D02*
X9642660Y-5908220D01*
X9647740Y-8697780D02*
X9687740Y-8737780D01*
X9687740Y-8697780D02*
X9647740Y-8737780D01*
X9814880Y-1915480D02*
X9854880Y-1955480D01*
X9854880Y-1915480D02*
X9814880Y-1955480D01*
X9815380Y-4740460D02*
X9855380Y-4780460D01*
X9855380Y-4740460D02*
X9815380Y-4780460D01*
X9820460Y-7570020D02*
X9860460Y-7610020D01*
X9860460Y-7570020D02*
X9820460Y-7610020D01*
X10002840Y-3713800D02*
X10042840Y-3753800D01*
X10042840Y-3713800D02*
X10002840Y-3753800D01*
X10003340Y-6538780D02*
X10043340Y-6578780D01*
X10043340Y-6538780D02*
X10003340Y-6578780D01*
X10008420Y-9368340D02*
X10048420Y-9408340D01*
X10048420Y-9368340D02*
X10008420Y-9408340D01*
X10510840Y-3967800D02*
X10550840Y-4007800D01*
X10550840Y-3967800D02*
X10510840Y-4007800D01*
X10511340Y-6792780D02*
X10551340Y-6832780D01*
X10551340Y-6792780D02*
X10511340Y-6832780D01*
X10516420Y-9622340D02*
X10556420Y-9662340D01*
X10556420Y-9622340D02*
X10516420Y-9662340D01*
X10790240Y-1869760D02*
X10830240Y-1909760D01*
X10830240Y-1869760D02*
X10790240Y-1909760D01*
X10790740Y-4694740D02*
X10830740Y-4734740D01*
X10830740Y-4694740D02*
X10790740Y-4734740D01*
X10795820Y-7524300D02*
X10835820Y-7564300D01*
X10835820Y-7524300D02*
X10795820Y-7564300D01*
X10978200Y-3637600D02*
X11018200Y-3677600D01*
X11018200Y-3637600D02*
X10978200Y-3677600D01*
X10978700Y-6462580D02*
X11018700Y-6502580D01*
X11018700Y-6462580D02*
X10978700Y-6502580D01*
X10983780Y-9292140D02*
X11023780Y-9332140D01*
X11023780Y-9292140D02*
X10983780Y-9332140D01*
X12293920Y-1890080D02*
X12333920Y-1930080D01*
X12333920Y-1890080D02*
X12293920Y-1930080D01*
X12294420Y-4715060D02*
X12334420Y-4755060D01*
X12334420Y-4715060D02*
X12294420Y-4755060D01*
X12299500Y-7544620D02*
X12339500Y-7584620D01*
X12339500Y-7544620D02*
X12299500Y-7584620D01*
X12375200Y-1890080D02*
X12415200Y-1930080D01*
X12415200Y-1890080D02*
X12375200Y-1930080D01*
X12375700Y-4715060D02*
X12415700Y-4755060D01*
X12415700Y-4715060D02*
X12375700Y-4755060D01*
X12380780Y-7544620D02*
X12420780Y-7584620D01*
X12420780Y-7544620D02*
X12380780Y-7584620D01*
X13030520Y-4018600D02*
X13070520Y-4058600D01*
X13070520Y-4018600D02*
X13030520Y-4058600D01*
X13031020Y-6843580D02*
X13071020Y-6883580D01*
X13071020Y-6843580D02*
X13031020Y-6883580D01*
X13036100Y-9673140D02*
X13076100Y-9713140D01*
X13076100Y-9673140D02*
X13036100Y-9713140D01*
X13061000Y-2260920D02*
X13101000Y-2300920D01*
X13101000Y-2260920D02*
X13061000Y-2300920D01*
X13061500Y-5085900D02*
X13101500Y-5125900D01*
X13101500Y-5085900D02*
X13061500Y-5125900D01*
X13066580Y-7915460D02*
X13106580Y-7955460D01*
X13106580Y-7915460D02*
X13066580Y-7955460D01*
X13137200Y-3424240D02*
X13177200Y-3464240D01*
X13177200Y-3424240D02*
X13137200Y-3464240D01*
X13137700Y-6249220D02*
X13177700Y-6289220D01*
X13177700Y-6249220D02*
X13137700Y-6289220D01*
X13142280Y-2895920D02*
X13182280Y-2935920D01*
X13182280Y-2895920D02*
X13142280Y-2935920D01*
X13142780Y-5720900D02*
X13182780Y-5760900D01*
X13182780Y-5720900D02*
X13142780Y-5760900D01*
X13142780Y-9078780D02*
X13182780Y-9118780D01*
X13182780Y-9078780D02*
X13142780Y-9118780D01*
X13147860Y-8550460D02*
X13187860Y-8590460D01*
X13187860Y-8550460D02*
X13147860Y-8590460D01*
X13157520Y-1727520D02*
X13197520Y-1767520D01*
X13197520Y-1727520D02*
X13157520Y-1767520D01*
X13158020Y-4552500D02*
X13198020Y-4592500D01*
X13198020Y-4552500D02*
X13158020Y-4592500D01*
X13163100Y-7382060D02*
X13203100Y-7422060D01*
X13203100Y-7382060D02*
X13163100Y-7422060D01*
X13198160Y-2961960D02*
X13238160Y-3001960D01*
X13238160Y-2961960D02*
X13198160Y-3001960D01*
X13198160Y-3368360D02*
X13238160Y-3408360D01*
X13238160Y-3368360D02*
X13198160Y-3408360D01*
X13198660Y-5786940D02*
X13238660Y-5826940D01*
X13238660Y-5786940D02*
X13198660Y-5826940D01*
X13198660Y-6193340D02*
X13238660Y-6233340D01*
X13238660Y-6193340D02*
X13198660Y-6233340D01*
X13203740Y-8616500D02*
X13243740Y-8656500D01*
X13243740Y-8616500D02*
X13203740Y-8656500D01*
X13203740Y-9022900D02*
X13243740Y-9062900D01*
X13243740Y-9022900D02*
X13203740Y-9062900D01*
X13213400Y-2673810D02*
X13253400Y-2713810D01*
X13253400Y-2673810D02*
X13213400Y-2713810D01*
X13213900Y-5498790D02*
X13253900Y-5538790D01*
X13253900Y-5498790D02*
X13213900Y-5538790D01*
X13218980Y-8328350D02*
X13258980Y-8368350D01*
X13258980Y-8328350D02*
X13218980Y-8368350D01*
X13401360Y-1910400D02*
X13441360Y-1950400D01*
X13441360Y-1910400D02*
X13401360Y-1950400D01*
X13401860Y-4735380D02*
X13441860Y-4775380D01*
X13441860Y-4735380D02*
X13401860Y-4775380D01*
X13406940Y-7564940D02*
X13446940Y-7604940D01*
X13446940Y-7564940D02*
X13406940Y-7604940D01*
X13696000Y-4013520D02*
X13736000Y-4053520D01*
X13736000Y-4013520D02*
X13696000Y-4053520D01*
X13696500Y-6838500D02*
X13736500Y-6878500D01*
X13736500Y-6838500D02*
X13696500Y-6878500D01*
X13701580Y-9668060D02*
X13741580Y-9708060D01*
X13741580Y-9668060D02*
X13701580Y-9708060D01*
X14843580Y-2010090D02*
X14883580Y-2050090D01*
X14883580Y-2010090D02*
X14843580Y-2050090D01*
X14844080Y-4835070D02*
X14884080Y-4875070D01*
X14884080Y-4835070D02*
X14844080Y-4875070D01*
X14849160Y-7664630D02*
X14889160Y-7704630D01*
X14889160Y-7664630D02*
X14849160Y-7704630D01*
X14884220Y-4011610D02*
X14924220Y-4051610D01*
X14924220Y-4011610D02*
X14884220Y-4051610D01*
X14884720Y-6836590D02*
X14924720Y-6876590D01*
X14924720Y-6836590D02*
X14884720Y-6876590D01*
X14889800Y-9666150D02*
X14929800Y-9706150D01*
X14929800Y-9666150D02*
X14889800Y-9706150D01*
X15006140Y-3041330D02*
X15046140Y-3081330D01*
X15046140Y-3041330D02*
X15006140Y-3081330D01*
X15006640Y-5866310D02*
X15046640Y-5906310D01*
X15046640Y-5866310D02*
X15006640Y-5906310D01*
X15011720Y-8695870D02*
X15051720Y-8735870D01*
X15051720Y-8695870D02*
X15011720Y-8735870D01*
X15178860Y-1913570D02*
X15218860Y-1953570D01*
X15218860Y-1913570D02*
X15178860Y-1953570D01*
X15179360Y-4738550D02*
X15219360Y-4778550D01*
X15219360Y-4738550D02*
X15179360Y-4778550D01*
X15184440Y-7568110D02*
X15224440Y-7608110D01*
X15224440Y-7568110D02*
X15184440Y-7608110D01*
X15366820Y-3711890D02*
X15406820Y-3751890D01*
X15406820Y-3711890D02*
X15366820Y-3751890D01*
X15367320Y-6536870D02*
X15407320Y-6576870D01*
X15407320Y-6536870D02*
X15367320Y-6576870D01*
X15372400Y-9366430D02*
X15412400Y-9406430D01*
X15412400Y-9366430D02*
X15372400Y-9406430D01*
X15874820Y-3965890D02*
X15914820Y-4005890D01*
X15914820Y-3965890D02*
X15874820Y-4005890D01*
X15875320Y-6790870D02*
X15915320Y-6830870D01*
X15915320Y-6790870D02*
X15875320Y-6830870D01*
X15880400Y-9620430D02*
X15920400Y-9660430D01*
X15920400Y-9620430D02*
X15880400Y-9660430D01*
X16154220Y-1867850D02*
X16194220Y-1907850D01*
X16194220Y-1867850D02*
X16154220Y-1907850D01*
X16154720Y-4692830D02*
X16194720Y-4732830D01*
X16194720Y-4692830D02*
X16154720Y-4732830D01*
X16159800Y-7522390D02*
X16199800Y-7562390D01*
X16199800Y-7522390D02*
X16159800Y-7562390D01*
X16342180Y-3635690D02*
X16382180Y-3675690D01*
X16382180Y-3635690D02*
X16342180Y-3675690D01*
X16342680Y-6460670D02*
X16382680Y-6500670D01*
X16382680Y-6460670D02*
X16342680Y-6500670D01*
X16347760Y-9290230D02*
X16387760Y-9330230D01*
X16387760Y-9290230D02*
X16347760Y-9330230D01*
X17657900Y-1888170D02*
X17697900Y-1928170D01*
X17697900Y-1888170D02*
X17657900Y-1928170D01*
X17658400Y-4713150D02*
X17698400Y-4753150D01*
X17698400Y-4713150D02*
X17658400Y-4753150D01*
X17663480Y-7542710D02*
X17703480Y-7582710D01*
X17703480Y-7542710D02*
X17663480Y-7582710D01*
X17739180Y-1888170D02*
X17779180Y-1928170D01*
X17779180Y-1888170D02*
X17739180Y-1928170D01*
X17739680Y-4713150D02*
X17779680Y-4753150D01*
X17779680Y-4713150D02*
X17739680Y-4753150D01*
X17744760Y-7542710D02*
X17784760Y-7582710D01*
X17784760Y-7542710D02*
X17744760Y-7582710D01*
X18394500Y-4016690D02*
X18434500Y-4056690D01*
X18434500Y-4016690D02*
X18394500Y-4056690D01*
X18395000Y-6841670D02*
X18435000Y-6881670D01*
X18435000Y-6841670D02*
X18395000Y-6881670D01*
X18400080Y-9671230D02*
X18440080Y-9711230D01*
X18440080Y-9671230D02*
X18400080Y-9711230D01*
X18424980Y-2259010D02*
X18464980Y-2299010D01*
X18464980Y-2259010D02*
X18424980Y-2299010D01*
X18425480Y-5083990D02*
X18465480Y-5123990D01*
X18465480Y-5083990D02*
X18425480Y-5123990D01*
X18430560Y-7913550D02*
X18470560Y-7953550D01*
X18470560Y-7913550D02*
X18430560Y-7953550D01*
X18501180Y-3422330D02*
X18541180Y-3462330D01*
X18541180Y-3422330D02*
X18501180Y-3462330D01*
X18501680Y-6247310D02*
X18541680Y-6287310D01*
X18541680Y-6247310D02*
X18501680Y-6287310D01*
X18506260Y-2894010D02*
X18546260Y-2934010D01*
X18546260Y-2894010D02*
X18506260Y-2934010D01*
X18506760Y-5718990D02*
X18546760Y-5758990D01*
X18546760Y-5718990D02*
X18506760Y-5758990D01*
X18506760Y-9076870D02*
X18546760Y-9116870D01*
X18546760Y-9076870D02*
X18506760Y-9116870D01*
X18511840Y-8548550D02*
X18551840Y-8588550D01*
X18551840Y-8548550D02*
X18511840Y-8588550D01*
X18521500Y-1725610D02*
X18561500Y-1765610D01*
X18561500Y-1725610D02*
X18521500Y-1765610D01*
X18522000Y-4550590D02*
X18562000Y-4590590D01*
X18562000Y-4550590D02*
X18522000Y-4590590D01*
X18527080Y-7380150D02*
X18567080Y-7420150D01*
X18567080Y-7380150D02*
X18527080Y-7420150D01*
X18562140Y-2960050D02*
X18602140Y-3000050D01*
X18602140Y-2960050D02*
X18562140Y-3000050D01*
X18562140Y-3366450D02*
X18602140Y-3406450D01*
X18602140Y-3366450D02*
X18562140Y-3406450D01*
X18562640Y-5785030D02*
X18602640Y-5825030D01*
X18602640Y-5785030D02*
X18562640Y-5825030D01*
X18562640Y-6191430D02*
X18602640Y-6231430D01*
X18602640Y-6191430D02*
X18562640Y-6231430D01*
X18567720Y-8614590D02*
X18607720Y-8654590D01*
X18607720Y-8614590D02*
X18567720Y-8654590D01*
X18567720Y-9020990D02*
X18607720Y-9060990D01*
X18607720Y-9020990D02*
X18567720Y-9060990D01*
X18577380Y-2671900D02*
X18617380Y-2711900D01*
X18617380Y-2671900D02*
X18577380Y-2711900D01*
X18577880Y-5496880D02*
X18617880Y-5536880D01*
X18617880Y-5496880D02*
X18577880Y-5536880D01*
X18582960Y-8326440D02*
X18622960Y-8366440D01*
X18622960Y-8326440D02*
X18582960Y-8366440D01*
X18765340Y-1908490D02*
X18805340Y-1948490D01*
X18805340Y-1908490D02*
X18765340Y-1948490D01*
X18765840Y-4733470D02*
X18805840Y-4773470D01*
X18805840Y-4733470D02*
X18765840Y-4773470D01*
X18770920Y-7563030D02*
X18810920Y-7603030D01*
X18810920Y-7563030D02*
X18770920Y-7603030D01*
X19059980Y-4011610D02*
X19099980Y-4051610D01*
X19099980Y-4011610D02*
X19059980Y-4051610D01*
X19060480Y-6836590D02*
X19100480Y-6876590D01*
X19100480Y-6836590D02*
X19060480Y-6876590D01*
X19065560Y-9666150D02*
X19105560Y-9706150D01*
X19105560Y-9666150D02*
X19065560Y-9706150D01*
D13*
X9458160Y-1758680D02*
G75*
G03*
X9458160Y-1758680I-50000J0D01*
G01*
X9458160Y-3282680D02*
G75*
G03*
X9458160Y-3282680I-50000J0D01*
G01*
X9458660Y-4583660D02*
G75*
G03*
X9458660Y-4583660I-50000J0D01*
G01*
X9458660Y-6107660D02*
G75*
G03*
X9458660Y-6107660I-50000J0D01*
G01*
X9463740Y-7413220D02*
G75*
G03*
X9463740Y-7413220I-50000J0D01*
G01*
X9463740Y-8937220D02*
G75*
G03*
X9463740Y-8937220I-50000J0D01*
G01*
X9712160Y-1758680D02*
G75*
G03*
X9712160Y-1758680I-50000J0D01*
G01*
X9712160Y-3282680D02*
G75*
G03*
X9712160Y-3282680I-50000J0D01*
G01*
X9712660Y-4583660D02*
G75*
G03*
X9712660Y-4583660I-50000J0D01*
G01*
X9712660Y-6107660D02*
G75*
G03*
X9712660Y-6107660I-50000J0D01*
G01*
X9717740Y-7413220D02*
G75*
G03*
X9717740Y-7413220I-50000J0D01*
G01*
X9717740Y-8937220D02*
G75*
G03*
X9717740Y-8937220I-50000J0D01*
G01*
X9966160Y-1758680D02*
G75*
G03*
X9966160Y-1758680I-50000J0D01*
G01*
X9966160Y-3282680D02*
G75*
G03*
X9966160Y-3282680I-50000J0D01*
G01*
X9966660Y-4583660D02*
G75*
G03*
X9966660Y-4583660I-50000J0D01*
G01*
X9966660Y-6107660D02*
G75*
G03*
X9966660Y-6107660I-50000J0D01*
G01*
X9971740Y-7413220D02*
G75*
G03*
X9971740Y-7413220I-50000J0D01*
G01*
X9971740Y-8937220D02*
G75*
G03*
X9971740Y-8937220I-50000J0D01*
G01*
X10220160Y-1758680D02*
G75*
G03*
X10220160Y-1758680I-50000J0D01*
G01*
X10220160Y-3282680D02*
G75*
G03*
X10220160Y-3282680I-50000J0D01*
G01*
X10220660Y-4583660D02*
G75*
G03*
X10220660Y-4583660I-50000J0D01*
G01*
X10220660Y-6107660D02*
G75*
G03*
X10220660Y-6107660I-50000J0D01*
G01*
X10225740Y-7413220D02*
G75*
G03*
X10225740Y-7413220I-50000J0D01*
G01*
X10225740Y-8937220D02*
G75*
G03*
X10225740Y-8937220I-50000J0D01*
G01*
X10474160Y-1758680D02*
G75*
G03*
X10474160Y-1758680I-50000J0D01*
G01*
X10474160Y-3282680D02*
G75*
G03*
X10474160Y-3282680I-50000J0D01*
G01*
X10474660Y-4583660D02*
G75*
G03*
X10474660Y-4583660I-50000J0D01*
G01*
X10474660Y-6107660D02*
G75*
G03*
X10474660Y-6107660I-50000J0D01*
G01*
X10479740Y-7413220D02*
G75*
G03*
X10479740Y-7413220I-50000J0D01*
G01*
X10479740Y-8937220D02*
G75*
G03*
X10479740Y-8937220I-50000J0D01*
G01*
X10728160Y-1758680D02*
G75*
G03*
X10728160Y-1758680I-50000J0D01*
G01*
X10728160Y-3282680D02*
G75*
G03*
X10728160Y-3282680I-50000J0D01*
G01*
X10728660Y-4583660D02*
G75*
G03*
X10728660Y-4583660I-50000J0D01*
G01*
X10728660Y-6107660D02*
G75*
G03*
X10728660Y-6107660I-50000J0D01*
G01*
X10733740Y-7413220D02*
G75*
G03*
X10733740Y-7413220I-50000J0D01*
G01*
X10733740Y-8937220D02*
G75*
G03*
X10733740Y-8937220I-50000J0D01*
G01*
X10982160Y-1758680D02*
G75*
G03*
X10982160Y-1758680I-50000J0D01*
G01*
X10982160Y-3282680D02*
G75*
G03*
X10982160Y-3282680I-50000J0D01*
G01*
X10982660Y-4583660D02*
G75*
G03*
X10982660Y-4583660I-50000J0D01*
G01*
X10982660Y-6107660D02*
G75*
G03*
X10982660Y-6107660I-50000J0D01*
G01*
X10987740Y-7413220D02*
G75*
G03*
X10987740Y-7413220I-50000J0D01*
G01*
X10987740Y-8937220D02*
G75*
G03*
X10987740Y-8937220I-50000J0D01*
G01*
X11236160Y-1758680D02*
G75*
G03*
X11236160Y-1758680I-50000J0D01*
G01*
X11236160Y-3282680D02*
G75*
G03*
X11236160Y-3282680I-50000J0D01*
G01*
X11236660Y-4583660D02*
G75*
G03*
X11236660Y-4583660I-50000J0D01*
G01*
X11236660Y-6107660D02*
G75*
G03*
X11236660Y-6107660I-50000J0D01*
G01*
X11241740Y-7413220D02*
G75*
G03*
X11241740Y-7413220I-50000J0D01*
G01*
X11241740Y-8937220D02*
G75*
G03*
X11241740Y-8937220I-50000J0D01*
G01*
X11490160Y-1758680D02*
G75*
G03*
X11490160Y-1758680I-50000J0D01*
G01*
X11490160Y-3282680D02*
G75*
G03*
X11490160Y-3282680I-50000J0D01*
G01*
X11490660Y-4583660D02*
G75*
G03*
X11490660Y-4583660I-50000J0D01*
G01*
X11490660Y-6107660D02*
G75*
G03*
X11490660Y-6107660I-50000J0D01*
G01*
X11495740Y-7413220D02*
G75*
G03*
X11495740Y-7413220I-50000J0D01*
G01*
X11495740Y-8937220D02*
G75*
G03*
X11495740Y-8937220I-50000J0D01*
G01*
X11744160Y-1758680D02*
G75*
G03*
X11744160Y-1758680I-50000J0D01*
G01*
X11744160Y-3282680D02*
G75*
G03*
X11744160Y-3282680I-50000J0D01*
G01*
X11744660Y-4583660D02*
G75*
G03*
X11744660Y-4583660I-50000J0D01*
G01*
X11744660Y-6107660D02*
G75*
G03*
X11744660Y-6107660I-50000J0D01*
G01*
X11749740Y-7413220D02*
G75*
G03*
X11749740Y-7413220I-50000J0D01*
G01*
X11749740Y-8937220D02*
G75*
G03*
X11749740Y-8937220I-50000J0D01*
G01*
X11998160Y-1758680D02*
G75*
G03*
X11998160Y-1758680I-50000J0D01*
G01*
X11998160Y-3282680D02*
G75*
G03*
X11998160Y-3282680I-50000J0D01*
G01*
X11998660Y-4583660D02*
G75*
G03*
X11998660Y-4583660I-50000J0D01*
G01*
X11998660Y-6107660D02*
G75*
G03*
X11998660Y-6107660I-50000J0D01*
G01*
X12003740Y-7413220D02*
G75*
G03*
X12003740Y-7413220I-50000J0D01*
G01*
X12003740Y-8937220D02*
G75*
G03*
X12003740Y-8937220I-50000J0D01*
G01*
X12211520Y-2270760D02*
G75*
G03*
X12211520Y-2270760I-50000J0D01*
G01*
X12211520Y-2524760D02*
G75*
G03*
X12211520Y-2524760I-50000J0D01*
G01*
X12211520Y-2778760D02*
G75*
G03*
X12211520Y-2778760I-50000J0D01*
G01*
X12212020Y-5095740D02*
G75*
G03*
X12212020Y-5095740I-50000J0D01*
G01*
X12212020Y-5349740D02*
G75*
G03*
X12212020Y-5349740I-50000J0D01*
G01*
X12212020Y-5603740D02*
G75*
G03*
X12212020Y-5603740I-50000J0D01*
G01*
X12217100Y-7925300D02*
G75*
G03*
X12217100Y-7925300I-50000J0D01*
G01*
X12217100Y-8179300D02*
G75*
G03*
X12217100Y-8179300I-50000J0D01*
G01*
X12217100Y-8433300D02*
G75*
G03*
X12217100Y-8433300I-50000J0D01*
G01*
X12252160Y-1758680D02*
G75*
G03*
X12252160Y-1758680I-50000J0D01*
G01*
X12252160Y-3282680D02*
G75*
G03*
X12252160Y-3282680I-50000J0D01*
G01*
X12252660Y-4583660D02*
G75*
G03*
X12252660Y-4583660I-50000J0D01*
G01*
X12252660Y-6107660D02*
G75*
G03*
X12252660Y-6107660I-50000J0D01*
G01*
X12257740Y-7413220D02*
G75*
G03*
X12257740Y-7413220I-50000J0D01*
G01*
X12257740Y-8937220D02*
G75*
G03*
X12257740Y-8937220I-50000J0D01*
G01*
X12506160Y-1758680D02*
G75*
G03*
X12506160Y-1758680I-50000J0D01*
G01*
X12506160Y-3282680D02*
G75*
G03*
X12506160Y-3282680I-50000J0D01*
G01*
X12506660Y-4583660D02*
G75*
G03*
X12506660Y-4583660I-50000J0D01*
G01*
X12506660Y-6107660D02*
G75*
G03*
X12506660Y-6107660I-50000J0D01*
G01*
X12511740Y-7413220D02*
G75*
G03*
X12511740Y-7413220I-50000J0D01*
G01*
X12511740Y-8937220D02*
G75*
G03*
X12511740Y-8937220I-50000J0D01*
G01*
X12760160Y-1758680D02*
G75*
G03*
X12760160Y-1758680I-50000J0D01*
G01*
X12760160Y-3282680D02*
G75*
G03*
X12760160Y-3282680I-50000J0D01*
G01*
X12760660Y-4583660D02*
G75*
G03*
X12760660Y-4583660I-50000J0D01*
G01*
X12760660Y-6107660D02*
G75*
G03*
X12760660Y-6107660I-50000J0D01*
G01*
X12765740Y-7413220D02*
G75*
G03*
X12765740Y-7413220I-50000J0D01*
G01*
X12765740Y-8937220D02*
G75*
G03*
X12765740Y-8937220I-50000J0D01*
G01*
X13014160Y-1758680D02*
G75*
G03*
X13014160Y-1758680I-50000J0D01*
G01*
X13014160Y-3282680D02*
G75*
G03*
X13014160Y-3282680I-50000J0D01*
G01*
X13014660Y-4583660D02*
G75*
G03*
X13014660Y-4583660I-50000J0D01*
G01*
X13014660Y-6107660D02*
G75*
G03*
X13014660Y-6107660I-50000J0D01*
G01*
X13019740Y-7413220D02*
G75*
G03*
X13019740Y-7413220I-50000J0D01*
G01*
X13019740Y-8937220D02*
G75*
G03*
X13019740Y-8937220I-50000J0D01*
G01*
X13659320Y-2016760D02*
G75*
G03*
X13659320Y-2016760I-50000J0D01*
G01*
X13659320Y-2270760D02*
G75*
G03*
X13659320Y-2270760I-50000J0D01*
G01*
X13659320Y-2524760D02*
G75*
G03*
X13659320Y-2524760I-50000J0D01*
G01*
X13659320Y-2778760D02*
G75*
G03*
X13659320Y-2778760I-50000J0D01*
G01*
X13659320Y-3032760D02*
G75*
G03*
X13659320Y-3032760I-50000J0D01*
G01*
X13659820Y-4841740D02*
G75*
G03*
X13659820Y-4841740I-50000J0D01*
G01*
X13659820Y-5095740D02*
G75*
G03*
X13659820Y-5095740I-50000J0D01*
G01*
X13659820Y-5349740D02*
G75*
G03*
X13659820Y-5349740I-50000J0D01*
G01*
X13659820Y-5603740D02*
G75*
G03*
X13659820Y-5603740I-50000J0D01*
G01*
X13659820Y-5857740D02*
G75*
G03*
X13659820Y-5857740I-50000J0D01*
G01*
X13664900Y-7671300D02*
G75*
G03*
X13664900Y-7671300I-50000J0D01*
G01*
X13664900Y-7925300D02*
G75*
G03*
X13664900Y-7925300I-50000J0D01*
G01*
X13664900Y-8179300D02*
G75*
G03*
X13664900Y-8179300I-50000J0D01*
G01*
X13664900Y-8433300D02*
G75*
G03*
X13664900Y-8433300I-50000J0D01*
G01*
X13664900Y-8687300D02*
G75*
G03*
X13664900Y-8687300I-50000J0D01*
G01*
X14070800Y-1774420D02*
G75*
G03*
X14070800Y-1774420I-50000J0D01*
G01*
X14070800Y-2028420D02*
G75*
G03*
X14070800Y-2028420I-50000J0D01*
G01*
X14070800Y-2282420D02*
G75*
G03*
X14070800Y-2282420I-50000J0D01*
G01*
X14071300Y-4599400D02*
G75*
G03*
X14071300Y-4599400I-50000J0D01*
G01*
X14071300Y-4853400D02*
G75*
G03*
X14071300Y-4853400I-50000J0D01*
G01*
X14071300Y-5107400D02*
G75*
G03*
X14071300Y-5107400I-50000J0D01*
G01*
X14073300Y-2736620D02*
G75*
G03*
X14073300Y-2736620I-50000J0D01*
G01*
X14073300Y-2990620D02*
G75*
G03*
X14073300Y-2990620I-50000J0D01*
G01*
X14073300Y-3244620D02*
G75*
G03*
X14073300Y-3244620I-50000J0D01*
G01*
X14073800Y-5561600D02*
G75*
G03*
X14073800Y-5561600I-50000J0D01*
G01*
X14073800Y-5815600D02*
G75*
G03*
X14073800Y-5815600I-50000J0D01*
G01*
X14073800Y-6069600D02*
G75*
G03*
X14073800Y-6069600I-50000J0D01*
G01*
X14076380Y-7428960D02*
G75*
G03*
X14076380Y-7428960I-50000J0D01*
G01*
X14076380Y-7682960D02*
G75*
G03*
X14076380Y-7682960I-50000J0D01*
G01*
X14076380Y-7936960D02*
G75*
G03*
X14076380Y-7936960I-50000J0D01*
G01*
X14078880Y-8391160D02*
G75*
G03*
X14078880Y-8391160I-50000J0D01*
G01*
X14078880Y-8645160D02*
G75*
G03*
X14078880Y-8645160I-50000J0D01*
G01*
X14078880Y-8899160D02*
G75*
G03*
X14078880Y-8899160I-50000J0D01*
G01*
X14822140Y-1756770D02*
G75*
G03*
X14822140Y-1756770I-50000J0D01*
G01*
X14822140Y-3280770D02*
G75*
G03*
X14822140Y-3280770I-50000J0D01*
G01*
X14822640Y-4581750D02*
G75*
G03*
X14822640Y-4581750I-50000J0D01*
G01*
X14822640Y-6105750D02*
G75*
G03*
X14822640Y-6105750I-50000J0D01*
G01*
X14827720Y-7411310D02*
G75*
G03*
X14827720Y-7411310I-50000J0D01*
G01*
X14827720Y-8935310D02*
G75*
G03*
X14827720Y-8935310I-50000J0D01*
G01*
X15076140Y-1756770D02*
G75*
G03*
X15076140Y-1756770I-50000J0D01*
G01*
X15076140Y-3280770D02*
G75*
G03*
X15076140Y-3280770I-50000J0D01*
G01*
X15076640Y-4581750D02*
G75*
G03*
X15076640Y-4581750I-50000J0D01*
G01*
X15076640Y-6105750D02*
G75*
G03*
X15076640Y-6105750I-50000J0D01*
G01*
X15081720Y-7411310D02*
G75*
G03*
X15081720Y-7411310I-50000J0D01*
G01*
X15081720Y-8935310D02*
G75*
G03*
X15081720Y-8935310I-50000J0D01*
G01*
X15330140Y-1756770D02*
G75*
G03*
X15330140Y-1756770I-50000J0D01*
G01*
X15330140Y-3280770D02*
G75*
G03*
X15330140Y-3280770I-50000J0D01*
G01*
X15330640Y-4581750D02*
G75*
G03*
X15330640Y-4581750I-50000J0D01*
G01*
X15330640Y-6105750D02*
G75*
G03*
X15330640Y-6105750I-50000J0D01*
G01*
X15335720Y-7411310D02*
G75*
G03*
X15335720Y-7411310I-50000J0D01*
G01*
X15335720Y-8935310D02*
G75*
G03*
X15335720Y-8935310I-50000J0D01*
G01*
X15584140Y-1756770D02*
G75*
G03*
X15584140Y-1756770I-50000J0D01*
G01*
X15584140Y-3280770D02*
G75*
G03*
X15584140Y-3280770I-50000J0D01*
G01*
X15584640Y-4581750D02*
G75*
G03*
X15584640Y-4581750I-50000J0D01*
G01*
X15584640Y-6105750D02*
G75*
G03*
X15584640Y-6105750I-50000J0D01*
G01*
X15589720Y-7411310D02*
G75*
G03*
X15589720Y-7411310I-50000J0D01*
G01*
X15589720Y-8935310D02*
G75*
G03*
X15589720Y-8935310I-50000J0D01*
G01*
X15838140Y-1756770D02*
G75*
G03*
X15838140Y-1756770I-50000J0D01*
G01*
X15838140Y-3280770D02*
G75*
G03*
X15838140Y-3280770I-50000J0D01*
G01*
X15838640Y-4581750D02*
G75*
G03*
X15838640Y-4581750I-50000J0D01*
G01*
X15838640Y-6105750D02*
G75*
G03*
X15838640Y-6105750I-50000J0D01*
G01*
X15843720Y-7411310D02*
G75*
G03*
X15843720Y-7411310I-50000J0D01*
G01*
X15843720Y-8935310D02*
G75*
G03*
X15843720Y-8935310I-50000J0D01*
G01*
X16092140Y-1756770D02*
G75*
G03*
X16092140Y-1756770I-50000J0D01*
G01*
X16092140Y-3280770D02*
G75*
G03*
X16092140Y-3280770I-50000J0D01*
G01*
X16092640Y-4581750D02*
G75*
G03*
X16092640Y-4581750I-50000J0D01*
G01*
X16092640Y-6105750D02*
G75*
G03*
X16092640Y-6105750I-50000J0D01*
G01*
X16097720Y-7411310D02*
G75*
G03*
X16097720Y-7411310I-50000J0D01*
G01*
X16097720Y-8935310D02*
G75*
G03*
X16097720Y-8935310I-50000J0D01*
G01*
X16346140Y-1756770D02*
G75*
G03*
X16346140Y-1756770I-50000J0D01*
G01*
X16346140Y-3280770D02*
G75*
G03*
X16346140Y-3280770I-50000J0D01*
G01*
X16346640Y-4581750D02*
G75*
G03*
X16346640Y-4581750I-50000J0D01*
G01*
X16346640Y-6105750D02*
G75*
G03*
X16346640Y-6105750I-50000J0D01*
G01*
X16351720Y-7411310D02*
G75*
G03*
X16351720Y-7411310I-50000J0D01*
G01*
X16351720Y-8935310D02*
G75*
G03*
X16351720Y-8935310I-50000J0D01*
G01*
X16600140Y-1756770D02*
G75*
G03*
X16600140Y-1756770I-50000J0D01*
G01*
X16600140Y-3280770D02*
G75*
G03*
X16600140Y-3280770I-50000J0D01*
G01*
X16600640Y-4581750D02*
G75*
G03*
X16600640Y-4581750I-50000J0D01*
G01*
X16600640Y-6105750D02*
G75*
G03*
X16600640Y-6105750I-50000J0D01*
G01*
X16605720Y-7411310D02*
G75*
G03*
X16605720Y-7411310I-50000J0D01*
G01*
X16605720Y-8935310D02*
G75*
G03*
X16605720Y-8935310I-50000J0D01*
G01*
X16854140Y-1756770D02*
G75*
G03*
X16854140Y-1756770I-50000J0D01*
G01*
X16854140Y-3280770D02*
G75*
G03*
X16854140Y-3280770I-50000J0D01*
G01*
X16854640Y-4581750D02*
G75*
G03*
X16854640Y-4581750I-50000J0D01*
G01*
X16854640Y-6105750D02*
G75*
G03*
X16854640Y-6105750I-50000J0D01*
G01*
X16859720Y-7411310D02*
G75*
G03*
X16859720Y-7411310I-50000J0D01*
G01*
X16859720Y-8935310D02*
G75*
G03*
X16859720Y-8935310I-50000J0D01*
G01*
X17108140Y-1756770D02*
G75*
G03*
X17108140Y-1756770I-50000J0D01*
G01*
X17108140Y-3280770D02*
G75*
G03*
X17108140Y-3280770I-50000J0D01*
G01*
X17108640Y-4581750D02*
G75*
G03*
X17108640Y-4581750I-50000J0D01*
G01*
X17108640Y-6105750D02*
G75*
G03*
X17108640Y-6105750I-50000J0D01*
G01*
X17113720Y-7411310D02*
G75*
G03*
X17113720Y-7411310I-50000J0D01*
G01*
X17113720Y-8935310D02*
G75*
G03*
X17113720Y-8935310I-50000J0D01*
G01*
X17362140Y-1756770D02*
G75*
G03*
X17362140Y-1756770I-50000J0D01*
G01*
X17362140Y-3280770D02*
G75*
G03*
X17362140Y-3280770I-50000J0D01*
G01*
X17362640Y-4581750D02*
G75*
G03*
X17362640Y-4581750I-50000J0D01*
G01*
X17362640Y-6105750D02*
G75*
G03*
X17362640Y-6105750I-50000J0D01*
G01*
X17367720Y-7411310D02*
G75*
G03*
X17367720Y-7411310I-50000J0D01*
G01*
X17367720Y-8935310D02*
G75*
G03*
X17367720Y-8935310I-50000J0D01*
G01*
X17575500Y-2268850D02*
G75*
G03*
X17575500Y-2268850I-50000J0D01*
G01*
X17575500Y-2522850D02*
G75*
G03*
X17575500Y-2522850I-50000J0D01*
G01*
X17575500Y-2776850D02*
G75*
G03*
X17575500Y-2776850I-50000J0D01*
G01*
X17576000Y-5093830D02*
G75*
G03*
X17576000Y-5093830I-50000J0D01*
G01*
X17576000Y-5347830D02*
G75*
G03*
X17576000Y-5347830I-50000J0D01*
G01*
X17576000Y-5601830D02*
G75*
G03*
X17576000Y-5601830I-50000J0D01*
G01*
X17581080Y-7923390D02*
G75*
G03*
X17581080Y-7923390I-50000J0D01*
G01*
X17581080Y-8177390D02*
G75*
G03*
X17581080Y-8177390I-50000J0D01*
G01*
X17581080Y-8431390D02*
G75*
G03*
X17581080Y-8431390I-50000J0D01*
G01*
X17616140Y-1756770D02*
G75*
G03*
X17616140Y-1756770I-50000J0D01*
G01*
X17616140Y-3280770D02*
G75*
G03*
X17616140Y-3280770I-50000J0D01*
G01*
X17616640Y-4581750D02*
G75*
G03*
X17616640Y-4581750I-50000J0D01*
G01*
X17616640Y-6105750D02*
G75*
G03*
X17616640Y-6105750I-50000J0D01*
G01*
X17621720Y-7411310D02*
G75*
G03*
X17621720Y-7411310I-50000J0D01*
G01*
X17621720Y-8935310D02*
G75*
G03*
X17621720Y-8935310I-50000J0D01*
G01*
X17870140Y-1756770D02*
G75*
G03*
X17870140Y-1756770I-50000J0D01*
G01*
X17870140Y-3280770D02*
G75*
G03*
X17870140Y-3280770I-50000J0D01*
G01*
X17870640Y-4581750D02*
G75*
G03*
X17870640Y-4581750I-50000J0D01*
G01*
X17870640Y-6105750D02*
G75*
G03*
X17870640Y-6105750I-50000J0D01*
G01*
X17875720Y-7411310D02*
G75*
G03*
X17875720Y-7411310I-50000J0D01*
G01*
X17875720Y-8935310D02*
G75*
G03*
X17875720Y-8935310I-50000J0D01*
G01*
X18124140Y-1756770D02*
G75*
G03*
X18124140Y-1756770I-50000J0D01*
G01*
X18124140Y-3280770D02*
G75*
G03*
X18124140Y-3280770I-50000J0D01*
G01*
X18124640Y-4581750D02*
G75*
G03*
X18124640Y-4581750I-50000J0D01*
G01*
X18124640Y-6105750D02*
G75*
G03*
X18124640Y-6105750I-50000J0D01*
G01*
X18129720Y-7411310D02*
G75*
G03*
X18129720Y-7411310I-50000J0D01*
G01*
X18129720Y-8935310D02*
G75*
G03*
X18129720Y-8935310I-50000J0D01*
G01*
X18378140Y-1756770D02*
G75*
G03*
X18378140Y-1756770I-50000J0D01*
G01*
X18378140Y-3280770D02*
G75*
G03*
X18378140Y-3280770I-50000J0D01*
G01*
X18378640Y-4581750D02*
G75*
G03*
X18378640Y-4581750I-50000J0D01*
G01*
X18378640Y-6105750D02*
G75*
G03*
X18378640Y-6105750I-50000J0D01*
G01*
X18383720Y-7411310D02*
G75*
G03*
X18383720Y-7411310I-50000J0D01*
G01*
X18383720Y-8935310D02*
G75*
G03*
X18383720Y-8935310I-50000J0D01*
G01*
X19023300Y-2014850D02*
G75*
G03*
X19023300Y-2014850I-50000J0D01*
G01*
X19023300Y-2268850D02*
G75*
G03*
X19023300Y-2268850I-50000J0D01*
G01*
X19023300Y-2522850D02*
G75*
G03*
X19023300Y-2522850I-50000J0D01*
G01*
X19023300Y-2776850D02*
G75*
G03*
X19023300Y-2776850I-50000J0D01*
G01*
X19023300Y-3030850D02*
G75*
G03*
X19023300Y-3030850I-50000J0D01*
G01*
X19023800Y-4839830D02*
G75*
G03*
X19023800Y-4839830I-50000J0D01*
G01*
X19023800Y-5093830D02*
G75*
G03*
X19023800Y-5093830I-50000J0D01*
G01*
X19023800Y-5347830D02*
G75*
G03*
X19023800Y-5347830I-50000J0D01*
G01*
X19023800Y-5601830D02*
G75*
G03*
X19023800Y-5601830I-50000J0D01*
G01*
X19023800Y-5855830D02*
G75*
G03*
X19023800Y-5855830I-50000J0D01*
G01*
X19028880Y-7669390D02*
G75*
G03*
X19028880Y-7669390I-50000J0D01*
G01*
X19028880Y-7923390D02*
G75*
G03*
X19028880Y-7923390I-50000J0D01*
G01*
X19028880Y-8177390D02*
G75*
G03*
X19028880Y-8177390I-50000J0D01*
G01*
X19028880Y-8431390D02*
G75*
G03*
X19028880Y-8431390I-50000J0D01*
G01*
X19028880Y-8685390D02*
G75*
G03*
X19028880Y-8685390I-50000J0D01*
G01*
X19434780Y-1772510D02*
G75*
G03*
X19434780Y-1772510I-50000J0D01*
G01*
X19434780Y-2026510D02*
G75*
G03*
X19434780Y-2026510I-50000J0D01*
G01*
X19434780Y-2280510D02*
G75*
G03*
X19434780Y-2280510I-50000J0D01*
G01*
X19435280Y-4597490D02*
G75*
G03*
X19435280Y-4597490I-50000J0D01*
G01*
X19435280Y-4851490D02*
G75*
G03*
X19435280Y-4851490I-50000J0D01*
G01*
X19435280Y-5105490D02*
G75*
G03*
X19435280Y-5105490I-50000J0D01*
G01*
X19437280Y-2734710D02*
G75*
G03*
X19437280Y-2734710I-50000J0D01*
G01*
X19437280Y-2988710D02*
G75*
G03*
X19437280Y-2988710I-50000J0D01*
G01*
X19437280Y-3242710D02*
G75*
G03*
X19437280Y-3242710I-50000J0D01*
G01*
X19437780Y-5559690D02*
G75*
G03*
X19437780Y-5559690I-50000J0D01*
G01*
X19437780Y-5813690D02*
G75*
G03*
X19437780Y-5813690I-50000J0D01*
G01*
X19437780Y-6067690D02*
G75*
G03*
X19437780Y-6067690I-50000J0D01*
G01*
X19440360Y-7427050D02*
G75*
G03*
X19440360Y-7427050I-50000J0D01*
G01*
X19440360Y-7681050D02*
G75*
G03*
X19440360Y-7681050I-50000J0D01*
G01*
X19440360Y-7935050D02*
G75*
G03*
X19440360Y-7935050I-50000J0D01*
G01*
X19442860Y-8389250D02*
G75*
G03*
X19442860Y-8389250I-50000J0D01*
G01*
X19442860Y-8643250D02*
G75*
G03*
X19442860Y-8643250I-50000J0D01*
G01*
X19442860Y-8897250D02*
G75*
G03*
X19442860Y-8897250I-50000J0D01*
G01*
D14*
X9271000Y-3764480D02*
X9271000Y-3916480D01*
X9195000Y-3840480D02*
X9347000Y-3840480D01*
X9271500Y-6589460D02*
X9271500Y-6741460D01*
X9195500Y-6665460D02*
X9347500Y-6665460D01*
X9276580Y-9419020D02*
X9276580Y-9571020D01*
X9200580Y-9495020D02*
X9352580Y-9495020D01*
X9779000Y-3764480D02*
X9779000Y-3916480D01*
X9703000Y-3840480D02*
X9855000Y-3840480D01*
X9779500Y-6589460D02*
X9779500Y-6741460D01*
X9703500Y-6665460D02*
X9855500Y-6665460D01*
X9784580Y-9419020D02*
X9784580Y-9571020D01*
X9708580Y-9495020D02*
X9860580Y-9495020D01*
X10287000Y-3764480D02*
X10287000Y-3916480D01*
X10211000Y-3840480D02*
X10363000Y-3840480D01*
X10287500Y-6589460D02*
X10287500Y-6741460D01*
X10211500Y-6665460D02*
X10363500Y-6665460D01*
X10292580Y-9419020D02*
X10292580Y-9571020D01*
X10216580Y-9495020D02*
X10368580Y-9495020D01*
X10795000Y-3764480D02*
X10795000Y-3916480D01*
X10719000Y-3840480D02*
X10871000Y-3840480D01*
X10795500Y-6589460D02*
X10795500Y-6741460D01*
X10719500Y-6665460D02*
X10871500Y-6665460D01*
X10800580Y-9419020D02*
X10800580Y-9571020D01*
X10724580Y-9495020D02*
X10876580Y-9495020D01*
X11348720Y-3764480D02*
X11348720Y-3916480D01*
X11272720Y-3840480D02*
X11424720Y-3840480D01*
X11349220Y-6589460D02*
X11349220Y-6741460D01*
X11273220Y-6665460D02*
X11425220Y-6665460D01*
X11354300Y-9419020D02*
X11354300Y-9571020D01*
X11278300Y-9495020D02*
X11430300Y-9495020D01*
X11856720Y-3764480D02*
X11856720Y-3916480D01*
X11780720Y-3840480D02*
X11932720Y-3840480D01*
X11857220Y-6589460D02*
X11857220Y-6741460D01*
X11781220Y-6665460D02*
X11933220Y-6665460D01*
X11862300Y-9419020D02*
X11862300Y-9571020D01*
X11786300Y-9495020D02*
X11938300Y-9495020D01*
X12364720Y-3764480D02*
X12364720Y-3916480D01*
X12288720Y-3840480D02*
X12440720Y-3840480D01*
X12365220Y-6589460D02*
X12365220Y-6741460D01*
X12289220Y-6665460D02*
X12441220Y-6665460D01*
X12370300Y-9419020D02*
X12370300Y-9571020D01*
X12294300Y-9495020D02*
X12446300Y-9495020D01*
X12872720Y-3764480D02*
X12872720Y-3916480D01*
X12796720Y-3840480D02*
X12948720Y-3840480D01*
X12873220Y-6589460D02*
X12873220Y-6741460D01*
X12797220Y-6665460D02*
X12949220Y-6665460D01*
X12878300Y-9419020D02*
X12878300Y-9571020D01*
X12802300Y-9495020D02*
X12954300Y-9495020D01*
X13426440Y-3764480D02*
X13426440Y-3916480D01*
X13350440Y-3840480D02*
X13502440Y-3840480D01*
X13426940Y-6589460D02*
X13426940Y-6741460D01*
X13350940Y-6665460D02*
X13502940Y-6665460D01*
X13432020Y-9419020D02*
X13432020Y-9571020D01*
X13356020Y-9495020D02*
X13508020Y-9495020D01*
X13934440Y-3764480D02*
X13934440Y-3916480D01*
X13858440Y-3840480D02*
X14010440Y-3840480D01*
X13934940Y-6589460D02*
X13934940Y-6741460D01*
X13858940Y-6665460D02*
X14010940Y-6665460D01*
X13940020Y-9419020D02*
X13940020Y-9571020D01*
X13864020Y-9495020D02*
X14016020Y-9495020D01*
X14634980Y-3762570D02*
X14634980Y-3914570D01*
X14558980Y-3838570D02*
X14710980Y-3838570D01*
X14635480Y-6587550D02*
X14635480Y-6739550D01*
X14559480Y-6663550D02*
X14711480Y-6663550D01*
X14640560Y-9417110D02*
X14640560Y-9569110D01*
X14564560Y-9493110D02*
X14716560Y-9493110D01*
X15142980Y-3762570D02*
X15142980Y-3914570D01*
X15066980Y-3838570D02*
X15218980Y-3838570D01*
X15143480Y-6587550D02*
X15143480Y-6739550D01*
X15067480Y-6663550D02*
X15219480Y-6663550D01*
X15148560Y-9417110D02*
X15148560Y-9569110D01*
X15072560Y-9493110D02*
X15224560Y-9493110D01*
X15650980Y-3762570D02*
X15650980Y-3914570D01*
X15574980Y-3838570D02*
X15726980Y-3838570D01*
X15651480Y-6587550D02*
X15651480Y-6739550D01*
X15575480Y-6663550D02*
X15727480Y-6663550D01*
X15656560Y-9417110D02*
X15656560Y-9569110D01*
X15580560Y-9493110D02*
X15732560Y-9493110D01*
X16158980Y-3762570D02*
X16158980Y-3914570D01*
X16082980Y-3838570D02*
X16234980Y-3838570D01*
X16159480Y-6587550D02*
X16159480Y-6739550D01*
X16083480Y-6663550D02*
X16235480Y-6663550D01*
X16164560Y-9417110D02*
X16164560Y-9569110D01*
X16088560Y-9493110D02*
X16240560Y-9493110D01*
X16712700Y-3762570D02*
X16712700Y-3914570D01*
X16636700Y-3838570D02*
X16788700Y-3838570D01*
X16713200Y-6587550D02*
X16713200Y-6739550D01*
X16637200Y-6663550D02*
X16789200Y-6663550D01*
X16718280Y-9417110D02*
X16718280Y-9569110D01*
X16642280Y-9493110D02*
X16794280Y-9493110D01*
X17220700Y-3762570D02*
X17220700Y-3914570D01*
X17144700Y-3838570D02*
X17296700Y-3838570D01*
X17221200Y-6587550D02*
X17221200Y-6739550D01*
X17145200Y-6663550D02*
X17297200Y-6663550D01*
X17226280Y-9417110D02*
X17226280Y-9569110D01*
X17150280Y-9493110D02*
X17302280Y-9493110D01*
X17728700Y-3762570D02*
X17728700Y-3914570D01*
X17652700Y-3838570D02*
X17804700Y-3838570D01*
X17729200Y-6587550D02*
X17729200Y-6739550D01*
X17653200Y-6663550D02*
X17805200Y-6663550D01*
X17734280Y-9417110D02*
X17734280Y-9569110D01*
X17658280Y-9493110D02*
X17810280Y-9493110D01*
X18236700Y-3762570D02*
X18236700Y-3914570D01*
X18160700Y-3838570D02*
X18312700Y-3838570D01*
X18237200Y-6587550D02*
X18237200Y-6739550D01*
X18161200Y-6663550D02*
X18313200Y-6663550D01*
X18242280Y-9417110D02*
X18242280Y-9569110D01*
X18166280Y-9493110D02*
X18318280Y-9493110D01*
X18790420Y-3762570D02*
X18790420Y-3914570D01*
X18714420Y-3838570D02*
X18866420Y-3838570D01*
X18790920Y-6587550D02*
X18790920Y-6739550D01*
X18714920Y-6663550D02*
X18866920Y-6663550D01*
X18796000Y-9417110D02*
X18796000Y-9569110D01*
X18720000Y-9493110D02*
X18872000Y-9493110D01*
X19298420Y-3762570D02*
X19298420Y-3914570D01*
X19222420Y-3838570D02*
X19374420Y-3838570D01*
X19298920Y-6587550D02*
X19298920Y-6739550D01*
X19222920Y-6663550D02*
X19374920Y-6663550D01*
X19304000Y-9417110D02*
X19304000Y-9569110D01*
X19228000Y-9493110D02*
X19380000Y-9493110D01*
D11*
X9249299Y-10221976D02*
X9249299Y-10021976D01*
X9296918Y-10021976D01*
X9325490Y-10031500D01*
X9344537Y-10050548D01*
X9354061Y-10069595D01*
X9363585Y-10107690D01*
X9363585Y-10136262D01*
X9354061Y-10174357D01*
X9344537Y-10193405D01*
X9325490Y-10212452D01*
X9296918Y-10221976D01*
X9249299Y-10221976D01*
X9449299Y-10221976D02*
X9449299Y-10088643D01*
X9449299Y-10126738D02*
X9458823Y-10107690D01*
X9468347Y-10098167D01*
X9487394Y-10088643D01*
X9506442Y-10088643D01*
X9573109Y-10221976D02*
X9573109Y-10088643D01*
X9573109Y-10021976D02*
X9563585Y-10031500D01*
X9573109Y-10041024D01*
X9582632Y-10031500D01*
X9573109Y-10021976D01*
X9573109Y-10041024D01*
X9696918Y-10221976D02*
X9677870Y-10212452D01*
X9668347Y-10193405D01*
X9668347Y-10021976D01*
X9801680Y-10221976D02*
X9782632Y-10212452D01*
X9773109Y-10193405D01*
X9773109Y-10021976D01*
X10030251Y-10221976D02*
X10030251Y-10021976D01*
X10096918Y-10164833D01*
X10163585Y-10021976D01*
X10163585Y-10221976D01*
X10344537Y-10221976D02*
X10344537Y-10117214D01*
X10335013Y-10098167D01*
X10315966Y-10088643D01*
X10277870Y-10088643D01*
X10258823Y-10098167D01*
X10344537Y-10212452D02*
X10325490Y-10221976D01*
X10277870Y-10221976D01*
X10258823Y-10212452D01*
X10249299Y-10193405D01*
X10249299Y-10174357D01*
X10258823Y-10155310D01*
X10277870Y-10145786D01*
X10325490Y-10145786D01*
X10344537Y-10136262D01*
X10439775Y-10088643D02*
X10439775Y-10288643D01*
X10439775Y-10098167D02*
X10458823Y-10088643D01*
X10496918Y-10088643D01*
X10515966Y-10098167D01*
X10525490Y-10107690D01*
X10535013Y-10126738D01*
X10535013Y-10183881D01*
X10525490Y-10202929D01*
X10515966Y-10212452D01*
X10496918Y-10221976D01*
X10458823Y-10221976D01*
X10439775Y-10212452D01*
X10620728Y-10202929D02*
X10630251Y-10212452D01*
X10620728Y-10221976D01*
X10611204Y-10212452D01*
X10620728Y-10202929D01*
X10620728Y-10221976D01*
X10620728Y-10098167D02*
X10630251Y-10107690D01*
X10620728Y-10117214D01*
X10611204Y-10107690D01*
X10620728Y-10098167D01*
X10620728Y-10117214D01*
D12*
X8951680Y-10531500D02*
X8991680Y-10571500D01*
X8991680Y-10531500D02*
X8951680Y-10571500D01*
D11*
X9287394Y-10441976D02*
X9306442Y-10441976D01*
X9325490Y-10451500D01*
X9335013Y-10461024D01*
X9344537Y-10480071D01*
X9354061Y-10518167D01*
X9354061Y-10565786D01*
X9344537Y-10603881D01*
X9335013Y-10622929D01*
X9325490Y-10632452D01*
X9306442Y-10641976D01*
X9287394Y-10641976D01*
X9268347Y-10632452D01*
X9258823Y-10622929D01*
X9249299Y-10603881D01*
X9239775Y-10565786D01*
X9239775Y-10518167D01*
X9249299Y-10480071D01*
X9258823Y-10461024D01*
X9268347Y-10451500D01*
X9287394Y-10441976D01*
X9439775Y-10622929D02*
X9449299Y-10632452D01*
X9439775Y-10641976D01*
X9430251Y-10632452D01*
X9439775Y-10622929D01*
X9439775Y-10641976D01*
X9620728Y-10508643D02*
X9620728Y-10641976D01*
X9573109Y-10432452D02*
X9525490Y-10575310D01*
X9649299Y-10575310D01*
X9763585Y-10441976D02*
X9782632Y-10441976D01*
X9801680Y-10451500D01*
X9811204Y-10461024D01*
X9820728Y-10480071D01*
X9830251Y-10518167D01*
X9830251Y-10565786D01*
X9820728Y-10603881D01*
X9811204Y-10622929D01*
X9801680Y-10632452D01*
X9782632Y-10641976D01*
X9763585Y-10641976D01*
X9744537Y-10632452D01*
X9735013Y-10622929D01*
X9725490Y-10603881D01*
X9715966Y-10565786D01*
X9715966Y-10518167D01*
X9725490Y-10480071D01*
X9735013Y-10461024D01*
X9744537Y-10451500D01*
X9763585Y-10441976D01*
X9954061Y-10441976D02*
X9973109Y-10441976D01*
X9992156Y-10451500D01*
X10001680Y-10461024D01*
X10011204Y-10480071D01*
X10020728Y-10518167D01*
X10020728Y-10565786D01*
X10011204Y-10603881D01*
X10001680Y-10622929D01*
X9992156Y-10632452D01*
X9973109Y-10641976D01*
X9954061Y-10641976D01*
X9935013Y-10632452D01*
X9925490Y-10622929D01*
X9915966Y-10603881D01*
X9906442Y-10565786D01*
X9906442Y-10518167D01*
X9915966Y-10480071D01*
X9925490Y-10461024D01*
X9935013Y-10451500D01*
X9954061Y-10441976D01*
X10106442Y-10641976D02*
X10106442Y-10508643D01*
X10106442Y-10527690D02*
X10115966Y-10518167D01*
X10135013Y-10508643D01*
X10163585Y-10508643D01*
X10182632Y-10518167D01*
X10192156Y-10537214D01*
X10192156Y-10641976D01*
X10192156Y-10537214D02*
X10201680Y-10518167D01*
X10220728Y-10508643D01*
X10249299Y-10508643D01*
X10268347Y-10518167D01*
X10277870Y-10537214D01*
X10277870Y-10641976D01*
X10373109Y-10641976D02*
X10373109Y-10508643D01*
X10373109Y-10527690D02*
X10382632Y-10518167D01*
X10401680Y-10508643D01*
X10430251Y-10508643D01*
X10449299Y-10518167D01*
X10458823Y-10537214D01*
X10458823Y-10641976D01*
X10458823Y-10537214D02*
X10468347Y-10518167D01*
X10487394Y-10508643D01*
X10515966Y-10508643D01*
X10535013Y-10518167D01*
X10544537Y-10537214D01*
X10544537Y-10641976D01*
X10935013Y-10432452D02*
X10763585Y-10689595D01*
X11192156Y-10441976D02*
X11211204Y-10441976D01*
X11230251Y-10451500D01*
X11239775Y-10461024D01*
X11249299Y-10480071D01*
X11258823Y-10518167D01*
X11258823Y-10565786D01*
X11249299Y-10603881D01*
X11239775Y-10622929D01*
X11230251Y-10632452D01*
X11211204Y-10641976D01*
X11192156Y-10641976D01*
X11173109Y-10632452D01*
X11163585Y-10622929D01*
X11154061Y-10603881D01*
X11144537Y-10565786D01*
X11144537Y-10518167D01*
X11154061Y-10480071D01*
X11163585Y-10461024D01*
X11173109Y-10451500D01*
X11192156Y-10441976D01*
X11344537Y-10622929D02*
X11354061Y-10632452D01*
X11344537Y-10641976D01*
X11335013Y-10632452D01*
X11344537Y-10622929D01*
X11344537Y-10641976D01*
X11477870Y-10441976D02*
X11496918Y-10441976D01*
X11515966Y-10451500D01*
X11525489Y-10461024D01*
X11535013Y-10480071D01*
X11544537Y-10518167D01*
X11544537Y-10565786D01*
X11535013Y-10603881D01*
X11525489Y-10622929D01*
X11515966Y-10632452D01*
X11496918Y-10641976D01*
X11477870Y-10641976D01*
X11458823Y-10632452D01*
X11449299Y-10622929D01*
X11439775Y-10603881D01*
X11430251Y-10565786D01*
X11430251Y-10518167D01*
X11439775Y-10480071D01*
X11449299Y-10461024D01*
X11458823Y-10451500D01*
X11477870Y-10441976D01*
X11735013Y-10641976D02*
X11620728Y-10641976D01*
X11677870Y-10641976D02*
X11677870Y-10441976D01*
X11658823Y-10470548D01*
X11639775Y-10489595D01*
X11620728Y-10499119D01*
X11915966Y-10441976D02*
X11820728Y-10441976D01*
X11811204Y-10537214D01*
X11820728Y-10527690D01*
X11839775Y-10518167D01*
X11887394Y-10518167D01*
X11906442Y-10527690D01*
X11915966Y-10537214D01*
X11925489Y-10556262D01*
X11925489Y-10603881D01*
X11915966Y-10622929D01*
X11906442Y-10632452D01*
X11887394Y-10641976D01*
X11839775Y-10641976D01*
X11820728Y-10632452D01*
X11811204Y-10622929D01*
X11992156Y-10441976D02*
X12125489Y-10441976D01*
X12039775Y-10641976D01*
X12192156Y-10441976D02*
X12192156Y-10480071D01*
X12268347Y-10441976D02*
X12268347Y-10480071D01*
X12563585Y-10718167D02*
X12554061Y-10708643D01*
X12535013Y-10680071D01*
X12525489Y-10661024D01*
X12515966Y-10632452D01*
X12506442Y-10584833D01*
X12506442Y-10546738D01*
X12515966Y-10499119D01*
X12525489Y-10470548D01*
X12535013Y-10451500D01*
X12554061Y-10422929D01*
X12563585Y-10413405D01*
X12744537Y-10641976D02*
X12630251Y-10641976D01*
X12687394Y-10641976D02*
X12687394Y-10441976D01*
X12668347Y-10470548D01*
X12649299Y-10489595D01*
X12630251Y-10499119D01*
X12820728Y-10461024D02*
X12830251Y-10451500D01*
X12849299Y-10441976D01*
X12896918Y-10441976D01*
X12915966Y-10451500D01*
X12925489Y-10461024D01*
X12935013Y-10480071D01*
X12935013Y-10499119D01*
X12925489Y-10527690D01*
X12811204Y-10641976D01*
X12935013Y-10641976D01*
X13058823Y-10441976D02*
X13077870Y-10441976D01*
X13096918Y-10451500D01*
X13106442Y-10461024D01*
X13115966Y-10480071D01*
X13125489Y-10518167D01*
X13125489Y-10565786D01*
X13115966Y-10603881D01*
X13106442Y-10622929D01*
X13096918Y-10632452D01*
X13077870Y-10641976D01*
X13058823Y-10641976D01*
X13039775Y-10632452D01*
X13030251Y-10622929D01*
X13020728Y-10603881D01*
X13011204Y-10565786D01*
X13011204Y-10518167D01*
X13020728Y-10480071D01*
X13030251Y-10461024D01*
X13039775Y-10451500D01*
X13058823Y-10441976D01*
X13363585Y-10641976D02*
X13363585Y-10441976D01*
X13449299Y-10641976D02*
X13449299Y-10537214D01*
X13439775Y-10518167D01*
X13420728Y-10508643D01*
X13392156Y-10508643D01*
X13373108Y-10518167D01*
X13363585Y-10527690D01*
X13573108Y-10641976D02*
X13554061Y-10632452D01*
X13544537Y-10622929D01*
X13535013Y-10603881D01*
X13535013Y-10546738D01*
X13544537Y-10527690D01*
X13554061Y-10518167D01*
X13573108Y-10508643D01*
X13601680Y-10508643D01*
X13620728Y-10518167D01*
X13630251Y-10527690D01*
X13639775Y-10546738D01*
X13639775Y-10603881D01*
X13630251Y-10622929D01*
X13620728Y-10632452D01*
X13601680Y-10641976D01*
X13573108Y-10641976D01*
X13754061Y-10641976D02*
X13735013Y-10632452D01*
X13725489Y-10613405D01*
X13725489Y-10441976D01*
X13906442Y-10632452D02*
X13887394Y-10641976D01*
X13849299Y-10641976D01*
X13830251Y-10632452D01*
X13820728Y-10613405D01*
X13820728Y-10537214D01*
X13830251Y-10518167D01*
X13849299Y-10508643D01*
X13887394Y-10508643D01*
X13906442Y-10518167D01*
X13915966Y-10537214D01*
X13915966Y-10556262D01*
X13820728Y-10575310D01*
X13992156Y-10632452D02*
X14011204Y-10641976D01*
X14049299Y-10641976D01*
X14068347Y-10632452D01*
X14077870Y-10613405D01*
X14077870Y-10603881D01*
X14068347Y-10584833D01*
X14049299Y-10575310D01*
X14020728Y-10575310D01*
X14001680Y-10565786D01*
X13992156Y-10546738D01*
X13992156Y-10537214D01*
X14001680Y-10518167D01*
X14020728Y-10508643D01*
X14049299Y-10508643D01*
X14068347Y-10518167D01*
X14144537Y-10718167D02*
X14154061Y-10708643D01*
X14173108Y-10680071D01*
X14182632Y-10661024D01*
X14192156Y-10632452D01*
X14201680Y-10584833D01*
X14201680Y-10546738D01*
X14192156Y-10499119D01*
X14182632Y-10470548D01*
X14173108Y-10451500D01*
X14154061Y-10422929D01*
X14144537Y-10413405D01*
D13*
X8991680Y-10815500D02*
G75*
G03*
X8991680Y-10815500I-50000J0D01*
G01*
D11*
X9354061Y-10905976D02*
X9239775Y-10905976D01*
X9296918Y-10905976D02*
X9296918Y-10705976D01*
X9277870Y-10734548D01*
X9258823Y-10753595D01*
X9239775Y-10763119D01*
X9439775Y-10886929D02*
X9449299Y-10896452D01*
X9439775Y-10905976D01*
X9430251Y-10896452D01*
X9439775Y-10886929D01*
X9439775Y-10905976D01*
X9573109Y-10705976D02*
X9592156Y-10705976D01*
X9611204Y-10715500D01*
X9620728Y-10725024D01*
X9630251Y-10744071D01*
X9639775Y-10782167D01*
X9639775Y-10829786D01*
X9630251Y-10867881D01*
X9620728Y-10886929D01*
X9611204Y-10896452D01*
X9592156Y-10905976D01*
X9573109Y-10905976D01*
X9554061Y-10896452D01*
X9544537Y-10886929D01*
X9535013Y-10867881D01*
X9525490Y-10829786D01*
X9525490Y-10782167D01*
X9535013Y-10744071D01*
X9544537Y-10725024D01*
X9554061Y-10715500D01*
X9573109Y-10705976D01*
X9763585Y-10705976D02*
X9782632Y-10705976D01*
X9801680Y-10715500D01*
X9811204Y-10725024D01*
X9820728Y-10744071D01*
X9830251Y-10782167D01*
X9830251Y-10829786D01*
X9820728Y-10867881D01*
X9811204Y-10886929D01*
X9801680Y-10896452D01*
X9782632Y-10905976D01*
X9763585Y-10905976D01*
X9744537Y-10896452D01*
X9735013Y-10886929D01*
X9725490Y-10867881D01*
X9715966Y-10829786D01*
X9715966Y-10782167D01*
X9725490Y-10744071D01*
X9735013Y-10725024D01*
X9744537Y-10715500D01*
X9763585Y-10705976D01*
X9954061Y-10705976D02*
X9973109Y-10705976D01*
X9992156Y-10715500D01*
X10001680Y-10725024D01*
X10011204Y-10744071D01*
X10020728Y-10782167D01*
X10020728Y-10829786D01*
X10011204Y-10867881D01*
X10001680Y-10886929D01*
X9992156Y-10896452D01*
X9973109Y-10905976D01*
X9954061Y-10905976D01*
X9935013Y-10896452D01*
X9925490Y-10886929D01*
X9915966Y-10867881D01*
X9906442Y-10829786D01*
X9906442Y-10782167D01*
X9915966Y-10744071D01*
X9925490Y-10725024D01*
X9935013Y-10715500D01*
X9954061Y-10705976D01*
X10106442Y-10905976D02*
X10106442Y-10772643D01*
X10106442Y-10791690D02*
X10115966Y-10782167D01*
X10135013Y-10772643D01*
X10163585Y-10772643D01*
X10182632Y-10782167D01*
X10192156Y-10801214D01*
X10192156Y-10905976D01*
X10192156Y-10801214D02*
X10201680Y-10782167D01*
X10220728Y-10772643D01*
X10249299Y-10772643D01*
X10268347Y-10782167D01*
X10277870Y-10801214D01*
X10277870Y-10905976D01*
X10373109Y-10905976D02*
X10373109Y-10772643D01*
X10373109Y-10791690D02*
X10382632Y-10782167D01*
X10401680Y-10772643D01*
X10430251Y-10772643D01*
X10449299Y-10782167D01*
X10458823Y-10801214D01*
X10458823Y-10905976D01*
X10458823Y-10801214D02*
X10468347Y-10782167D01*
X10487394Y-10772643D01*
X10515966Y-10772643D01*
X10535013Y-10782167D01*
X10544537Y-10801214D01*
X10544537Y-10905976D01*
X10935013Y-10696452D02*
X10763585Y-10953595D01*
X11192156Y-10705976D02*
X11211204Y-10705976D01*
X11230251Y-10715500D01*
X11239775Y-10725024D01*
X11249299Y-10744071D01*
X11258823Y-10782167D01*
X11258823Y-10829786D01*
X11249299Y-10867881D01*
X11239775Y-10886929D01*
X11230251Y-10896452D01*
X11211204Y-10905976D01*
X11192156Y-10905976D01*
X11173109Y-10896452D01*
X11163585Y-10886929D01*
X11154061Y-10867881D01*
X11144537Y-10829786D01*
X11144537Y-10782167D01*
X11154061Y-10744071D01*
X11163585Y-10725024D01*
X11173109Y-10715500D01*
X11192156Y-10705976D01*
X11344537Y-10886929D02*
X11354061Y-10896452D01*
X11344537Y-10905976D01*
X11335013Y-10896452D01*
X11344537Y-10886929D01*
X11344537Y-10905976D01*
X11477870Y-10705976D02*
X11496918Y-10705976D01*
X11515966Y-10715500D01*
X11525489Y-10725024D01*
X11535013Y-10744071D01*
X11544537Y-10782167D01*
X11544537Y-10829786D01*
X11535013Y-10867881D01*
X11525489Y-10886929D01*
X11515966Y-10896452D01*
X11496918Y-10905976D01*
X11477870Y-10905976D01*
X11458823Y-10896452D01*
X11449299Y-10886929D01*
X11439775Y-10867881D01*
X11430251Y-10829786D01*
X11430251Y-10782167D01*
X11439775Y-10744071D01*
X11449299Y-10725024D01*
X11458823Y-10715500D01*
X11477870Y-10705976D01*
X11611204Y-10705976D02*
X11735013Y-10705976D01*
X11668347Y-10782167D01*
X11696918Y-10782167D01*
X11715966Y-10791690D01*
X11725489Y-10801214D01*
X11735013Y-10820262D01*
X11735013Y-10867881D01*
X11725489Y-10886929D01*
X11715966Y-10896452D01*
X11696918Y-10905976D01*
X11639775Y-10905976D01*
X11620728Y-10896452D01*
X11611204Y-10886929D01*
X11830251Y-10905976D02*
X11868347Y-10905976D01*
X11887394Y-10896452D01*
X11896918Y-10886929D01*
X11915966Y-10858357D01*
X11925489Y-10820262D01*
X11925489Y-10744071D01*
X11915966Y-10725024D01*
X11906442Y-10715500D01*
X11887394Y-10705976D01*
X11849299Y-10705976D01*
X11830251Y-10715500D01*
X11820728Y-10725024D01*
X11811204Y-10744071D01*
X11811204Y-10791690D01*
X11820728Y-10810738D01*
X11830251Y-10820262D01*
X11849299Y-10829786D01*
X11887394Y-10829786D01*
X11906442Y-10820262D01*
X11915966Y-10810738D01*
X11925489Y-10791690D01*
X12096918Y-10772643D02*
X12096918Y-10905976D01*
X12049299Y-10696452D02*
X12001680Y-10839310D01*
X12125489Y-10839310D01*
X12192156Y-10705976D02*
X12192156Y-10744071D01*
X12268347Y-10705976D02*
X12268347Y-10744071D01*
X12563585Y-10982167D02*
X12554061Y-10972643D01*
X12535013Y-10944071D01*
X12525489Y-10925024D01*
X12515966Y-10896452D01*
X12506442Y-10848833D01*
X12506442Y-10810738D01*
X12515966Y-10763119D01*
X12525489Y-10734548D01*
X12535013Y-10715500D01*
X12554061Y-10686929D01*
X12563585Y-10677405D01*
X12630251Y-10725024D02*
X12639775Y-10715500D01*
X12658823Y-10705976D01*
X12706442Y-10705976D01*
X12725489Y-10715500D01*
X12735013Y-10725024D01*
X12744537Y-10744071D01*
X12744537Y-10763119D01*
X12735013Y-10791690D01*
X12620728Y-10905976D01*
X12744537Y-10905976D01*
X12915966Y-10705976D02*
X12877870Y-10705976D01*
X12858823Y-10715500D01*
X12849299Y-10725024D01*
X12830251Y-10753595D01*
X12820728Y-10791690D01*
X12820728Y-10867881D01*
X12830251Y-10886929D01*
X12839775Y-10896452D01*
X12858823Y-10905976D01*
X12896918Y-10905976D01*
X12915966Y-10896452D01*
X12925489Y-10886929D01*
X12935013Y-10867881D01*
X12935013Y-10820262D01*
X12925489Y-10801214D01*
X12915966Y-10791690D01*
X12896918Y-10782167D01*
X12858823Y-10782167D01*
X12839775Y-10791690D01*
X12830251Y-10801214D01*
X12820728Y-10820262D01*
X13106442Y-10772643D02*
X13106442Y-10905976D01*
X13058823Y-10696452D02*
X13011204Y-10839310D01*
X13135013Y-10839310D01*
X13363585Y-10905976D02*
X13363585Y-10705976D01*
X13449299Y-10905976D02*
X13449299Y-10801214D01*
X13439775Y-10782167D01*
X13420728Y-10772643D01*
X13392156Y-10772643D01*
X13373108Y-10782167D01*
X13363585Y-10791690D01*
X13573108Y-10905976D02*
X13554061Y-10896452D01*
X13544537Y-10886929D01*
X13535013Y-10867881D01*
X13535013Y-10810738D01*
X13544537Y-10791690D01*
X13554061Y-10782167D01*
X13573108Y-10772643D01*
X13601680Y-10772643D01*
X13620728Y-10782167D01*
X13630251Y-10791690D01*
X13639775Y-10810738D01*
X13639775Y-10867881D01*
X13630251Y-10886929D01*
X13620728Y-10896452D01*
X13601680Y-10905976D01*
X13573108Y-10905976D01*
X13754061Y-10905976D02*
X13735013Y-10896452D01*
X13725489Y-10877405D01*
X13725489Y-10705976D01*
X13906442Y-10896452D02*
X13887394Y-10905976D01*
X13849299Y-10905976D01*
X13830251Y-10896452D01*
X13820728Y-10877405D01*
X13820728Y-10801214D01*
X13830251Y-10782167D01*
X13849299Y-10772643D01*
X13887394Y-10772643D01*
X13906442Y-10782167D01*
X13915966Y-10801214D01*
X13915966Y-10820262D01*
X13820728Y-10839310D01*
X13992156Y-10896452D02*
X14011204Y-10905976D01*
X14049299Y-10905976D01*
X14068347Y-10896452D01*
X14077870Y-10877405D01*
X14077870Y-10867881D01*
X14068347Y-10848833D01*
X14049299Y-10839310D01*
X14020728Y-10839310D01*
X14001680Y-10829786D01*
X13992156Y-10810738D01*
X13992156Y-10801214D01*
X14001680Y-10782167D01*
X14020728Y-10772643D01*
X14049299Y-10772643D01*
X14068347Y-10782167D01*
X14144537Y-10982167D02*
X14154061Y-10972643D01*
X14173108Y-10944071D01*
X14182632Y-10925024D01*
X14192156Y-10896452D01*
X14201680Y-10848833D01*
X14201680Y-10810738D01*
X14192156Y-10763119D01*
X14182632Y-10734548D01*
X14173108Y-10715500D01*
X14154061Y-10686929D01*
X14144537Y-10677405D01*
D14*
X8915680Y-11003500D02*
X8915680Y-11155500D01*
X8839680Y-11079500D02*
X8991680Y-11079500D01*
D11*
X9354061Y-11169976D02*
X9239775Y-11169976D01*
X9296918Y-11169976D02*
X9296918Y-10969976D01*
X9277870Y-10998548D01*
X9258823Y-11017595D01*
X9239775Y-11027119D01*
X9439775Y-11150929D02*
X9449299Y-11160452D01*
X9439775Y-11169976D01*
X9430251Y-11160452D01*
X9439775Y-11150929D01*
X9439775Y-11169976D01*
X9630251Y-10969976D02*
X9535013Y-10969976D01*
X9525490Y-11065214D01*
X9535013Y-11055690D01*
X9554061Y-11046167D01*
X9601680Y-11046167D01*
X9620728Y-11055690D01*
X9630251Y-11065214D01*
X9639775Y-11084262D01*
X9639775Y-11131881D01*
X9630251Y-11150929D01*
X9620728Y-11160452D01*
X9601680Y-11169976D01*
X9554061Y-11169976D01*
X9535013Y-11160452D01*
X9525490Y-11150929D01*
X9715966Y-10989024D02*
X9725490Y-10979500D01*
X9744537Y-10969976D01*
X9792156Y-10969976D01*
X9811204Y-10979500D01*
X9820728Y-10989024D01*
X9830251Y-11008071D01*
X9830251Y-11027119D01*
X9820728Y-11055690D01*
X9706442Y-11169976D01*
X9830251Y-11169976D01*
X9954061Y-10969976D02*
X9973109Y-10969976D01*
X9992156Y-10979500D01*
X10001680Y-10989024D01*
X10011204Y-11008071D01*
X10020728Y-11046167D01*
X10020728Y-11093786D01*
X10011204Y-11131881D01*
X10001680Y-11150929D01*
X9992156Y-11160452D01*
X9973109Y-11169976D01*
X9954061Y-11169976D01*
X9935013Y-11160452D01*
X9925490Y-11150929D01*
X9915966Y-11131881D01*
X9906442Y-11093786D01*
X9906442Y-11046167D01*
X9915966Y-11008071D01*
X9925490Y-10989024D01*
X9935013Y-10979500D01*
X9954061Y-10969976D01*
X10106442Y-11169976D02*
X10106442Y-11036643D01*
X10106442Y-11055690D02*
X10115966Y-11046167D01*
X10135013Y-11036643D01*
X10163585Y-11036643D01*
X10182632Y-11046167D01*
X10192156Y-11065214D01*
X10192156Y-11169976D01*
X10192156Y-11065214D02*
X10201680Y-11046167D01*
X10220728Y-11036643D01*
X10249299Y-11036643D01*
X10268347Y-11046167D01*
X10277870Y-11065214D01*
X10277870Y-11169976D01*
X10373109Y-11169976D02*
X10373109Y-11036643D01*
X10373109Y-11055690D02*
X10382632Y-11046167D01*
X10401680Y-11036643D01*
X10430251Y-11036643D01*
X10449299Y-11046167D01*
X10458823Y-11065214D01*
X10458823Y-11169976D01*
X10458823Y-11065214D02*
X10468347Y-11046167D01*
X10487394Y-11036643D01*
X10515966Y-11036643D01*
X10535013Y-11046167D01*
X10544537Y-11065214D01*
X10544537Y-11169976D01*
X10935013Y-10960452D02*
X10763585Y-11217595D01*
X11192156Y-10969976D02*
X11211204Y-10969976D01*
X11230251Y-10979500D01*
X11239775Y-10989024D01*
X11249299Y-11008071D01*
X11258823Y-11046167D01*
X11258823Y-11093786D01*
X11249299Y-11131881D01*
X11239775Y-11150929D01*
X11230251Y-11160452D01*
X11211204Y-11169976D01*
X11192156Y-11169976D01*
X11173109Y-11160452D01*
X11163585Y-11150929D01*
X11154061Y-11131881D01*
X11144537Y-11093786D01*
X11144537Y-11046167D01*
X11154061Y-11008071D01*
X11163585Y-10989024D01*
X11173109Y-10979500D01*
X11192156Y-10969976D01*
X11344537Y-11150929D02*
X11354061Y-11160452D01*
X11344537Y-11169976D01*
X11335013Y-11160452D01*
X11344537Y-11150929D01*
X11344537Y-11169976D01*
X11477870Y-10969976D02*
X11496918Y-10969976D01*
X11515966Y-10979500D01*
X11525489Y-10989024D01*
X11535013Y-11008071D01*
X11544537Y-11046167D01*
X11544537Y-11093786D01*
X11535013Y-11131881D01*
X11525489Y-11150929D01*
X11515966Y-11160452D01*
X11496918Y-11169976D01*
X11477870Y-11169976D01*
X11458823Y-11160452D01*
X11449299Y-11150929D01*
X11439775Y-11131881D01*
X11430251Y-11093786D01*
X11430251Y-11046167D01*
X11439775Y-11008071D01*
X11449299Y-10989024D01*
X11458823Y-10979500D01*
X11477870Y-10969976D01*
X11725489Y-10969976D02*
X11630251Y-10969976D01*
X11620728Y-11065214D01*
X11630251Y-11055690D01*
X11649299Y-11046167D01*
X11696918Y-11046167D01*
X11715966Y-11055690D01*
X11725489Y-11065214D01*
X11735013Y-11084262D01*
X11735013Y-11131881D01*
X11725489Y-11150929D01*
X11715966Y-11160452D01*
X11696918Y-11169976D01*
X11649299Y-11169976D01*
X11630251Y-11160452D01*
X11620728Y-11150929D01*
X11830251Y-11169976D02*
X11868347Y-11169976D01*
X11887394Y-11160452D01*
X11896918Y-11150929D01*
X11915966Y-11122357D01*
X11925489Y-11084262D01*
X11925489Y-11008071D01*
X11915966Y-10989024D01*
X11906442Y-10979500D01*
X11887394Y-10969976D01*
X11849299Y-10969976D01*
X11830251Y-10979500D01*
X11820728Y-10989024D01*
X11811204Y-11008071D01*
X11811204Y-11055690D01*
X11820728Y-11074738D01*
X11830251Y-11084262D01*
X11849299Y-11093786D01*
X11887394Y-11093786D01*
X11906442Y-11084262D01*
X11915966Y-11074738D01*
X11925489Y-11055690D01*
X12039775Y-11055690D02*
X12020728Y-11046167D01*
X12011204Y-11036643D01*
X12001680Y-11017595D01*
X12001680Y-11008071D01*
X12011204Y-10989024D01*
X12020728Y-10979500D01*
X12039775Y-10969976D01*
X12077870Y-10969976D01*
X12096918Y-10979500D01*
X12106442Y-10989024D01*
X12115966Y-11008071D01*
X12115966Y-11017595D01*
X12106442Y-11036643D01*
X12096918Y-11046167D01*
X12077870Y-11055690D01*
X12039775Y-11055690D01*
X12020728Y-11065214D01*
X12011204Y-11074738D01*
X12001680Y-11093786D01*
X12001680Y-11131881D01*
X12011204Y-11150929D01*
X12020728Y-11160452D01*
X12039775Y-11169976D01*
X12077870Y-11169976D01*
X12096918Y-11160452D01*
X12106442Y-11150929D01*
X12115966Y-11131881D01*
X12115966Y-11093786D01*
X12106442Y-11074738D01*
X12096918Y-11065214D01*
X12077870Y-11055690D01*
X12192156Y-10969976D02*
X12192156Y-11008071D01*
X12268347Y-10969976D02*
X12268347Y-11008071D01*
X12563585Y-11246167D02*
X12554061Y-11236643D01*
X12535013Y-11208071D01*
X12525489Y-11189024D01*
X12515966Y-11160452D01*
X12506442Y-11112833D01*
X12506442Y-11074738D01*
X12515966Y-11027119D01*
X12525489Y-10998548D01*
X12535013Y-10979500D01*
X12554061Y-10950929D01*
X12563585Y-10941405D01*
X12725489Y-10969976D02*
X12687394Y-10969976D01*
X12668347Y-10979500D01*
X12658823Y-10989024D01*
X12639775Y-11017595D01*
X12630251Y-11055690D01*
X12630251Y-11131881D01*
X12639775Y-11150929D01*
X12649299Y-11160452D01*
X12668347Y-11169976D01*
X12706442Y-11169976D01*
X12725489Y-11160452D01*
X12735013Y-11150929D01*
X12744537Y-11131881D01*
X12744537Y-11084262D01*
X12735013Y-11065214D01*
X12725489Y-11055690D01*
X12706442Y-11046167D01*
X12668347Y-11046167D01*
X12649299Y-11055690D01*
X12639775Y-11065214D01*
X12630251Y-11084262D01*
X12868347Y-10969976D02*
X12887394Y-10969976D01*
X12906442Y-10979500D01*
X12915966Y-10989024D01*
X12925489Y-11008071D01*
X12935013Y-11046167D01*
X12935013Y-11093786D01*
X12925489Y-11131881D01*
X12915966Y-11150929D01*
X12906442Y-11160452D01*
X12887394Y-11169976D01*
X12868347Y-11169976D01*
X12849299Y-11160452D01*
X12839775Y-11150929D01*
X12830251Y-11131881D01*
X12820728Y-11093786D01*
X12820728Y-11046167D01*
X12830251Y-11008071D01*
X12839775Y-10989024D01*
X12849299Y-10979500D01*
X12868347Y-10969976D01*
X13173108Y-11169976D02*
X13173108Y-10969976D01*
X13258823Y-11169976D02*
X13258823Y-11065214D01*
X13249299Y-11046167D01*
X13230251Y-11036643D01*
X13201680Y-11036643D01*
X13182632Y-11046167D01*
X13173108Y-11055690D01*
X13382632Y-11169976D02*
X13363585Y-11160452D01*
X13354061Y-11150929D01*
X13344537Y-11131881D01*
X13344537Y-11074738D01*
X13354061Y-11055690D01*
X13363585Y-11046167D01*
X13382632Y-11036643D01*
X13411204Y-11036643D01*
X13430251Y-11046167D01*
X13439775Y-11055690D01*
X13449299Y-11074738D01*
X13449299Y-11131881D01*
X13439775Y-11150929D01*
X13430251Y-11160452D01*
X13411204Y-11169976D01*
X13382632Y-11169976D01*
X13563585Y-11169976D02*
X13544537Y-11160452D01*
X13535013Y-11141405D01*
X13535013Y-10969976D01*
X13715966Y-11160452D02*
X13696918Y-11169976D01*
X13658823Y-11169976D01*
X13639775Y-11160452D01*
X13630251Y-11141405D01*
X13630251Y-11065214D01*
X13639775Y-11046167D01*
X13658823Y-11036643D01*
X13696918Y-11036643D01*
X13715966Y-11046167D01*
X13725489Y-11065214D01*
X13725489Y-11084262D01*
X13630251Y-11103310D01*
X13801680Y-11160452D02*
X13820728Y-11169976D01*
X13858823Y-11169976D01*
X13877870Y-11160452D01*
X13887394Y-11141405D01*
X13887394Y-11131881D01*
X13877870Y-11112833D01*
X13858823Y-11103310D01*
X13830251Y-11103310D01*
X13811204Y-11093786D01*
X13801680Y-11074738D01*
X13801680Y-11065214D01*
X13811204Y-11046167D01*
X13830251Y-11036643D01*
X13858823Y-11036643D01*
X13877870Y-11046167D01*
X13954061Y-11246167D02*
X13963585Y-11236643D01*
X13982632Y-11208071D01*
X13992156Y-11189024D01*
X14001680Y-11160452D01*
X14011204Y-11112833D01*
X14011204Y-11074738D01*
X14001680Y-11027119D01*
X13992156Y-10998548D01*
X13982632Y-10979500D01*
X13963585Y-10950929D01*
X13954061Y-10941405D01*
M02*
