M48
; DRILL file {KiCad (6.0.0)} date Thu Oct  6 11:10:51 2022
; FORMAT={-:-/ absolute / inch / decimal}
; #@! TF.CreationDate,2022-10-06T11:10:51+02:00
; #@! TF.GenerationSoftware,Kicad,Pcbnew,(6.0.0)
; #@! TF.FileFunction,Plated,1,2,PTH
FMAT,2
INCH
; #@! TA.AperFunction,Plated,PTH,ViaDrill
T1C0.0157
; #@! TA.AperFunction,Plated,PTH,ComponentDrill
T2C0.0276
; #@! TA.AperFunction,Plated,PTH,ComponentDrill
T3C0.0394
; #@! TA.AperFunction,Plated,PTH,ComponentDrill
T4C0.0598
%
G90
G05
T1
X4.8521Y-1.9441
X4.854Y-3.0674
X4.856Y-4.1914
X4.8681Y-2.7321
X4.87Y-3.8554
X4.872Y-4.9794
X4.9161Y-2.3501
X4.918Y-3.4734
X4.92Y-4.5974
X4.9841Y-1.9061
X4.986Y-3.0294
X4.988Y-4.1534
X5.0581Y-2.6141
X5.06Y-3.7374
X5.062Y-4.8614
X5.2581Y-2.7141
X5.26Y-3.8374
X5.262Y-4.9614
X5.3681Y-1.8881
X5.37Y-3.0114
X5.372Y-4.1354
X5.4421Y-2.5841
X5.444Y-3.7074
X5.446Y-4.8314
X5.9601Y-1.8961
X5.962Y-3.0194
X5.964Y-4.1434
X5.9921Y-1.8961
X5.994Y-3.0194
X5.996Y-4.1434
X6.2501Y-2.7341
X6.252Y-3.8574
X6.254Y-4.9814
X6.2621Y-2.0421
X6.264Y-3.1654
X6.266Y-4.2894
X6.2921Y-2.5001
X6.294Y-3.6234
X6.2941Y-2.2921
X6.296Y-3.4154
X6.296Y-4.7474
X6.298Y-4.5394
X6.3001Y-1.8321
X6.302Y-2.9554
X6.304Y-4.0794
X6.3161Y-2.3181
X6.3161Y-2.4781
X6.318Y-3.4414
X6.318Y-3.6014
X6.32Y-4.5654
X6.32Y-4.7254
X6.3221Y-2.2046
X6.324Y-3.328
X6.326Y-4.452
X6.3961Y-1.9041
X6.398Y-3.0274
X6.4Y-4.1514
X6.5121Y-2.7321
X6.514Y-3.8554
X6.516Y-4.9794
X6.993Y-1.8526
X6.995Y-2.9766
X6.997Y-4.0999
X7.109Y-2.6806
X7.111Y-3.8046
X7.113Y-4.9279
X7.183Y-2.38
X7.185Y-3.504
X7.187Y-4.6274
X7.189Y-2.1066
X7.189Y-2.2666
X7.191Y-3.2306
X7.191Y-3.3906
X7.193Y-4.3539
X7.193Y-4.5139
X7.205Y-2.7526
X7.207Y-3.8766
X7.209Y-4.9999
X7.211Y-2.2926
X7.213Y-2.0846
X7.213Y-3.4166
X7.215Y-4.5399
X7.215Y-3.2086
X7.217Y-4.3319
X7.243Y-2.5426
X7.245Y-3.6666
X7.247Y-4.7899
X7.255Y-1.8506
X7.257Y-2.9746
X7.259Y-4.0979
X7.513Y-2.6886
X7.515Y-3.8126
X7.517Y-4.9359
X7.545Y-2.6886
X7.547Y-3.8126
X7.549Y-4.9359
X8.063Y-2.0006
X8.065Y-3.1246
X8.067Y-4.2479
X8.137Y-2.6966
X8.139Y-3.8206
X8.141Y-4.9439
X8.247Y-1.8706
X8.249Y-2.9946
X8.251Y-4.1179
X8.447Y-1.9706
X8.449Y-3.0946
X8.451Y-4.2179
X8.521Y-2.6786
X8.523Y-3.8026
X8.525Y-4.9259
X8.589Y-2.2346
X8.591Y-3.3586
X8.593Y-4.4819
X8.637Y-1.8526
X8.639Y-2.9766
X8.641Y-4.0999
X8.653Y-2.6406
X8.655Y-3.7646
X8.657Y-4.8879
T2
X6.466Y-2.446
X6.4679Y-3.5693
X6.4699Y-4.6933
X6.666Y-2.446
X6.6679Y-3.5693
X6.6699Y-4.6933
X6.8391Y-2.1387
X6.8411Y-3.2627
X6.843Y-4.386
X7.0391Y-2.1387
X7.0411Y-3.2627
X7.043Y-4.386
T3
X4.8161Y-1.8365
X4.8161Y-2.4365
X4.818Y-2.9598
X4.818Y-3.5598
X4.82Y-4.0838
X4.82Y-4.6838
X4.9161Y-1.8365
X4.9161Y-2.4365
X4.918Y-2.9598
X4.918Y-3.5598
X4.92Y-4.0838
X4.92Y-4.6838
X5.0161Y-1.8365
X5.0161Y-2.4365
X5.018Y-2.9598
X5.018Y-3.5598
X5.02Y-4.0838
X5.02Y-4.6838
X5.1161Y-1.8365
X5.1161Y-2.4365
X5.118Y-2.9598
X5.118Y-3.5598
X5.12Y-4.0838
X5.12Y-4.6838
X5.2161Y-1.8365
X5.2161Y-2.4365
X5.218Y-2.9598
X5.218Y-3.5598
X5.22Y-4.0838
X5.22Y-4.6838
X5.3161Y-1.8365
X5.3161Y-2.4365
X5.318Y-2.9598
X5.318Y-3.5598
X5.32Y-4.0838
X5.32Y-4.6838
X5.4161Y-1.8365
X5.4161Y-2.4365
X5.418Y-2.9598
X5.418Y-3.5598
X5.42Y-4.0838
X5.42Y-4.6838
X5.5161Y-1.8365
X5.5161Y-2.4365
X5.518Y-2.9598
X5.518Y-3.5598
X5.52Y-4.0838
X5.52Y-4.6838
X5.6161Y-1.8365
X5.6161Y-2.4365
X5.618Y-2.9598
X5.618Y-3.5598
X5.62Y-4.0838
X5.62Y-4.6838
X5.7161Y-1.8365
X5.7161Y-2.4365
X5.718Y-2.9598
X5.718Y-3.5598
X5.72Y-4.0838
X5.72Y-4.6838
X5.8161Y-1.8365
X5.8161Y-2.4365
X5.818Y-2.9598
X5.818Y-3.5598
X5.82Y-4.0838
X5.82Y-4.6838
X5.9001Y-2.0381
X5.9001Y-2.1381
X5.9001Y-2.2381
X5.902Y-3.1614
X5.902Y-3.2614
X5.902Y-3.3614
X5.904Y-4.2854
X5.904Y-4.3854
X5.904Y-4.4854
X5.9161Y-1.8365
X5.9161Y-2.4365
X5.918Y-2.9598
X5.918Y-3.5598
X5.92Y-4.0838
X5.92Y-4.6838
X6.0161Y-1.8365
X6.0161Y-2.4365
X6.018Y-2.9598
X6.018Y-3.5598
X6.02Y-4.0838
X6.02Y-4.6838
X6.1161Y-1.8365
X6.1161Y-2.4365
X6.118Y-2.9598
X6.118Y-3.5598
X6.12Y-4.0838
X6.12Y-4.6838
X6.2161Y-1.8365
X6.2161Y-2.4365
X6.218Y-2.9598
X6.218Y-3.5598
X6.22Y-4.0838
X6.22Y-4.6838
X6.4701Y-1.9381
X6.4701Y-2.0381
X6.4701Y-2.1381
X6.4701Y-2.2381
X6.4701Y-2.3381
X6.472Y-3.0614
X6.472Y-3.1614
X6.472Y-3.2614
X6.472Y-3.3614
X6.472Y-3.4614
X6.474Y-4.1854
X6.474Y-4.2854
X6.474Y-4.3854
X6.474Y-4.4854
X6.474Y-4.5854
X6.632Y-2.222
X6.632Y-2.322
X6.6321Y-1.8427
X6.6321Y-1.9427
X6.6321Y-2.0427
X6.6339Y-3.3453
X6.6339Y-3.4453
X6.634Y-2.966
X6.634Y-3.066
X6.634Y-3.166
X6.6359Y-4.4693
X6.6359Y-4.5693
X6.636Y-4.09
X6.636Y-4.19
X6.636Y-4.29
X6.873Y-2.542
X6.873Y-2.642
X6.873Y-2.742
X6.8731Y-2.2627
X6.8731Y-2.3627
X6.875Y-3.666
X6.875Y-3.766
X6.875Y-3.866
X6.8751Y-3.3867
X6.8751Y-3.4867
X6.877Y-4.7893
X6.877Y-4.8893
X6.877Y-4.9893
X6.877Y-4.51
X6.877Y-4.61
X7.035Y-2.2466
X7.035Y-2.3466
X7.035Y-2.4466
X7.035Y-2.5466
X7.035Y-2.6466
X7.037Y-3.3706
X7.037Y-3.4706
X7.037Y-3.5706
X7.037Y-3.6706
X7.037Y-3.7706
X7.039Y-4.4939
X7.039Y-4.5939
X7.039Y-4.6939
X7.039Y-4.7939
X7.039Y-4.8939
X7.289Y-2.1482
X7.289Y-2.7482
X7.291Y-3.2722
X7.291Y-3.8722
X7.293Y-4.3955
X7.293Y-4.9955
X7.389Y-2.1482
X7.389Y-2.7482
X7.391Y-3.2722
X7.391Y-3.8722
X7.393Y-4.3955
X7.393Y-4.9955
X7.489Y-2.1482
X7.489Y-2.7482
X7.491Y-3.2722
X7.491Y-3.8722
X7.493Y-4.3955
X7.493Y-4.9955
X7.589Y-2.1482
X7.589Y-2.7482
X7.591Y-3.2722
X7.591Y-3.8722
X7.593Y-4.3955
X7.593Y-4.9955
X7.605Y-2.3466
X7.605Y-2.4466
X7.605Y-2.5466
X7.607Y-3.4706
X7.607Y-3.5706
X7.607Y-3.6706
X7.609Y-4.5939
X7.609Y-4.6939
X7.609Y-4.7939
X7.689Y-2.1482
X7.689Y-2.7482
X7.691Y-3.2722
X7.691Y-3.8722
X7.693Y-4.3955
X7.693Y-4.9955
X7.789Y-2.1482
X7.789Y-2.7482
X7.791Y-3.2722
X7.791Y-3.8722
X7.793Y-4.3955
X7.793Y-4.9955
X7.889Y-2.1482
X7.889Y-2.7482
X7.891Y-3.2722
X7.891Y-3.8722
X7.893Y-4.3955
X7.893Y-4.9955
X7.989Y-2.1482
X7.989Y-2.7482
X7.991Y-3.2722
X7.991Y-3.8722
X7.993Y-4.3955
X7.993Y-4.9955
X8.089Y-2.1482
X8.089Y-2.7482
X8.091Y-3.2722
X8.091Y-3.8722
X8.093Y-4.3955
X8.093Y-4.9955
X8.189Y-2.1482
X8.189Y-2.7482
X8.191Y-3.2722
X8.191Y-3.8722
X8.193Y-4.3955
X8.193Y-4.9955
X8.289Y-2.1482
X8.289Y-2.7482
X8.291Y-3.2722
X8.291Y-3.8722
X8.293Y-4.3955
X8.293Y-4.9955
X8.389Y-2.1482
X8.389Y-2.7482
X8.391Y-3.2722
X8.391Y-3.8722
X8.393Y-4.3955
X8.393Y-4.9955
X8.489Y-2.1482
X8.489Y-2.7482
X8.491Y-3.2722
X8.491Y-3.8722
X8.493Y-4.3955
X8.493Y-4.9955
X8.589Y-2.1482
X8.589Y-2.7482
X8.591Y-3.2722
X8.591Y-3.8722
X8.593Y-4.3955
X8.593Y-4.9955
X8.689Y-2.1482
X8.689Y-2.7482
X8.691Y-3.2722
X8.691Y-3.8722
X8.693Y-4.3955
X8.693Y-4.9955
T4
X4.7621Y-2.6561
X4.764Y-3.7794
X4.766Y-4.9034
X4.9621Y-2.6561
X4.964Y-3.7794
X4.966Y-4.9034
X5.1621Y-2.6561
X5.164Y-3.7794
X5.166Y-4.9034
X5.3621Y-2.6561
X5.364Y-3.7794
X5.366Y-4.9034
X5.5801Y-2.6561
X5.582Y-3.7794
X5.584Y-4.9034
X5.7801Y-2.6561
X5.782Y-3.7794
X5.784Y-4.9034
X5.9801Y-2.6561
X5.982Y-3.7794
X5.984Y-4.9034
X6.1801Y-2.6561
X6.182Y-3.7794
X6.184Y-4.9034
X6.3981Y-2.6561
X6.4Y-3.7794
X6.402Y-4.9034
X6.5981Y-2.6561
X6.6Y-3.7794
X6.602Y-4.9034
X6.907Y-1.9286
X6.909Y-3.0526
X6.911Y-4.1759
X7.107Y-1.9286
X7.109Y-3.0526
X7.111Y-4.1759
X7.325Y-1.9286
X7.327Y-3.0526
X7.329Y-4.1759
X7.525Y-1.9286
X7.527Y-3.0526
X7.529Y-4.1759
X7.725Y-1.9286
X7.727Y-3.0526
X7.729Y-4.1759
X7.925Y-1.9286
X7.927Y-3.0526
X7.929Y-4.1759
X8.143Y-1.9286
X8.145Y-3.0526
X8.147Y-4.1759
X8.343Y-1.9286
X8.345Y-3.0526
X8.347Y-4.1759
X8.543Y-1.9286
X8.545Y-3.0526
X8.547Y-4.1759
X8.743Y-1.9286
X8.745Y-3.0526
X8.747Y-4.1759
T0
M30
