%TF.GenerationSoftware,KiCad,Pcbnew,(6.0.0)*%
%TF.CreationDate,2022-10-06T11:10:54+02:00*%
%TF.ProjectId,012-Amesis-ColdSartE85_HWv0.01,3031322d-416d-4657-9369-732d436f6c64,v0.01_Golf 1.6L 16v *%
%TF.SameCoordinates,Original*%
%TF.FileFunction,Soldermask,Bot*%
%TF.FilePolarity,Negative*%
%FSLAX46Y46*%
G04 Gerber Fmt 4.6, Leading zero omitted, Abs format (unit mm)*
G04 Created by KiCad (PCBNEW (6.0.0)) date 2022-10-06 11:10:54*
%MOMM*%
%LPD*%
G01*
G04 APERTURE LIST*
%ADD10R,3.000000X3.000000*%
%ADD11C,3.000000*%
%ADD12R,1.700000X1.700000*%
%ADD13O,1.700000X1.700000*%
%ADD14O,1.600000X1.600000*%
%ADD15R,1.600000X1.600000*%
%ADD16C,1.400000*%
%ADD17O,1.400000X1.400000*%
G04 APERTURE END LIST*
D10*
%TO.C,G2/G62_InPut_IAT1*%
X222073040Y-48986200D03*
D11*
X216993040Y-48986200D03*
X211913040Y-48986200D03*
X206833040Y-48986200D03*
%TD*%
D10*
%TO.C,G2/G62_OutPut_IAT1*%
X201295840Y-48986200D03*
D11*
X196215840Y-48986200D03*
X191135840Y-48986200D03*
X186055840Y-48986200D03*
%TD*%
D10*
%TO.C,J1*%
X180518640Y-48986200D03*
D11*
X175438640Y-48986200D03*
%TD*%
D12*
%TO.C,J2*%
X178689840Y-67223400D03*
D13*
X178689840Y-64683400D03*
X178689840Y-62143400D03*
X178689840Y-59603400D03*
X178689840Y-57063400D03*
%TD*%
D14*
%TO.C,A1*%
X185141440Y-54564200D03*
X187681440Y-54564200D03*
X190221440Y-54564200D03*
X192761440Y-54564200D03*
X195301440Y-54564200D03*
X197841440Y-54564200D03*
X200381440Y-54564200D03*
X202921440Y-54564200D03*
X205461440Y-54564200D03*
X208001440Y-54564200D03*
X210541440Y-54564200D03*
X213081440Y-54564200D03*
X215621440Y-54564200D03*
X218161440Y-54564200D03*
X220701440Y-54564200D03*
X220701440Y-69804200D03*
X218161440Y-69804200D03*
X215621440Y-69804200D03*
X213081440Y-69804200D03*
X210541440Y-69804200D03*
X208001440Y-69804200D03*
X205461440Y-69804200D03*
X202921440Y-69804200D03*
X200381440Y-69804200D03*
X197841440Y-69804200D03*
X195301440Y-69804200D03*
X192761440Y-69804200D03*
X190221440Y-69804200D03*
X187681440Y-69804200D03*
D15*
X185141440Y-69804200D03*
%TD*%
D12*
%TO.C,Jumpers_Option1*%
X174575040Y-69646800D03*
D13*
X174575040Y-67106800D03*
X174575040Y-64566800D03*
%TD*%
D16*
%TO.C,R1*%
X178793194Y-54321904D03*
D17*
X173713194Y-54321904D03*
%TD*%
D12*
%TO.C,TH1*%
X174576794Y-60011504D03*
D13*
X174576794Y-57471504D03*
%TD*%
D12*
%TO.C,J3*%
X193167840Y-64683400D03*
D13*
X193167840Y-62143400D03*
X193167840Y-59603400D03*
%TD*%
D12*
%TO.C,J3*%
X193218640Y-93233000D03*
D13*
X193218640Y-90693000D03*
X193218640Y-88153000D03*
%TD*%
D10*
%TO.C,G2/G62_InPut_IAT1*%
X222123840Y-77535800D03*
D11*
X217043840Y-77535800D03*
X211963840Y-77535800D03*
X206883840Y-77535800D03*
%TD*%
D12*
%TO.C,J2*%
X178740640Y-95773000D03*
D13*
X178740640Y-93233000D03*
X178740640Y-90693000D03*
X178740640Y-88153000D03*
X178740640Y-85613000D03*
%TD*%
D14*
%TO.C,A1*%
X185192240Y-83113800D03*
X187732240Y-83113800D03*
X190272240Y-83113800D03*
X192812240Y-83113800D03*
X195352240Y-83113800D03*
X197892240Y-83113800D03*
X200432240Y-83113800D03*
X202972240Y-83113800D03*
X205512240Y-83113800D03*
X208052240Y-83113800D03*
X210592240Y-83113800D03*
X213132240Y-83113800D03*
X215672240Y-83113800D03*
X218212240Y-83113800D03*
X220752240Y-83113800D03*
X220752240Y-98353800D03*
X218212240Y-98353800D03*
X215672240Y-98353800D03*
X213132240Y-98353800D03*
X210592240Y-98353800D03*
X208052240Y-98353800D03*
X205512240Y-98353800D03*
X202972240Y-98353800D03*
X200432240Y-98353800D03*
X197892240Y-98353800D03*
X195352240Y-98353800D03*
X192812240Y-98353800D03*
X190272240Y-98353800D03*
X187732240Y-98353800D03*
D15*
X185192240Y-98353800D03*
%TD*%
D12*
%TO.C,Jumpers_Option1*%
X174625840Y-98196400D03*
D13*
X174625840Y-95656400D03*
X174625840Y-93116400D03*
%TD*%
D16*
%TO.C,R1*%
X178843994Y-82871504D03*
D17*
X173763994Y-82871504D03*
%TD*%
D12*
%TO.C,TH1*%
X174627594Y-88561104D03*
D13*
X174627594Y-86021104D03*
%TD*%
D10*
%TO.C,G2/G62_OutPut_IAT1*%
X201346640Y-77535800D03*
D11*
X196266640Y-77535800D03*
X191186640Y-77535800D03*
X186106640Y-77535800D03*
%TD*%
D10*
%TO.C,J1*%
X180569440Y-77535800D03*
D11*
X175489440Y-77535800D03*
%TD*%
D12*
%TO.C,TH1*%
X174676640Y-117094000D03*
D13*
X174676640Y-114554000D03*
%TD*%
D16*
%TO.C,R1*%
X178893040Y-111404400D03*
D17*
X173813040Y-111404400D03*
%TD*%
D10*
%TO.C,G2/G62_OutPut_IAT1*%
X201395686Y-106068696D03*
D11*
X196315686Y-106068696D03*
X191235686Y-106068696D03*
X186155686Y-106068696D03*
%TD*%
D14*
%TO.C,A1*%
X185241286Y-111646696D03*
X187781286Y-111646696D03*
X190321286Y-111646696D03*
X192861286Y-111646696D03*
X195401286Y-111646696D03*
X197941286Y-111646696D03*
X200481286Y-111646696D03*
X203021286Y-111646696D03*
X205561286Y-111646696D03*
X208101286Y-111646696D03*
X210641286Y-111646696D03*
X213181286Y-111646696D03*
X215721286Y-111646696D03*
X218261286Y-111646696D03*
X220801286Y-111646696D03*
X220801286Y-126886696D03*
X218261286Y-126886696D03*
X215721286Y-126886696D03*
X213181286Y-126886696D03*
X210641286Y-126886696D03*
X208101286Y-126886696D03*
X205561286Y-126886696D03*
X203021286Y-126886696D03*
X200481286Y-126886696D03*
X197941286Y-126886696D03*
X195401286Y-126886696D03*
X192861286Y-126886696D03*
X190321286Y-126886696D03*
X187781286Y-126886696D03*
D15*
X185241286Y-126886696D03*
%TD*%
D12*
%TO.C,Jumpers_Option1*%
X174674886Y-126729296D03*
D13*
X174674886Y-124189296D03*
X174674886Y-121649296D03*
%TD*%
D10*
%TO.C,J1*%
X180618486Y-106068696D03*
D11*
X175538486Y-106068696D03*
%TD*%
D12*
%TO.C,J3*%
X193267686Y-121765896D03*
D13*
X193267686Y-119225896D03*
X193267686Y-116685896D03*
%TD*%
D10*
%TO.C,G2/G62_InPut_IAT1*%
X222172886Y-106068696D03*
D11*
X217092886Y-106068696D03*
X212012886Y-106068696D03*
X206932886Y-106068696D03*
%TD*%
D12*
%TO.C,J2*%
X178789686Y-124305896D03*
D13*
X178789686Y-121765896D03*
X178789686Y-119225896D03*
X178789686Y-116685896D03*
X178789686Y-114145896D03*
%TD*%
D12*
%TO.C,J3*%
X149961600Y-108849400D03*
D13*
X149961600Y-111389400D03*
X149961600Y-113929400D03*
%TD*%
D10*
%TO.C,G2/G62_InPut_IAT1*%
X121056400Y-124546600D03*
D11*
X126136400Y-124546600D03*
X131216400Y-124546600D03*
X136296400Y-124546600D03*
%TD*%
D12*
%TO.C,J2*%
X164439600Y-106309400D03*
D13*
X164439600Y-108849400D03*
X164439600Y-111389400D03*
X164439600Y-113929400D03*
X164439600Y-116469400D03*
%TD*%
D15*
%TO.C,A1*%
X157988000Y-103728600D03*
D14*
X155448000Y-103728600D03*
X152908000Y-103728600D03*
X150368000Y-103728600D03*
X147828000Y-103728600D03*
X145288000Y-103728600D03*
X142748000Y-103728600D03*
X140208000Y-103728600D03*
X137668000Y-103728600D03*
X135128000Y-103728600D03*
X132588000Y-103728600D03*
X130048000Y-103728600D03*
X127508000Y-103728600D03*
X124968000Y-103728600D03*
X122428000Y-103728600D03*
X122428000Y-118968600D03*
X124968000Y-118968600D03*
X127508000Y-118968600D03*
X130048000Y-118968600D03*
X132588000Y-118968600D03*
X135128000Y-118968600D03*
X137668000Y-118968600D03*
X140208000Y-118968600D03*
X142748000Y-118968600D03*
X145288000Y-118968600D03*
X147828000Y-118968600D03*
X150368000Y-118968600D03*
X152908000Y-118968600D03*
X155448000Y-118968600D03*
X157988000Y-118968600D03*
%TD*%
D12*
%TO.C,Jumpers_Option1*%
X168554400Y-103886000D03*
D13*
X168554400Y-106426000D03*
X168554400Y-108966000D03*
%TD*%
D16*
%TO.C,R1*%
X164336246Y-119210896D03*
D17*
X169416246Y-119210896D03*
%TD*%
D12*
%TO.C,TH1*%
X168552646Y-113521296D03*
D13*
X168552646Y-116061296D03*
%TD*%
D10*
%TO.C,G2/G62_OutPut_IAT1*%
X141833600Y-124546600D03*
D11*
X146913600Y-124546600D03*
X151993600Y-124546600D03*
X157073600Y-124546600D03*
%TD*%
D10*
%TO.C,J1*%
X162610800Y-124546600D03*
D11*
X167690800Y-124546600D03*
%TD*%
D13*
%TO.C,TH1*%
X168501846Y-87511696D03*
D12*
X168501846Y-84971696D03*
%TD*%
D17*
%TO.C,R1*%
X169365446Y-90661296D03*
D16*
X164285446Y-90661296D03*
%TD*%
D11*
%TO.C,G2/G62_OutPut_IAT1*%
X157022800Y-95997000D03*
X151942800Y-95997000D03*
X146862800Y-95997000D03*
D10*
X141782800Y-95997000D03*
%TD*%
D14*
%TO.C,A1*%
X157937200Y-90419000D03*
X155397200Y-90419000D03*
X152857200Y-90419000D03*
X150317200Y-90419000D03*
X147777200Y-90419000D03*
X145237200Y-90419000D03*
X142697200Y-90419000D03*
X140157200Y-90419000D03*
X137617200Y-90419000D03*
X135077200Y-90419000D03*
X132537200Y-90419000D03*
X129997200Y-90419000D03*
X127457200Y-90419000D03*
X124917200Y-90419000D03*
X122377200Y-90419000D03*
X122377200Y-75179000D03*
X124917200Y-75179000D03*
X127457200Y-75179000D03*
X129997200Y-75179000D03*
X132537200Y-75179000D03*
X135077200Y-75179000D03*
X137617200Y-75179000D03*
X140157200Y-75179000D03*
X142697200Y-75179000D03*
X145237200Y-75179000D03*
X147777200Y-75179000D03*
X150317200Y-75179000D03*
X152857200Y-75179000D03*
X155397200Y-75179000D03*
D15*
X157937200Y-75179000D03*
%TD*%
D13*
%TO.C,Jumpers_Option1*%
X168503600Y-80416400D03*
X168503600Y-77876400D03*
D12*
X168503600Y-75336400D03*
%TD*%
D11*
%TO.C,J1*%
X167640000Y-95997000D03*
D10*
X162560000Y-95997000D03*
%TD*%
D13*
%TO.C,J3*%
X149910800Y-85379800D03*
X149910800Y-82839800D03*
D12*
X149910800Y-80299800D03*
%TD*%
D11*
%TO.C,G2/G62_InPut_IAT1*%
X136245600Y-95997000D03*
X131165600Y-95997000D03*
X126085600Y-95997000D03*
D10*
X121005600Y-95997000D03*
%TD*%
D13*
%TO.C,J2*%
X164388800Y-87919800D03*
X164388800Y-85379800D03*
X164388800Y-82839800D03*
X164388800Y-80299800D03*
D12*
X164388800Y-77759800D03*
%TD*%
D15*
%TO.C,A1*%
X157888154Y-46646104D03*
D14*
X155348154Y-46646104D03*
X152808154Y-46646104D03*
X150268154Y-46646104D03*
X147728154Y-46646104D03*
X145188154Y-46646104D03*
X142648154Y-46646104D03*
X140108154Y-46646104D03*
X137568154Y-46646104D03*
X135028154Y-46646104D03*
X132488154Y-46646104D03*
X129948154Y-46646104D03*
X127408154Y-46646104D03*
X124868154Y-46646104D03*
X122328154Y-46646104D03*
X122328154Y-61886104D03*
X124868154Y-61886104D03*
X127408154Y-61886104D03*
X129948154Y-61886104D03*
X132488154Y-61886104D03*
X135028154Y-61886104D03*
X137568154Y-61886104D03*
X140108154Y-61886104D03*
X142648154Y-61886104D03*
X145188154Y-61886104D03*
X147728154Y-61886104D03*
X150268154Y-61886104D03*
X152808154Y-61886104D03*
X155348154Y-61886104D03*
X157888154Y-61886104D03*
%TD*%
D10*
%TO.C,J1*%
X162510954Y-67464104D03*
D11*
X167590954Y-67464104D03*
%TD*%
D12*
%TO.C,Jumpers_Option1*%
X168454554Y-46803504D03*
D13*
X168454554Y-49343504D03*
X168454554Y-51883504D03*
%TD*%
D10*
%TO.C,G2/G62_OutPut_IAT1*%
X141733754Y-67464104D03*
D11*
X146813754Y-67464104D03*
X151893754Y-67464104D03*
X156973754Y-67464104D03*
%TD*%
D16*
%TO.C,R1*%
X164236400Y-62128400D03*
D17*
X169316400Y-62128400D03*
%TD*%
D12*
%TO.C,TH1*%
X168452800Y-56438800D03*
D13*
X168452800Y-58978800D03*
%TD*%
D10*
%TO.C,G2/G62_InPut_IAT1*%
X120956554Y-67464104D03*
D11*
X126036554Y-67464104D03*
X131116554Y-67464104D03*
X136196554Y-67464104D03*
%TD*%
D12*
%TO.C,J2*%
X164339754Y-49226904D03*
D13*
X164339754Y-51766904D03*
X164339754Y-54306904D03*
X164339754Y-56846904D03*
X164339754Y-59386904D03*
%TD*%
D12*
%TO.C,J3*%
X149861754Y-51766904D03*
D13*
X149861754Y-54306904D03*
X149861754Y-56846904D03*
%TD*%
M02*
