%FSLAX45Y45*%
G04 Gerber Fmt 4.5, Leading zero omitted, Abs format (unit mm)*
G04 Created by KiCad (PCBNEW (6.0.0)) date 2022-10-06 11:10:52*
%MOMM*%
%LPD*%
G01*
G04 APERTURE LIST*
%TA.AperFunction,Profile*%
%ADD10C,0.100000*%
%TD*%
%ADD11C,0.200000*%
%ADD12C,0.040000*%
%ADD13C,0.070000*%
%ADD14C,0.100000*%
%ADD15C,0.152000*%
G04 APERTURE END LIST*
D10*
X22499320Y-4457700D02*
X11816080Y-4457700D01*
X11816080Y-4457700D02*
X11816080Y-12895580D01*
X11816080Y-12895580D02*
X22499320Y-12895580D01*
X22499320Y-12895580D02*
X22499320Y-4457700D01*
D11*
D12*
X12304255Y-4917930D02*
X12344255Y-4957930D01*
X12344255Y-4917930D02*
X12304255Y-4957930D01*
X12309160Y-7771220D02*
X12349160Y-7811220D01*
X12349160Y-7771220D02*
X12309160Y-7811220D01*
X12314240Y-10626180D02*
X12354240Y-10666180D01*
X12354240Y-10626180D02*
X12314240Y-10666180D01*
X12344895Y-6919450D02*
X12384895Y-6959450D01*
X12384895Y-6919450D02*
X12344895Y-6959450D01*
X12349800Y-9772740D02*
X12389800Y-9812740D01*
X12389800Y-9772740D02*
X12349800Y-9812740D01*
X12354880Y-12627700D02*
X12394880Y-12667700D01*
X12394880Y-12627700D02*
X12354880Y-12667700D01*
X12466815Y-5949170D02*
X12506815Y-5989170D01*
X12506815Y-5949170D02*
X12466815Y-5989170D01*
X12471720Y-8802460D02*
X12511720Y-8842460D01*
X12511720Y-8802460D02*
X12471720Y-8842460D01*
X12476800Y-11657420D02*
X12516800Y-11697420D01*
X12516800Y-11657420D02*
X12476800Y-11697420D01*
X12639535Y-4821410D02*
X12679535Y-4861410D01*
X12679535Y-4821410D02*
X12639535Y-4861410D01*
X12644440Y-7674700D02*
X12684440Y-7714700D01*
X12684440Y-7674700D02*
X12644440Y-7714700D01*
X12649520Y-10529660D02*
X12689520Y-10569660D01*
X12689520Y-10529660D02*
X12649520Y-10569660D01*
X12827495Y-6619730D02*
X12867495Y-6659730D01*
X12867495Y-6619730D02*
X12827495Y-6659730D01*
X12832400Y-9473020D02*
X12872400Y-9513020D01*
X12872400Y-9473020D02*
X12832400Y-9513020D01*
X12837480Y-12327980D02*
X12877480Y-12367980D01*
X12877480Y-12327980D02*
X12837480Y-12367980D01*
X13335495Y-6873730D02*
X13375495Y-6913730D01*
X13375495Y-6873730D02*
X13335495Y-6913730D01*
X13340400Y-9727020D02*
X13380400Y-9767020D01*
X13380400Y-9727020D02*
X13340400Y-9767020D01*
X13345480Y-12581980D02*
X13385480Y-12621980D01*
X13385480Y-12581980D02*
X13345480Y-12621980D01*
X13614895Y-4775690D02*
X13654895Y-4815690D01*
X13654895Y-4775690D02*
X13614895Y-4815690D01*
X13619800Y-7628980D02*
X13659800Y-7668980D01*
X13659800Y-7628980D02*
X13619800Y-7668980D01*
X13624880Y-10483940D02*
X13664880Y-10523940D01*
X13664880Y-10483940D02*
X13624880Y-10523940D01*
X13802855Y-6543530D02*
X13842855Y-6583530D01*
X13842855Y-6543530D02*
X13802855Y-6583530D01*
X13807760Y-9396820D02*
X13847760Y-9436820D01*
X13847760Y-9396820D02*
X13807760Y-9436820D01*
X13812840Y-12251780D02*
X13852840Y-12291780D01*
X13852840Y-12251780D02*
X13812840Y-12291780D01*
X15118575Y-4796010D02*
X15158575Y-4836010D01*
X15158575Y-4796010D02*
X15118575Y-4836010D01*
X15123480Y-7649300D02*
X15163480Y-7689300D01*
X15163480Y-7649300D02*
X15123480Y-7689300D01*
X15128560Y-10504260D02*
X15168560Y-10544260D01*
X15168560Y-10504260D02*
X15128560Y-10544260D01*
X15199855Y-4796010D02*
X15239855Y-4836010D01*
X15239855Y-4796010D02*
X15199855Y-4836010D01*
X15204760Y-7649300D02*
X15244760Y-7689300D01*
X15244760Y-7649300D02*
X15204760Y-7689300D01*
X15209840Y-10504260D02*
X15249840Y-10544260D01*
X15249840Y-10504260D02*
X15209840Y-10544260D01*
X15855175Y-6924530D02*
X15895175Y-6964530D01*
X15895175Y-6924530D02*
X15855175Y-6964530D01*
X15860080Y-9777820D02*
X15900080Y-9817820D01*
X15900080Y-9777820D02*
X15860080Y-9817820D01*
X15865160Y-12632780D02*
X15905160Y-12672780D01*
X15905160Y-12632780D02*
X15865160Y-12672780D01*
X15885655Y-5166850D02*
X15925655Y-5206850D01*
X15925655Y-5166850D02*
X15885655Y-5206850D01*
X15890560Y-8020140D02*
X15930560Y-8060140D01*
X15930560Y-8020140D02*
X15890560Y-8060140D01*
X15895640Y-10875100D02*
X15935640Y-10915100D01*
X15935640Y-10875100D02*
X15895640Y-10915100D01*
X15961855Y-6330170D02*
X16001855Y-6370170D01*
X16001855Y-6330170D02*
X15961855Y-6370170D01*
X15966760Y-9183460D02*
X16006760Y-9223460D01*
X16006760Y-9183460D02*
X15966760Y-9223460D01*
X15966935Y-5801850D02*
X16006935Y-5841850D01*
X16006935Y-5801850D02*
X15966935Y-5841850D01*
X15971840Y-8655140D02*
X16011840Y-8695140D01*
X16011840Y-8655140D02*
X15971840Y-8695140D01*
X15971840Y-12038420D02*
X16011840Y-12078420D01*
X16011840Y-12038420D02*
X15971840Y-12078420D01*
X15976920Y-11510100D02*
X16016920Y-11550100D01*
X16016920Y-11510100D02*
X15976920Y-11550100D01*
X15982175Y-4633450D02*
X16022175Y-4673450D01*
X16022175Y-4633450D02*
X15982175Y-4673450D01*
X15987080Y-7486740D02*
X16027080Y-7526740D01*
X16027080Y-7486740D02*
X15987080Y-7526740D01*
X15992160Y-10341700D02*
X16032160Y-10381700D01*
X16032160Y-10341700D02*
X15992160Y-10381700D01*
X16022815Y-5867890D02*
X16062815Y-5907890D01*
X16062815Y-5867890D02*
X16022815Y-5907890D01*
X16022815Y-6274290D02*
X16062815Y-6314290D01*
X16062815Y-6274290D02*
X16022815Y-6314290D01*
X16027720Y-8721180D02*
X16067720Y-8761180D01*
X16067720Y-8721180D02*
X16027720Y-8761180D01*
X16027720Y-9127580D02*
X16067720Y-9167580D01*
X16067720Y-9127580D02*
X16027720Y-9167580D01*
X16032800Y-11576140D02*
X16072800Y-11616140D01*
X16072800Y-11576140D02*
X16032800Y-11616140D01*
X16032800Y-11982540D02*
X16072800Y-12022540D01*
X16072800Y-11982540D02*
X16032800Y-12022540D01*
X16038055Y-5579740D02*
X16078055Y-5619740D01*
X16078055Y-5579740D02*
X16038055Y-5619740D01*
X16042960Y-8433030D02*
X16082960Y-8473030D01*
X16082960Y-8433030D02*
X16042960Y-8473030D01*
X16048040Y-11287990D02*
X16088040Y-11327990D01*
X16088040Y-11287990D02*
X16048040Y-11327990D01*
X16226015Y-4816330D02*
X16266015Y-4856330D01*
X16266015Y-4816330D02*
X16226015Y-4856330D01*
X16230920Y-7669620D02*
X16270920Y-7709620D01*
X16270920Y-7669620D02*
X16230920Y-7709620D01*
X16236000Y-10524580D02*
X16276000Y-10564580D01*
X16276000Y-10524580D02*
X16236000Y-10564580D01*
X16520655Y-6919450D02*
X16560655Y-6959450D01*
X16560655Y-6919450D02*
X16520655Y-6959450D01*
X16525560Y-9772740D02*
X16565560Y-9812740D01*
X16565560Y-9772740D02*
X16525560Y-9812740D01*
X16530640Y-12627700D02*
X16570640Y-12667700D01*
X16570640Y-12627700D02*
X16530640Y-12667700D01*
X17742304Y-4685580D02*
X17782304Y-4725580D01*
X17782304Y-4685580D02*
X17742304Y-4725580D01*
X17747384Y-7540540D02*
X17787384Y-7580540D01*
X17787384Y-7540540D02*
X17747384Y-7580540D01*
X17752289Y-10393830D02*
X17792289Y-10433830D01*
X17792289Y-10393830D02*
X17752289Y-10433830D01*
X18036944Y-6788700D02*
X18076944Y-6828700D01*
X18076944Y-6788700D02*
X18036944Y-6828700D01*
X18042024Y-9643660D02*
X18082024Y-9683660D01*
X18082024Y-9643660D02*
X18042024Y-9683660D01*
X18046929Y-12496950D02*
X18086929Y-12536950D01*
X18086929Y-12496950D02*
X18046929Y-12536950D01*
X18224904Y-6025290D02*
X18264904Y-6065290D01*
X18264904Y-6025290D02*
X18224904Y-6065290D01*
X18229984Y-8880250D02*
X18269984Y-8920250D01*
X18269984Y-8880250D02*
X18229984Y-8920250D01*
X18234889Y-11733540D02*
X18274889Y-11773540D01*
X18274889Y-11733540D02*
X18234889Y-11773540D01*
X18240144Y-5330740D02*
X18280144Y-5370740D01*
X18280144Y-5330740D02*
X18240144Y-5370740D01*
X18240144Y-5737140D02*
X18280144Y-5777140D01*
X18280144Y-5737140D02*
X18240144Y-5777140D01*
X18245224Y-8185700D02*
X18285224Y-8225700D01*
X18285224Y-8185700D02*
X18245224Y-8225700D01*
X18245224Y-8592100D02*
X18285224Y-8632100D01*
X18285224Y-8592100D02*
X18245224Y-8632100D01*
X18250129Y-11038990D02*
X18290129Y-11078990D01*
X18290129Y-11038990D02*
X18250129Y-11078990D01*
X18250129Y-11445390D02*
X18290129Y-11485390D01*
X18290129Y-11445390D02*
X18250129Y-11485390D01*
X18280784Y-6971580D02*
X18320784Y-7011580D01*
X18320784Y-6971580D02*
X18280784Y-7011580D01*
X18285864Y-9826540D02*
X18325864Y-9866540D01*
X18325864Y-9826540D02*
X18285864Y-9866540D01*
X18290769Y-12679830D02*
X18330769Y-12719830D01*
X18330769Y-12679830D02*
X18290769Y-12719830D01*
X18296024Y-5803180D02*
X18336024Y-5843180D01*
X18336024Y-5803180D02*
X18296024Y-5843180D01*
X18301104Y-5274860D02*
X18341104Y-5314860D01*
X18341104Y-5274860D02*
X18301104Y-5314860D01*
X18301104Y-8658140D02*
X18341104Y-8698140D01*
X18341104Y-8658140D02*
X18301104Y-8698140D01*
X18306009Y-11511430D02*
X18346009Y-11551430D01*
X18346009Y-11511430D02*
X18306009Y-11551430D01*
X18306184Y-8129820D02*
X18346184Y-8169820D01*
X18346184Y-8129820D02*
X18306184Y-8169820D01*
X18311089Y-10983110D02*
X18351089Y-11023110D01*
X18351089Y-10983110D02*
X18311089Y-11023110D01*
X18377304Y-6438180D02*
X18417304Y-6478180D01*
X18417304Y-6438180D02*
X18377304Y-6478180D01*
X18382384Y-9293140D02*
X18422384Y-9333140D01*
X18422384Y-9293140D02*
X18382384Y-9333140D01*
X18387289Y-12146430D02*
X18427289Y-12186430D01*
X18427289Y-12146430D02*
X18387289Y-12186430D01*
X18407784Y-4680500D02*
X18447784Y-4720500D01*
X18447784Y-4680500D02*
X18407784Y-4720500D01*
X18412864Y-7535460D02*
X18452864Y-7575460D01*
X18452864Y-7535460D02*
X18412864Y-7575460D01*
X18417769Y-10388750D02*
X18457769Y-10428750D01*
X18457769Y-10388750D02*
X18417769Y-10428750D01*
X19063104Y-6809020D02*
X19103104Y-6849020D01*
X19103104Y-6809020D02*
X19063104Y-6849020D01*
X19068184Y-9663980D02*
X19108184Y-9703980D01*
X19108184Y-9663980D02*
X19068184Y-9703980D01*
X19073089Y-12517270D02*
X19113089Y-12557270D01*
X19113089Y-12517270D02*
X19073089Y-12557270D01*
X19144384Y-6809020D02*
X19184384Y-6849020D01*
X19184384Y-6809020D02*
X19144384Y-6849020D01*
X19149464Y-9663980D02*
X19189464Y-9703980D01*
X19189464Y-9663980D02*
X19149464Y-9703980D01*
X19154369Y-12517270D02*
X19194369Y-12557270D01*
X19194369Y-12517270D02*
X19154369Y-12557270D01*
X20460104Y-5061500D02*
X20500104Y-5101500D01*
X20500104Y-5061500D02*
X20460104Y-5101500D01*
X20465184Y-7916460D02*
X20505184Y-7956460D01*
X20505184Y-7916460D02*
X20465184Y-7956460D01*
X20470089Y-10769750D02*
X20510089Y-10809750D01*
X20510089Y-10769750D02*
X20470089Y-10809750D01*
X20648064Y-6829340D02*
X20688064Y-6869340D01*
X20688064Y-6829340D02*
X20648064Y-6869340D01*
X20653144Y-9684300D02*
X20693144Y-9724300D01*
X20693144Y-9684300D02*
X20653144Y-9724300D01*
X20658049Y-12537590D02*
X20698049Y-12577590D01*
X20698049Y-12537590D02*
X20658049Y-12577590D01*
X20927464Y-4731300D02*
X20967464Y-4771300D01*
X20967464Y-4731300D02*
X20927464Y-4771300D01*
X20932544Y-7586260D02*
X20972544Y-7626260D01*
X20972544Y-7586260D02*
X20932544Y-7626260D01*
X20937449Y-10439550D02*
X20977449Y-10479550D01*
X20977449Y-10439550D02*
X20937449Y-10479550D01*
X21435464Y-4985300D02*
X21475464Y-5025300D01*
X21475464Y-4985300D02*
X21435464Y-5025300D01*
X21440544Y-7840260D02*
X21480544Y-7880260D01*
X21480544Y-7840260D02*
X21440544Y-7880260D01*
X21445449Y-10693550D02*
X21485449Y-10733550D01*
X21485449Y-10693550D02*
X21445449Y-10733550D01*
X21623424Y-6783620D02*
X21663424Y-6823620D01*
X21663424Y-6783620D02*
X21623424Y-6823620D01*
X21628504Y-9638580D02*
X21668504Y-9678580D01*
X21668504Y-9638580D02*
X21628504Y-9678580D01*
X21633409Y-12491870D02*
X21673409Y-12531870D01*
X21673409Y-12491870D02*
X21633409Y-12531870D01*
X21796144Y-5655860D02*
X21836144Y-5695860D01*
X21836144Y-5655860D02*
X21796144Y-5695860D01*
X21801224Y-8510820D02*
X21841224Y-8550820D01*
X21841224Y-8510820D02*
X21801224Y-8550820D01*
X21806129Y-11364110D02*
X21846129Y-11404110D01*
X21846129Y-11364110D02*
X21806129Y-11404110D01*
X21918064Y-4685580D02*
X21958064Y-4725580D01*
X21958064Y-4685580D02*
X21918064Y-4725580D01*
X21923144Y-7540540D02*
X21963144Y-7580540D01*
X21963144Y-7540540D02*
X21923144Y-7580540D01*
X21928049Y-10393830D02*
X21968049Y-10433830D01*
X21968049Y-10393830D02*
X21928049Y-10433830D01*
X21958704Y-6687100D02*
X21998704Y-6727100D01*
X21998704Y-6687100D02*
X21958704Y-6727100D01*
X21963784Y-9542060D02*
X22003784Y-9582060D01*
X22003784Y-9542060D02*
X21963784Y-9582060D01*
X21968689Y-12395350D02*
X22008689Y-12435350D01*
X22008689Y-12395350D02*
X21968689Y-12435350D01*
D13*
X16458640Y-6212840D02*
G75*
G03*
X16458640Y-6212840I-35000J0D01*
G01*
X16463545Y-9066130D02*
G75*
G03*
X16463545Y-9066130I-35000J0D01*
G01*
X16468625Y-11921090D02*
G75*
G03*
X16468625Y-11921090I-35000J0D01*
G01*
X16966640Y-6212840D02*
G75*
G03*
X16966640Y-6212840I-35000J0D01*
G01*
X16971545Y-9066130D02*
G75*
G03*
X16971545Y-9066130I-35000J0D01*
G01*
X16976625Y-11921090D02*
G75*
G03*
X16976625Y-11921090I-35000J0D01*
G01*
X17406319Y-5432190D02*
G75*
G03*
X17406319Y-5432190I-35000J0D01*
G01*
X17411399Y-8287150D02*
G75*
G03*
X17411399Y-8287150I-35000J0D01*
G01*
X17416304Y-11140440D02*
G75*
G03*
X17416304Y-11140440I-35000J0D01*
G01*
X17914319Y-5432190D02*
G75*
G03*
X17914319Y-5432190I-35000J0D01*
G01*
X17919399Y-8287150D02*
G75*
G03*
X17919399Y-8287150I-35000J0D01*
G01*
X17924304Y-11140440D02*
G75*
G03*
X17924304Y-11140440I-35000J0D01*
G01*
D14*
X12232815Y-4614610D02*
X12232815Y-4714610D01*
X12182815Y-4664610D02*
X12282815Y-4664610D01*
X12232815Y-6138610D02*
X12232815Y-6238610D01*
X12182815Y-6188610D02*
X12282815Y-6188610D01*
X12237720Y-7467900D02*
X12237720Y-7567900D01*
X12187720Y-7517900D02*
X12287720Y-7517900D01*
X12237720Y-8991900D02*
X12237720Y-9091900D01*
X12187720Y-9041900D02*
X12287720Y-9041900D01*
X12242800Y-10322860D02*
X12242800Y-10422860D01*
X12192800Y-10372860D02*
X12292800Y-10372860D01*
X12242800Y-11846860D02*
X12242800Y-11946860D01*
X12192800Y-11896860D02*
X12292800Y-11896860D01*
X12486815Y-4614610D02*
X12486815Y-4714610D01*
X12436815Y-4664610D02*
X12536815Y-4664610D01*
X12486815Y-6138610D02*
X12486815Y-6238610D01*
X12436815Y-6188610D02*
X12536815Y-6188610D01*
X12491720Y-7467900D02*
X12491720Y-7567900D01*
X12441720Y-7517900D02*
X12541720Y-7517900D01*
X12491720Y-8991900D02*
X12491720Y-9091900D01*
X12441720Y-9041900D02*
X12541720Y-9041900D01*
X12496800Y-10322860D02*
X12496800Y-10422860D01*
X12446800Y-10372860D02*
X12546800Y-10372860D01*
X12496800Y-11846860D02*
X12496800Y-11946860D01*
X12446800Y-11896860D02*
X12546800Y-11896860D01*
X12740815Y-4614610D02*
X12740815Y-4714610D01*
X12690815Y-4664610D02*
X12790815Y-4664610D01*
X12740815Y-6138610D02*
X12740815Y-6238610D01*
X12690815Y-6188610D02*
X12790815Y-6188610D01*
X12745720Y-7467900D02*
X12745720Y-7567900D01*
X12695720Y-7517900D02*
X12795720Y-7517900D01*
X12745720Y-8991900D02*
X12745720Y-9091900D01*
X12695720Y-9041900D02*
X12795720Y-9041900D01*
X12750800Y-10322860D02*
X12750800Y-10422860D01*
X12700800Y-10372860D02*
X12800800Y-10372860D01*
X12750800Y-11846860D02*
X12750800Y-11946860D01*
X12700800Y-11896860D02*
X12800800Y-11896860D01*
X12994815Y-4614610D02*
X12994815Y-4714610D01*
X12944815Y-4664610D02*
X13044815Y-4664610D01*
X12994815Y-6138610D02*
X12994815Y-6238610D01*
X12944815Y-6188610D02*
X13044815Y-6188610D01*
X12999720Y-7467900D02*
X12999720Y-7567900D01*
X12949720Y-7517900D02*
X13049720Y-7517900D01*
X12999720Y-8991900D02*
X12999720Y-9091900D01*
X12949720Y-9041900D02*
X13049720Y-9041900D01*
X13004800Y-10322860D02*
X13004800Y-10422860D01*
X12954800Y-10372860D02*
X13054800Y-10372860D01*
X13004800Y-11846860D02*
X13004800Y-11946860D01*
X12954800Y-11896860D02*
X13054800Y-11896860D01*
X13248815Y-4614610D02*
X13248815Y-4714610D01*
X13198815Y-4664610D02*
X13298815Y-4664610D01*
X13248815Y-6138610D02*
X13248815Y-6238610D01*
X13198815Y-6188610D02*
X13298815Y-6188610D01*
X13253720Y-7467900D02*
X13253720Y-7567900D01*
X13203720Y-7517900D02*
X13303720Y-7517900D01*
X13253720Y-8991900D02*
X13253720Y-9091900D01*
X13203720Y-9041900D02*
X13303720Y-9041900D01*
X13258800Y-10322860D02*
X13258800Y-10422860D01*
X13208800Y-10372860D02*
X13308800Y-10372860D01*
X13258800Y-11846860D02*
X13258800Y-11946860D01*
X13208800Y-11896860D02*
X13308800Y-11896860D01*
X13502815Y-4614610D02*
X13502815Y-4714610D01*
X13452815Y-4664610D02*
X13552815Y-4664610D01*
X13502815Y-6138610D02*
X13502815Y-6238610D01*
X13452815Y-6188610D02*
X13552815Y-6188610D01*
X13507720Y-7467900D02*
X13507720Y-7567900D01*
X13457720Y-7517900D02*
X13557720Y-7517900D01*
X13507720Y-8991900D02*
X13507720Y-9091900D01*
X13457720Y-9041900D02*
X13557720Y-9041900D01*
X13512800Y-10322860D02*
X13512800Y-10422860D01*
X13462800Y-10372860D02*
X13562800Y-10372860D01*
X13512800Y-11846860D02*
X13512800Y-11946860D01*
X13462800Y-11896860D02*
X13562800Y-11896860D01*
X13756815Y-4614610D02*
X13756815Y-4714610D01*
X13706815Y-4664610D02*
X13806815Y-4664610D01*
X13756815Y-6138610D02*
X13756815Y-6238610D01*
X13706815Y-6188610D02*
X13806815Y-6188610D01*
X13761720Y-7467900D02*
X13761720Y-7567900D01*
X13711720Y-7517900D02*
X13811720Y-7517900D01*
X13761720Y-8991900D02*
X13761720Y-9091900D01*
X13711720Y-9041900D02*
X13811720Y-9041900D01*
X13766800Y-10322860D02*
X13766800Y-10422860D01*
X13716800Y-10372860D02*
X13816800Y-10372860D01*
X13766800Y-11846860D02*
X13766800Y-11946860D01*
X13716800Y-11896860D02*
X13816800Y-11896860D01*
X14010815Y-4614610D02*
X14010815Y-4714610D01*
X13960815Y-4664610D02*
X14060815Y-4664610D01*
X14010815Y-6138610D02*
X14010815Y-6238610D01*
X13960815Y-6188610D02*
X14060815Y-6188610D01*
X14015720Y-7467900D02*
X14015720Y-7567900D01*
X13965720Y-7517900D02*
X14065720Y-7517900D01*
X14015720Y-8991900D02*
X14015720Y-9091900D01*
X13965720Y-9041900D02*
X14065720Y-9041900D01*
X14020800Y-10322860D02*
X14020800Y-10422860D01*
X13970800Y-10372860D02*
X14070800Y-10372860D01*
X14020800Y-11846860D02*
X14020800Y-11946860D01*
X13970800Y-11896860D02*
X14070800Y-11896860D01*
X14264815Y-4614610D02*
X14264815Y-4714610D01*
X14214815Y-4664610D02*
X14314815Y-4664610D01*
X14264815Y-6138610D02*
X14264815Y-6238610D01*
X14214815Y-6188610D02*
X14314815Y-6188610D01*
X14269720Y-7467900D02*
X14269720Y-7567900D01*
X14219720Y-7517900D02*
X14319720Y-7517900D01*
X14269720Y-8991900D02*
X14269720Y-9091900D01*
X14219720Y-9041900D02*
X14319720Y-9041900D01*
X14274800Y-10322860D02*
X14274800Y-10422860D01*
X14224800Y-10372860D02*
X14324800Y-10372860D01*
X14274800Y-11846860D02*
X14274800Y-11946860D01*
X14224800Y-11896860D02*
X14324800Y-11896860D01*
X14518815Y-4614610D02*
X14518815Y-4714610D01*
X14468815Y-4664610D02*
X14568815Y-4664610D01*
X14518815Y-6138610D02*
X14518815Y-6238610D01*
X14468815Y-6188610D02*
X14568815Y-6188610D01*
X14523720Y-7467900D02*
X14523720Y-7567900D01*
X14473720Y-7517900D02*
X14573720Y-7517900D01*
X14523720Y-8991900D02*
X14523720Y-9091900D01*
X14473720Y-9041900D02*
X14573720Y-9041900D01*
X14528800Y-10322860D02*
X14528800Y-10422860D01*
X14478800Y-10372860D02*
X14578800Y-10372860D01*
X14528800Y-11846860D02*
X14528800Y-11946860D01*
X14478800Y-11896860D02*
X14578800Y-11896860D01*
X14772815Y-4614610D02*
X14772815Y-4714610D01*
X14722815Y-4664610D02*
X14822815Y-4664610D01*
X14772815Y-6138610D02*
X14772815Y-6238610D01*
X14722815Y-6188610D02*
X14822815Y-6188610D01*
X14777720Y-7467900D02*
X14777720Y-7567900D01*
X14727720Y-7517900D02*
X14827720Y-7517900D01*
X14777720Y-8991900D02*
X14777720Y-9091900D01*
X14727720Y-9041900D02*
X14827720Y-9041900D01*
X14782800Y-10322860D02*
X14782800Y-10422860D01*
X14732800Y-10372860D02*
X14832800Y-10372860D01*
X14782800Y-11846860D02*
X14782800Y-11946860D01*
X14732800Y-11896860D02*
X14832800Y-11896860D01*
X14986175Y-5126690D02*
X14986175Y-5226690D01*
X14936175Y-5176690D02*
X15036175Y-5176690D01*
X14986175Y-5380690D02*
X14986175Y-5480690D01*
X14936175Y-5430690D02*
X15036175Y-5430690D01*
X14986175Y-5634690D02*
X14986175Y-5734690D01*
X14936175Y-5684690D02*
X15036175Y-5684690D01*
X14991080Y-7979980D02*
X14991080Y-8079980D01*
X14941080Y-8029980D02*
X15041080Y-8029980D01*
X14991080Y-8233980D02*
X14991080Y-8333980D01*
X14941080Y-8283980D02*
X15041080Y-8283980D01*
X14991080Y-8487980D02*
X14991080Y-8587980D01*
X14941080Y-8537980D02*
X15041080Y-8537980D01*
X14996160Y-10834940D02*
X14996160Y-10934940D01*
X14946160Y-10884940D02*
X15046160Y-10884940D01*
X14996160Y-11088940D02*
X14996160Y-11188940D01*
X14946160Y-11138940D02*
X15046160Y-11138940D01*
X14996160Y-11342940D02*
X14996160Y-11442940D01*
X14946160Y-11392940D02*
X15046160Y-11392940D01*
X15026815Y-4614610D02*
X15026815Y-4714610D01*
X14976815Y-4664610D02*
X15076815Y-4664610D01*
X15026815Y-6138610D02*
X15026815Y-6238610D01*
X14976815Y-6188610D02*
X15076815Y-6188610D01*
X15031720Y-7467900D02*
X15031720Y-7567900D01*
X14981720Y-7517900D02*
X15081720Y-7517900D01*
X15031720Y-8991900D02*
X15031720Y-9091900D01*
X14981720Y-9041900D02*
X15081720Y-9041900D01*
X15036800Y-10322860D02*
X15036800Y-10422860D01*
X14986800Y-10372860D02*
X15086800Y-10372860D01*
X15036800Y-11846860D02*
X15036800Y-11946860D01*
X14986800Y-11896860D02*
X15086800Y-11896860D01*
X15280815Y-4614610D02*
X15280815Y-4714610D01*
X15230815Y-4664610D02*
X15330815Y-4664610D01*
X15280815Y-6138610D02*
X15280815Y-6238610D01*
X15230815Y-6188610D02*
X15330815Y-6188610D01*
X15285720Y-7467900D02*
X15285720Y-7567900D01*
X15235720Y-7517900D02*
X15335720Y-7517900D01*
X15285720Y-8991900D02*
X15285720Y-9091900D01*
X15235720Y-9041900D02*
X15335720Y-9041900D01*
X15290800Y-10322860D02*
X15290800Y-10422860D01*
X15240800Y-10372860D02*
X15340800Y-10372860D01*
X15290800Y-11846860D02*
X15290800Y-11946860D01*
X15240800Y-11896860D02*
X15340800Y-11896860D01*
X15534815Y-4614610D02*
X15534815Y-4714610D01*
X15484815Y-4664610D02*
X15584815Y-4664610D01*
X15534815Y-6138610D02*
X15534815Y-6238610D01*
X15484815Y-6188610D02*
X15584815Y-6188610D01*
X15539720Y-7467900D02*
X15539720Y-7567900D01*
X15489720Y-7517900D02*
X15589720Y-7517900D01*
X15539720Y-8991900D02*
X15539720Y-9091900D01*
X15489720Y-9041900D02*
X15589720Y-9041900D01*
X15544800Y-10322860D02*
X15544800Y-10422860D01*
X15494800Y-10372860D02*
X15594800Y-10372860D01*
X15544800Y-11846860D02*
X15544800Y-11946860D01*
X15494800Y-11896860D02*
X15594800Y-11896860D01*
X15788815Y-4614610D02*
X15788815Y-4714610D01*
X15738815Y-4664610D02*
X15838815Y-4664610D01*
X15788815Y-6138610D02*
X15788815Y-6238610D01*
X15738815Y-6188610D02*
X15838815Y-6188610D01*
X15793720Y-7467900D02*
X15793720Y-7567900D01*
X15743720Y-7517900D02*
X15843720Y-7517900D01*
X15793720Y-8991900D02*
X15793720Y-9091900D01*
X15743720Y-9041900D02*
X15843720Y-9041900D01*
X15798800Y-10322860D02*
X15798800Y-10422860D01*
X15748800Y-10372860D02*
X15848800Y-10372860D01*
X15798800Y-11846860D02*
X15798800Y-11946860D01*
X15748800Y-11896860D02*
X15848800Y-11896860D01*
X16433975Y-4872690D02*
X16433975Y-4972690D01*
X16383975Y-4922690D02*
X16483975Y-4922690D01*
X16433975Y-5126690D02*
X16433975Y-5226690D01*
X16383975Y-5176690D02*
X16483975Y-5176690D01*
X16433975Y-5380690D02*
X16433975Y-5480690D01*
X16383975Y-5430690D02*
X16483975Y-5430690D01*
X16433975Y-5634690D02*
X16433975Y-5734690D01*
X16383975Y-5684690D02*
X16483975Y-5684690D01*
X16433975Y-5888690D02*
X16433975Y-5988690D01*
X16383975Y-5938690D02*
X16483975Y-5938690D01*
X16438880Y-7725980D02*
X16438880Y-7825980D01*
X16388880Y-7775980D02*
X16488880Y-7775980D01*
X16438880Y-7979980D02*
X16438880Y-8079980D01*
X16388880Y-8029980D02*
X16488880Y-8029980D01*
X16438880Y-8233980D02*
X16438880Y-8333980D01*
X16388880Y-8283980D02*
X16488880Y-8283980D01*
X16438880Y-8487980D02*
X16438880Y-8587980D01*
X16388880Y-8537980D02*
X16488880Y-8537980D01*
X16438880Y-8741980D02*
X16438880Y-8841980D01*
X16388880Y-8791980D02*
X16488880Y-8791980D01*
X16443960Y-10580940D02*
X16443960Y-10680940D01*
X16393960Y-10630940D02*
X16493960Y-10630940D01*
X16443960Y-10834940D02*
X16443960Y-10934940D01*
X16393960Y-10884940D02*
X16493960Y-10884940D01*
X16443960Y-11088940D02*
X16443960Y-11188940D01*
X16393960Y-11138940D02*
X16493960Y-11138940D01*
X16443960Y-11342940D02*
X16443960Y-11442940D01*
X16393960Y-11392940D02*
X16493960Y-11392940D01*
X16443960Y-11596940D02*
X16443960Y-11696940D01*
X16393960Y-11646940D02*
X16493960Y-11646940D01*
X16845280Y-5593880D02*
X16845280Y-5693880D01*
X16795280Y-5643880D02*
X16895280Y-5643880D01*
X16845280Y-5847880D02*
X16845280Y-5947880D01*
X16795280Y-5897880D02*
X16895280Y-5897880D01*
X16845455Y-4630350D02*
X16845455Y-4730350D01*
X16795455Y-4680350D02*
X16895455Y-4680350D01*
X16845455Y-4884350D02*
X16845455Y-4984350D01*
X16795455Y-4934350D02*
X16895455Y-4934350D01*
X16845455Y-5138350D02*
X16845455Y-5238350D01*
X16795455Y-5188350D02*
X16895455Y-5188350D01*
X16850185Y-8447170D02*
X16850185Y-8547170D01*
X16800185Y-8497170D02*
X16900185Y-8497170D01*
X16850185Y-8701170D02*
X16850185Y-8801170D01*
X16800185Y-8751170D02*
X16900185Y-8751170D01*
X16850360Y-7483640D02*
X16850360Y-7583640D01*
X16800360Y-7533640D02*
X16900360Y-7533640D01*
X16850360Y-7737640D02*
X16850360Y-7837640D01*
X16800360Y-7787640D02*
X16900360Y-7787640D01*
X16850360Y-7991640D02*
X16850360Y-8091640D01*
X16800360Y-8041640D02*
X16900360Y-8041640D01*
X16855265Y-11302130D02*
X16855265Y-11402130D01*
X16805265Y-11352130D02*
X16905265Y-11352130D01*
X16855265Y-11556130D02*
X16855265Y-11656130D01*
X16805265Y-11606130D02*
X16905265Y-11606130D01*
X16855440Y-10338600D02*
X16855440Y-10438600D01*
X16805440Y-10388600D02*
X16905440Y-10388600D01*
X16855440Y-10592600D02*
X16855440Y-10692600D01*
X16805440Y-10642600D02*
X16905440Y-10642600D01*
X16855440Y-10846600D02*
X16855440Y-10946600D01*
X16805440Y-10896600D02*
X16905440Y-10896600D01*
X17457504Y-6406680D02*
X17457504Y-6506680D01*
X17407504Y-6456680D02*
X17507504Y-6456680D01*
X17457504Y-6660680D02*
X17457504Y-6760680D01*
X17407504Y-6710680D02*
X17507504Y-6710680D01*
X17457504Y-6914680D02*
X17457504Y-7014680D01*
X17407504Y-6964680D02*
X17507504Y-6964680D01*
X17457679Y-5697150D02*
X17457679Y-5797150D01*
X17407679Y-5747150D02*
X17507679Y-5747150D01*
X17457679Y-5951150D02*
X17457679Y-6051150D01*
X17407679Y-6001150D02*
X17507679Y-6001150D01*
X17462584Y-9261640D02*
X17462584Y-9361640D01*
X17412584Y-9311640D02*
X17512584Y-9311640D01*
X17462584Y-9515640D02*
X17462584Y-9615640D01*
X17412584Y-9565640D02*
X17512584Y-9565640D01*
X17462584Y-9769640D02*
X17462584Y-9869640D01*
X17412584Y-9819640D02*
X17512584Y-9819640D01*
X17462759Y-8552110D02*
X17462759Y-8652110D01*
X17412759Y-8602110D02*
X17512759Y-8602110D01*
X17462759Y-8806110D02*
X17462759Y-8906110D01*
X17412759Y-8856110D02*
X17512759Y-8856110D01*
X17467489Y-12114930D02*
X17467489Y-12214930D01*
X17417489Y-12164930D02*
X17517489Y-12164930D01*
X17467489Y-12368930D02*
X17467489Y-12468930D01*
X17417489Y-12418930D02*
X17517489Y-12418930D01*
X17467489Y-12622930D02*
X17467489Y-12722930D01*
X17417489Y-12672930D02*
X17517489Y-12672930D01*
X17467664Y-11405400D02*
X17467664Y-11505400D01*
X17417664Y-11455400D02*
X17517664Y-11455400D01*
X17467664Y-11659400D02*
X17467664Y-11759400D01*
X17417664Y-11709400D02*
X17517664Y-11709400D01*
X17868984Y-5656340D02*
X17868984Y-5756340D01*
X17818984Y-5706340D02*
X17918984Y-5706340D01*
X17868984Y-5910340D02*
X17868984Y-6010340D01*
X17818984Y-5960340D02*
X17918984Y-5960340D01*
X17868984Y-6164340D02*
X17868984Y-6264340D01*
X17818984Y-6214340D02*
X17918984Y-6214340D01*
X17868984Y-6418340D02*
X17868984Y-6518340D01*
X17818984Y-6468340D02*
X17918984Y-6468340D01*
X17868984Y-6672340D02*
X17868984Y-6772340D01*
X17818984Y-6722340D02*
X17918984Y-6722340D01*
X17874064Y-8511300D02*
X17874064Y-8611300D01*
X17824064Y-8561300D02*
X17924064Y-8561300D01*
X17874064Y-8765300D02*
X17874064Y-8865300D01*
X17824064Y-8815300D02*
X17924064Y-8815300D01*
X17874064Y-9019300D02*
X17874064Y-9119300D01*
X17824064Y-9069300D02*
X17924064Y-9069300D01*
X17874064Y-9273300D02*
X17874064Y-9373300D01*
X17824064Y-9323300D02*
X17924064Y-9323300D01*
X17874064Y-9527300D02*
X17874064Y-9627300D01*
X17824064Y-9577300D02*
X17924064Y-9577300D01*
X17878969Y-11364590D02*
X17878969Y-11464590D01*
X17828969Y-11414590D02*
X17928969Y-11414590D01*
X17878969Y-11618590D02*
X17878969Y-11718590D01*
X17828969Y-11668590D02*
X17928969Y-11668590D01*
X17878969Y-11872590D02*
X17878969Y-11972590D01*
X17828969Y-11922590D02*
X17928969Y-11922590D01*
X17878969Y-12126590D02*
X17878969Y-12226590D01*
X17828969Y-12176590D02*
X17928969Y-12176590D01*
X17878969Y-12380590D02*
X17878969Y-12480590D01*
X17828969Y-12430590D02*
X17928969Y-12430590D01*
X18514144Y-5406420D02*
X18514144Y-5506420D01*
X18464144Y-5456420D02*
X18564144Y-5456420D01*
X18514144Y-6930420D02*
X18514144Y-7030420D01*
X18464144Y-6980420D02*
X18564144Y-6980420D01*
X18519224Y-8261380D02*
X18519224Y-8361380D01*
X18469224Y-8311380D02*
X18569224Y-8311380D01*
X18519224Y-9785380D02*
X18519224Y-9885380D01*
X18469224Y-9835380D02*
X18569224Y-9835380D01*
X18524129Y-11114670D02*
X18524129Y-11214670D01*
X18474129Y-11164670D02*
X18574129Y-11164670D01*
X18524129Y-12638670D02*
X18524129Y-12738670D01*
X18474129Y-12688670D02*
X18574129Y-12688670D01*
X18768144Y-5406420D02*
X18768144Y-5506420D01*
X18718144Y-5456420D02*
X18818144Y-5456420D01*
X18768144Y-6930420D02*
X18768144Y-7030420D01*
X18718144Y-6980420D02*
X18818144Y-6980420D01*
X18773224Y-8261380D02*
X18773224Y-8361380D01*
X18723224Y-8311380D02*
X18823224Y-8311380D01*
X18773224Y-9785380D02*
X18773224Y-9885380D01*
X18723224Y-9835380D02*
X18823224Y-9835380D01*
X18778129Y-11114670D02*
X18778129Y-11214670D01*
X18728129Y-11164670D02*
X18828129Y-11164670D01*
X18778129Y-12638670D02*
X18778129Y-12738670D01*
X18728129Y-12688670D02*
X18828129Y-12688670D01*
X19022144Y-5406420D02*
X19022144Y-5506420D01*
X18972144Y-5456420D02*
X19072144Y-5456420D01*
X19022144Y-6930420D02*
X19022144Y-7030420D01*
X18972144Y-6980420D02*
X19072144Y-6980420D01*
X19027224Y-8261380D02*
X19027224Y-8361380D01*
X18977224Y-8311380D02*
X19077224Y-8311380D01*
X19027224Y-9785380D02*
X19027224Y-9885380D01*
X18977224Y-9835380D02*
X19077224Y-9835380D01*
X19032129Y-11114670D02*
X19032129Y-11214670D01*
X18982129Y-11164670D02*
X19082129Y-11164670D01*
X19032129Y-12638670D02*
X19032129Y-12738670D01*
X18982129Y-12688670D02*
X19082129Y-12688670D01*
X19276144Y-5406420D02*
X19276144Y-5506420D01*
X19226144Y-5456420D02*
X19326144Y-5456420D01*
X19276144Y-6930420D02*
X19276144Y-7030420D01*
X19226144Y-6980420D02*
X19326144Y-6980420D01*
X19281224Y-8261380D02*
X19281224Y-8361380D01*
X19231224Y-8311380D02*
X19331224Y-8311380D01*
X19281224Y-9785380D02*
X19281224Y-9885380D01*
X19231224Y-9835380D02*
X19331224Y-9835380D01*
X19286129Y-11114670D02*
X19286129Y-11214670D01*
X19236129Y-11164670D02*
X19336129Y-11164670D01*
X19286129Y-12638670D02*
X19286129Y-12738670D01*
X19236129Y-12688670D02*
X19336129Y-12688670D01*
X19316784Y-5910340D02*
X19316784Y-6010340D01*
X19266784Y-5960340D02*
X19366784Y-5960340D01*
X19316784Y-6164340D02*
X19316784Y-6264340D01*
X19266784Y-6214340D02*
X19366784Y-6214340D01*
X19316784Y-6418340D02*
X19316784Y-6518340D01*
X19266784Y-6468340D02*
X19366784Y-6468340D01*
X19321864Y-8765300D02*
X19321864Y-8865300D01*
X19271864Y-8815300D02*
X19371864Y-8815300D01*
X19321864Y-9019300D02*
X19321864Y-9119300D01*
X19271864Y-9069300D02*
X19371864Y-9069300D01*
X19321864Y-9273300D02*
X19321864Y-9373300D01*
X19271864Y-9323300D02*
X19371864Y-9323300D01*
X19326769Y-11618590D02*
X19326769Y-11718590D01*
X19276769Y-11668590D02*
X19376769Y-11668590D01*
X19326769Y-11872590D02*
X19326769Y-11972590D01*
X19276769Y-11922590D02*
X19376769Y-11922590D01*
X19326769Y-12126590D02*
X19326769Y-12226590D01*
X19276769Y-12176590D02*
X19376769Y-12176590D01*
X19530144Y-5406420D02*
X19530144Y-5506420D01*
X19480144Y-5456420D02*
X19580144Y-5456420D01*
X19530144Y-6930420D02*
X19530144Y-7030420D01*
X19480144Y-6980420D02*
X19580144Y-6980420D01*
X19535224Y-8261380D02*
X19535224Y-8361380D01*
X19485224Y-8311380D02*
X19585224Y-8311380D01*
X19535224Y-9785380D02*
X19535224Y-9885380D01*
X19485224Y-9835380D02*
X19585224Y-9835380D01*
X19540129Y-11114670D02*
X19540129Y-11214670D01*
X19490129Y-11164670D02*
X19590129Y-11164670D01*
X19540129Y-12638670D02*
X19540129Y-12738670D01*
X19490129Y-12688670D02*
X19590129Y-12688670D01*
X19784144Y-5406420D02*
X19784144Y-5506420D01*
X19734144Y-5456420D02*
X19834144Y-5456420D01*
X19784144Y-6930420D02*
X19784144Y-7030420D01*
X19734144Y-6980420D02*
X19834144Y-6980420D01*
X19789224Y-8261380D02*
X19789224Y-8361380D01*
X19739224Y-8311380D02*
X19839224Y-8311380D01*
X19789224Y-9785380D02*
X19789224Y-9885380D01*
X19739224Y-9835380D02*
X19839224Y-9835380D01*
X19794129Y-11114670D02*
X19794129Y-11214670D01*
X19744129Y-11164670D02*
X19844129Y-11164670D01*
X19794129Y-12638670D02*
X19794129Y-12738670D01*
X19744129Y-12688670D02*
X19844129Y-12688670D01*
X20038144Y-5406420D02*
X20038144Y-5506420D01*
X19988144Y-5456420D02*
X20088144Y-5456420D01*
X20038144Y-6930420D02*
X20038144Y-7030420D01*
X19988144Y-6980420D02*
X20088144Y-6980420D01*
X20043224Y-8261380D02*
X20043224Y-8361380D01*
X19993224Y-8311380D02*
X20093224Y-8311380D01*
X20043224Y-9785380D02*
X20043224Y-9885380D01*
X19993224Y-9835380D02*
X20093224Y-9835380D01*
X20048129Y-11114670D02*
X20048129Y-11214670D01*
X19998129Y-11164670D02*
X20098129Y-11164670D01*
X20048129Y-12638670D02*
X20048129Y-12738670D01*
X19998129Y-12688670D02*
X20098129Y-12688670D01*
X20292144Y-5406420D02*
X20292144Y-5506420D01*
X20242144Y-5456420D02*
X20342144Y-5456420D01*
X20292144Y-6930420D02*
X20292144Y-7030420D01*
X20242144Y-6980420D02*
X20342144Y-6980420D01*
X20297224Y-8261380D02*
X20297224Y-8361380D01*
X20247224Y-8311380D02*
X20347224Y-8311380D01*
X20297224Y-9785380D02*
X20297224Y-9885380D01*
X20247224Y-9835380D02*
X20347224Y-9835380D01*
X20302129Y-11114670D02*
X20302129Y-11214670D01*
X20252129Y-11164670D02*
X20352129Y-11164670D01*
X20302129Y-12638670D02*
X20302129Y-12738670D01*
X20252129Y-12688670D02*
X20352129Y-12688670D01*
X20546144Y-5406420D02*
X20546144Y-5506420D01*
X20496144Y-5456420D02*
X20596144Y-5456420D01*
X20546144Y-6930420D02*
X20546144Y-7030420D01*
X20496144Y-6980420D02*
X20596144Y-6980420D01*
X20551224Y-8261380D02*
X20551224Y-8361380D01*
X20501224Y-8311380D02*
X20601224Y-8311380D01*
X20551224Y-9785380D02*
X20551224Y-9885380D01*
X20501224Y-9835380D02*
X20601224Y-9835380D01*
X20556129Y-11114670D02*
X20556129Y-11214670D01*
X20506129Y-11164670D02*
X20606129Y-11164670D01*
X20556129Y-12638670D02*
X20556129Y-12738670D01*
X20506129Y-12688670D02*
X20606129Y-12688670D01*
X20800144Y-5406420D02*
X20800144Y-5506420D01*
X20750144Y-5456420D02*
X20850144Y-5456420D01*
X20800144Y-6930420D02*
X20800144Y-7030420D01*
X20750144Y-6980420D02*
X20850144Y-6980420D01*
X20805224Y-8261380D02*
X20805224Y-8361380D01*
X20755224Y-8311380D02*
X20855224Y-8311380D01*
X20805224Y-9785380D02*
X20805224Y-9885380D01*
X20755224Y-9835380D02*
X20855224Y-9835380D01*
X20810129Y-11114670D02*
X20810129Y-11214670D01*
X20760129Y-11164670D02*
X20860129Y-11164670D01*
X20810129Y-12638670D02*
X20810129Y-12738670D01*
X20760129Y-12688670D02*
X20860129Y-12688670D01*
X21054144Y-5406420D02*
X21054144Y-5506420D01*
X21004144Y-5456420D02*
X21104144Y-5456420D01*
X21054144Y-6930420D02*
X21054144Y-7030420D01*
X21004144Y-6980420D02*
X21104144Y-6980420D01*
X21059224Y-8261380D02*
X21059224Y-8361380D01*
X21009224Y-8311380D02*
X21109224Y-8311380D01*
X21059224Y-9785380D02*
X21059224Y-9885380D01*
X21009224Y-9835380D02*
X21109224Y-9835380D01*
X21064129Y-11114670D02*
X21064129Y-11214670D01*
X21014129Y-11164670D02*
X21114129Y-11164670D01*
X21064129Y-12638670D02*
X21064129Y-12738670D01*
X21014129Y-12688670D02*
X21114129Y-12688670D01*
X21308144Y-5406420D02*
X21308144Y-5506420D01*
X21258144Y-5456420D02*
X21358144Y-5456420D01*
X21308144Y-6930420D02*
X21308144Y-7030420D01*
X21258144Y-6980420D02*
X21358144Y-6980420D01*
X21313224Y-8261380D02*
X21313224Y-8361380D01*
X21263224Y-8311380D02*
X21363224Y-8311380D01*
X21313224Y-9785380D02*
X21313224Y-9885380D01*
X21263224Y-9835380D02*
X21363224Y-9835380D01*
X21318129Y-11114670D02*
X21318129Y-11214670D01*
X21268129Y-11164670D02*
X21368129Y-11164670D01*
X21318129Y-12638670D02*
X21318129Y-12738670D01*
X21268129Y-12688670D02*
X21368129Y-12688670D01*
X21562144Y-5406420D02*
X21562144Y-5506420D01*
X21512144Y-5456420D02*
X21612144Y-5456420D01*
X21562144Y-6930420D02*
X21562144Y-7030420D01*
X21512144Y-6980420D02*
X21612144Y-6980420D01*
X21567224Y-8261380D02*
X21567224Y-8361380D01*
X21517224Y-8311380D02*
X21617224Y-8311380D01*
X21567224Y-9785380D02*
X21567224Y-9885380D01*
X21517224Y-9835380D02*
X21617224Y-9835380D01*
X21572129Y-11114670D02*
X21572129Y-11214670D01*
X21522129Y-11164670D02*
X21622129Y-11164670D01*
X21572129Y-12638670D02*
X21572129Y-12738670D01*
X21522129Y-12688670D02*
X21622129Y-12688670D01*
X21816144Y-5406420D02*
X21816144Y-5506420D01*
X21766144Y-5456420D02*
X21866144Y-5456420D01*
X21816144Y-6930420D02*
X21816144Y-7030420D01*
X21766144Y-6980420D02*
X21866144Y-6980420D01*
X21821224Y-8261380D02*
X21821224Y-8361380D01*
X21771224Y-8311380D02*
X21871224Y-8311380D01*
X21821224Y-9785380D02*
X21821224Y-9885380D01*
X21771224Y-9835380D02*
X21871224Y-9835380D01*
X21826129Y-11114670D02*
X21826129Y-11214670D01*
X21776129Y-11164670D02*
X21876129Y-11164670D01*
X21826129Y-12638670D02*
X21826129Y-12738670D01*
X21776129Y-12688670D02*
X21876129Y-12688670D01*
X22070144Y-5406420D02*
X22070144Y-5506420D01*
X22020144Y-5456420D02*
X22120144Y-5456420D01*
X22070144Y-6930420D02*
X22070144Y-7030420D01*
X22020144Y-6980420D02*
X22120144Y-6980420D01*
X22075224Y-8261380D02*
X22075224Y-8361380D01*
X22025224Y-8311380D02*
X22125224Y-8311380D01*
X22075224Y-9785380D02*
X22075224Y-9885380D01*
X22025224Y-9835380D02*
X22125224Y-9835380D01*
X22080129Y-11114670D02*
X22080129Y-11214670D01*
X22030129Y-11164670D02*
X22130129Y-11164670D01*
X22080129Y-12638670D02*
X22080129Y-12738670D01*
X22030129Y-12688670D02*
X22130129Y-12688670D01*
D15*
X12149396Y-6800151D02*
X12149396Y-6692670D01*
X12041915Y-6692670D01*
X12041915Y-6800151D01*
X12149396Y-6800151D01*
X12154301Y-9653441D02*
X12154301Y-9545959D01*
X12046819Y-9545959D01*
X12046819Y-9653441D01*
X12154301Y-9653441D01*
X12159381Y-12508401D02*
X12159381Y-12400919D01*
X12051899Y-12400919D01*
X12051899Y-12508401D01*
X12159381Y-12508401D01*
X12657396Y-6800151D02*
X12657396Y-6692670D01*
X12549915Y-6692670D01*
X12549915Y-6800151D01*
X12657396Y-6800151D01*
X12662301Y-9653441D02*
X12662301Y-9545959D01*
X12554819Y-9545959D01*
X12554819Y-9653441D01*
X12662301Y-9653441D01*
X12667381Y-12508401D02*
X12667381Y-12400919D01*
X12559899Y-12400919D01*
X12559899Y-12508401D01*
X12667381Y-12508401D01*
X13165396Y-6800151D02*
X13165396Y-6692670D01*
X13057915Y-6692670D01*
X13057915Y-6800151D01*
X13165396Y-6800151D01*
X13170301Y-9653441D02*
X13170301Y-9545959D01*
X13062819Y-9545959D01*
X13062819Y-9653441D01*
X13170301Y-9653441D01*
X13175381Y-12508401D02*
X13175381Y-12400919D01*
X13067899Y-12400919D01*
X13067899Y-12508401D01*
X13175381Y-12508401D01*
X13673396Y-6800151D02*
X13673396Y-6692670D01*
X13565915Y-6692670D01*
X13565915Y-6800151D01*
X13673396Y-6800151D01*
X13678301Y-9653441D02*
X13678301Y-9545959D01*
X13570819Y-9545959D01*
X13570819Y-9653441D01*
X13678301Y-9653441D01*
X13683381Y-12508401D02*
X13683381Y-12400919D01*
X13575899Y-12400919D01*
X13575899Y-12508401D01*
X13683381Y-12508401D01*
X14227116Y-6800151D02*
X14227116Y-6692670D01*
X14119635Y-6692670D01*
X14119635Y-6800151D01*
X14227116Y-6800151D01*
X14232021Y-9653441D02*
X14232021Y-9545959D01*
X14124539Y-9545959D01*
X14124539Y-9653441D01*
X14232021Y-9653441D01*
X14237101Y-12508401D02*
X14237101Y-12400919D01*
X14129619Y-12400919D01*
X14129619Y-12508401D01*
X14237101Y-12508401D01*
X14735116Y-6800151D02*
X14735116Y-6692670D01*
X14627635Y-6692670D01*
X14627635Y-6800151D01*
X14735116Y-6800151D01*
X14740021Y-9653441D02*
X14740021Y-9545959D01*
X14632539Y-9545959D01*
X14632539Y-9653441D01*
X14740021Y-9653441D01*
X14745101Y-12508401D02*
X14745101Y-12400919D01*
X14637619Y-12400919D01*
X14637619Y-12508401D01*
X14745101Y-12508401D01*
X15243116Y-6800151D02*
X15243116Y-6692670D01*
X15135635Y-6692670D01*
X15135635Y-6800151D01*
X15243116Y-6800151D01*
X15248021Y-9653441D02*
X15248021Y-9545959D01*
X15140539Y-9545959D01*
X15140539Y-9653441D01*
X15248021Y-9653441D01*
X15253101Y-12508401D02*
X15253101Y-12400919D01*
X15145619Y-12400919D01*
X15145619Y-12508401D01*
X15253101Y-12508401D01*
X15751116Y-6800151D02*
X15751116Y-6692670D01*
X15643635Y-6692670D01*
X15643635Y-6800151D01*
X15751116Y-6800151D01*
X15756021Y-9653441D02*
X15756021Y-9545959D01*
X15648539Y-9545959D01*
X15648539Y-9653441D01*
X15756021Y-9653441D01*
X15761101Y-12508401D02*
X15761101Y-12400919D01*
X15653619Y-12400919D01*
X15653619Y-12508401D01*
X15761101Y-12508401D01*
X16304836Y-6800151D02*
X16304836Y-6692670D01*
X16197355Y-6692670D01*
X16197355Y-6800151D01*
X16304836Y-6800151D01*
X16309741Y-9653441D02*
X16309741Y-9545959D01*
X16202259Y-9545959D01*
X16202259Y-9653441D01*
X16309741Y-9653441D01*
X16314821Y-12508401D02*
X16314821Y-12400919D01*
X16207339Y-12400919D01*
X16207339Y-12508401D01*
X16314821Y-12508401D01*
X16812836Y-6800151D02*
X16812836Y-6692670D01*
X16705355Y-6692670D01*
X16705355Y-6800151D01*
X16812836Y-6800151D01*
X16817741Y-9653441D02*
X16817741Y-9545959D01*
X16710259Y-9545959D01*
X16710259Y-9653441D01*
X16817741Y-9653441D01*
X16822821Y-12508401D02*
X16822821Y-12400919D01*
X16715339Y-12400919D01*
X16715339Y-12508401D01*
X16822821Y-12508401D01*
X17597605Y-4952361D02*
X17597605Y-4844879D01*
X17490123Y-4844879D01*
X17490123Y-4952361D01*
X17597605Y-4952361D01*
X17602685Y-7807321D02*
X17602685Y-7699839D01*
X17495203Y-7699839D01*
X17495203Y-7807321D01*
X17602685Y-7807321D01*
X17607589Y-10660610D02*
X17607589Y-10553129D01*
X17500108Y-10553129D01*
X17500108Y-10660610D01*
X17607589Y-10660610D01*
X18105605Y-4952361D02*
X18105605Y-4844879D01*
X17998123Y-4844879D01*
X17998123Y-4952361D01*
X18105605Y-4952361D01*
X18110685Y-7807321D02*
X18110685Y-7699839D01*
X18003203Y-7699839D01*
X18003203Y-7807321D01*
X18110685Y-7807321D01*
X18115589Y-10660610D02*
X18115589Y-10553129D01*
X18008108Y-10553129D01*
X18008108Y-10660610D01*
X18115589Y-10660610D01*
X18659325Y-4952361D02*
X18659325Y-4844879D01*
X18551843Y-4844879D01*
X18551843Y-4952361D01*
X18659325Y-4952361D01*
X18664405Y-7807321D02*
X18664405Y-7699839D01*
X18556923Y-7699839D01*
X18556923Y-7807321D01*
X18664405Y-7807321D01*
X18669309Y-10660610D02*
X18669309Y-10553129D01*
X18561828Y-10553129D01*
X18561828Y-10660610D01*
X18669309Y-10660610D01*
X19167325Y-4952361D02*
X19167325Y-4844879D01*
X19059843Y-4844879D01*
X19059843Y-4952361D01*
X19167325Y-4952361D01*
X19172405Y-7807321D02*
X19172405Y-7699839D01*
X19064923Y-7699839D01*
X19064923Y-7807321D01*
X19172405Y-7807321D01*
X19177309Y-10660610D02*
X19177309Y-10553129D01*
X19069828Y-10553129D01*
X19069828Y-10660610D01*
X19177309Y-10660610D01*
X19675325Y-4952361D02*
X19675325Y-4844879D01*
X19567843Y-4844879D01*
X19567843Y-4952361D01*
X19675325Y-4952361D01*
X19680405Y-7807321D02*
X19680405Y-7699839D01*
X19572923Y-7699839D01*
X19572923Y-7807321D01*
X19680405Y-7807321D01*
X19685309Y-10660610D02*
X19685309Y-10553129D01*
X19577828Y-10553129D01*
X19577828Y-10660610D01*
X19685309Y-10660610D01*
X20183325Y-4952361D02*
X20183325Y-4844879D01*
X20075843Y-4844879D01*
X20075843Y-4952361D01*
X20183325Y-4952361D01*
X20188405Y-7807321D02*
X20188405Y-7699839D01*
X20080923Y-7699839D01*
X20080923Y-7807321D01*
X20188405Y-7807321D01*
X20193309Y-10660610D02*
X20193309Y-10553129D01*
X20085828Y-10553129D01*
X20085828Y-10660610D01*
X20193309Y-10660610D01*
X20737045Y-4952361D02*
X20737045Y-4844879D01*
X20629563Y-4844879D01*
X20629563Y-4952361D01*
X20737045Y-4952361D01*
X20742125Y-7807321D02*
X20742125Y-7699839D01*
X20634643Y-7699839D01*
X20634643Y-7807321D01*
X20742125Y-7807321D01*
X20747029Y-10660610D02*
X20747029Y-10553129D01*
X20639548Y-10553129D01*
X20639548Y-10660610D01*
X20747029Y-10660610D01*
X21245045Y-4952361D02*
X21245045Y-4844879D01*
X21137563Y-4844879D01*
X21137563Y-4952361D01*
X21245045Y-4952361D01*
X21250125Y-7807321D02*
X21250125Y-7699839D01*
X21142643Y-7699839D01*
X21142643Y-7807321D01*
X21250125Y-7807321D01*
X21255029Y-10660610D02*
X21255029Y-10553129D01*
X21147548Y-10553129D01*
X21147548Y-10660610D01*
X21255029Y-10660610D01*
X21753045Y-4952361D02*
X21753045Y-4844879D01*
X21645563Y-4844879D01*
X21645563Y-4952361D01*
X21753045Y-4952361D01*
X21758125Y-7807321D02*
X21758125Y-7699839D01*
X21650643Y-7699839D01*
X21650643Y-7807321D01*
X21758125Y-7807321D01*
X21763029Y-10660610D02*
X21763029Y-10553129D01*
X21655548Y-10553129D01*
X21655548Y-10660610D01*
X21763029Y-10660610D01*
X22261045Y-4952361D02*
X22261045Y-4844879D01*
X22153563Y-4844879D01*
X22153563Y-4952361D01*
X22261045Y-4952361D01*
X22266125Y-7807321D02*
X22266125Y-7699839D01*
X22158643Y-7699839D01*
X22158643Y-7807321D01*
X22266125Y-7807321D01*
X22271029Y-10660610D02*
X22271029Y-10553129D01*
X22163548Y-10553129D01*
X22163548Y-10660610D01*
X22271029Y-10660610D01*
D11*
X12068699Y-13211056D02*
X12068699Y-13011056D01*
X12116318Y-13011056D01*
X12144889Y-13020580D01*
X12163937Y-13039628D01*
X12173461Y-13058675D01*
X12182985Y-13096770D01*
X12182985Y-13125342D01*
X12173461Y-13163437D01*
X12163937Y-13182485D01*
X12144889Y-13201532D01*
X12116318Y-13211056D01*
X12068699Y-13211056D01*
X12268699Y-13211056D02*
X12268699Y-13077723D01*
X12268699Y-13115818D02*
X12278223Y-13096770D01*
X12287747Y-13087247D01*
X12306794Y-13077723D01*
X12325842Y-13077723D01*
X12392508Y-13211056D02*
X12392508Y-13077723D01*
X12392508Y-13011056D02*
X12382985Y-13020580D01*
X12392508Y-13030104D01*
X12402032Y-13020580D01*
X12392508Y-13011056D01*
X12392508Y-13030104D01*
X12516318Y-13211056D02*
X12497270Y-13201532D01*
X12487747Y-13182485D01*
X12487747Y-13011056D01*
X12621080Y-13211056D02*
X12602032Y-13201532D01*
X12592508Y-13182485D01*
X12592508Y-13011056D01*
X12849651Y-13211056D02*
X12849651Y-13011056D01*
X12916318Y-13153913D01*
X12982985Y-13011056D01*
X12982985Y-13211056D01*
X13163937Y-13211056D02*
X13163937Y-13106294D01*
X13154413Y-13087247D01*
X13135366Y-13077723D01*
X13097270Y-13077723D01*
X13078223Y-13087247D01*
X13163937Y-13201532D02*
X13144889Y-13211056D01*
X13097270Y-13211056D01*
X13078223Y-13201532D01*
X13068699Y-13182485D01*
X13068699Y-13163437D01*
X13078223Y-13144389D01*
X13097270Y-13134866D01*
X13144889Y-13134866D01*
X13163937Y-13125342D01*
X13259175Y-13077723D02*
X13259175Y-13277723D01*
X13259175Y-13087247D02*
X13278223Y-13077723D01*
X13316318Y-13077723D01*
X13335366Y-13087247D01*
X13344889Y-13096770D01*
X13354413Y-13115818D01*
X13354413Y-13172961D01*
X13344889Y-13192008D01*
X13335366Y-13201532D01*
X13316318Y-13211056D01*
X13278223Y-13211056D01*
X13259175Y-13201532D01*
X13440128Y-13192008D02*
X13449651Y-13201532D01*
X13440128Y-13211056D01*
X13430604Y-13201532D01*
X13440128Y-13192008D01*
X13440128Y-13211056D01*
X13440128Y-13087247D02*
X13449651Y-13096770D01*
X13440128Y-13106294D01*
X13430604Y-13096770D01*
X13440128Y-13087247D01*
X13440128Y-13106294D01*
D12*
X11771080Y-13520580D02*
X11811080Y-13560580D01*
X11811080Y-13520580D02*
X11771080Y-13560580D01*
D11*
X12106794Y-13431056D02*
X12125842Y-13431056D01*
X12144889Y-13440580D01*
X12154413Y-13450104D01*
X12163937Y-13469151D01*
X12173461Y-13507247D01*
X12173461Y-13554866D01*
X12163937Y-13592961D01*
X12154413Y-13612008D01*
X12144889Y-13621532D01*
X12125842Y-13631056D01*
X12106794Y-13631056D01*
X12087747Y-13621532D01*
X12078223Y-13612008D01*
X12068699Y-13592961D01*
X12059175Y-13554866D01*
X12059175Y-13507247D01*
X12068699Y-13469151D01*
X12078223Y-13450104D01*
X12087747Y-13440580D01*
X12106794Y-13431056D01*
X12259175Y-13612008D02*
X12268699Y-13621532D01*
X12259175Y-13631056D01*
X12249651Y-13621532D01*
X12259175Y-13612008D01*
X12259175Y-13631056D01*
X12440128Y-13497723D02*
X12440128Y-13631056D01*
X12392508Y-13421532D02*
X12344889Y-13564389D01*
X12468699Y-13564389D01*
X12582985Y-13431056D02*
X12602032Y-13431056D01*
X12621080Y-13440580D01*
X12630604Y-13450104D01*
X12640128Y-13469151D01*
X12649651Y-13507247D01*
X12649651Y-13554866D01*
X12640128Y-13592961D01*
X12630604Y-13612008D01*
X12621080Y-13621532D01*
X12602032Y-13631056D01*
X12582985Y-13631056D01*
X12563937Y-13621532D01*
X12554413Y-13612008D01*
X12544889Y-13592961D01*
X12535366Y-13554866D01*
X12535366Y-13507247D01*
X12544889Y-13469151D01*
X12554413Y-13450104D01*
X12563937Y-13440580D01*
X12582985Y-13431056D01*
X12773461Y-13431056D02*
X12792508Y-13431056D01*
X12811556Y-13440580D01*
X12821080Y-13450104D01*
X12830604Y-13469151D01*
X12840128Y-13507247D01*
X12840128Y-13554866D01*
X12830604Y-13592961D01*
X12821080Y-13612008D01*
X12811556Y-13621532D01*
X12792508Y-13631056D01*
X12773461Y-13631056D01*
X12754413Y-13621532D01*
X12744889Y-13612008D01*
X12735366Y-13592961D01*
X12725842Y-13554866D01*
X12725842Y-13507247D01*
X12735366Y-13469151D01*
X12744889Y-13450104D01*
X12754413Y-13440580D01*
X12773461Y-13431056D01*
X12925842Y-13631056D02*
X12925842Y-13497723D01*
X12925842Y-13516770D02*
X12935366Y-13507247D01*
X12954413Y-13497723D01*
X12982985Y-13497723D01*
X13002032Y-13507247D01*
X13011556Y-13526294D01*
X13011556Y-13631056D01*
X13011556Y-13526294D02*
X13021080Y-13507247D01*
X13040128Y-13497723D01*
X13068699Y-13497723D01*
X13087747Y-13507247D01*
X13097270Y-13526294D01*
X13097270Y-13631056D01*
X13192508Y-13631056D02*
X13192508Y-13497723D01*
X13192508Y-13516770D02*
X13202032Y-13507247D01*
X13221080Y-13497723D01*
X13249651Y-13497723D01*
X13268699Y-13507247D01*
X13278223Y-13526294D01*
X13278223Y-13631056D01*
X13278223Y-13526294D02*
X13287747Y-13507247D01*
X13306794Y-13497723D01*
X13335366Y-13497723D01*
X13354413Y-13507247D01*
X13363937Y-13526294D01*
X13363937Y-13631056D01*
X13754413Y-13421532D02*
X13582985Y-13678675D01*
X14011556Y-13431056D02*
X14030604Y-13431056D01*
X14049651Y-13440580D01*
X14059175Y-13450104D01*
X14068699Y-13469151D01*
X14078223Y-13507247D01*
X14078223Y-13554866D01*
X14068699Y-13592961D01*
X14059175Y-13612008D01*
X14049651Y-13621532D01*
X14030604Y-13631056D01*
X14011556Y-13631056D01*
X13992508Y-13621532D01*
X13982985Y-13612008D01*
X13973461Y-13592961D01*
X13963937Y-13554866D01*
X13963937Y-13507247D01*
X13973461Y-13469151D01*
X13982985Y-13450104D01*
X13992508Y-13440580D01*
X14011556Y-13431056D01*
X14163937Y-13612008D02*
X14173461Y-13621532D01*
X14163937Y-13631056D01*
X14154413Y-13621532D01*
X14163937Y-13612008D01*
X14163937Y-13631056D01*
X14297270Y-13431056D02*
X14316318Y-13431056D01*
X14335366Y-13440580D01*
X14344889Y-13450104D01*
X14354413Y-13469151D01*
X14363937Y-13507247D01*
X14363937Y-13554866D01*
X14354413Y-13592961D01*
X14344889Y-13612008D01*
X14335366Y-13621532D01*
X14316318Y-13631056D01*
X14297270Y-13631056D01*
X14278223Y-13621532D01*
X14268699Y-13612008D01*
X14259175Y-13592961D01*
X14249651Y-13554866D01*
X14249651Y-13507247D01*
X14259175Y-13469151D01*
X14268699Y-13450104D01*
X14278223Y-13440580D01*
X14297270Y-13431056D01*
X14554413Y-13631056D02*
X14440128Y-13631056D01*
X14497270Y-13631056D02*
X14497270Y-13431056D01*
X14478223Y-13459628D01*
X14459175Y-13478675D01*
X14440128Y-13488199D01*
X14735366Y-13431056D02*
X14640128Y-13431056D01*
X14630604Y-13526294D01*
X14640128Y-13516770D01*
X14659175Y-13507247D01*
X14706794Y-13507247D01*
X14725842Y-13516770D01*
X14735366Y-13526294D01*
X14744889Y-13545342D01*
X14744889Y-13592961D01*
X14735366Y-13612008D01*
X14725842Y-13621532D01*
X14706794Y-13631056D01*
X14659175Y-13631056D01*
X14640128Y-13621532D01*
X14630604Y-13612008D01*
X14811556Y-13431056D02*
X14944889Y-13431056D01*
X14859175Y-13631056D01*
X15011556Y-13431056D02*
X15011556Y-13469151D01*
X15087747Y-13431056D02*
X15087747Y-13469151D01*
X15382985Y-13707247D02*
X15373461Y-13697723D01*
X15354413Y-13669151D01*
X15344889Y-13650104D01*
X15335366Y-13621532D01*
X15325842Y-13573913D01*
X15325842Y-13535818D01*
X15335366Y-13488199D01*
X15344889Y-13459628D01*
X15354413Y-13440580D01*
X15373461Y-13412008D01*
X15382985Y-13402485D01*
X15563937Y-13631056D02*
X15449651Y-13631056D01*
X15506794Y-13631056D02*
X15506794Y-13431056D01*
X15487747Y-13459628D01*
X15468699Y-13478675D01*
X15449651Y-13488199D01*
X15640128Y-13450104D02*
X15649651Y-13440580D01*
X15668699Y-13431056D01*
X15716318Y-13431056D01*
X15735366Y-13440580D01*
X15744889Y-13450104D01*
X15754413Y-13469151D01*
X15754413Y-13488199D01*
X15744889Y-13516770D01*
X15630604Y-13631056D01*
X15754413Y-13631056D01*
X15878223Y-13431056D02*
X15897270Y-13431056D01*
X15916318Y-13440580D01*
X15925842Y-13450104D01*
X15935366Y-13469151D01*
X15944889Y-13507247D01*
X15944889Y-13554866D01*
X15935366Y-13592961D01*
X15925842Y-13612008D01*
X15916318Y-13621532D01*
X15897270Y-13631056D01*
X15878223Y-13631056D01*
X15859175Y-13621532D01*
X15849651Y-13612008D01*
X15840128Y-13592961D01*
X15830604Y-13554866D01*
X15830604Y-13507247D01*
X15840128Y-13469151D01*
X15849651Y-13450104D01*
X15859175Y-13440580D01*
X15878223Y-13431056D01*
X16182985Y-13631056D02*
X16182985Y-13431056D01*
X16268699Y-13631056D02*
X16268699Y-13526294D01*
X16259175Y-13507247D01*
X16240128Y-13497723D01*
X16211556Y-13497723D01*
X16192508Y-13507247D01*
X16182985Y-13516770D01*
X16392508Y-13631056D02*
X16373461Y-13621532D01*
X16363937Y-13612008D01*
X16354413Y-13592961D01*
X16354413Y-13535818D01*
X16363937Y-13516770D01*
X16373461Y-13507247D01*
X16392508Y-13497723D01*
X16421080Y-13497723D01*
X16440128Y-13507247D01*
X16449651Y-13516770D01*
X16459175Y-13535818D01*
X16459175Y-13592961D01*
X16449651Y-13612008D01*
X16440128Y-13621532D01*
X16421080Y-13631056D01*
X16392508Y-13631056D01*
X16573461Y-13631056D02*
X16554413Y-13621532D01*
X16544889Y-13602485D01*
X16544889Y-13431056D01*
X16725842Y-13621532D02*
X16706794Y-13631056D01*
X16668699Y-13631056D01*
X16649651Y-13621532D01*
X16640128Y-13602485D01*
X16640128Y-13526294D01*
X16649651Y-13507247D01*
X16668699Y-13497723D01*
X16706794Y-13497723D01*
X16725842Y-13507247D01*
X16735366Y-13526294D01*
X16735366Y-13545342D01*
X16640128Y-13564389D01*
X16811556Y-13621532D02*
X16830604Y-13631056D01*
X16868699Y-13631056D01*
X16887747Y-13621532D01*
X16897270Y-13602485D01*
X16897270Y-13592961D01*
X16887747Y-13573913D01*
X16868699Y-13564389D01*
X16840128Y-13564389D01*
X16821080Y-13554866D01*
X16811556Y-13535818D01*
X16811556Y-13526294D01*
X16821080Y-13507247D01*
X16840128Y-13497723D01*
X16868699Y-13497723D01*
X16887747Y-13507247D01*
X16963937Y-13707247D02*
X16973461Y-13697723D01*
X16992509Y-13669151D01*
X17002032Y-13650104D01*
X17011556Y-13621532D01*
X17021080Y-13573913D01*
X17021080Y-13535818D01*
X17011556Y-13488199D01*
X17002032Y-13459628D01*
X16992509Y-13440580D01*
X16973461Y-13412008D01*
X16963937Y-13402485D01*
D13*
X11811080Y-13804580D02*
G75*
G03*
X11811080Y-13804580I-35000J0D01*
G01*
D11*
X12106794Y-13695056D02*
X12125842Y-13695056D01*
X12144889Y-13704580D01*
X12154413Y-13714104D01*
X12163937Y-13733151D01*
X12173461Y-13771247D01*
X12173461Y-13818866D01*
X12163937Y-13856961D01*
X12154413Y-13876008D01*
X12144889Y-13885532D01*
X12125842Y-13895056D01*
X12106794Y-13895056D01*
X12087747Y-13885532D01*
X12078223Y-13876008D01*
X12068699Y-13856961D01*
X12059175Y-13818866D01*
X12059175Y-13771247D01*
X12068699Y-13733151D01*
X12078223Y-13714104D01*
X12087747Y-13704580D01*
X12106794Y-13695056D01*
X12259175Y-13876008D02*
X12268699Y-13885532D01*
X12259175Y-13895056D01*
X12249651Y-13885532D01*
X12259175Y-13876008D01*
X12259175Y-13895056D01*
X12335366Y-13695056D02*
X12468699Y-13695056D01*
X12382985Y-13895056D01*
X12582985Y-13695056D02*
X12602032Y-13695056D01*
X12621080Y-13704580D01*
X12630604Y-13714104D01*
X12640128Y-13733151D01*
X12649651Y-13771247D01*
X12649651Y-13818866D01*
X12640128Y-13856961D01*
X12630604Y-13876008D01*
X12621080Y-13885532D01*
X12602032Y-13895056D01*
X12582985Y-13895056D01*
X12563937Y-13885532D01*
X12554413Y-13876008D01*
X12544889Y-13856961D01*
X12535366Y-13818866D01*
X12535366Y-13771247D01*
X12544889Y-13733151D01*
X12554413Y-13714104D01*
X12563937Y-13704580D01*
X12582985Y-13695056D01*
X12773461Y-13695056D02*
X12792508Y-13695056D01*
X12811556Y-13704580D01*
X12821080Y-13714104D01*
X12830604Y-13733151D01*
X12840128Y-13771247D01*
X12840128Y-13818866D01*
X12830604Y-13856961D01*
X12821080Y-13876008D01*
X12811556Y-13885532D01*
X12792508Y-13895056D01*
X12773461Y-13895056D01*
X12754413Y-13885532D01*
X12744889Y-13876008D01*
X12735366Y-13856961D01*
X12725842Y-13818866D01*
X12725842Y-13771247D01*
X12735366Y-13733151D01*
X12744889Y-13714104D01*
X12754413Y-13704580D01*
X12773461Y-13695056D01*
X12925842Y-13895056D02*
X12925842Y-13761723D01*
X12925842Y-13780770D02*
X12935366Y-13771247D01*
X12954413Y-13761723D01*
X12982985Y-13761723D01*
X13002032Y-13771247D01*
X13011556Y-13790294D01*
X13011556Y-13895056D01*
X13011556Y-13790294D02*
X13021080Y-13771247D01*
X13040128Y-13761723D01*
X13068699Y-13761723D01*
X13087747Y-13771247D01*
X13097270Y-13790294D01*
X13097270Y-13895056D01*
X13192508Y-13895056D02*
X13192508Y-13761723D01*
X13192508Y-13780770D02*
X13202032Y-13771247D01*
X13221080Y-13761723D01*
X13249651Y-13761723D01*
X13268699Y-13771247D01*
X13278223Y-13790294D01*
X13278223Y-13895056D01*
X13278223Y-13790294D02*
X13287747Y-13771247D01*
X13306794Y-13761723D01*
X13335366Y-13761723D01*
X13354413Y-13771247D01*
X13363937Y-13790294D01*
X13363937Y-13895056D01*
X13754413Y-13685532D02*
X13582985Y-13942675D01*
X14011556Y-13695056D02*
X14030604Y-13695056D01*
X14049651Y-13704580D01*
X14059175Y-13714104D01*
X14068699Y-13733151D01*
X14078223Y-13771247D01*
X14078223Y-13818866D01*
X14068699Y-13856961D01*
X14059175Y-13876008D01*
X14049651Y-13885532D01*
X14030604Y-13895056D01*
X14011556Y-13895056D01*
X13992508Y-13885532D01*
X13982985Y-13876008D01*
X13973461Y-13856961D01*
X13963937Y-13818866D01*
X13963937Y-13771247D01*
X13973461Y-13733151D01*
X13982985Y-13714104D01*
X13992508Y-13704580D01*
X14011556Y-13695056D01*
X14163937Y-13876008D02*
X14173461Y-13885532D01*
X14163937Y-13895056D01*
X14154413Y-13885532D01*
X14163937Y-13876008D01*
X14163937Y-13895056D01*
X14297270Y-13695056D02*
X14316318Y-13695056D01*
X14335366Y-13704580D01*
X14344889Y-13714104D01*
X14354413Y-13733151D01*
X14363937Y-13771247D01*
X14363937Y-13818866D01*
X14354413Y-13856961D01*
X14344889Y-13876008D01*
X14335366Y-13885532D01*
X14316318Y-13895056D01*
X14297270Y-13895056D01*
X14278223Y-13885532D01*
X14268699Y-13876008D01*
X14259175Y-13856961D01*
X14249651Y-13818866D01*
X14249651Y-13771247D01*
X14259175Y-13733151D01*
X14268699Y-13714104D01*
X14278223Y-13704580D01*
X14297270Y-13695056D01*
X14440128Y-13714104D02*
X14449651Y-13704580D01*
X14468699Y-13695056D01*
X14516318Y-13695056D01*
X14535366Y-13704580D01*
X14544889Y-13714104D01*
X14554413Y-13733151D01*
X14554413Y-13752199D01*
X14544889Y-13780770D01*
X14430604Y-13895056D01*
X14554413Y-13895056D01*
X14621080Y-13695056D02*
X14754413Y-13695056D01*
X14668699Y-13895056D01*
X14916318Y-13695056D02*
X14878223Y-13695056D01*
X14859175Y-13704580D01*
X14849651Y-13714104D01*
X14830604Y-13742675D01*
X14821080Y-13780770D01*
X14821080Y-13856961D01*
X14830604Y-13876008D01*
X14840128Y-13885532D01*
X14859175Y-13895056D01*
X14897270Y-13895056D01*
X14916318Y-13885532D01*
X14925842Y-13876008D01*
X14935366Y-13856961D01*
X14935366Y-13809342D01*
X14925842Y-13790294D01*
X14916318Y-13780770D01*
X14897270Y-13771247D01*
X14859175Y-13771247D01*
X14840128Y-13780770D01*
X14830604Y-13790294D01*
X14821080Y-13809342D01*
X15011556Y-13695056D02*
X15011556Y-13733151D01*
X15087747Y-13695056D02*
X15087747Y-13733151D01*
X15382985Y-13971247D02*
X15373461Y-13961723D01*
X15354413Y-13933151D01*
X15344889Y-13914104D01*
X15335366Y-13885532D01*
X15325842Y-13837913D01*
X15325842Y-13799818D01*
X15335366Y-13752199D01*
X15344889Y-13723628D01*
X15354413Y-13704580D01*
X15373461Y-13676008D01*
X15382985Y-13666485D01*
X15563937Y-13895056D02*
X15449651Y-13895056D01*
X15506794Y-13895056D02*
X15506794Y-13695056D01*
X15487747Y-13723628D01*
X15468699Y-13742675D01*
X15449651Y-13752199D01*
X15640128Y-13714104D02*
X15649651Y-13704580D01*
X15668699Y-13695056D01*
X15716318Y-13695056D01*
X15735366Y-13704580D01*
X15744889Y-13714104D01*
X15754413Y-13733151D01*
X15754413Y-13752199D01*
X15744889Y-13780770D01*
X15630604Y-13895056D01*
X15754413Y-13895056D01*
X15992508Y-13895056D02*
X15992508Y-13695056D01*
X16078223Y-13895056D02*
X16078223Y-13790294D01*
X16068699Y-13771247D01*
X16049651Y-13761723D01*
X16021080Y-13761723D01*
X16002032Y-13771247D01*
X15992508Y-13780770D01*
X16202032Y-13895056D02*
X16182985Y-13885532D01*
X16173461Y-13876008D01*
X16163937Y-13856961D01*
X16163937Y-13799818D01*
X16173461Y-13780770D01*
X16182985Y-13771247D01*
X16202032Y-13761723D01*
X16230604Y-13761723D01*
X16249651Y-13771247D01*
X16259175Y-13780770D01*
X16268699Y-13799818D01*
X16268699Y-13856961D01*
X16259175Y-13876008D01*
X16249651Y-13885532D01*
X16230604Y-13895056D01*
X16202032Y-13895056D01*
X16382985Y-13895056D02*
X16363937Y-13885532D01*
X16354413Y-13866485D01*
X16354413Y-13695056D01*
X16535366Y-13885532D02*
X16516318Y-13895056D01*
X16478223Y-13895056D01*
X16459175Y-13885532D01*
X16449651Y-13866485D01*
X16449651Y-13790294D01*
X16459175Y-13771247D01*
X16478223Y-13761723D01*
X16516318Y-13761723D01*
X16535366Y-13771247D01*
X16544889Y-13790294D01*
X16544889Y-13809342D01*
X16449651Y-13828389D01*
X16621080Y-13885532D02*
X16640128Y-13895056D01*
X16678223Y-13895056D01*
X16697270Y-13885532D01*
X16706794Y-13866485D01*
X16706794Y-13856961D01*
X16697270Y-13837913D01*
X16678223Y-13828389D01*
X16649651Y-13828389D01*
X16630604Y-13818866D01*
X16621080Y-13799818D01*
X16621080Y-13790294D01*
X16630604Y-13771247D01*
X16649651Y-13761723D01*
X16678223Y-13761723D01*
X16697270Y-13771247D01*
X16773461Y-13971247D02*
X16782985Y-13961723D01*
X16802032Y-13933151D01*
X16811556Y-13914104D01*
X16821080Y-13885532D01*
X16830604Y-13837913D01*
X16830604Y-13799818D01*
X16821080Y-13752199D01*
X16811556Y-13723628D01*
X16802032Y-13704580D01*
X16782985Y-13676008D01*
X16773461Y-13666485D01*
D14*
X11761080Y-14018580D02*
X11761080Y-14118580D01*
X11711080Y-14068580D02*
X11811080Y-14068580D01*
D11*
X12173461Y-14159056D02*
X12059175Y-14159056D01*
X12116318Y-14159056D02*
X12116318Y-13959056D01*
X12097270Y-13987628D01*
X12078223Y-14006675D01*
X12059175Y-14016199D01*
X12259175Y-14140008D02*
X12268699Y-14149532D01*
X12259175Y-14159056D01*
X12249651Y-14149532D01*
X12259175Y-14140008D01*
X12259175Y-14159056D01*
X12392508Y-13959056D02*
X12411556Y-13959056D01*
X12430604Y-13968580D01*
X12440128Y-13978104D01*
X12449651Y-13997151D01*
X12459175Y-14035247D01*
X12459175Y-14082866D01*
X12449651Y-14120961D01*
X12440128Y-14140008D01*
X12430604Y-14149532D01*
X12411556Y-14159056D01*
X12392508Y-14159056D01*
X12373461Y-14149532D01*
X12363937Y-14140008D01*
X12354413Y-14120961D01*
X12344889Y-14082866D01*
X12344889Y-14035247D01*
X12354413Y-13997151D01*
X12363937Y-13978104D01*
X12373461Y-13968580D01*
X12392508Y-13959056D01*
X12582985Y-13959056D02*
X12602032Y-13959056D01*
X12621080Y-13968580D01*
X12630604Y-13978104D01*
X12640128Y-13997151D01*
X12649651Y-14035247D01*
X12649651Y-14082866D01*
X12640128Y-14120961D01*
X12630604Y-14140008D01*
X12621080Y-14149532D01*
X12602032Y-14159056D01*
X12582985Y-14159056D01*
X12563937Y-14149532D01*
X12554413Y-14140008D01*
X12544889Y-14120961D01*
X12535366Y-14082866D01*
X12535366Y-14035247D01*
X12544889Y-13997151D01*
X12554413Y-13978104D01*
X12563937Y-13968580D01*
X12582985Y-13959056D01*
X12773461Y-13959056D02*
X12792508Y-13959056D01*
X12811556Y-13968580D01*
X12821080Y-13978104D01*
X12830604Y-13997151D01*
X12840128Y-14035247D01*
X12840128Y-14082866D01*
X12830604Y-14120961D01*
X12821080Y-14140008D01*
X12811556Y-14149532D01*
X12792508Y-14159056D01*
X12773461Y-14159056D01*
X12754413Y-14149532D01*
X12744889Y-14140008D01*
X12735366Y-14120961D01*
X12725842Y-14082866D01*
X12725842Y-14035247D01*
X12735366Y-13997151D01*
X12744889Y-13978104D01*
X12754413Y-13968580D01*
X12773461Y-13959056D01*
X12925842Y-14159056D02*
X12925842Y-14025723D01*
X12925842Y-14044770D02*
X12935366Y-14035247D01*
X12954413Y-14025723D01*
X12982985Y-14025723D01*
X13002032Y-14035247D01*
X13011556Y-14054294D01*
X13011556Y-14159056D01*
X13011556Y-14054294D02*
X13021080Y-14035247D01*
X13040128Y-14025723D01*
X13068699Y-14025723D01*
X13087747Y-14035247D01*
X13097270Y-14054294D01*
X13097270Y-14159056D01*
X13192508Y-14159056D02*
X13192508Y-14025723D01*
X13192508Y-14044770D02*
X13202032Y-14035247D01*
X13221080Y-14025723D01*
X13249651Y-14025723D01*
X13268699Y-14035247D01*
X13278223Y-14054294D01*
X13278223Y-14159056D01*
X13278223Y-14054294D02*
X13287747Y-14035247D01*
X13306794Y-14025723D01*
X13335366Y-14025723D01*
X13354413Y-14035247D01*
X13363937Y-14054294D01*
X13363937Y-14159056D01*
X13754413Y-13949532D02*
X13582985Y-14206675D01*
X14011556Y-13959056D02*
X14030604Y-13959056D01*
X14049651Y-13968580D01*
X14059175Y-13978104D01*
X14068699Y-13997151D01*
X14078223Y-14035247D01*
X14078223Y-14082866D01*
X14068699Y-14120961D01*
X14059175Y-14140008D01*
X14049651Y-14149532D01*
X14030604Y-14159056D01*
X14011556Y-14159056D01*
X13992508Y-14149532D01*
X13982985Y-14140008D01*
X13973461Y-14120961D01*
X13963937Y-14082866D01*
X13963937Y-14035247D01*
X13973461Y-13997151D01*
X13982985Y-13978104D01*
X13992508Y-13968580D01*
X14011556Y-13959056D01*
X14163937Y-14140008D02*
X14173461Y-14149532D01*
X14163937Y-14159056D01*
X14154413Y-14149532D01*
X14163937Y-14140008D01*
X14163937Y-14159056D01*
X14297270Y-13959056D02*
X14316318Y-13959056D01*
X14335366Y-13968580D01*
X14344889Y-13978104D01*
X14354413Y-13997151D01*
X14363937Y-14035247D01*
X14363937Y-14082866D01*
X14354413Y-14120961D01*
X14344889Y-14140008D01*
X14335366Y-14149532D01*
X14316318Y-14159056D01*
X14297270Y-14159056D01*
X14278223Y-14149532D01*
X14268699Y-14140008D01*
X14259175Y-14120961D01*
X14249651Y-14082866D01*
X14249651Y-14035247D01*
X14259175Y-13997151D01*
X14268699Y-13978104D01*
X14278223Y-13968580D01*
X14297270Y-13959056D01*
X14430604Y-13959056D02*
X14554413Y-13959056D01*
X14487747Y-14035247D01*
X14516318Y-14035247D01*
X14535366Y-14044770D01*
X14544889Y-14054294D01*
X14554413Y-14073342D01*
X14554413Y-14120961D01*
X14544889Y-14140008D01*
X14535366Y-14149532D01*
X14516318Y-14159056D01*
X14459175Y-14159056D01*
X14440128Y-14149532D01*
X14430604Y-14140008D01*
X14649651Y-14159056D02*
X14687747Y-14159056D01*
X14706794Y-14149532D01*
X14716318Y-14140008D01*
X14735366Y-14111437D01*
X14744889Y-14073342D01*
X14744889Y-13997151D01*
X14735366Y-13978104D01*
X14725842Y-13968580D01*
X14706794Y-13959056D01*
X14668699Y-13959056D01*
X14649651Y-13968580D01*
X14640128Y-13978104D01*
X14630604Y-13997151D01*
X14630604Y-14044770D01*
X14640128Y-14063818D01*
X14649651Y-14073342D01*
X14668699Y-14082866D01*
X14706794Y-14082866D01*
X14725842Y-14073342D01*
X14735366Y-14063818D01*
X14744889Y-14044770D01*
X14916318Y-14025723D02*
X14916318Y-14159056D01*
X14868699Y-13949532D02*
X14821080Y-14092389D01*
X14944889Y-14092389D01*
X15011556Y-13959056D02*
X15011556Y-13997151D01*
X15087747Y-13959056D02*
X15087747Y-13997151D01*
X15382985Y-14235247D02*
X15373461Y-14225723D01*
X15354413Y-14197151D01*
X15344889Y-14178104D01*
X15335366Y-14149532D01*
X15325842Y-14101913D01*
X15325842Y-14063818D01*
X15335366Y-14016199D01*
X15344889Y-13987628D01*
X15354413Y-13968580D01*
X15373461Y-13940008D01*
X15382985Y-13930485D01*
X15449651Y-13978104D02*
X15459175Y-13968580D01*
X15478223Y-13959056D01*
X15525842Y-13959056D01*
X15544889Y-13968580D01*
X15554413Y-13978104D01*
X15563937Y-13997151D01*
X15563937Y-14016199D01*
X15554413Y-14044770D01*
X15440128Y-14159056D01*
X15563937Y-14159056D01*
X15744889Y-13959056D02*
X15649651Y-13959056D01*
X15640128Y-14054294D01*
X15649651Y-14044770D01*
X15668699Y-14035247D01*
X15716318Y-14035247D01*
X15735366Y-14044770D01*
X15744889Y-14054294D01*
X15754413Y-14073342D01*
X15754413Y-14120961D01*
X15744889Y-14140008D01*
X15735366Y-14149532D01*
X15716318Y-14159056D01*
X15668699Y-14159056D01*
X15649651Y-14149532D01*
X15640128Y-14140008D01*
X15868699Y-14044770D02*
X15849651Y-14035247D01*
X15840128Y-14025723D01*
X15830604Y-14006675D01*
X15830604Y-13997151D01*
X15840128Y-13978104D01*
X15849651Y-13968580D01*
X15868699Y-13959056D01*
X15906794Y-13959056D01*
X15925842Y-13968580D01*
X15935366Y-13978104D01*
X15944889Y-13997151D01*
X15944889Y-14006675D01*
X15935366Y-14025723D01*
X15925842Y-14035247D01*
X15906794Y-14044770D01*
X15868699Y-14044770D01*
X15849651Y-14054294D01*
X15840128Y-14063818D01*
X15830604Y-14082866D01*
X15830604Y-14120961D01*
X15840128Y-14140008D01*
X15849651Y-14149532D01*
X15868699Y-14159056D01*
X15906794Y-14159056D01*
X15925842Y-14149532D01*
X15935366Y-14140008D01*
X15944889Y-14120961D01*
X15944889Y-14082866D01*
X15935366Y-14063818D01*
X15925842Y-14054294D01*
X15906794Y-14044770D01*
X16182985Y-14159056D02*
X16182985Y-13959056D01*
X16268699Y-14159056D02*
X16268699Y-14054294D01*
X16259175Y-14035247D01*
X16240128Y-14025723D01*
X16211556Y-14025723D01*
X16192508Y-14035247D01*
X16182985Y-14044770D01*
X16392508Y-14159056D02*
X16373461Y-14149532D01*
X16363937Y-14140008D01*
X16354413Y-14120961D01*
X16354413Y-14063818D01*
X16363937Y-14044770D01*
X16373461Y-14035247D01*
X16392508Y-14025723D01*
X16421080Y-14025723D01*
X16440128Y-14035247D01*
X16449651Y-14044770D01*
X16459175Y-14063818D01*
X16459175Y-14120961D01*
X16449651Y-14140008D01*
X16440128Y-14149532D01*
X16421080Y-14159056D01*
X16392508Y-14159056D01*
X16573461Y-14159056D02*
X16554413Y-14149532D01*
X16544889Y-14130485D01*
X16544889Y-13959056D01*
X16725842Y-14149532D02*
X16706794Y-14159056D01*
X16668699Y-14159056D01*
X16649651Y-14149532D01*
X16640128Y-14130485D01*
X16640128Y-14054294D01*
X16649651Y-14035247D01*
X16668699Y-14025723D01*
X16706794Y-14025723D01*
X16725842Y-14035247D01*
X16735366Y-14054294D01*
X16735366Y-14073342D01*
X16640128Y-14092389D01*
X16811556Y-14149532D02*
X16830604Y-14159056D01*
X16868699Y-14159056D01*
X16887747Y-14149532D01*
X16897270Y-14130485D01*
X16897270Y-14120961D01*
X16887747Y-14101913D01*
X16868699Y-14092389D01*
X16840128Y-14092389D01*
X16821080Y-14082866D01*
X16811556Y-14063818D01*
X16811556Y-14054294D01*
X16821080Y-14035247D01*
X16840128Y-14025723D01*
X16868699Y-14025723D01*
X16887747Y-14035247D01*
X16963937Y-14235247D02*
X16973461Y-14225723D01*
X16992509Y-14197151D01*
X17002032Y-14178104D01*
X17011556Y-14149532D01*
X17021080Y-14101913D01*
X17021080Y-14063818D01*
X17011556Y-14016199D01*
X17002032Y-13987628D01*
X16992509Y-13968580D01*
X16973461Y-13940008D01*
X16963937Y-13930485D01*
D15*
X11788821Y-14386321D02*
X11788821Y-14278839D01*
X11681339Y-14278839D01*
X11681339Y-14386321D01*
X11788821Y-14386321D01*
D11*
X12173461Y-14423056D02*
X12059175Y-14423056D01*
X12116318Y-14423056D02*
X12116318Y-14223056D01*
X12097270Y-14251628D01*
X12078223Y-14270675D01*
X12059175Y-14280199D01*
X12259175Y-14404008D02*
X12268699Y-14413532D01*
X12259175Y-14423056D01*
X12249651Y-14413532D01*
X12259175Y-14404008D01*
X12259175Y-14423056D01*
X12449651Y-14223056D02*
X12354413Y-14223056D01*
X12344889Y-14318294D01*
X12354413Y-14308770D01*
X12373461Y-14299247D01*
X12421080Y-14299247D01*
X12440128Y-14308770D01*
X12449651Y-14318294D01*
X12459175Y-14337342D01*
X12459175Y-14384961D01*
X12449651Y-14404008D01*
X12440128Y-14413532D01*
X12421080Y-14423056D01*
X12373461Y-14423056D01*
X12354413Y-14413532D01*
X12344889Y-14404008D01*
X12535366Y-14242104D02*
X12544889Y-14232580D01*
X12563937Y-14223056D01*
X12611556Y-14223056D01*
X12630604Y-14232580D01*
X12640128Y-14242104D01*
X12649651Y-14261151D01*
X12649651Y-14280199D01*
X12640128Y-14308770D01*
X12525842Y-14423056D01*
X12649651Y-14423056D01*
X12773461Y-14223056D02*
X12792508Y-14223056D01*
X12811556Y-14232580D01*
X12821080Y-14242104D01*
X12830604Y-14261151D01*
X12840128Y-14299247D01*
X12840128Y-14346866D01*
X12830604Y-14384961D01*
X12821080Y-14404008D01*
X12811556Y-14413532D01*
X12792508Y-14423056D01*
X12773461Y-14423056D01*
X12754413Y-14413532D01*
X12744889Y-14404008D01*
X12735366Y-14384961D01*
X12725842Y-14346866D01*
X12725842Y-14299247D01*
X12735366Y-14261151D01*
X12744889Y-14242104D01*
X12754413Y-14232580D01*
X12773461Y-14223056D01*
X12925842Y-14423056D02*
X12925842Y-14289723D01*
X12925842Y-14308770D02*
X12935366Y-14299247D01*
X12954413Y-14289723D01*
X12982985Y-14289723D01*
X13002032Y-14299247D01*
X13011556Y-14318294D01*
X13011556Y-14423056D01*
X13011556Y-14318294D02*
X13021080Y-14299247D01*
X13040128Y-14289723D01*
X13068699Y-14289723D01*
X13087747Y-14299247D01*
X13097270Y-14318294D01*
X13097270Y-14423056D01*
X13192508Y-14423056D02*
X13192508Y-14289723D01*
X13192508Y-14308770D02*
X13202032Y-14299247D01*
X13221080Y-14289723D01*
X13249651Y-14289723D01*
X13268699Y-14299247D01*
X13278223Y-14318294D01*
X13278223Y-14423056D01*
X13278223Y-14318294D02*
X13287747Y-14299247D01*
X13306794Y-14289723D01*
X13335366Y-14289723D01*
X13354413Y-14299247D01*
X13363937Y-14318294D01*
X13363937Y-14423056D01*
X13754413Y-14213532D02*
X13582985Y-14470675D01*
X14011556Y-14223056D02*
X14030604Y-14223056D01*
X14049651Y-14232580D01*
X14059175Y-14242104D01*
X14068699Y-14261151D01*
X14078223Y-14299247D01*
X14078223Y-14346866D01*
X14068699Y-14384961D01*
X14059175Y-14404008D01*
X14049651Y-14413532D01*
X14030604Y-14423056D01*
X14011556Y-14423056D01*
X13992508Y-14413532D01*
X13982985Y-14404008D01*
X13973461Y-14384961D01*
X13963937Y-14346866D01*
X13963937Y-14299247D01*
X13973461Y-14261151D01*
X13982985Y-14242104D01*
X13992508Y-14232580D01*
X14011556Y-14223056D01*
X14163937Y-14404008D02*
X14173461Y-14413532D01*
X14163937Y-14423056D01*
X14154413Y-14413532D01*
X14163937Y-14404008D01*
X14163937Y-14423056D01*
X14297270Y-14223056D02*
X14316318Y-14223056D01*
X14335366Y-14232580D01*
X14344889Y-14242104D01*
X14354413Y-14261151D01*
X14363937Y-14299247D01*
X14363937Y-14346866D01*
X14354413Y-14384961D01*
X14344889Y-14404008D01*
X14335366Y-14413532D01*
X14316318Y-14423056D01*
X14297270Y-14423056D01*
X14278223Y-14413532D01*
X14268699Y-14404008D01*
X14259175Y-14384961D01*
X14249651Y-14346866D01*
X14249651Y-14299247D01*
X14259175Y-14261151D01*
X14268699Y-14242104D01*
X14278223Y-14232580D01*
X14297270Y-14223056D01*
X14544889Y-14223056D02*
X14449651Y-14223056D01*
X14440128Y-14318294D01*
X14449651Y-14308770D01*
X14468699Y-14299247D01*
X14516318Y-14299247D01*
X14535366Y-14308770D01*
X14544889Y-14318294D01*
X14554413Y-14337342D01*
X14554413Y-14384961D01*
X14544889Y-14404008D01*
X14535366Y-14413532D01*
X14516318Y-14423056D01*
X14468699Y-14423056D01*
X14449651Y-14413532D01*
X14440128Y-14404008D01*
X14649651Y-14423056D02*
X14687747Y-14423056D01*
X14706794Y-14413532D01*
X14716318Y-14404008D01*
X14735366Y-14375437D01*
X14744889Y-14337342D01*
X14744889Y-14261151D01*
X14735366Y-14242104D01*
X14725842Y-14232580D01*
X14706794Y-14223056D01*
X14668699Y-14223056D01*
X14649651Y-14232580D01*
X14640128Y-14242104D01*
X14630604Y-14261151D01*
X14630604Y-14308770D01*
X14640128Y-14327818D01*
X14649651Y-14337342D01*
X14668699Y-14346866D01*
X14706794Y-14346866D01*
X14725842Y-14337342D01*
X14735366Y-14327818D01*
X14744889Y-14308770D01*
X14859175Y-14308770D02*
X14840128Y-14299247D01*
X14830604Y-14289723D01*
X14821080Y-14270675D01*
X14821080Y-14261151D01*
X14830604Y-14242104D01*
X14840128Y-14232580D01*
X14859175Y-14223056D01*
X14897270Y-14223056D01*
X14916318Y-14232580D01*
X14925842Y-14242104D01*
X14935366Y-14261151D01*
X14935366Y-14270675D01*
X14925842Y-14289723D01*
X14916318Y-14299247D01*
X14897270Y-14308770D01*
X14859175Y-14308770D01*
X14840128Y-14318294D01*
X14830604Y-14327818D01*
X14821080Y-14346866D01*
X14821080Y-14384961D01*
X14830604Y-14404008D01*
X14840128Y-14413532D01*
X14859175Y-14423056D01*
X14897270Y-14423056D01*
X14916318Y-14413532D01*
X14925842Y-14404008D01*
X14935366Y-14384961D01*
X14935366Y-14346866D01*
X14925842Y-14327818D01*
X14916318Y-14318294D01*
X14897270Y-14308770D01*
X15011556Y-14223056D02*
X15011556Y-14261151D01*
X15087747Y-14223056D02*
X15087747Y-14261151D01*
X15382985Y-14499247D02*
X15373461Y-14489723D01*
X15354413Y-14461151D01*
X15344889Y-14442104D01*
X15335366Y-14413532D01*
X15325842Y-14365913D01*
X15325842Y-14327818D01*
X15335366Y-14280199D01*
X15344889Y-14251628D01*
X15354413Y-14232580D01*
X15373461Y-14204008D01*
X15382985Y-14194485D01*
X15544889Y-14223056D02*
X15506794Y-14223056D01*
X15487747Y-14232580D01*
X15478223Y-14242104D01*
X15459175Y-14270675D01*
X15449651Y-14308770D01*
X15449651Y-14384961D01*
X15459175Y-14404008D01*
X15468699Y-14413532D01*
X15487747Y-14423056D01*
X15525842Y-14423056D01*
X15544889Y-14413532D01*
X15554413Y-14404008D01*
X15563937Y-14384961D01*
X15563937Y-14337342D01*
X15554413Y-14318294D01*
X15544889Y-14308770D01*
X15525842Y-14299247D01*
X15487747Y-14299247D01*
X15468699Y-14308770D01*
X15459175Y-14318294D01*
X15449651Y-14337342D01*
X15687747Y-14223056D02*
X15706794Y-14223056D01*
X15725842Y-14232580D01*
X15735366Y-14242104D01*
X15744889Y-14261151D01*
X15754413Y-14299247D01*
X15754413Y-14346866D01*
X15744889Y-14384961D01*
X15735366Y-14404008D01*
X15725842Y-14413532D01*
X15706794Y-14423056D01*
X15687747Y-14423056D01*
X15668699Y-14413532D01*
X15659175Y-14404008D01*
X15649651Y-14384961D01*
X15640128Y-14346866D01*
X15640128Y-14299247D01*
X15649651Y-14261151D01*
X15659175Y-14242104D01*
X15668699Y-14232580D01*
X15687747Y-14223056D01*
X15992508Y-14423056D02*
X15992508Y-14223056D01*
X16078223Y-14423056D02*
X16078223Y-14318294D01*
X16068699Y-14299247D01*
X16049651Y-14289723D01*
X16021080Y-14289723D01*
X16002032Y-14299247D01*
X15992508Y-14308770D01*
X16202032Y-14423056D02*
X16182985Y-14413532D01*
X16173461Y-14404008D01*
X16163937Y-14384961D01*
X16163937Y-14327818D01*
X16173461Y-14308770D01*
X16182985Y-14299247D01*
X16202032Y-14289723D01*
X16230604Y-14289723D01*
X16249651Y-14299247D01*
X16259175Y-14308770D01*
X16268699Y-14327818D01*
X16268699Y-14384961D01*
X16259175Y-14404008D01*
X16249651Y-14413532D01*
X16230604Y-14423056D01*
X16202032Y-14423056D01*
X16382985Y-14423056D02*
X16363937Y-14413532D01*
X16354413Y-14394485D01*
X16354413Y-14223056D01*
X16535366Y-14413532D02*
X16516318Y-14423056D01*
X16478223Y-14423056D01*
X16459175Y-14413532D01*
X16449651Y-14394485D01*
X16449651Y-14318294D01*
X16459175Y-14299247D01*
X16478223Y-14289723D01*
X16516318Y-14289723D01*
X16535366Y-14299247D01*
X16544889Y-14318294D01*
X16544889Y-14337342D01*
X16449651Y-14356389D01*
X16621080Y-14413532D02*
X16640128Y-14423056D01*
X16678223Y-14423056D01*
X16697270Y-14413532D01*
X16706794Y-14394485D01*
X16706794Y-14384961D01*
X16697270Y-14365913D01*
X16678223Y-14356389D01*
X16649651Y-14356389D01*
X16630604Y-14346866D01*
X16621080Y-14327818D01*
X16621080Y-14318294D01*
X16630604Y-14299247D01*
X16649651Y-14289723D01*
X16678223Y-14289723D01*
X16697270Y-14299247D01*
X16773461Y-14499247D02*
X16782985Y-14489723D01*
X16802032Y-14461151D01*
X16811556Y-14442104D01*
X16821080Y-14413532D01*
X16830604Y-14365913D01*
X16830604Y-14327818D01*
X16821080Y-14280199D01*
X16811556Y-14251628D01*
X16802032Y-14232580D01*
X16782985Y-14204008D01*
X16773461Y-14194485D01*
M02*
