%FSLAX45Y45*%
G04 Gerber Fmt 4.5, Leading zero omitted, Abs format (unit mm)*
G04 Created by KiCad (PCBNEW (6.0.0)) date 2022-10-06 11:10:52*
%MOMM*%
%LPD*%
G01*
G04 APERTURE LIST*
%TA.AperFunction,Profile*%
%ADD10C,0.100000*%
%TD*%
%ADD11C,0.200000*%
G04 APERTURE END LIST*
D10*
X22499320Y-4457700D02*
X11816080Y-4457700D01*
X11816080Y-4457700D02*
X11816080Y-12895580D01*
X11816080Y-12895580D02*
X22499320Y-12895580D01*
X22499320Y-12895580D02*
X22499320Y-4457700D01*
D11*
X12068699Y-13211056D02*
X12068699Y-13011056D01*
X12116318Y-13011056D01*
X12144889Y-13020580D01*
X12163937Y-13039628D01*
X12173461Y-13058675D01*
X12182985Y-13096770D01*
X12182985Y-13125342D01*
X12173461Y-13163437D01*
X12163937Y-13182485D01*
X12144889Y-13201532D01*
X12116318Y-13211056D01*
X12068699Y-13211056D01*
X12268699Y-13211056D02*
X12268699Y-13077723D01*
X12268699Y-13115818D02*
X12278223Y-13096770D01*
X12287747Y-13087247D01*
X12306794Y-13077723D01*
X12325842Y-13077723D01*
X12392508Y-13211056D02*
X12392508Y-13077723D01*
X12392508Y-13011056D02*
X12382985Y-13020580D01*
X12392508Y-13030104D01*
X12402032Y-13020580D01*
X12392508Y-13011056D01*
X12392508Y-13030104D01*
X12516318Y-13211056D02*
X12497270Y-13201532D01*
X12487747Y-13182485D01*
X12487747Y-13011056D01*
X12621080Y-13211056D02*
X12602032Y-13201532D01*
X12592508Y-13182485D01*
X12592508Y-13011056D01*
X12849651Y-13211056D02*
X12849651Y-13011056D01*
X12916318Y-13153913D01*
X12982985Y-13011056D01*
X12982985Y-13211056D01*
X13163937Y-13211056D02*
X13163937Y-13106294D01*
X13154413Y-13087247D01*
X13135366Y-13077723D01*
X13097270Y-13077723D01*
X13078223Y-13087247D01*
X13163937Y-13201532D02*
X13144889Y-13211056D01*
X13097270Y-13211056D01*
X13078223Y-13201532D01*
X13068699Y-13182485D01*
X13068699Y-13163437D01*
X13078223Y-13144389D01*
X13097270Y-13134866D01*
X13144889Y-13134866D01*
X13163937Y-13125342D01*
X13259175Y-13077723D02*
X13259175Y-13277723D01*
X13259175Y-13087247D02*
X13278223Y-13077723D01*
X13316318Y-13077723D01*
X13335366Y-13087247D01*
X13344889Y-13096770D01*
X13354413Y-13115818D01*
X13354413Y-13172961D01*
X13344889Y-13192008D01*
X13335366Y-13201532D01*
X13316318Y-13211056D01*
X13278223Y-13211056D01*
X13259175Y-13201532D01*
X13440128Y-13192008D02*
X13449651Y-13201532D01*
X13440128Y-13211056D01*
X13430604Y-13201532D01*
X13440128Y-13192008D01*
X13440128Y-13211056D01*
X13440128Y-13087247D02*
X13449651Y-13096770D01*
X13440128Y-13106294D01*
X13430604Y-13096770D01*
X13440128Y-13087247D01*
X13440128Y-13106294D01*
M02*
