%TF.GenerationSoftware,KiCad,Pcbnew,(6.0.0)*%
%TF.CreationDate,2022-10-01T22:30:54+02:00*%
%TF.ProjectId,012-Amesis-ColdSartE85,3031322d-416d-4657-9369-732d436f6c64,v0.01_Golf 1.6L 16v *%
%TF.SameCoordinates,Original*%
%TF.FileFunction,Copper,L2,Bot*%
%TF.FilePolarity,Positive*%
%FSLAX46Y46*%
G04 Gerber Fmt 4.6, Leading zero omitted, Abs format (unit mm)*
G04 Created by KiCad (PCBNEW (6.0.0)) date 2022-10-01 22:30:54*
%MOMM*%
%LPD*%
G01*
G04 APERTURE LIST*
%TA.AperFunction,ComponentPad*%
%ADD10R,1.600000X1.600000*%
%TD*%
%TA.AperFunction,ComponentPad*%
%ADD11O,1.600000X1.600000*%
%TD*%
%TA.AperFunction,ComponentPad*%
%ADD12R,3.000000X3.000000*%
%TD*%
%TA.AperFunction,ComponentPad*%
%ADD13C,3.000000*%
%TD*%
%TA.AperFunction,ComponentPad*%
%ADD14R,1.700000X1.700000*%
%TD*%
%TA.AperFunction,ComponentPad*%
%ADD15O,1.700000X1.700000*%
%TD*%
%TA.AperFunction,ViaPad*%
%ADD16C,0.800000*%
%TD*%
%TA.AperFunction,Conductor*%
%ADD17C,0.500000*%
%TD*%
%TA.AperFunction,Conductor*%
%ADD18C,0.250000*%
%TD*%
G04 APERTURE END LIST*
D10*
%TO.P,A1,1,D1/TX*%
%TO.N,unconnected-(A1-Pad1)*%
X157888154Y-46646104D03*
D11*
%TO.P,A1,2,D0/RX*%
%TO.N,unconnected-(A1-Pad2)*%
X155348154Y-46646104D03*
%TO.P,A1,3,~{RESET}*%
%TO.N,unconnected-(A1-Pad3)*%
X152808154Y-46646104D03*
%TO.P,A1,4,GND*%
%TO.N,GND*%
X150268154Y-46646104D03*
%TO.P,A1,5,D2*%
%TO.N,Net-(A1-Pad5)*%
X147728154Y-46646104D03*
%TO.P,A1,6,D3*%
%TO.N,Net-(A1-Pad6)*%
X145188154Y-46646104D03*
%TO.P,A1,7,D4*%
%TO.N,Net-(A1-Pad7)*%
X142648154Y-46646104D03*
%TO.P,A1,8,D5*%
%TO.N,unconnected-(A1-Pad8)*%
X140108154Y-46646104D03*
%TO.P,A1,9,D6*%
%TO.N,unconnected-(A1-Pad9)*%
X137568154Y-46646104D03*
%TO.P,A1,10,D7*%
%TO.N,unconnected-(A1-Pad10)*%
X135028154Y-46646104D03*
%TO.P,A1,11,D8*%
%TO.N,unconnected-(A1-Pad11)*%
X132488154Y-46646104D03*
%TO.P,A1,12,D9*%
%TO.N,unconnected-(A1-Pad12)*%
X129948154Y-46646104D03*
%TO.P,A1,13,D10*%
%TO.N,Net-(A1-Pad13)*%
X127408154Y-46646104D03*
%TO.P,A1,14,D11*%
%TO.N,unconnected-(A1-Pad14)*%
X124868154Y-46646104D03*
%TO.P,A1,15,D12*%
%TO.N,Net-(A1-Pad15)*%
X122328154Y-46646104D03*
%TO.P,A1,16,D13*%
%TO.N,unconnected-(A1-Pad16)*%
X122328154Y-61886104D03*
%TO.P,A1,17,3V3*%
%TO.N,unconnected-(A1-Pad17)*%
X124868154Y-61886104D03*
%TO.P,A1,18,AREF*%
%TO.N,unconnected-(A1-Pad18)*%
X127408154Y-61886104D03*
%TO.P,A1,19,A0*%
%TO.N,unconnected-(A1-Pad19)*%
X129948154Y-61886104D03*
%TO.P,A1,20,A1*%
%TO.N,unconnected-(A1-Pad20)*%
X132488154Y-61886104D03*
%TO.P,A1,21,A2*%
%TO.N,unconnected-(A1-Pad21)*%
X135028154Y-61886104D03*
%TO.P,A1,22,A3*%
%TO.N,unconnected-(A1-Pad22)*%
X137568154Y-61886104D03*
%TO.P,A1,23,A4*%
%TO.N,unconnected-(A1-Pad23)*%
X140108154Y-61886104D03*
%TO.P,A1,24,A5*%
%TO.N,unconnected-(A1-Pad24)*%
X142648154Y-61886104D03*
%TO.P,A1,25,A6*%
%TO.N,unconnected-(A1-Pad25)*%
X145188154Y-61886104D03*
%TO.P,A1,26,A7*%
%TO.N,Net-(A1-Pad26)*%
X147728154Y-61886104D03*
%TO.P,A1,27,+5V*%
%TO.N,Net-(A1-Pad27)*%
X150268154Y-61886104D03*
%TO.P,A1,28,~{RESET}*%
%TO.N,unconnected-(A1-Pad28)*%
X152808154Y-61886104D03*
%TO.P,A1,29,GND*%
%TO.N,GND*%
X155348154Y-61886104D03*
%TO.P,A1,30,VIN*%
%TO.N,Net-(A1-Pad30)*%
X157888154Y-61886104D03*
%TD*%
D12*
%TO.P,J1,1,Pin_1*%
%TO.N,GND*%
X162510954Y-67464104D03*
D13*
%TO.P,J1,2,Pin_2*%
%TO.N,Net-(A1-Pad30)*%
X167590954Y-67464104D03*
%TD*%
D14*
%TO.P,Jumpers_Option1,1,Pin_1*%
%TO.N,Net-(A1-Pad13)*%
X168454554Y-46803504D03*
D15*
%TO.P,Jumpers_Option1,2,Pin_2*%
%TO.N,GND*%
X168454554Y-49343504D03*
%TO.P,Jumpers_Option1,3,Pin_3*%
%TO.N,Net-(A1-Pad15)*%
X168454554Y-51883504D03*
%TD*%
D12*
%TO.P,G2/G62_OutPut_IAT1,1,Pin_1*%
%TO.N,Net-(G2/G62_InPut_IAT1-Pad1)*%
X141733754Y-67464104D03*
D13*
%TO.P,G2/G62_OutPut_IAT1,2,Pin_2*%
%TO.N,Net-(G2/G62_InPut_IAT1-Pad2)*%
X146813754Y-67464104D03*
%TO.P,G2/G62_OutPut_IAT1,3,Pin_3*%
%TO.N,Net-(G2/G62_OutPut_IAT1-Pad3)*%
X151893754Y-67464104D03*
%TO.P,G2/G62_OutPut_IAT1,4,Pin_4*%
%TO.N,Net-(G2/G62_InPut_IAT1-Pad4)*%
X156973754Y-67464104D03*
%TD*%
D14*
%TO.P,IAT_Interne1,1,1*%
%TO.N,GND*%
X168479554Y-61505504D03*
D15*
%TO.P,IAT_Interne1,2,2*%
%TO.N,Net-(A1-Pad26)*%
X168479554Y-58965504D03*
%TO.P,IAT_Interne1,3,3*%
%TO.N,Net-(A1-Pad27)*%
X168479554Y-56425504D03*
%TD*%
D12*
%TO.P,G2/G62_InPut_IAT1,1,Pin_1*%
%TO.N,Net-(G2/G62_InPut_IAT1-Pad1)*%
X120956554Y-67464104D03*
D13*
%TO.P,G2/G62_InPut_IAT1,2,Pin_2*%
%TO.N,Net-(G2/G62_InPut_IAT1-Pad2)*%
X126036554Y-67464104D03*
%TO.P,G2/G62_InPut_IAT1,3,Pin_3*%
%TO.N,Net-(G2/G62_InPut_IAT1-Pad3)*%
X131116554Y-67464104D03*
%TO.P,G2/G62_InPut_IAT1,4,Pin_4*%
%TO.N,Net-(G2/G62_InPut_IAT1-Pad4)*%
X136196554Y-67464104D03*
%TD*%
D14*
%TO.P,J2,1,Pin_1*%
%TO.N,Net-(A1-Pad27)*%
X164339754Y-49226904D03*
D15*
%TO.P,J2,2,Pin_2*%
%TO.N,Net-(A1-Pad7)*%
X164339754Y-51766904D03*
%TO.P,J2,3,Pin_3*%
%TO.N,Net-(A1-Pad5)*%
X164339754Y-54306904D03*
%TO.P,J2,4,Pin_4*%
%TO.N,Net-(A1-Pad6)*%
X164339754Y-56846904D03*
%TO.P,J2,5,Pin_5*%
%TO.N,GND*%
X164339754Y-59386904D03*
%TD*%
D14*
%TO.P,J3,1,Pin_1*%
%TO.N,Net-(G2/G62_OutPut_IAT1-Pad3)*%
X149861754Y-51766904D03*
D15*
%TO.P,J3,2,Pin_2*%
%TO.N,Net-(G2/G62_InPut_IAT1-Pad3)*%
X149861754Y-54306904D03*
%TO.P,J3,3,Pin_3*%
%TO.N,unconnected-(J3-Pad3)*%
X149861754Y-56846904D03*
%TD*%
D16*
%TO.N,GND*%
X123242554Y-49379304D03*
X124868154Y-59691704D03*
X133554954Y-68937304D03*
X160580554Y-55997404D03*
X162460154Y-48363304D03*
X165406554Y-69394504D03*
X160021754Y-46534504D03*
X123648954Y-69394504D03*
X138228554Y-65635304D03*
X159056554Y-51868504D03*
X126595354Y-48414104D03*
X158751754Y-69445304D03*
X128474954Y-66397304D03*
X136348954Y-47956904D03*
%TO.N,Net-(A1-Pad7)*%
X151385754Y-48160104D03*
X152198554Y-48160104D03*
%TO.N,Net-(G2/G62_OutPut_IAT1-Pad3)*%
X159818554Y-63501704D03*
X160428154Y-58878904D03*
X160428154Y-62942904D03*
X159869354Y-58218504D03*
%TD*%
D17*
%TO.N,Net-(A1-Pad5)*%
X147728154Y-46646104D02*
X150207354Y-49125304D01*
X150207354Y-49125304D02*
X153265354Y-49125304D01*
X153265354Y-49125304D02*
X158446954Y-54306904D01*
X158446954Y-54306904D02*
X164339754Y-54306904D01*
%TO.N,Net-(A1-Pad6)*%
X152350954Y-49836504D02*
X148378554Y-49836504D01*
X159361354Y-56846904D02*
X152350954Y-49836504D01*
X148378554Y-49836504D02*
X145188154Y-46646104D01*
X164339754Y-56846904D02*
X159361354Y-56846904D01*
%TO.N,Net-(A1-Pad7)*%
X160783754Y-48210904D02*
X151436554Y-48210904D01*
X164339754Y-51766904D02*
X160783754Y-48210904D01*
X151436554Y-48210904D02*
X151385754Y-48160104D01*
%TO.N,Net-(A1-Pad26)*%
X168479554Y-58965504D02*
X167148754Y-58965504D01*
X167148754Y-58965504D02*
X161596554Y-64517704D01*
X161596554Y-64517704D02*
X150359754Y-64517704D01*
X150359754Y-64517704D02*
X147728154Y-61886104D01*
%TO.N,Net-(G2/G62_InPut_IAT1-Pad2)*%
X126036554Y-67464104D02*
X128627354Y-70054904D01*
X144222954Y-70054904D02*
X146813754Y-67464104D01*
X128627354Y-70054904D02*
X144222954Y-70054904D01*
%TO.N,Net-(G2/G62_InPut_IAT1-Pad1)*%
X138787354Y-64517704D02*
X141733754Y-67464104D01*
X120956554Y-67464104D02*
X123902954Y-64517704D01*
X123902954Y-64517704D02*
X138787354Y-64517704D01*
%TO.N,Net-(G2/G62_OutPut_IAT1-Pad3)*%
X160428154Y-58878904D02*
X160428154Y-58777304D01*
X159869354Y-63501704D02*
X160428154Y-62942904D01*
D18*
X159818554Y-63501704D02*
X159869354Y-63501704D01*
D17*
X160428154Y-58777304D02*
X159869354Y-58218504D01*
X160428154Y-58878904D02*
X160428154Y-62942904D01*
%TD*%
%TA.AperFunction,Conductor*%
%TO.N,GND*%
G36*
X125552478Y-65296206D02*
G01*
X125598971Y-65349862D01*
X125609075Y-65420136D01*
X125579581Y-65484716D01*
X125517605Y-65523738D01*
X125374482Y-65562892D01*
X125370534Y-65564576D01*
X125126536Y-65668650D01*
X125126532Y-65668652D01*
X125122584Y-65670336D01*
X125102679Y-65682249D01*
X124891279Y-65808768D01*
X124891275Y-65808771D01*
X124887597Y-65810972D01*
X124673872Y-65982198D01*
X124485362Y-66180846D01*
X124325556Y-66403240D01*
X124197411Y-66645265D01*
X124195939Y-66649288D01*
X124195937Y-66649292D01*
X124188868Y-66668610D01*
X124103297Y-66902441D01*
X124044958Y-67170011D01*
X124023471Y-67443022D01*
X124039236Y-67716424D01*
X124040061Y-67720629D01*
X124040062Y-67720637D01*
X124050681Y-67774761D01*
X124091959Y-67985157D01*
X124093346Y-67989207D01*
X124093347Y-67989212D01*
X124178910Y-68239120D01*
X124180666Y-68244248D01*
X124303714Y-68488903D01*
X124306140Y-68492432D01*
X124306143Y-68492438D01*
X124456397Y-68711057D01*
X124458828Y-68714594D01*
X124643136Y-68917147D01*
X124853229Y-69092811D01*
X124856870Y-69095095D01*
X125081578Y-69236055D01*
X125081582Y-69236057D01*
X125085218Y-69238338D01*
X125153098Y-69268987D01*
X125330899Y-69349268D01*
X125330903Y-69349270D01*
X125334811Y-69351034D01*
X125338931Y-69352254D01*
X125338930Y-69352254D01*
X125593277Y-69427595D01*
X125593281Y-69427596D01*
X125597390Y-69428813D01*
X125601624Y-69429461D01*
X125601629Y-69429462D01*
X125863852Y-69469587D01*
X125863854Y-69469587D01*
X125868094Y-69470236D01*
X126007466Y-69472426D01*
X126137625Y-69474471D01*
X126137631Y-69474471D01*
X126141916Y-69474538D01*
X126413789Y-69441638D01*
X126678681Y-69372145D01*
X126682650Y-69370501D01*
X126682653Y-69370500D01*
X126737535Y-69347767D01*
X126808125Y-69340177D01*
X126874849Y-69375080D01*
X128043584Y-70543815D01*
X128055970Y-70558227D01*
X128064503Y-70569822D01*
X128064508Y-70569827D01*
X128068846Y-70575722D01*
X128074424Y-70580461D01*
X128074427Y-70580464D01*
X128109122Y-70609939D01*
X128116638Y-70616869D01*
X128122333Y-70622564D01*
X128125215Y-70624844D01*
X128144605Y-70640185D01*
X128148009Y-70642976D01*
X128198057Y-70685495D01*
X128203639Y-70690237D01*
X128210155Y-70693565D01*
X128215192Y-70696924D01*
X128220331Y-70700098D01*
X128226070Y-70704638D01*
X128232703Y-70707738D01*
X128278529Y-70729155D01*
X128331774Y-70776118D01*
X128351176Y-70844412D01*
X128330576Y-70912354D01*
X128276513Y-70958373D01*
X128225181Y-70969304D01*
X118847354Y-70969304D01*
X118779233Y-70949302D01*
X118732740Y-70895646D01*
X118721354Y-70843304D01*
X118721354Y-69146731D01*
X118741356Y-69078610D01*
X118795012Y-69032117D01*
X118865286Y-69022013D01*
X118929866Y-69051507D01*
X118965336Y-69102501D01*
X118976148Y-69131341D01*
X119005939Y-69210809D01*
X119093293Y-69327365D01*
X119209849Y-69414719D01*
X119346238Y-69465849D01*
X119408420Y-69472604D01*
X122504688Y-69472604D01*
X122566870Y-69465849D01*
X122703259Y-69414719D01*
X122819815Y-69327365D01*
X122907169Y-69210809D01*
X122958299Y-69074420D01*
X122965054Y-69012238D01*
X122965054Y-66580474D01*
X122985056Y-66512353D01*
X123001959Y-66491379D01*
X124180229Y-65313109D01*
X124242541Y-65279083D01*
X124269324Y-65276204D01*
X125484357Y-65276204D01*
X125552478Y-65296206D01*
G37*
%TD.AperFunction*%
%TA.AperFunction,Conductor*%
G36*
X121419987Y-45487706D02*
G01*
X121466480Y-45541362D01*
X121476584Y-45611636D01*
X121447090Y-45676216D01*
X121440961Y-45682799D01*
X121321956Y-45801804D01*
X121318799Y-45806312D01*
X121318797Y-45806315D01*
X121287478Y-45851044D01*
X121190631Y-45989355D01*
X121188308Y-45994337D01*
X121188305Y-45994342D01*
X121188188Y-45994593D01*
X121093870Y-46196861D01*
X121034611Y-46418017D01*
X121014656Y-46646104D01*
X121034611Y-46874191D01*
X121093870Y-47095347D01*
X121096193Y-47100328D01*
X121096193Y-47100329D01*
X121188305Y-47297866D01*
X121188308Y-47297871D01*
X121190631Y-47302853D01*
X121207122Y-47326404D01*
X121295833Y-47453096D01*
X121321956Y-47490404D01*
X121483854Y-47652302D01*
X121488362Y-47655459D01*
X121488365Y-47655461D01*
X121488948Y-47655869D01*
X121671405Y-47783627D01*
X121676387Y-47785950D01*
X121676392Y-47785953D01*
X121805950Y-47846366D01*
X121878911Y-47880388D01*
X121884219Y-47881810D01*
X121884221Y-47881811D01*
X122094752Y-47938223D01*
X122094754Y-47938223D01*
X122100067Y-47939647D01*
X122328154Y-47959602D01*
X122556241Y-47939647D01*
X122561554Y-47938223D01*
X122561556Y-47938223D01*
X122772087Y-47881811D01*
X122772089Y-47881810D01*
X122777397Y-47880388D01*
X122850358Y-47846366D01*
X122979916Y-47785953D01*
X122979921Y-47785950D01*
X122984903Y-47783627D01*
X123167360Y-47655869D01*
X123167943Y-47655461D01*
X123167946Y-47655459D01*
X123172454Y-47652302D01*
X123334352Y-47490404D01*
X123360476Y-47453096D01*
X123449186Y-47326404D01*
X123465677Y-47302853D01*
X123468000Y-47297871D01*
X123468003Y-47297866D01*
X123483959Y-47263647D01*
X123530876Y-47210362D01*
X123599153Y-47190901D01*
X123667113Y-47211443D01*
X123712349Y-47263647D01*
X123728305Y-47297866D01*
X123728308Y-47297871D01*
X123730631Y-47302853D01*
X123747122Y-47326404D01*
X123835833Y-47453096D01*
X123861956Y-47490404D01*
X124023854Y-47652302D01*
X124028362Y-47655459D01*
X124028365Y-47655461D01*
X124028948Y-47655869D01*
X124211405Y-47783627D01*
X124216387Y-47785950D01*
X124216392Y-47785953D01*
X124345950Y-47846366D01*
X124418911Y-47880388D01*
X124424219Y-47881810D01*
X124424221Y-47881811D01*
X124634752Y-47938223D01*
X124634754Y-47938223D01*
X124640067Y-47939647D01*
X124868154Y-47959602D01*
X125096241Y-47939647D01*
X125101554Y-47938223D01*
X125101556Y-47938223D01*
X125312087Y-47881811D01*
X125312089Y-47881810D01*
X125317397Y-47880388D01*
X125390358Y-47846366D01*
X125519916Y-47785953D01*
X125519921Y-47785950D01*
X125524903Y-47783627D01*
X125707360Y-47655869D01*
X125707943Y-47655461D01*
X125707946Y-47655459D01*
X125712454Y-47652302D01*
X125874352Y-47490404D01*
X125900476Y-47453096D01*
X125989186Y-47326404D01*
X126005677Y-47302853D01*
X126008000Y-47297871D01*
X126008003Y-47297866D01*
X126023959Y-47263647D01*
X126070876Y-47210362D01*
X126139153Y-47190901D01*
X126207113Y-47211443D01*
X126252349Y-47263647D01*
X126268305Y-47297866D01*
X126268308Y-47297871D01*
X126270631Y-47302853D01*
X126287122Y-47326404D01*
X126375833Y-47453096D01*
X126401956Y-47490404D01*
X126563854Y-47652302D01*
X126568362Y-47655459D01*
X126568365Y-47655461D01*
X126568948Y-47655869D01*
X126751405Y-47783627D01*
X126756387Y-47785950D01*
X126756392Y-47785953D01*
X126885950Y-47846366D01*
X126958911Y-47880388D01*
X126964219Y-47881810D01*
X126964221Y-47881811D01*
X127174752Y-47938223D01*
X127174754Y-47938223D01*
X127180067Y-47939647D01*
X127408154Y-47959602D01*
X127636241Y-47939647D01*
X127641554Y-47938223D01*
X127641556Y-47938223D01*
X127852087Y-47881811D01*
X127852089Y-47881810D01*
X127857397Y-47880388D01*
X127930358Y-47846366D01*
X128059916Y-47785953D01*
X128059921Y-47785950D01*
X128064903Y-47783627D01*
X128247360Y-47655869D01*
X128247943Y-47655461D01*
X128247946Y-47655459D01*
X128252454Y-47652302D01*
X128414352Y-47490404D01*
X128440476Y-47453096D01*
X128529186Y-47326404D01*
X128545677Y-47302853D01*
X128548000Y-47297871D01*
X128548003Y-47297866D01*
X128563959Y-47263647D01*
X128610876Y-47210362D01*
X128679153Y-47190901D01*
X128747113Y-47211443D01*
X128792349Y-47263647D01*
X128808305Y-47297866D01*
X128808308Y-47297871D01*
X128810631Y-47302853D01*
X128827122Y-47326404D01*
X128915833Y-47453096D01*
X128941956Y-47490404D01*
X129103854Y-47652302D01*
X129108362Y-47655459D01*
X129108365Y-47655461D01*
X129108948Y-47655869D01*
X129291405Y-47783627D01*
X129296387Y-47785950D01*
X129296392Y-47785953D01*
X129425950Y-47846366D01*
X129498911Y-47880388D01*
X129504219Y-47881810D01*
X129504221Y-47881811D01*
X129714752Y-47938223D01*
X129714754Y-47938223D01*
X129720067Y-47939647D01*
X129948154Y-47959602D01*
X130176241Y-47939647D01*
X130181554Y-47938223D01*
X130181556Y-47938223D01*
X130392087Y-47881811D01*
X130392089Y-47881810D01*
X130397397Y-47880388D01*
X130470358Y-47846366D01*
X130599916Y-47785953D01*
X130599921Y-47785950D01*
X130604903Y-47783627D01*
X130787360Y-47655869D01*
X130787943Y-47655461D01*
X130787946Y-47655459D01*
X130792454Y-47652302D01*
X130954352Y-47490404D01*
X130980476Y-47453096D01*
X131069186Y-47326404D01*
X131085677Y-47302853D01*
X131088000Y-47297871D01*
X131088003Y-47297866D01*
X131103959Y-47263647D01*
X131150876Y-47210362D01*
X131219153Y-47190901D01*
X131287113Y-47211443D01*
X131332349Y-47263647D01*
X131348305Y-47297866D01*
X131348308Y-47297871D01*
X131350631Y-47302853D01*
X131367122Y-47326404D01*
X131455833Y-47453096D01*
X131481956Y-47490404D01*
X131643854Y-47652302D01*
X131648362Y-47655459D01*
X131648365Y-47655461D01*
X131648948Y-47655869D01*
X131831405Y-47783627D01*
X131836387Y-47785950D01*
X131836392Y-47785953D01*
X131965950Y-47846366D01*
X132038911Y-47880388D01*
X132044219Y-47881810D01*
X132044221Y-47881811D01*
X132254752Y-47938223D01*
X132254754Y-47938223D01*
X132260067Y-47939647D01*
X132488154Y-47959602D01*
X132716241Y-47939647D01*
X132721554Y-47938223D01*
X132721556Y-47938223D01*
X132932087Y-47881811D01*
X132932089Y-47881810D01*
X132937397Y-47880388D01*
X133010358Y-47846366D01*
X133139916Y-47785953D01*
X133139921Y-47785950D01*
X133144903Y-47783627D01*
X133327360Y-47655869D01*
X133327943Y-47655461D01*
X133327946Y-47655459D01*
X133332454Y-47652302D01*
X133494352Y-47490404D01*
X133520476Y-47453096D01*
X133609186Y-47326404D01*
X133625677Y-47302853D01*
X133628000Y-47297871D01*
X133628003Y-47297866D01*
X133643959Y-47263647D01*
X133690876Y-47210362D01*
X133759153Y-47190901D01*
X133827113Y-47211443D01*
X133872349Y-47263647D01*
X133888305Y-47297866D01*
X133888308Y-47297871D01*
X133890631Y-47302853D01*
X133907122Y-47326404D01*
X133995833Y-47453096D01*
X134021956Y-47490404D01*
X134183854Y-47652302D01*
X134188362Y-47655459D01*
X134188365Y-47655461D01*
X134188948Y-47655869D01*
X134371405Y-47783627D01*
X134376387Y-47785950D01*
X134376392Y-47785953D01*
X134505950Y-47846366D01*
X134578911Y-47880388D01*
X134584219Y-47881810D01*
X134584221Y-47881811D01*
X134794752Y-47938223D01*
X134794754Y-47938223D01*
X134800067Y-47939647D01*
X135028154Y-47959602D01*
X135256241Y-47939647D01*
X135261554Y-47938223D01*
X135261556Y-47938223D01*
X135472087Y-47881811D01*
X135472089Y-47881810D01*
X135477397Y-47880388D01*
X135550358Y-47846366D01*
X135679916Y-47785953D01*
X135679921Y-47785950D01*
X135684903Y-47783627D01*
X135867360Y-47655869D01*
X135867943Y-47655461D01*
X135867946Y-47655459D01*
X135872454Y-47652302D01*
X136034352Y-47490404D01*
X136060476Y-47453096D01*
X136149186Y-47326404D01*
X136165677Y-47302853D01*
X136168000Y-47297871D01*
X136168003Y-47297866D01*
X136183959Y-47263647D01*
X136230876Y-47210362D01*
X136299153Y-47190901D01*
X136367113Y-47211443D01*
X136412349Y-47263647D01*
X136428305Y-47297866D01*
X136428308Y-47297871D01*
X136430631Y-47302853D01*
X136447122Y-47326404D01*
X136535833Y-47453096D01*
X136561956Y-47490404D01*
X136723854Y-47652302D01*
X136728362Y-47655459D01*
X136728365Y-47655461D01*
X136728948Y-47655869D01*
X136911405Y-47783627D01*
X136916387Y-47785950D01*
X136916392Y-47785953D01*
X137045950Y-47846366D01*
X137118911Y-47880388D01*
X137124219Y-47881810D01*
X137124221Y-47881811D01*
X137334752Y-47938223D01*
X137334754Y-47938223D01*
X137340067Y-47939647D01*
X137568154Y-47959602D01*
X137796241Y-47939647D01*
X137801554Y-47938223D01*
X137801556Y-47938223D01*
X138012087Y-47881811D01*
X138012089Y-47881810D01*
X138017397Y-47880388D01*
X138090358Y-47846366D01*
X138219916Y-47785953D01*
X138219921Y-47785950D01*
X138224903Y-47783627D01*
X138407360Y-47655869D01*
X138407943Y-47655461D01*
X138407946Y-47655459D01*
X138412454Y-47652302D01*
X138574352Y-47490404D01*
X138600476Y-47453096D01*
X138689186Y-47326404D01*
X138705677Y-47302853D01*
X138708000Y-47297871D01*
X138708003Y-47297866D01*
X138723959Y-47263647D01*
X138770876Y-47210362D01*
X138839153Y-47190901D01*
X138907113Y-47211443D01*
X138952349Y-47263647D01*
X138968305Y-47297866D01*
X138968308Y-47297871D01*
X138970631Y-47302853D01*
X138987122Y-47326404D01*
X139075833Y-47453096D01*
X139101956Y-47490404D01*
X139263854Y-47652302D01*
X139268362Y-47655459D01*
X139268365Y-47655461D01*
X139268948Y-47655869D01*
X139451405Y-47783627D01*
X139456387Y-47785950D01*
X139456392Y-47785953D01*
X139585950Y-47846366D01*
X139658911Y-47880388D01*
X139664219Y-47881810D01*
X139664221Y-47881811D01*
X139874752Y-47938223D01*
X139874754Y-47938223D01*
X139880067Y-47939647D01*
X140108154Y-47959602D01*
X140336241Y-47939647D01*
X140341554Y-47938223D01*
X140341556Y-47938223D01*
X140552087Y-47881811D01*
X140552089Y-47881810D01*
X140557397Y-47880388D01*
X140630358Y-47846366D01*
X140759916Y-47785953D01*
X140759921Y-47785950D01*
X140764903Y-47783627D01*
X140947360Y-47655869D01*
X140947943Y-47655461D01*
X140947946Y-47655459D01*
X140952454Y-47652302D01*
X141114352Y-47490404D01*
X141140476Y-47453096D01*
X141229186Y-47326404D01*
X141245677Y-47302853D01*
X141248000Y-47297871D01*
X141248003Y-47297866D01*
X141263959Y-47263647D01*
X141310876Y-47210362D01*
X141379153Y-47190901D01*
X141447113Y-47211443D01*
X141492349Y-47263647D01*
X141508305Y-47297866D01*
X141508308Y-47297871D01*
X141510631Y-47302853D01*
X141527122Y-47326404D01*
X141615833Y-47453096D01*
X141641956Y-47490404D01*
X141803854Y-47652302D01*
X141808362Y-47655459D01*
X141808365Y-47655461D01*
X141808948Y-47655869D01*
X141991405Y-47783627D01*
X141996387Y-47785950D01*
X141996392Y-47785953D01*
X142125950Y-47846366D01*
X142198911Y-47880388D01*
X142204219Y-47881810D01*
X142204221Y-47881811D01*
X142414752Y-47938223D01*
X142414754Y-47938223D01*
X142420067Y-47939647D01*
X142648154Y-47959602D01*
X142876241Y-47939647D01*
X142881554Y-47938223D01*
X142881556Y-47938223D01*
X143092087Y-47881811D01*
X143092089Y-47881810D01*
X143097397Y-47880388D01*
X143170358Y-47846366D01*
X143299916Y-47785953D01*
X143299921Y-47785950D01*
X143304903Y-47783627D01*
X143487360Y-47655869D01*
X143487943Y-47655461D01*
X143487946Y-47655459D01*
X143492454Y-47652302D01*
X143654352Y-47490404D01*
X143680476Y-47453096D01*
X143769186Y-47326404D01*
X143785677Y-47302853D01*
X143788000Y-47297871D01*
X143788003Y-47297866D01*
X143803959Y-47263647D01*
X143850876Y-47210362D01*
X143919153Y-47190901D01*
X143987113Y-47211443D01*
X144032349Y-47263647D01*
X144048305Y-47297866D01*
X144048308Y-47297871D01*
X144050631Y-47302853D01*
X144067122Y-47326404D01*
X144155833Y-47453096D01*
X144181956Y-47490404D01*
X144343854Y-47652302D01*
X144348362Y-47655459D01*
X144348365Y-47655461D01*
X144348948Y-47655869D01*
X144531405Y-47783627D01*
X144536387Y-47785950D01*
X144536392Y-47785953D01*
X144665950Y-47846366D01*
X144738911Y-47880388D01*
X144744219Y-47881810D01*
X144744221Y-47881811D01*
X144954752Y-47938223D01*
X144954754Y-47938223D01*
X144960067Y-47939647D01*
X145188154Y-47959602D01*
X145193629Y-47959123D01*
X145351067Y-47945349D01*
X145420672Y-47959338D01*
X145451144Y-47981775D01*
X147794784Y-50325415D01*
X147807170Y-50339827D01*
X147815703Y-50351422D01*
X147815708Y-50351427D01*
X147820046Y-50357322D01*
X147825624Y-50362061D01*
X147825627Y-50362064D01*
X147860322Y-50391539D01*
X147867838Y-50398469D01*
X147873533Y-50404164D01*
X147876415Y-50406444D01*
X147895805Y-50421785D01*
X147899209Y-50424576D01*
X147949257Y-50467095D01*
X147954839Y-50471837D01*
X147961355Y-50475165D01*
X147966404Y-50478532D01*
X147971533Y-50481699D01*
X147977270Y-50486238D01*
X148043429Y-50517159D01*
X148047323Y-50519062D01*
X148112362Y-50552273D01*
X148119470Y-50554012D01*
X148125113Y-50556111D01*
X148130876Y-50558028D01*
X148137504Y-50561126D01*
X148144666Y-50562616D01*
X148144667Y-50562616D01*
X148208966Y-50575990D01*
X148213250Y-50576960D01*
X148284164Y-50594312D01*
X148289766Y-50594660D01*
X148289769Y-50594660D01*
X148295318Y-50595004D01*
X148295316Y-50595040D01*
X148299309Y-50595279D01*
X148303501Y-50595653D01*
X148310669Y-50597144D01*
X148388074Y-50595050D01*
X148391482Y-50595004D01*
X148407530Y-50595004D01*
X148475651Y-50615006D01*
X148522144Y-50668662D01*
X148532248Y-50738936D01*
X148525512Y-50765233D01*
X148510009Y-50806588D01*
X148503254Y-50868770D01*
X148503254Y-52665038D01*
X148510009Y-52727220D01*
X148561139Y-52863609D01*
X148648493Y-52980165D01*
X148765049Y-53067519D01*
X148773458Y-53070671D01*
X148773459Y-53070672D01*
X148882205Y-53111439D01*
X148938970Y-53154080D01*
X148963670Y-53220642D01*
X148948463Y-53289991D01*
X148929070Y-53316472D01*
X148802383Y-53449042D01*
X148799474Y-53453307D01*
X148799468Y-53453315D01*
X148759778Y-53511499D01*
X148676497Y-53633584D01*
X148582442Y-53836209D01*
X148522743Y-54051474D01*
X148499005Y-54273599D01*
X148499302Y-54278752D01*
X148499302Y-54278755D01*
X148504765Y-54373494D01*
X148511864Y-54496619D01*
X148513001Y-54501665D01*
X148513002Y-54501671D01*
X148532873Y-54589843D01*
X148560976Y-54714543D01*
X148645020Y-54921520D01*
X148647719Y-54925924D01*
X148758477Y-55106665D01*
X148761741Y-55111992D01*
X148908004Y-55280842D01*
X149079880Y-55423536D01*
X149088469Y-55428555D01*
X149153199Y-55466380D01*
X149201923Y-55518018D01*
X149214994Y-55587801D01*
X149188263Y-55653573D01*
X149147809Y-55686931D01*
X149135361Y-55693411D01*
X149131228Y-55696514D01*
X149131225Y-55696516D01*
X149050829Y-55756879D01*
X148956719Y-55827539D01*
X148802383Y-55989042D01*
X148799474Y-55993307D01*
X148799468Y-55993315D01*
X148759778Y-56051499D01*
X148676497Y-56173584D01*
X148582442Y-56376209D01*
X148522743Y-56591474D01*
X148499005Y-56813599D01*
X148499302Y-56818752D01*
X148499302Y-56818755D01*
X148504765Y-56913494D01*
X148511864Y-57036619D01*
X148513001Y-57041665D01*
X148513002Y-57041671D01*
X148513645Y-57044524D01*
X148560976Y-57254543D01*
X148645020Y-57461520D01*
X148661447Y-57488327D01*
X148712432Y-57571526D01*
X148761741Y-57651992D01*
X148908004Y-57820842D01*
X149079880Y-57963536D01*
X149272754Y-58076242D01*
X149277579Y-58078084D01*
X149277580Y-58078085D01*
X149313148Y-58091667D01*
X149481446Y-58155934D01*
X149486514Y-58156965D01*
X149486517Y-58156966D01*
X149550356Y-58169954D01*
X149700351Y-58200471D01*
X149705526Y-58200661D01*
X149705528Y-58200661D01*
X149918427Y-58208468D01*
X149918431Y-58208468D01*
X149923591Y-58208657D01*
X149928711Y-58208001D01*
X149928713Y-58208001D01*
X150140042Y-58180929D01*
X150140043Y-58180929D01*
X150145170Y-58180272D01*
X150150773Y-58178591D01*
X150354183Y-58117565D01*
X150354188Y-58117563D01*
X150359138Y-58116078D01*
X150559748Y-58017800D01*
X150741614Y-57888077D01*
X150899850Y-57730393D01*
X150930726Y-57687425D01*
X151027189Y-57553181D01*
X151030207Y-57548981D01*
X151035224Y-57538831D01*
X151126890Y-57353357D01*
X151126891Y-57353355D01*
X151129184Y-57348715D01*
X151194124Y-57134973D01*
X151223283Y-56913494D01*
X151224910Y-56846904D01*
X151206606Y-56624265D01*
X151152185Y-56407606D01*
X151063108Y-56202744D01*
X150989138Y-56088404D01*
X150944576Y-56019521D01*
X150944574Y-56019518D01*
X150941768Y-56015181D01*
X150791424Y-55849955D01*
X150787373Y-55846756D01*
X150787369Y-55846752D01*
X150620168Y-55714704D01*
X150620164Y-55714702D01*
X150616113Y-55711502D01*
X150574807Y-55688700D01*
X150524838Y-55638268D01*
X150510066Y-55568825D01*
X150535182Y-55502420D01*
X150562534Y-55475813D01*
X150628787Y-55428555D01*
X150741614Y-55348077D01*
X150899850Y-55190393D01*
X150959348Y-55107593D01*
X151027189Y-55013181D01*
X151030207Y-55008981D01*
X151129184Y-54808715D01*
X151194124Y-54594973D01*
X151223283Y-54373494D01*
X151224910Y-54306904D01*
X151206606Y-54084265D01*
X151152185Y-53867606D01*
X151063108Y-53662744D01*
X150989138Y-53548404D01*
X150944576Y-53479521D01*
X150944574Y-53479518D01*
X150941768Y-53475181D01*
X150938286Y-53471354D01*
X150794552Y-53313392D01*
X150763500Y-53249546D01*
X150771895Y-53179047D01*
X150817071Y-53124279D01*
X150843515Y-53110610D01*
X150950051Y-53070671D01*
X150958459Y-53067519D01*
X151075015Y-52980165D01*
X151162369Y-52863609D01*
X151213499Y-52727220D01*
X151220254Y-52665038D01*
X151220254Y-50868770D01*
X151213499Y-50806588D01*
X151197996Y-50765234D01*
X151192813Y-50694427D01*
X151226734Y-50632058D01*
X151288989Y-50597928D01*
X151315978Y-50595004D01*
X151984583Y-50595004D01*
X152052704Y-50615006D01*
X152073678Y-50631909D01*
X158777584Y-57335815D01*
X158789970Y-57350227D01*
X158798503Y-57361822D01*
X158798508Y-57361827D01*
X158802846Y-57367722D01*
X158808424Y-57372461D01*
X158808427Y-57372464D01*
X158843122Y-57401939D01*
X158850638Y-57408869D01*
X158856334Y-57414565D01*
X158859195Y-57416828D01*
X158859200Y-57416833D01*
X158878620Y-57432197D01*
X158882021Y-57434986D01*
X158937639Y-57482237D01*
X158944152Y-57485563D01*
X158949191Y-57488924D01*
X158954333Y-57492100D01*
X158960070Y-57496638D01*
X159026229Y-57527559D01*
X159030131Y-57529466D01*
X159057175Y-57543276D01*
X159108747Y-57592070D01*
X159125752Y-57661000D01*
X159108991Y-57718492D01*
X159034827Y-57846948D01*
X158975812Y-58028576D01*
X158975122Y-58035137D01*
X158975122Y-58035139D01*
X158967054Y-58111907D01*
X158955850Y-58218504D01*
X158956540Y-58225069D01*
X158969427Y-58347678D01*
X158975812Y-58408432D01*
X159034827Y-58590060D01*
X159130314Y-58755448D01*
X159258101Y-58897370D01*
X159412602Y-59009622D01*
X159418628Y-59012305D01*
X159418635Y-59012309D01*
X159481506Y-59040300D01*
X159535602Y-59086280D01*
X159550091Y-59116471D01*
X159593627Y-59250460D01*
X159596930Y-59256182D01*
X159596931Y-59256183D01*
X159652773Y-59352903D01*
X159669654Y-59415903D01*
X159669654Y-62405905D01*
X159652773Y-62468905D01*
X159610079Y-62542853D01*
X159593627Y-62571348D01*
X159593078Y-62573037D01*
X159548260Y-62625767D01*
X159530381Y-62635530D01*
X159367832Y-62707901D01*
X159367830Y-62707902D01*
X159361802Y-62710586D01*
X159356461Y-62714466D01*
X159356460Y-62714467D01*
X159341177Y-62725571D01*
X159207301Y-62822838D01*
X159202880Y-62827748D01*
X159202879Y-62827749D01*
X159174715Y-62859029D01*
X159079514Y-62964760D01*
X158984027Y-63130148D01*
X158925012Y-63311776D01*
X158924322Y-63318337D01*
X158924322Y-63318339D01*
X158907948Y-63474130D01*
X158905050Y-63501704D01*
X158916987Y-63615272D01*
X158917487Y-63620033D01*
X158904715Y-63689872D01*
X158856213Y-63741718D01*
X158792177Y-63759204D01*
X150726125Y-63759204D01*
X150658004Y-63739202D01*
X150637030Y-63722299D01*
X150317774Y-63403043D01*
X150283748Y-63340731D01*
X150288813Y-63269916D01*
X150331360Y-63213080D01*
X150395887Y-63188427D01*
X150422945Y-63186060D01*
X150496241Y-63179647D01*
X150501554Y-63178223D01*
X150501556Y-63178223D01*
X150712087Y-63121811D01*
X150712089Y-63121810D01*
X150717397Y-63120388D01*
X150723389Y-63117594D01*
X150919916Y-63025953D01*
X150919921Y-63025950D01*
X150924903Y-63023627D01*
X151049563Y-62936339D01*
X151107943Y-62895461D01*
X151107946Y-62895459D01*
X151112454Y-62892302D01*
X151274352Y-62730404D01*
X151285512Y-62714467D01*
X151370173Y-62593558D01*
X151405677Y-62542853D01*
X151408000Y-62537871D01*
X151408003Y-62537866D01*
X151423959Y-62503647D01*
X151470876Y-62450362D01*
X151539153Y-62430901D01*
X151607113Y-62451443D01*
X151652349Y-62503647D01*
X151668305Y-62537866D01*
X151668308Y-62537871D01*
X151670631Y-62542853D01*
X151706135Y-62593558D01*
X151790797Y-62714467D01*
X151801956Y-62730404D01*
X151963854Y-62892302D01*
X151968362Y-62895459D01*
X151968365Y-62895461D01*
X152026745Y-62936339D01*
X152151405Y-63023627D01*
X152156387Y-63025950D01*
X152156392Y-63025953D01*
X152352919Y-63117594D01*
X152358911Y-63120388D01*
X152364219Y-63121810D01*
X152364221Y-63121811D01*
X152574752Y-63178223D01*
X152574754Y-63178223D01*
X152580067Y-63179647D01*
X152808154Y-63199602D01*
X153036241Y-63179647D01*
X153041554Y-63178223D01*
X153041556Y-63178223D01*
X153252087Y-63121811D01*
X153252089Y-63121810D01*
X153257397Y-63120388D01*
X153263389Y-63117594D01*
X153459916Y-63025953D01*
X153459921Y-63025950D01*
X153464903Y-63023627D01*
X153589563Y-62936339D01*
X153647943Y-62895461D01*
X153647946Y-62895459D01*
X153652454Y-62892302D01*
X153814352Y-62730404D01*
X153825512Y-62714467D01*
X153910173Y-62593558D01*
X153945677Y-62542853D01*
X153948000Y-62537871D01*
X153948003Y-62537866D01*
X153964235Y-62503055D01*
X154011152Y-62449770D01*
X154079429Y-62430309D01*
X154147389Y-62450851D01*
X154192625Y-62503055D01*
X154208740Y-62537615D01*
X154214223Y-62547111D01*
X154339182Y-62725571D01*
X154346238Y-62733979D01*
X154500279Y-62888020D01*
X154508687Y-62895076D01*
X154687147Y-63020035D01*
X154696643Y-63025518D01*
X154894101Y-63117594D01*
X154904393Y-63121340D01*
X155076657Y-63167498D01*
X155090753Y-63167162D01*
X155094154Y-63159220D01*
X155094154Y-63154071D01*
X155602154Y-63154071D01*
X155606127Y-63167602D01*
X155614676Y-63168831D01*
X155791915Y-63121340D01*
X155802207Y-63117594D01*
X155999665Y-63025518D01*
X156009161Y-63020035D01*
X156187621Y-62895076D01*
X156196029Y-62888020D01*
X156350070Y-62733979D01*
X156357126Y-62725571D01*
X156482085Y-62547111D01*
X156487568Y-62537615D01*
X156503683Y-62503055D01*
X156550600Y-62449770D01*
X156618877Y-62430309D01*
X156686837Y-62450851D01*
X156732073Y-62503055D01*
X156748305Y-62537866D01*
X156748308Y-62537871D01*
X156750631Y-62542853D01*
X156786135Y-62593558D01*
X156870797Y-62714467D01*
X156881956Y-62730404D01*
X157043854Y-62892302D01*
X157048362Y-62895459D01*
X157048365Y-62895461D01*
X157106745Y-62936339D01*
X157231405Y-63023627D01*
X157236387Y-63025950D01*
X157236392Y-63025953D01*
X157432919Y-63117594D01*
X157438911Y-63120388D01*
X157444219Y-63121810D01*
X157444221Y-63121811D01*
X157654752Y-63178223D01*
X157654754Y-63178223D01*
X157660067Y-63179647D01*
X157888154Y-63199602D01*
X158116241Y-63179647D01*
X158121554Y-63178223D01*
X158121556Y-63178223D01*
X158332087Y-63121811D01*
X158332089Y-63121810D01*
X158337397Y-63120388D01*
X158343389Y-63117594D01*
X158539916Y-63025953D01*
X158539921Y-63025950D01*
X158544903Y-63023627D01*
X158669563Y-62936339D01*
X158727943Y-62895461D01*
X158727946Y-62895459D01*
X158732454Y-62892302D01*
X158894352Y-62730404D01*
X158905512Y-62714467D01*
X158990173Y-62593558D01*
X159025677Y-62542853D01*
X159028000Y-62537871D01*
X159028003Y-62537866D01*
X159120115Y-62340329D01*
X159120115Y-62340328D01*
X159122438Y-62335347D01*
X159181697Y-62114191D01*
X159201652Y-61886104D01*
X159181697Y-61658017D01*
X159122438Y-61436861D01*
X159077881Y-61341307D01*
X159028003Y-61234342D01*
X159028000Y-61234337D01*
X159025677Y-61229355D01*
X158894352Y-61041804D01*
X158732454Y-60879906D01*
X158727946Y-60876749D01*
X158727943Y-60876747D01*
X158631301Y-60809078D01*
X158544903Y-60748581D01*
X158539921Y-60746258D01*
X158539916Y-60746255D01*
X158342379Y-60654143D01*
X158342378Y-60654143D01*
X158337397Y-60651820D01*
X158332089Y-60650398D01*
X158332087Y-60650397D01*
X158121556Y-60593985D01*
X158121554Y-60593985D01*
X158116241Y-60592561D01*
X157888154Y-60572606D01*
X157660067Y-60592561D01*
X157654754Y-60593985D01*
X157654752Y-60593985D01*
X157444221Y-60650397D01*
X157444219Y-60650398D01*
X157438911Y-60651820D01*
X157433930Y-60654143D01*
X157433929Y-60654143D01*
X157236392Y-60746255D01*
X157236387Y-60746258D01*
X157231405Y-60748581D01*
X157145007Y-60809078D01*
X157048365Y-60876747D01*
X157048362Y-60876749D01*
X157043854Y-60879906D01*
X156881956Y-61041804D01*
X156750631Y-61229355D01*
X156748308Y-61234337D01*
X156748305Y-61234342D01*
X156732073Y-61269153D01*
X156685156Y-61322438D01*
X156616879Y-61341899D01*
X156548919Y-61321357D01*
X156503683Y-61269153D01*
X156487568Y-61234593D01*
X156482085Y-61225097D01*
X156357126Y-61046637D01*
X156350070Y-61038229D01*
X156196029Y-60884188D01*
X156187621Y-60877132D01*
X156009161Y-60752173D01*
X155999665Y-60746690D01*
X155802207Y-60654614D01*
X155791915Y-60650868D01*
X155619651Y-60604710D01*
X155605555Y-60605046D01*
X155602154Y-60612988D01*
X155602154Y-63154071D01*
X155094154Y-63154071D01*
X155094154Y-60618137D01*
X155090181Y-60604606D01*
X155081632Y-60603377D01*
X154904393Y-60650868D01*
X154894101Y-60654614D01*
X154696643Y-60746690D01*
X154687147Y-60752173D01*
X154508687Y-60877132D01*
X154500279Y-60884188D01*
X154346238Y-61038229D01*
X154339182Y-61046637D01*
X154214223Y-61225097D01*
X154208740Y-61234593D01*
X154192625Y-61269153D01*
X154145708Y-61322438D01*
X154077431Y-61341899D01*
X154009471Y-61321357D01*
X153964235Y-61269153D01*
X153948003Y-61234342D01*
X153948000Y-61234337D01*
X153945677Y-61229355D01*
X153814352Y-61041804D01*
X153652454Y-60879906D01*
X153647946Y-60876749D01*
X153647943Y-60876747D01*
X153551301Y-60809078D01*
X153464903Y-60748581D01*
X153459921Y-60746258D01*
X153459916Y-60746255D01*
X153262379Y-60654143D01*
X153262378Y-60654143D01*
X153257397Y-60651820D01*
X153252089Y-60650398D01*
X153252087Y-60650397D01*
X153041556Y-60593985D01*
X153041554Y-60593985D01*
X153036241Y-60592561D01*
X152808154Y-60572606D01*
X152580067Y-60592561D01*
X152574754Y-60593985D01*
X152574752Y-60593985D01*
X152364221Y-60650397D01*
X152364219Y-60650398D01*
X152358911Y-60651820D01*
X152353930Y-60654143D01*
X152353929Y-60654143D01*
X152156392Y-60746255D01*
X152156387Y-60746258D01*
X152151405Y-60748581D01*
X152065007Y-60809078D01*
X151968365Y-60876747D01*
X151968362Y-60876749D01*
X151963854Y-60879906D01*
X151801956Y-61041804D01*
X151670631Y-61229355D01*
X151668308Y-61234337D01*
X151668305Y-61234342D01*
X151652349Y-61268561D01*
X151605432Y-61321846D01*
X151537155Y-61341307D01*
X151469195Y-61320765D01*
X151423959Y-61268561D01*
X151408003Y-61234342D01*
X151408000Y-61234337D01*
X151405677Y-61229355D01*
X151274352Y-61041804D01*
X151112454Y-60879906D01*
X151107946Y-60876749D01*
X151107943Y-60876747D01*
X151011301Y-60809078D01*
X150924903Y-60748581D01*
X150919921Y-60746258D01*
X150919916Y-60746255D01*
X150722379Y-60654143D01*
X150722378Y-60654143D01*
X150717397Y-60651820D01*
X150712089Y-60650398D01*
X150712087Y-60650397D01*
X150501556Y-60593985D01*
X150501554Y-60593985D01*
X150496241Y-60592561D01*
X150268154Y-60572606D01*
X150040067Y-60592561D01*
X150034754Y-60593985D01*
X150034752Y-60593985D01*
X149824221Y-60650397D01*
X149824219Y-60650398D01*
X149818911Y-60651820D01*
X149813930Y-60654143D01*
X149813929Y-60654143D01*
X149616392Y-60746255D01*
X149616387Y-60746258D01*
X149611405Y-60748581D01*
X149525007Y-60809078D01*
X149428365Y-60876747D01*
X149428362Y-60876749D01*
X149423854Y-60879906D01*
X149261956Y-61041804D01*
X149130631Y-61229355D01*
X149128308Y-61234337D01*
X149128305Y-61234342D01*
X149112349Y-61268561D01*
X149065432Y-61321846D01*
X148997155Y-61341307D01*
X148929195Y-61320765D01*
X148883959Y-61268561D01*
X148868003Y-61234342D01*
X148868000Y-61234337D01*
X148865677Y-61229355D01*
X148734352Y-61041804D01*
X148572454Y-60879906D01*
X148567946Y-60876749D01*
X148567943Y-60876747D01*
X148471301Y-60809078D01*
X148384903Y-60748581D01*
X148379921Y-60746258D01*
X148379916Y-60746255D01*
X148182379Y-60654143D01*
X148182378Y-60654143D01*
X148177397Y-60651820D01*
X148172089Y-60650398D01*
X148172087Y-60650397D01*
X147961556Y-60593985D01*
X147961554Y-60593985D01*
X147956241Y-60592561D01*
X147728154Y-60572606D01*
X147500067Y-60592561D01*
X147494754Y-60593985D01*
X147494752Y-60593985D01*
X147284221Y-60650397D01*
X147284219Y-60650398D01*
X147278911Y-60651820D01*
X147273930Y-60654143D01*
X147273929Y-60654143D01*
X147076392Y-60746255D01*
X147076387Y-60746258D01*
X147071405Y-60748581D01*
X146985007Y-60809078D01*
X146888365Y-60876747D01*
X146888362Y-60876749D01*
X146883854Y-60879906D01*
X146721956Y-61041804D01*
X146590631Y-61229355D01*
X146588308Y-61234337D01*
X146588305Y-61234342D01*
X146572349Y-61268561D01*
X146525432Y-61321846D01*
X146457155Y-61341307D01*
X146389195Y-61320765D01*
X146343959Y-61268561D01*
X146328003Y-61234342D01*
X146328000Y-61234337D01*
X146325677Y-61229355D01*
X146194352Y-61041804D01*
X146032454Y-60879906D01*
X146027946Y-60876749D01*
X146027943Y-60876747D01*
X145931301Y-60809078D01*
X145844903Y-60748581D01*
X145839921Y-60746258D01*
X145839916Y-60746255D01*
X145642379Y-60654143D01*
X145642378Y-60654143D01*
X145637397Y-60651820D01*
X145632089Y-60650398D01*
X145632087Y-60650397D01*
X145421556Y-60593985D01*
X145421554Y-60593985D01*
X145416241Y-60592561D01*
X145188154Y-60572606D01*
X144960067Y-60592561D01*
X144954754Y-60593985D01*
X144954752Y-60593985D01*
X144744221Y-60650397D01*
X144744219Y-60650398D01*
X144738911Y-60651820D01*
X144733930Y-60654143D01*
X144733929Y-60654143D01*
X144536392Y-60746255D01*
X144536387Y-60746258D01*
X144531405Y-60748581D01*
X144445007Y-60809078D01*
X144348365Y-60876747D01*
X144348362Y-60876749D01*
X144343854Y-60879906D01*
X144181956Y-61041804D01*
X144050631Y-61229355D01*
X144048308Y-61234337D01*
X144048305Y-61234342D01*
X144032349Y-61268561D01*
X143985432Y-61321846D01*
X143917155Y-61341307D01*
X143849195Y-61320765D01*
X143803959Y-61268561D01*
X143788003Y-61234342D01*
X143788000Y-61234337D01*
X143785677Y-61229355D01*
X143654352Y-61041804D01*
X143492454Y-60879906D01*
X143487946Y-60876749D01*
X143487943Y-60876747D01*
X143391301Y-60809078D01*
X143304903Y-60748581D01*
X143299921Y-60746258D01*
X143299916Y-60746255D01*
X143102379Y-60654143D01*
X143102378Y-60654143D01*
X143097397Y-60651820D01*
X143092089Y-60650398D01*
X143092087Y-60650397D01*
X142881556Y-60593985D01*
X142881554Y-60593985D01*
X142876241Y-60592561D01*
X142648154Y-60572606D01*
X142420067Y-60592561D01*
X142414754Y-60593985D01*
X142414752Y-60593985D01*
X142204221Y-60650397D01*
X142204219Y-60650398D01*
X142198911Y-60651820D01*
X142193930Y-60654143D01*
X142193929Y-60654143D01*
X141996392Y-60746255D01*
X141996387Y-60746258D01*
X141991405Y-60748581D01*
X141905007Y-60809078D01*
X141808365Y-60876747D01*
X141808362Y-60876749D01*
X141803854Y-60879906D01*
X141641956Y-61041804D01*
X141510631Y-61229355D01*
X141508308Y-61234337D01*
X141508305Y-61234342D01*
X141492349Y-61268561D01*
X141445432Y-61321846D01*
X141377155Y-61341307D01*
X141309195Y-61320765D01*
X141263959Y-61268561D01*
X141248003Y-61234342D01*
X141248000Y-61234337D01*
X141245677Y-61229355D01*
X141114352Y-61041804D01*
X140952454Y-60879906D01*
X140947946Y-60876749D01*
X140947943Y-60876747D01*
X140851301Y-60809078D01*
X140764903Y-60748581D01*
X140759921Y-60746258D01*
X140759916Y-60746255D01*
X140562379Y-60654143D01*
X140562378Y-60654143D01*
X140557397Y-60651820D01*
X140552089Y-60650398D01*
X140552087Y-60650397D01*
X140341556Y-60593985D01*
X140341554Y-60593985D01*
X140336241Y-60592561D01*
X140108154Y-60572606D01*
X139880067Y-60592561D01*
X139874754Y-60593985D01*
X139874752Y-60593985D01*
X139664221Y-60650397D01*
X139664219Y-60650398D01*
X139658911Y-60651820D01*
X139653930Y-60654143D01*
X139653929Y-60654143D01*
X139456392Y-60746255D01*
X139456387Y-60746258D01*
X139451405Y-60748581D01*
X139365007Y-60809078D01*
X139268365Y-60876747D01*
X139268362Y-60876749D01*
X139263854Y-60879906D01*
X139101956Y-61041804D01*
X138970631Y-61229355D01*
X138968308Y-61234337D01*
X138968305Y-61234342D01*
X138952349Y-61268561D01*
X138905432Y-61321846D01*
X138837155Y-61341307D01*
X138769195Y-61320765D01*
X138723959Y-61268561D01*
X138708003Y-61234342D01*
X138708000Y-61234337D01*
X138705677Y-61229355D01*
X138574352Y-61041804D01*
X138412454Y-60879906D01*
X138407946Y-60876749D01*
X138407943Y-60876747D01*
X138311301Y-60809078D01*
X138224903Y-60748581D01*
X138219921Y-60746258D01*
X138219916Y-60746255D01*
X138022379Y-60654143D01*
X138022378Y-60654143D01*
X138017397Y-60651820D01*
X138012089Y-60650398D01*
X138012087Y-60650397D01*
X137801556Y-60593985D01*
X137801554Y-60593985D01*
X137796241Y-60592561D01*
X137568154Y-60572606D01*
X137340067Y-60592561D01*
X137334754Y-60593985D01*
X137334752Y-60593985D01*
X137124221Y-60650397D01*
X137124219Y-60650398D01*
X137118911Y-60651820D01*
X137113930Y-60654143D01*
X137113929Y-60654143D01*
X136916392Y-60746255D01*
X136916387Y-60746258D01*
X136911405Y-60748581D01*
X136825007Y-60809078D01*
X136728365Y-60876747D01*
X136728362Y-60876749D01*
X136723854Y-60879906D01*
X136561956Y-61041804D01*
X136430631Y-61229355D01*
X136428308Y-61234337D01*
X136428305Y-61234342D01*
X136412349Y-61268561D01*
X136365432Y-61321846D01*
X136297155Y-61341307D01*
X136229195Y-61320765D01*
X136183959Y-61268561D01*
X136168003Y-61234342D01*
X136168000Y-61234337D01*
X136165677Y-61229355D01*
X136034352Y-61041804D01*
X135872454Y-60879906D01*
X135867946Y-60876749D01*
X135867943Y-60876747D01*
X135771301Y-60809078D01*
X135684903Y-60748581D01*
X135679921Y-60746258D01*
X135679916Y-60746255D01*
X135482379Y-60654143D01*
X135482378Y-60654143D01*
X135477397Y-60651820D01*
X135472089Y-60650398D01*
X135472087Y-60650397D01*
X135261556Y-60593985D01*
X135261554Y-60593985D01*
X135256241Y-60592561D01*
X135028154Y-60572606D01*
X134800067Y-60592561D01*
X134794754Y-60593985D01*
X134794752Y-60593985D01*
X134584221Y-60650397D01*
X134584219Y-60650398D01*
X134578911Y-60651820D01*
X134573930Y-60654143D01*
X134573929Y-60654143D01*
X134376392Y-60746255D01*
X134376387Y-60746258D01*
X134371405Y-60748581D01*
X134285007Y-60809078D01*
X134188365Y-60876747D01*
X134188362Y-60876749D01*
X134183854Y-60879906D01*
X134021956Y-61041804D01*
X133890631Y-61229355D01*
X133888308Y-61234337D01*
X133888305Y-61234342D01*
X133872349Y-61268561D01*
X133825432Y-61321846D01*
X133757155Y-61341307D01*
X133689195Y-61320765D01*
X133643959Y-61268561D01*
X133628003Y-61234342D01*
X133628000Y-61234337D01*
X133625677Y-61229355D01*
X133494352Y-61041804D01*
X133332454Y-60879906D01*
X133327946Y-60876749D01*
X133327943Y-60876747D01*
X133231301Y-60809078D01*
X133144903Y-60748581D01*
X133139921Y-60746258D01*
X133139916Y-60746255D01*
X132942379Y-60654143D01*
X132942378Y-60654143D01*
X132937397Y-60651820D01*
X132932089Y-60650398D01*
X132932087Y-60650397D01*
X132721556Y-60593985D01*
X132721554Y-60593985D01*
X132716241Y-60592561D01*
X132488154Y-60572606D01*
X132260067Y-60592561D01*
X132254754Y-60593985D01*
X132254752Y-60593985D01*
X132044221Y-60650397D01*
X132044219Y-60650398D01*
X132038911Y-60651820D01*
X132033930Y-60654143D01*
X132033929Y-60654143D01*
X131836392Y-60746255D01*
X131836387Y-60746258D01*
X131831405Y-60748581D01*
X131745007Y-60809078D01*
X131648365Y-60876747D01*
X131648362Y-60876749D01*
X131643854Y-60879906D01*
X131481956Y-61041804D01*
X131350631Y-61229355D01*
X131348308Y-61234337D01*
X131348305Y-61234342D01*
X131332349Y-61268561D01*
X131285432Y-61321846D01*
X131217155Y-61341307D01*
X131149195Y-61320765D01*
X131103959Y-61268561D01*
X131088003Y-61234342D01*
X131088000Y-61234337D01*
X131085677Y-61229355D01*
X130954352Y-61041804D01*
X130792454Y-60879906D01*
X130787946Y-60876749D01*
X130787943Y-60876747D01*
X130691301Y-60809078D01*
X130604903Y-60748581D01*
X130599921Y-60746258D01*
X130599916Y-60746255D01*
X130402379Y-60654143D01*
X130402378Y-60654143D01*
X130397397Y-60651820D01*
X130392089Y-60650398D01*
X130392087Y-60650397D01*
X130181556Y-60593985D01*
X130181554Y-60593985D01*
X130176241Y-60592561D01*
X129948154Y-60572606D01*
X129720067Y-60592561D01*
X129714754Y-60593985D01*
X129714752Y-60593985D01*
X129504221Y-60650397D01*
X129504219Y-60650398D01*
X129498911Y-60651820D01*
X129493930Y-60654143D01*
X129493929Y-60654143D01*
X129296392Y-60746255D01*
X129296387Y-60746258D01*
X129291405Y-60748581D01*
X129205007Y-60809078D01*
X129108365Y-60876747D01*
X129108362Y-60876749D01*
X129103854Y-60879906D01*
X128941956Y-61041804D01*
X128810631Y-61229355D01*
X128808308Y-61234337D01*
X128808305Y-61234342D01*
X128792349Y-61268561D01*
X128745432Y-61321846D01*
X128677155Y-61341307D01*
X128609195Y-61320765D01*
X128563959Y-61268561D01*
X128548003Y-61234342D01*
X128548000Y-61234337D01*
X128545677Y-61229355D01*
X128414352Y-61041804D01*
X128252454Y-60879906D01*
X128247946Y-60876749D01*
X128247943Y-60876747D01*
X128151301Y-60809078D01*
X128064903Y-60748581D01*
X128059921Y-60746258D01*
X128059916Y-60746255D01*
X127862379Y-60654143D01*
X127862378Y-60654143D01*
X127857397Y-60651820D01*
X127852089Y-60650398D01*
X127852087Y-60650397D01*
X127641556Y-60593985D01*
X127641554Y-60593985D01*
X127636241Y-60592561D01*
X127408154Y-60572606D01*
X127180067Y-60592561D01*
X127174754Y-60593985D01*
X127174752Y-60593985D01*
X126964221Y-60650397D01*
X126964219Y-60650398D01*
X126958911Y-60651820D01*
X126953930Y-60654143D01*
X126953929Y-60654143D01*
X126756392Y-60746255D01*
X126756387Y-60746258D01*
X126751405Y-60748581D01*
X126665007Y-60809078D01*
X126568365Y-60876747D01*
X126568362Y-60876749D01*
X126563854Y-60879906D01*
X126401956Y-61041804D01*
X126270631Y-61229355D01*
X126268308Y-61234337D01*
X126268305Y-61234342D01*
X126252349Y-61268561D01*
X126205432Y-61321846D01*
X126137155Y-61341307D01*
X126069195Y-61320765D01*
X126023959Y-61268561D01*
X126008003Y-61234342D01*
X126008000Y-61234337D01*
X126005677Y-61229355D01*
X125874352Y-61041804D01*
X125712454Y-60879906D01*
X125707946Y-60876749D01*
X125707943Y-60876747D01*
X125611301Y-60809078D01*
X125524903Y-60748581D01*
X125519921Y-60746258D01*
X125519916Y-60746255D01*
X125322379Y-60654143D01*
X125322378Y-60654143D01*
X125317397Y-60651820D01*
X125312089Y-60650398D01*
X125312087Y-60650397D01*
X125101556Y-60593985D01*
X125101554Y-60593985D01*
X125096241Y-60592561D01*
X124868154Y-60572606D01*
X124640067Y-60592561D01*
X124634754Y-60593985D01*
X124634752Y-60593985D01*
X124424221Y-60650397D01*
X124424219Y-60650398D01*
X124418911Y-60651820D01*
X124413930Y-60654143D01*
X124413929Y-60654143D01*
X124216392Y-60746255D01*
X124216387Y-60746258D01*
X124211405Y-60748581D01*
X124125007Y-60809078D01*
X124028365Y-60876747D01*
X124028362Y-60876749D01*
X124023854Y-60879906D01*
X123861956Y-61041804D01*
X123730631Y-61229355D01*
X123728308Y-61234337D01*
X123728305Y-61234342D01*
X123712349Y-61268561D01*
X123665432Y-61321846D01*
X123597155Y-61341307D01*
X123529195Y-61320765D01*
X123483959Y-61268561D01*
X123468003Y-61234342D01*
X123468000Y-61234337D01*
X123465677Y-61229355D01*
X123334352Y-61041804D01*
X123172454Y-60879906D01*
X123167946Y-60876749D01*
X123167943Y-60876747D01*
X123071301Y-60809078D01*
X122984903Y-60748581D01*
X122979921Y-60746258D01*
X122979916Y-60746255D01*
X122782379Y-60654143D01*
X122782378Y-60654143D01*
X122777397Y-60651820D01*
X122772089Y-60650398D01*
X122772087Y-60650397D01*
X122561556Y-60593985D01*
X122561554Y-60593985D01*
X122556241Y-60592561D01*
X122328154Y-60572606D01*
X122100067Y-60592561D01*
X122094754Y-60593985D01*
X122094752Y-60593985D01*
X121884221Y-60650397D01*
X121884219Y-60650398D01*
X121878911Y-60651820D01*
X121873930Y-60654143D01*
X121873929Y-60654143D01*
X121676392Y-60746255D01*
X121676387Y-60746258D01*
X121671405Y-60748581D01*
X121585007Y-60809078D01*
X121488365Y-60876747D01*
X121488362Y-60876749D01*
X121483854Y-60879906D01*
X121321956Y-61041804D01*
X121190631Y-61229355D01*
X121188308Y-61234337D01*
X121188305Y-61234342D01*
X121138427Y-61341307D01*
X121093870Y-61436861D01*
X121034611Y-61658017D01*
X121014656Y-61886104D01*
X121034611Y-62114191D01*
X121093870Y-62335347D01*
X121096193Y-62340328D01*
X121096193Y-62340329D01*
X121188305Y-62537866D01*
X121188308Y-62537871D01*
X121190631Y-62542853D01*
X121226135Y-62593558D01*
X121310797Y-62714467D01*
X121321956Y-62730404D01*
X121483854Y-62892302D01*
X121488362Y-62895459D01*
X121488365Y-62895461D01*
X121546745Y-62936339D01*
X121671405Y-63023627D01*
X121676387Y-63025950D01*
X121676392Y-63025953D01*
X121872919Y-63117594D01*
X121878911Y-63120388D01*
X121884219Y-63121810D01*
X121884221Y-63121811D01*
X122094752Y-63178223D01*
X122094754Y-63178223D01*
X122100067Y-63179647D01*
X122328154Y-63199602D01*
X122556241Y-63179647D01*
X122561554Y-63178223D01*
X122561556Y-63178223D01*
X122772087Y-63121811D01*
X122772089Y-63121810D01*
X122777397Y-63120388D01*
X122783389Y-63117594D01*
X122979916Y-63025953D01*
X122979921Y-63025950D01*
X122984903Y-63023627D01*
X123109563Y-62936339D01*
X123167943Y-62895461D01*
X123167946Y-62895459D01*
X123172454Y-62892302D01*
X123334352Y-62730404D01*
X123345512Y-62714467D01*
X123430173Y-62593558D01*
X123465677Y-62542853D01*
X123468000Y-62537871D01*
X123468003Y-62537866D01*
X123483959Y-62503647D01*
X123530876Y-62450362D01*
X123599153Y-62430901D01*
X123667113Y-62451443D01*
X123712349Y-62503647D01*
X123728305Y-62537866D01*
X123728308Y-62537871D01*
X123730631Y-62542853D01*
X123766135Y-62593558D01*
X123850797Y-62714467D01*
X123861956Y-62730404D01*
X124023854Y-62892302D01*
X124028362Y-62895459D01*
X124028365Y-62895461D01*
X124086745Y-62936339D01*
X124211405Y-63023627D01*
X124216387Y-63025950D01*
X124216392Y-63025953D01*
X124412919Y-63117594D01*
X124418911Y-63120388D01*
X124424219Y-63121810D01*
X124424221Y-63121811D01*
X124634752Y-63178223D01*
X124634754Y-63178223D01*
X124640067Y-63179647D01*
X124868154Y-63199602D01*
X125096241Y-63179647D01*
X125101554Y-63178223D01*
X125101556Y-63178223D01*
X125312087Y-63121811D01*
X125312089Y-63121810D01*
X125317397Y-63120388D01*
X125323389Y-63117594D01*
X125519916Y-63025953D01*
X125519921Y-63025950D01*
X125524903Y-63023627D01*
X125649563Y-62936339D01*
X125707943Y-62895461D01*
X125707946Y-62895459D01*
X125712454Y-62892302D01*
X125874352Y-62730404D01*
X125885512Y-62714467D01*
X125970173Y-62593558D01*
X126005677Y-62542853D01*
X126008000Y-62537871D01*
X126008003Y-62537866D01*
X126023959Y-62503647D01*
X126070876Y-62450362D01*
X126139153Y-62430901D01*
X126207113Y-62451443D01*
X126252349Y-62503647D01*
X126268305Y-62537866D01*
X126268308Y-62537871D01*
X126270631Y-62542853D01*
X126306135Y-62593558D01*
X126390797Y-62714467D01*
X126401956Y-62730404D01*
X126563854Y-62892302D01*
X126568362Y-62895459D01*
X126568365Y-62895461D01*
X126626745Y-62936339D01*
X126751405Y-63023627D01*
X126756387Y-63025950D01*
X126756392Y-63025953D01*
X126952919Y-63117594D01*
X126958911Y-63120388D01*
X126964219Y-63121810D01*
X126964221Y-63121811D01*
X127174752Y-63178223D01*
X127174754Y-63178223D01*
X127180067Y-63179647D01*
X127408154Y-63199602D01*
X127636241Y-63179647D01*
X127641554Y-63178223D01*
X127641556Y-63178223D01*
X127852087Y-63121811D01*
X127852089Y-63121810D01*
X127857397Y-63120388D01*
X127863389Y-63117594D01*
X128059916Y-63025953D01*
X128059921Y-63025950D01*
X128064903Y-63023627D01*
X128189563Y-62936339D01*
X128247943Y-62895461D01*
X128247946Y-62895459D01*
X128252454Y-62892302D01*
X128414352Y-62730404D01*
X128425512Y-62714467D01*
X128510173Y-62593558D01*
X128545677Y-62542853D01*
X128548000Y-62537871D01*
X128548003Y-62537866D01*
X128563959Y-62503647D01*
X128610876Y-62450362D01*
X128679153Y-62430901D01*
X128747113Y-62451443D01*
X128792349Y-62503647D01*
X128808305Y-62537866D01*
X128808308Y-62537871D01*
X128810631Y-62542853D01*
X128846135Y-62593558D01*
X128930797Y-62714467D01*
X128941956Y-62730404D01*
X129103854Y-62892302D01*
X129108362Y-62895459D01*
X129108365Y-62895461D01*
X129166745Y-62936339D01*
X129291405Y-63023627D01*
X129296387Y-63025950D01*
X129296392Y-63025953D01*
X129492919Y-63117594D01*
X129498911Y-63120388D01*
X129504219Y-63121810D01*
X129504221Y-63121811D01*
X129714752Y-63178223D01*
X129714754Y-63178223D01*
X129720067Y-63179647D01*
X129948154Y-63199602D01*
X130176241Y-63179647D01*
X130181554Y-63178223D01*
X130181556Y-63178223D01*
X130392087Y-63121811D01*
X130392089Y-63121810D01*
X130397397Y-63120388D01*
X130403389Y-63117594D01*
X130599916Y-63025953D01*
X130599921Y-63025950D01*
X130604903Y-63023627D01*
X130729563Y-62936339D01*
X130787943Y-62895461D01*
X130787946Y-62895459D01*
X130792454Y-62892302D01*
X130954352Y-62730404D01*
X130965512Y-62714467D01*
X131050173Y-62593558D01*
X131085677Y-62542853D01*
X131088000Y-62537871D01*
X131088003Y-62537866D01*
X131103959Y-62503647D01*
X131150876Y-62450362D01*
X131219153Y-62430901D01*
X131287113Y-62451443D01*
X131332349Y-62503647D01*
X131348305Y-62537866D01*
X131348308Y-62537871D01*
X131350631Y-62542853D01*
X131386135Y-62593558D01*
X131470797Y-62714467D01*
X131481956Y-62730404D01*
X131643854Y-62892302D01*
X131648362Y-62895459D01*
X131648365Y-62895461D01*
X131706745Y-62936339D01*
X131831405Y-63023627D01*
X131836387Y-63025950D01*
X131836392Y-63025953D01*
X132032919Y-63117594D01*
X132038911Y-63120388D01*
X132044219Y-63121810D01*
X132044221Y-63121811D01*
X132254752Y-63178223D01*
X132254754Y-63178223D01*
X132260067Y-63179647D01*
X132488154Y-63199602D01*
X132716241Y-63179647D01*
X132721554Y-63178223D01*
X132721556Y-63178223D01*
X132932087Y-63121811D01*
X132932089Y-63121810D01*
X132937397Y-63120388D01*
X132943389Y-63117594D01*
X133139916Y-63025953D01*
X133139921Y-63025950D01*
X133144903Y-63023627D01*
X133269563Y-62936339D01*
X133327943Y-62895461D01*
X133327946Y-62895459D01*
X133332454Y-62892302D01*
X133494352Y-62730404D01*
X133505512Y-62714467D01*
X133590173Y-62593558D01*
X133625677Y-62542853D01*
X133628000Y-62537871D01*
X133628003Y-62537866D01*
X133643959Y-62503647D01*
X133690876Y-62450362D01*
X133759153Y-62430901D01*
X133827113Y-62451443D01*
X133872349Y-62503647D01*
X133888305Y-62537866D01*
X133888308Y-62537871D01*
X133890631Y-62542853D01*
X133926135Y-62593558D01*
X134010797Y-62714467D01*
X134021956Y-62730404D01*
X134183854Y-62892302D01*
X134188362Y-62895459D01*
X134188365Y-62895461D01*
X134246745Y-62936339D01*
X134371405Y-63023627D01*
X134376387Y-63025950D01*
X134376392Y-63025953D01*
X134572919Y-63117594D01*
X134578911Y-63120388D01*
X134584219Y-63121810D01*
X134584221Y-63121811D01*
X134794752Y-63178223D01*
X134794754Y-63178223D01*
X134800067Y-63179647D01*
X135028154Y-63199602D01*
X135256241Y-63179647D01*
X135261554Y-63178223D01*
X135261556Y-63178223D01*
X135472087Y-63121811D01*
X135472089Y-63121810D01*
X135477397Y-63120388D01*
X135483389Y-63117594D01*
X135679916Y-63025953D01*
X135679921Y-63025950D01*
X135684903Y-63023627D01*
X135809563Y-62936339D01*
X135867943Y-62895461D01*
X135867946Y-62895459D01*
X135872454Y-62892302D01*
X136034352Y-62730404D01*
X136045512Y-62714467D01*
X136130173Y-62593558D01*
X136165677Y-62542853D01*
X136168000Y-62537871D01*
X136168003Y-62537866D01*
X136183959Y-62503647D01*
X136230876Y-62450362D01*
X136299153Y-62430901D01*
X136367113Y-62451443D01*
X136412349Y-62503647D01*
X136428305Y-62537866D01*
X136428308Y-62537871D01*
X136430631Y-62542853D01*
X136466135Y-62593558D01*
X136550797Y-62714467D01*
X136561956Y-62730404D01*
X136723854Y-62892302D01*
X136728362Y-62895459D01*
X136728365Y-62895461D01*
X136786745Y-62936339D01*
X136911405Y-63023627D01*
X136916387Y-63025950D01*
X136916392Y-63025953D01*
X137112919Y-63117594D01*
X137118911Y-63120388D01*
X137124219Y-63121810D01*
X137124221Y-63121811D01*
X137334752Y-63178223D01*
X137334754Y-63178223D01*
X137340067Y-63179647D01*
X137568154Y-63199602D01*
X137796241Y-63179647D01*
X137801554Y-63178223D01*
X137801556Y-63178223D01*
X138012087Y-63121811D01*
X138012089Y-63121810D01*
X138017397Y-63120388D01*
X138023389Y-63117594D01*
X138219916Y-63025953D01*
X138219921Y-63025950D01*
X138224903Y-63023627D01*
X138349563Y-62936339D01*
X138407943Y-62895461D01*
X138407946Y-62895459D01*
X138412454Y-62892302D01*
X138574352Y-62730404D01*
X138585512Y-62714467D01*
X138670173Y-62593558D01*
X138705677Y-62542853D01*
X138708000Y-62537871D01*
X138708003Y-62537866D01*
X138723959Y-62503647D01*
X138770876Y-62450362D01*
X138839153Y-62430901D01*
X138907113Y-62451443D01*
X138952349Y-62503647D01*
X138968305Y-62537866D01*
X138968308Y-62537871D01*
X138970631Y-62542853D01*
X139006135Y-62593558D01*
X139090797Y-62714467D01*
X139101956Y-62730404D01*
X139263854Y-62892302D01*
X139268362Y-62895459D01*
X139268365Y-62895461D01*
X139326745Y-62936339D01*
X139451405Y-63023627D01*
X139456387Y-63025950D01*
X139456392Y-63025953D01*
X139652919Y-63117594D01*
X139658911Y-63120388D01*
X139664219Y-63121810D01*
X139664221Y-63121811D01*
X139874752Y-63178223D01*
X139874754Y-63178223D01*
X139880067Y-63179647D01*
X140108154Y-63199602D01*
X140336241Y-63179647D01*
X140341554Y-63178223D01*
X140341556Y-63178223D01*
X140552087Y-63121811D01*
X140552089Y-63121810D01*
X140557397Y-63120388D01*
X140563389Y-63117594D01*
X140759916Y-63025953D01*
X140759921Y-63025950D01*
X140764903Y-63023627D01*
X140889563Y-62936339D01*
X140947943Y-62895461D01*
X140947946Y-62895459D01*
X140952454Y-62892302D01*
X141114352Y-62730404D01*
X141125512Y-62714467D01*
X141210173Y-62593558D01*
X141245677Y-62542853D01*
X141248000Y-62537871D01*
X141248003Y-62537866D01*
X141263959Y-62503647D01*
X141310876Y-62450362D01*
X141379153Y-62430901D01*
X141447113Y-62451443D01*
X141492349Y-62503647D01*
X141508305Y-62537866D01*
X141508308Y-62537871D01*
X141510631Y-62542853D01*
X141546135Y-62593558D01*
X141630797Y-62714467D01*
X141641956Y-62730404D01*
X141803854Y-62892302D01*
X141808362Y-62895459D01*
X141808365Y-62895461D01*
X141866745Y-62936339D01*
X141991405Y-63023627D01*
X141996387Y-63025950D01*
X141996392Y-63025953D01*
X142192919Y-63117594D01*
X142198911Y-63120388D01*
X142204219Y-63121810D01*
X142204221Y-63121811D01*
X142414752Y-63178223D01*
X142414754Y-63178223D01*
X142420067Y-63179647D01*
X142648154Y-63199602D01*
X142876241Y-63179647D01*
X142881554Y-63178223D01*
X142881556Y-63178223D01*
X143092087Y-63121811D01*
X143092089Y-63121810D01*
X143097397Y-63120388D01*
X143103389Y-63117594D01*
X143299916Y-63025953D01*
X143299921Y-63025950D01*
X143304903Y-63023627D01*
X143429563Y-62936339D01*
X143487943Y-62895461D01*
X143487946Y-62895459D01*
X143492454Y-62892302D01*
X143654352Y-62730404D01*
X143665512Y-62714467D01*
X143750173Y-62593558D01*
X143785677Y-62542853D01*
X143788000Y-62537871D01*
X143788003Y-62537866D01*
X143803959Y-62503647D01*
X143850876Y-62450362D01*
X143919153Y-62430901D01*
X143987113Y-62451443D01*
X144032349Y-62503647D01*
X144048305Y-62537866D01*
X144048308Y-62537871D01*
X144050631Y-62542853D01*
X144086135Y-62593558D01*
X144170797Y-62714467D01*
X144181956Y-62730404D01*
X144343854Y-62892302D01*
X144348362Y-62895459D01*
X144348365Y-62895461D01*
X144406745Y-62936339D01*
X144531405Y-63023627D01*
X144536387Y-63025950D01*
X144536392Y-63025953D01*
X144732919Y-63117594D01*
X144738911Y-63120388D01*
X144744219Y-63121810D01*
X144744221Y-63121811D01*
X144954752Y-63178223D01*
X144954754Y-63178223D01*
X144960067Y-63179647D01*
X145188154Y-63199602D01*
X145416241Y-63179647D01*
X145421554Y-63178223D01*
X145421556Y-63178223D01*
X145632087Y-63121811D01*
X145632089Y-63121810D01*
X145637397Y-63120388D01*
X145643389Y-63117594D01*
X145839916Y-63025953D01*
X145839921Y-63025950D01*
X145844903Y-63023627D01*
X145969563Y-62936339D01*
X146027943Y-62895461D01*
X146027946Y-62895459D01*
X146032454Y-62892302D01*
X146194352Y-62730404D01*
X146205512Y-62714467D01*
X146290173Y-62593558D01*
X146325677Y-62542853D01*
X146328000Y-62537871D01*
X146328003Y-62537866D01*
X146343959Y-62503647D01*
X146390876Y-62450362D01*
X146459153Y-62430901D01*
X146527113Y-62451443D01*
X146572349Y-62503647D01*
X146588305Y-62537866D01*
X146588308Y-62537871D01*
X146590631Y-62542853D01*
X146626135Y-62593558D01*
X146710797Y-62714467D01*
X146721956Y-62730404D01*
X146883854Y-62892302D01*
X146888362Y-62895459D01*
X146888365Y-62895461D01*
X146946745Y-62936339D01*
X147071405Y-63023627D01*
X147076387Y-63025950D01*
X147076392Y-63025953D01*
X147272919Y-63117594D01*
X147278911Y-63120388D01*
X147284219Y-63121810D01*
X147284221Y-63121811D01*
X147494752Y-63178223D01*
X147494754Y-63178223D01*
X147500067Y-63179647D01*
X147728154Y-63199602D01*
X147733629Y-63199123D01*
X147891067Y-63185349D01*
X147960672Y-63199338D01*
X147991144Y-63221775D01*
X149775984Y-65006615D01*
X149788370Y-65021027D01*
X149796903Y-65032622D01*
X149796908Y-65032627D01*
X149801246Y-65038522D01*
X149806824Y-65043261D01*
X149806827Y-65043264D01*
X149841522Y-65072739D01*
X149849038Y-65079669D01*
X149854733Y-65085364D01*
X149857615Y-65087644D01*
X149877005Y-65102985D01*
X149880409Y-65105776D01*
X149930457Y-65148295D01*
X149936039Y-65153037D01*
X149942555Y-65156365D01*
X149947604Y-65159732D01*
X149952733Y-65162899D01*
X149958470Y-65167438D01*
X150024629Y-65198359D01*
X150028523Y-65200262D01*
X150093562Y-65233473D01*
X150100670Y-65235212D01*
X150106313Y-65237311D01*
X150112076Y-65239228D01*
X150118704Y-65242326D01*
X150125866Y-65243816D01*
X150125867Y-65243816D01*
X150190166Y-65257190D01*
X150194450Y-65258160D01*
X150265364Y-65275512D01*
X150270966Y-65275860D01*
X150270969Y-65275860D01*
X150276518Y-65276204D01*
X150276516Y-65276240D01*
X150280509Y-65276479D01*
X150284701Y-65276853D01*
X150291869Y-65278344D01*
X150369274Y-65276250D01*
X150372682Y-65276204D01*
X151341557Y-65276204D01*
X151409678Y-65296206D01*
X151456171Y-65349862D01*
X151466275Y-65420136D01*
X151436781Y-65484716D01*
X151374805Y-65523738D01*
X151231682Y-65562892D01*
X151227734Y-65564576D01*
X150983736Y-65668650D01*
X150983732Y-65668652D01*
X150979784Y-65670336D01*
X150959879Y-65682249D01*
X150748479Y-65808768D01*
X150748475Y-65808771D01*
X150744797Y-65810972D01*
X150531072Y-65982198D01*
X150342562Y-66180846D01*
X150182756Y-66403240D01*
X150054611Y-66645265D01*
X150053139Y-66649288D01*
X150053137Y-66649292D01*
X150046068Y-66668610D01*
X149960497Y-66902441D01*
X149902158Y-67170011D01*
X149880671Y-67443022D01*
X149896436Y-67716424D01*
X149897261Y-67720629D01*
X149897262Y-67720637D01*
X149907881Y-67774761D01*
X149949159Y-67985157D01*
X149950546Y-67989207D01*
X149950547Y-67989212D01*
X150036110Y-68239120D01*
X150037866Y-68244248D01*
X150160914Y-68488903D01*
X150163340Y-68492432D01*
X150163343Y-68492438D01*
X150313597Y-68711057D01*
X150316028Y-68714594D01*
X150500336Y-68917147D01*
X150710429Y-69092811D01*
X150714070Y-69095095D01*
X150938778Y-69236055D01*
X150938782Y-69236057D01*
X150942418Y-69238338D01*
X151010298Y-69268987D01*
X151188099Y-69349268D01*
X151188103Y-69349270D01*
X151192011Y-69351034D01*
X151196131Y-69352254D01*
X151196130Y-69352254D01*
X151450477Y-69427595D01*
X151450481Y-69427596D01*
X151454590Y-69428813D01*
X151458824Y-69429461D01*
X151458829Y-69429462D01*
X151721052Y-69469587D01*
X151721054Y-69469587D01*
X151725294Y-69470236D01*
X151864666Y-69472426D01*
X151994825Y-69474471D01*
X151994831Y-69474471D01*
X151999116Y-69474538D01*
X152270989Y-69441638D01*
X152535881Y-69372145D01*
X152539841Y-69370505D01*
X152539846Y-69370503D01*
X152672518Y-69315548D01*
X152788890Y-69267345D01*
X152909303Y-69196981D01*
X153021633Y-69131341D01*
X153021634Y-69131340D01*
X153025336Y-69129177D01*
X153240843Y-68960198D01*
X153282563Y-68917147D01*
X153428440Y-68766613D01*
X153431423Y-68763535D01*
X153433956Y-68760087D01*
X153433960Y-68760082D01*
X153591011Y-68546282D01*
X153593549Y-68542827D01*
X153620908Y-68492438D01*
X153722172Y-68305934D01*
X153722173Y-68305932D01*
X153724222Y-68302158D01*
X153821023Y-68045981D01*
X153882161Y-67779037D01*
X153885983Y-67736219D01*
X153906285Y-67508731D01*
X153906285Y-67508729D01*
X153906505Y-67506265D01*
X153906947Y-67464104D01*
X153905219Y-67438752D01*
X153888613Y-67195159D01*
X153888612Y-67195153D01*
X153888321Y-67190882D01*
X153832786Y-66922716D01*
X153741371Y-66664569D01*
X153615767Y-66421216D01*
X153605794Y-66407025D01*
X153460762Y-66200666D01*
X153458299Y-66197161D01*
X153271879Y-65996549D01*
X153268564Y-65993835D01*
X153268560Y-65993832D01*
X153107058Y-65861644D01*
X153059959Y-65823094D01*
X152826458Y-65680005D01*
X152822522Y-65678277D01*
X152579627Y-65571653D01*
X152579623Y-65571652D01*
X152575699Y-65569929D01*
X152412297Y-65523383D01*
X152352262Y-65485484D01*
X152322248Y-65421144D01*
X152331782Y-65350791D01*
X152377840Y-65296761D01*
X152446816Y-65276204D01*
X156421557Y-65276204D01*
X156489678Y-65296206D01*
X156536171Y-65349862D01*
X156546275Y-65420136D01*
X156516781Y-65484716D01*
X156454805Y-65523738D01*
X156311682Y-65562892D01*
X156307734Y-65564576D01*
X156063736Y-65668650D01*
X156063732Y-65668652D01*
X156059784Y-65670336D01*
X156039879Y-65682249D01*
X155828479Y-65808768D01*
X155828475Y-65808771D01*
X155824797Y-65810972D01*
X155611072Y-65982198D01*
X155422562Y-66180846D01*
X155262756Y-66403240D01*
X155134611Y-66645265D01*
X155133139Y-66649288D01*
X155133137Y-66649292D01*
X155126068Y-66668610D01*
X155040497Y-66902441D01*
X154982158Y-67170011D01*
X154960671Y-67443022D01*
X154976436Y-67716424D01*
X154977261Y-67720629D01*
X154977262Y-67720637D01*
X154987881Y-67774761D01*
X155029159Y-67985157D01*
X155030546Y-67989207D01*
X155030547Y-67989212D01*
X155116110Y-68239120D01*
X155117866Y-68244248D01*
X155240914Y-68488903D01*
X155243340Y-68492432D01*
X155243343Y-68492438D01*
X155393597Y-68711057D01*
X155396028Y-68714594D01*
X155580336Y-68917147D01*
X155790429Y-69092811D01*
X155794070Y-69095095D01*
X156018778Y-69236055D01*
X156018782Y-69236057D01*
X156022418Y-69238338D01*
X156090298Y-69268987D01*
X156268099Y-69349268D01*
X156268103Y-69349270D01*
X156272011Y-69351034D01*
X156276131Y-69352254D01*
X156276130Y-69352254D01*
X156530477Y-69427595D01*
X156530481Y-69427596D01*
X156534590Y-69428813D01*
X156538824Y-69429461D01*
X156538829Y-69429462D01*
X156801052Y-69469587D01*
X156801054Y-69469587D01*
X156805294Y-69470236D01*
X156944666Y-69472426D01*
X157074825Y-69474471D01*
X157074831Y-69474471D01*
X157079116Y-69474538D01*
X157350989Y-69441638D01*
X157615881Y-69372145D01*
X157619841Y-69370505D01*
X157619846Y-69370503D01*
X157752518Y-69315548D01*
X157868890Y-69267345D01*
X157989303Y-69196981D01*
X158101633Y-69131341D01*
X158101634Y-69131340D01*
X158105336Y-69129177D01*
X158258893Y-69008773D01*
X160502955Y-69008773D01*
X160503325Y-69015594D01*
X160508849Y-69066456D01*
X160512475Y-69081708D01*
X160557630Y-69202158D01*
X160566168Y-69217753D01*
X160642669Y-69319828D01*
X160655230Y-69332389D01*
X160757305Y-69408890D01*
X160772900Y-69417428D01*
X160893348Y-69462582D01*
X160908603Y-69466209D01*
X160959468Y-69471735D01*
X160966282Y-69472104D01*
X162238839Y-69472104D01*
X162254078Y-69467629D01*
X162255283Y-69466239D01*
X162256954Y-69458556D01*
X162256954Y-69453988D01*
X162764954Y-69453988D01*
X162769429Y-69469227D01*
X162770819Y-69470432D01*
X162778502Y-69472103D01*
X164055623Y-69472103D01*
X164062444Y-69471733D01*
X164113306Y-69466209D01*
X164128558Y-69462583D01*
X164249008Y-69417428D01*
X164264603Y-69408890D01*
X164366678Y-69332389D01*
X164379239Y-69319828D01*
X164455740Y-69217753D01*
X164464278Y-69202158D01*
X164509432Y-69081710D01*
X164513059Y-69066455D01*
X164518585Y-69015590D01*
X164518954Y-69008776D01*
X164518954Y-67736219D01*
X164514479Y-67720980D01*
X164513089Y-67719775D01*
X164505406Y-67718104D01*
X162783069Y-67718104D01*
X162767830Y-67722579D01*
X162766625Y-67723969D01*
X162764954Y-67731652D01*
X162764954Y-69453988D01*
X162256954Y-69453988D01*
X162256954Y-67736219D01*
X162252479Y-67720980D01*
X162251089Y-67719775D01*
X162243406Y-67718104D01*
X160521070Y-67718104D01*
X160505831Y-67722579D01*
X160504626Y-67723969D01*
X160502955Y-67731652D01*
X160502955Y-69008773D01*
X158258893Y-69008773D01*
X158320843Y-68960198D01*
X158362563Y-68917147D01*
X158508440Y-68766613D01*
X158511423Y-68763535D01*
X158513956Y-68760087D01*
X158513960Y-68760082D01*
X158671011Y-68546282D01*
X158673549Y-68542827D01*
X158700908Y-68492438D01*
X158802172Y-68305934D01*
X158802173Y-68305932D01*
X158804222Y-68302158D01*
X158901023Y-68045981D01*
X158962161Y-67779037D01*
X158965983Y-67736219D01*
X158986285Y-67508731D01*
X158986285Y-67508729D01*
X158986505Y-67506265D01*
X158986947Y-67464104D01*
X158985219Y-67438752D01*
X158968613Y-67195159D01*
X158968612Y-67195153D01*
X158968321Y-67190882D01*
X158912786Y-66922716D01*
X158821371Y-66664569D01*
X158695767Y-66421216D01*
X158685794Y-66407025D01*
X158540762Y-66200666D01*
X158538299Y-66197161D01*
X158351879Y-65996549D01*
X158348564Y-65993835D01*
X158348560Y-65993832D01*
X158187058Y-65861644D01*
X158139959Y-65823094D01*
X157906458Y-65680005D01*
X157902522Y-65678277D01*
X157659627Y-65571653D01*
X157659623Y-65571652D01*
X157655699Y-65569929D01*
X157492297Y-65523383D01*
X157432262Y-65485484D01*
X157402248Y-65421144D01*
X157411782Y-65350791D01*
X157457840Y-65296761D01*
X157526816Y-65276204D01*
X160708839Y-65276204D01*
X160776960Y-65296206D01*
X160823453Y-65349862D01*
X160833557Y-65420136D01*
X160804063Y-65484716D01*
X160769349Y-65512723D01*
X160757311Y-65519314D01*
X160655230Y-65595819D01*
X160642669Y-65608380D01*
X160566168Y-65710455D01*
X160557630Y-65726050D01*
X160512476Y-65846498D01*
X160508849Y-65861753D01*
X160503323Y-65912618D01*
X160502954Y-65919432D01*
X160502954Y-67191989D01*
X160507429Y-67207228D01*
X160508819Y-67208433D01*
X160516502Y-67210104D01*
X162238839Y-67210104D01*
X162254078Y-67205629D01*
X162255283Y-67204239D01*
X162256954Y-67196556D01*
X162256954Y-67191989D01*
X162764954Y-67191989D01*
X162769429Y-67207228D01*
X162770819Y-67208433D01*
X162778502Y-67210104D01*
X164500838Y-67210104D01*
X164516077Y-67205629D01*
X164517282Y-67204239D01*
X164518953Y-67196556D01*
X164518953Y-65919435D01*
X164518583Y-65912614D01*
X164513059Y-65861752D01*
X164509433Y-65846500D01*
X164464278Y-65726050D01*
X164455740Y-65710455D01*
X164379239Y-65608380D01*
X164366678Y-65595819D01*
X164264603Y-65519318D01*
X164249008Y-65510780D01*
X164128560Y-65465626D01*
X164113305Y-65461999D01*
X164062440Y-65456473D01*
X164055626Y-65456104D01*
X162783069Y-65456104D01*
X162767830Y-65460579D01*
X162766625Y-65461969D01*
X162764954Y-65469652D01*
X162764954Y-67191989D01*
X162256954Y-67191989D01*
X162256954Y-65474220D01*
X162252479Y-65458981D01*
X162251089Y-65457776D01*
X162243406Y-65456105D01*
X161957253Y-65456105D01*
X161889132Y-65436103D01*
X161842639Y-65382447D01*
X161832535Y-65312173D01*
X161862029Y-65247593D01*
X161904800Y-65215542D01*
X161907487Y-65214312D01*
X161914453Y-65212055D01*
X161920715Y-65208255D01*
X161926195Y-65205746D01*
X161931609Y-65203035D01*
X161938491Y-65200537D01*
X161944612Y-65196524D01*
X161999530Y-65160518D01*
X162003234Y-65158181D01*
X162065661Y-65120299D01*
X162074038Y-65112901D01*
X162074062Y-65112928D01*
X162077054Y-65110275D01*
X162080287Y-65107572D01*
X162086406Y-65103560D01*
X162139682Y-65047321D01*
X162142060Y-65044879D01*
X164786766Y-62400173D01*
X167121555Y-62400173D01*
X167121925Y-62406994D01*
X167127449Y-62457856D01*
X167131075Y-62473108D01*
X167176230Y-62593558D01*
X167184768Y-62609153D01*
X167261269Y-62711228D01*
X167273830Y-62723789D01*
X167375905Y-62800290D01*
X167391500Y-62808828D01*
X167511948Y-62853982D01*
X167527203Y-62857609D01*
X167578068Y-62863135D01*
X167584882Y-62863504D01*
X168207439Y-62863504D01*
X168222678Y-62859029D01*
X168223883Y-62857639D01*
X168225554Y-62849956D01*
X168225554Y-61777619D01*
X168221079Y-61762380D01*
X168219689Y-61761175D01*
X168212006Y-61759504D01*
X167139670Y-61759504D01*
X167124431Y-61763979D01*
X167123226Y-61765369D01*
X167121555Y-61773052D01*
X167121555Y-62400173D01*
X164786766Y-62400173D01*
X167300915Y-59886024D01*
X167363227Y-59851998D01*
X167434042Y-59857063D01*
X167485245Y-59892620D01*
X167525804Y-59939442D01*
X167529785Y-59942747D01*
X167529787Y-59942749D01*
X167534979Y-59947060D01*
X167574613Y-60005964D01*
X167576109Y-60076945D01*
X167538993Y-60137466D01*
X167498722Y-60161984D01*
X167391500Y-60202180D01*
X167375905Y-60210718D01*
X167273830Y-60287219D01*
X167261269Y-60299780D01*
X167184768Y-60401855D01*
X167176230Y-60417450D01*
X167131076Y-60537898D01*
X167127449Y-60553153D01*
X167121923Y-60604018D01*
X167121554Y-60610832D01*
X167121554Y-61233389D01*
X167126029Y-61248628D01*
X167127419Y-61249833D01*
X167135102Y-61251504D01*
X168607554Y-61251504D01*
X168675675Y-61271506D01*
X168722168Y-61325162D01*
X168733554Y-61377504D01*
X168733554Y-62845388D01*
X168738029Y-62860627D01*
X168739419Y-62861832D01*
X168747102Y-62863503D01*
X169374223Y-62863503D01*
X169381044Y-62863133D01*
X169431906Y-62857609D01*
X169447158Y-62853983D01*
X169567610Y-62808827D01*
X169588843Y-62797202D01*
X169658200Y-62782032D01*
X169724749Y-62806767D01*
X169767360Y-62863555D01*
X169775354Y-62907721D01*
X169775354Y-66882787D01*
X169755352Y-66950908D01*
X169701696Y-66997401D01*
X169631422Y-67007505D01*
X169566842Y-66978011D01*
X169531487Y-66922184D01*
X169529986Y-66922716D01*
X169440002Y-66668610D01*
X169438571Y-66664569D01*
X169312967Y-66421216D01*
X169302994Y-66407025D01*
X169157962Y-66200666D01*
X169155499Y-66197161D01*
X168969079Y-65996549D01*
X168965764Y-65993835D01*
X168965760Y-65993832D01*
X168804258Y-65861644D01*
X168757159Y-65823094D01*
X168523658Y-65680005D01*
X168519722Y-65678277D01*
X168276827Y-65571653D01*
X168276823Y-65571652D01*
X168272899Y-65569929D01*
X168009520Y-65494904D01*
X168005278Y-65494300D01*
X168005272Y-65494299D01*
X167800341Y-65465133D01*
X167738397Y-65456317D01*
X167594543Y-65455564D01*
X167468831Y-65454906D01*
X167468825Y-65454906D01*
X167464545Y-65454884D01*
X167460301Y-65455443D01*
X167460297Y-65455443D01*
X167352370Y-65469652D01*
X167193032Y-65490629D01*
X167188892Y-65491762D01*
X167188890Y-65491762D01*
X167120991Y-65510337D01*
X166928882Y-65562892D01*
X166924934Y-65564576D01*
X166680936Y-65668650D01*
X166680932Y-65668652D01*
X166676984Y-65670336D01*
X166657079Y-65682249D01*
X166445679Y-65808768D01*
X166445675Y-65808771D01*
X166441997Y-65810972D01*
X166228272Y-65982198D01*
X166039762Y-66180846D01*
X165879956Y-66403240D01*
X165751811Y-66645265D01*
X165750339Y-66649288D01*
X165750337Y-66649292D01*
X165743268Y-66668610D01*
X165657697Y-66902441D01*
X165599358Y-67170011D01*
X165577871Y-67443022D01*
X165593636Y-67716424D01*
X165594461Y-67720629D01*
X165594462Y-67720637D01*
X165605081Y-67774761D01*
X165646359Y-67985157D01*
X165647746Y-67989207D01*
X165647747Y-67989212D01*
X165733310Y-68239120D01*
X165735066Y-68244248D01*
X165858114Y-68488903D01*
X165860540Y-68492432D01*
X165860543Y-68492438D01*
X166010797Y-68711057D01*
X166013228Y-68714594D01*
X166197536Y-68917147D01*
X166407629Y-69092811D01*
X166411270Y-69095095D01*
X166635978Y-69236055D01*
X166635982Y-69236057D01*
X166639618Y-69238338D01*
X166707498Y-69268987D01*
X166885299Y-69349268D01*
X166885303Y-69349270D01*
X166889211Y-69351034D01*
X166893331Y-69352254D01*
X166893330Y-69352254D01*
X167147677Y-69427595D01*
X167147681Y-69427596D01*
X167151790Y-69428813D01*
X167156024Y-69429461D01*
X167156029Y-69429462D01*
X167418252Y-69469587D01*
X167418254Y-69469587D01*
X167422494Y-69470236D01*
X167561866Y-69472426D01*
X167692025Y-69474471D01*
X167692031Y-69474471D01*
X167696316Y-69474538D01*
X167968189Y-69441638D01*
X168233081Y-69372145D01*
X168237041Y-69370505D01*
X168237046Y-69370503D01*
X168369718Y-69315548D01*
X168486090Y-69267345D01*
X168606503Y-69196981D01*
X168718833Y-69131341D01*
X168718834Y-69131340D01*
X168722536Y-69129177D01*
X168938043Y-68960198D01*
X168979763Y-68917147D01*
X169125640Y-68766613D01*
X169128623Y-68763535D01*
X169131156Y-68760087D01*
X169131160Y-68760082D01*
X169288211Y-68546282D01*
X169290749Y-68542827D01*
X169318108Y-68492438D01*
X169419372Y-68305934D01*
X169419373Y-68305932D01*
X169421422Y-68302158D01*
X169518223Y-68045981D01*
X169526534Y-68009693D01*
X169561239Y-67947757D01*
X169623920Y-67914416D01*
X169694676Y-67920255D01*
X169751043Y-67963422D01*
X169775124Y-68030210D01*
X169775354Y-68037822D01*
X169775354Y-70843304D01*
X169755352Y-70911425D01*
X169701696Y-70957918D01*
X169649354Y-70969304D01*
X144633587Y-70969304D01*
X144565466Y-70949302D01*
X144518973Y-70895646D01*
X144508869Y-70825372D01*
X144538363Y-70760792D01*
X144565948Y-70739350D01*
X144564891Y-70737737D01*
X144625930Y-70697718D01*
X144629634Y-70695381D01*
X144692061Y-70657499D01*
X144700438Y-70650101D01*
X144700462Y-70650128D01*
X144703454Y-70647475D01*
X144706687Y-70644772D01*
X144712806Y-70640760D01*
X144766082Y-70584521D01*
X144768460Y-70582079D01*
X145973032Y-69377507D01*
X146035344Y-69343481D01*
X146106047Y-69348504D01*
X146108093Y-69349265D01*
X146112011Y-69351034D01*
X146116130Y-69352254D01*
X146116133Y-69352255D01*
X146370477Y-69427595D01*
X146370481Y-69427596D01*
X146374590Y-69428813D01*
X146378824Y-69429461D01*
X146378829Y-69429462D01*
X146641052Y-69469587D01*
X146641054Y-69469587D01*
X146645294Y-69470236D01*
X146784666Y-69472426D01*
X146914825Y-69474471D01*
X146914831Y-69474471D01*
X146919116Y-69474538D01*
X147190989Y-69441638D01*
X147455881Y-69372145D01*
X147459841Y-69370505D01*
X147459846Y-69370503D01*
X147592518Y-69315548D01*
X147708890Y-69267345D01*
X147829303Y-69196981D01*
X147941633Y-69131341D01*
X147941634Y-69131340D01*
X147945336Y-69129177D01*
X148160843Y-68960198D01*
X148202563Y-68917147D01*
X148348440Y-68766613D01*
X148351423Y-68763535D01*
X148353956Y-68760087D01*
X148353960Y-68760082D01*
X148511011Y-68546282D01*
X148513549Y-68542827D01*
X148540908Y-68492438D01*
X148642172Y-68305934D01*
X148642173Y-68305932D01*
X148644222Y-68302158D01*
X148741023Y-68045981D01*
X148802161Y-67779037D01*
X148805983Y-67736219D01*
X148826285Y-67508731D01*
X148826285Y-67508729D01*
X148826505Y-67506265D01*
X148826947Y-67464104D01*
X148825219Y-67438752D01*
X148808613Y-67195159D01*
X148808612Y-67195153D01*
X148808321Y-67190882D01*
X148752786Y-66922716D01*
X148661371Y-66664569D01*
X148535767Y-66421216D01*
X148525794Y-66407025D01*
X148380762Y-66200666D01*
X148378299Y-66197161D01*
X148191879Y-65996549D01*
X148188564Y-65993835D01*
X148188560Y-65993832D01*
X148027058Y-65861644D01*
X147979959Y-65823094D01*
X147746458Y-65680005D01*
X147742522Y-65678277D01*
X147499627Y-65571653D01*
X147499623Y-65571652D01*
X147495699Y-65569929D01*
X147232320Y-65494904D01*
X147228078Y-65494300D01*
X147228072Y-65494299D01*
X147023141Y-65465133D01*
X146961197Y-65456317D01*
X146817343Y-65455564D01*
X146691631Y-65454906D01*
X146691625Y-65454906D01*
X146687345Y-65454884D01*
X146683101Y-65455443D01*
X146683097Y-65455443D01*
X146575170Y-65469652D01*
X146415832Y-65490629D01*
X146411692Y-65491762D01*
X146411690Y-65491762D01*
X146343791Y-65510337D01*
X146151682Y-65562892D01*
X146147734Y-65564576D01*
X145903736Y-65668650D01*
X145903732Y-65668652D01*
X145899784Y-65670336D01*
X145879879Y-65682249D01*
X145668479Y-65808768D01*
X145668475Y-65808771D01*
X145664797Y-65810972D01*
X145451072Y-65982198D01*
X145262562Y-66180846D01*
X145102756Y-66403240D01*
X144974611Y-66645265D01*
X144973139Y-66649288D01*
X144973137Y-66649292D01*
X144966068Y-66668610D01*
X144880497Y-66902441D01*
X144822158Y-67170011D01*
X144800671Y-67443022D01*
X144816436Y-67716424D01*
X144817261Y-67720629D01*
X144817262Y-67720637D01*
X144827881Y-67774761D01*
X144869159Y-67985157D01*
X144870546Y-67989207D01*
X144870547Y-67989212D01*
X144933194Y-68172186D01*
X144936336Y-68243113D01*
X144903082Y-68302095D01*
X143945678Y-69259499D01*
X143883366Y-69293525D01*
X143856583Y-69296404D01*
X143834079Y-69296404D01*
X143765958Y-69276402D01*
X143719465Y-69222746D01*
X143709361Y-69152472D01*
X143716097Y-69126174D01*
X143728605Y-69092811D01*
X143735499Y-69074420D01*
X143742254Y-69012238D01*
X143742254Y-65915970D01*
X143735499Y-65853788D01*
X143684369Y-65717399D01*
X143597015Y-65600843D01*
X143480459Y-65513489D01*
X143344070Y-65462359D01*
X143281888Y-65455604D01*
X140850125Y-65455604D01*
X140782004Y-65435602D01*
X140761030Y-65418699D01*
X139371124Y-64028793D01*
X139358738Y-64014381D01*
X139350205Y-64002786D01*
X139350200Y-64002781D01*
X139345862Y-63996886D01*
X139340284Y-63992147D01*
X139340281Y-63992144D01*
X139305586Y-63962669D01*
X139298070Y-63955739D01*
X139292375Y-63950044D01*
X139276090Y-63937160D01*
X139270103Y-63932423D01*
X139266699Y-63929632D01*
X139216651Y-63887113D01*
X139216649Y-63887112D01*
X139211069Y-63882371D01*
X139204553Y-63879043D01*
X139199504Y-63875676D01*
X139194375Y-63872509D01*
X139188638Y-63867970D01*
X139122479Y-63837049D01*
X139118579Y-63835143D01*
X139053546Y-63801935D01*
X139046438Y-63800196D01*
X139040795Y-63798097D01*
X139035032Y-63796180D01*
X139028404Y-63793082D01*
X138956937Y-63778217D01*
X138952653Y-63777247D01*
X138881744Y-63759896D01*
X138876142Y-63759548D01*
X138876139Y-63759548D01*
X138870590Y-63759204D01*
X138870592Y-63759168D01*
X138866599Y-63758929D01*
X138862407Y-63758555D01*
X138855239Y-63757064D01*
X138791474Y-63758789D01*
X138777833Y-63759158D01*
X138774426Y-63759204D01*
X123970024Y-63759204D01*
X123951074Y-63757771D01*
X123936839Y-63755605D01*
X123936835Y-63755605D01*
X123929605Y-63754505D01*
X123922313Y-63755098D01*
X123922310Y-63755098D01*
X123876936Y-63758789D01*
X123866721Y-63759204D01*
X123858661Y-63759204D01*
X123855027Y-63759628D01*
X123855021Y-63759628D01*
X123841996Y-63761147D01*
X123830434Y-63762495D01*
X123826086Y-63762925D01*
X123753318Y-63768844D01*
X123746357Y-63771099D01*
X123740417Y-63772286D01*
X123734542Y-63773675D01*
X123727273Y-63774522D01*
X123658624Y-63799440D01*
X123654496Y-63800857D01*
X123592018Y-63821097D01*
X123592016Y-63821098D01*
X123585055Y-63823353D01*
X123578800Y-63827149D01*
X123573326Y-63829655D01*
X123567896Y-63832374D01*
X123561017Y-63834871D01*
X123554897Y-63838884D01*
X123554896Y-63838884D01*
X123499978Y-63874890D01*
X123496274Y-63877227D01*
X123433847Y-63915109D01*
X123425470Y-63922507D01*
X123425446Y-63922480D01*
X123422454Y-63925133D01*
X123419221Y-63927836D01*
X123413102Y-63931848D01*
X123383905Y-63962669D01*
X123359826Y-63988087D01*
X123357448Y-63990529D01*
X121929278Y-65418699D01*
X121866966Y-65452725D01*
X121840183Y-65455604D01*
X119408420Y-65455604D01*
X119346238Y-65462359D01*
X119209849Y-65513489D01*
X119093293Y-65600843D01*
X119005939Y-65717399D01*
X119002787Y-65725807D01*
X118965336Y-65825707D01*
X118922694Y-65882471D01*
X118856133Y-65907171D01*
X118786784Y-65891964D01*
X118736666Y-65841678D01*
X118721354Y-65781477D01*
X118721354Y-45593704D01*
X118741356Y-45525583D01*
X118795012Y-45479090D01*
X118847354Y-45467704D01*
X121351866Y-45467704D01*
X121419987Y-45487706D01*
G37*
%TD.AperFunction*%
%TA.AperFunction,Conductor*%
G36*
X130632478Y-65296206D02*
G01*
X130678971Y-65349862D01*
X130689075Y-65420136D01*
X130659581Y-65484716D01*
X130597605Y-65523738D01*
X130454482Y-65562892D01*
X130450534Y-65564576D01*
X130206536Y-65668650D01*
X130206532Y-65668652D01*
X130202584Y-65670336D01*
X130182679Y-65682249D01*
X129971279Y-65808768D01*
X129971275Y-65808771D01*
X129967597Y-65810972D01*
X129753872Y-65982198D01*
X129565362Y-66180846D01*
X129405556Y-66403240D01*
X129277411Y-66645265D01*
X129275939Y-66649288D01*
X129275937Y-66649292D01*
X129268868Y-66668610D01*
X129183297Y-66902441D01*
X129124958Y-67170011D01*
X129103471Y-67443022D01*
X129119236Y-67716424D01*
X129120061Y-67720629D01*
X129120062Y-67720637D01*
X129130681Y-67774761D01*
X129171959Y-67985157D01*
X129173346Y-67989207D01*
X129173347Y-67989212D01*
X129258910Y-68239120D01*
X129260666Y-68244248D01*
X129383714Y-68488903D01*
X129386140Y-68492432D01*
X129386143Y-68492438D01*
X129536397Y-68711057D01*
X129538828Y-68714594D01*
X129723136Y-68917147D01*
X129726431Y-68919902D01*
X129726432Y-68919903D01*
X129910421Y-69073741D01*
X129949851Y-69132782D01*
X129951102Y-69203767D01*
X129913776Y-69264160D01*
X129849725Y-69294786D01*
X129829599Y-69296404D01*
X128993725Y-69296404D01*
X128925604Y-69276402D01*
X128904630Y-69259499D01*
X127946563Y-68301432D01*
X127912537Y-68239120D01*
X127917792Y-68167799D01*
X127962305Y-68049999D01*
X127962306Y-68049995D01*
X127963823Y-68045981D01*
X128024961Y-67779037D01*
X128028783Y-67736219D01*
X128049085Y-67508731D01*
X128049085Y-67508729D01*
X128049305Y-67506265D01*
X128049747Y-67464104D01*
X128048019Y-67438752D01*
X128031413Y-67195159D01*
X128031412Y-67195153D01*
X128031121Y-67190882D01*
X127975586Y-66922716D01*
X127884171Y-66664569D01*
X127758567Y-66421216D01*
X127748594Y-66407025D01*
X127603562Y-66200666D01*
X127601099Y-66197161D01*
X127414679Y-65996549D01*
X127411364Y-65993835D01*
X127411360Y-65993832D01*
X127249858Y-65861644D01*
X127202759Y-65823094D01*
X126969258Y-65680005D01*
X126965322Y-65678277D01*
X126722427Y-65571653D01*
X126722423Y-65571652D01*
X126718499Y-65569929D01*
X126555097Y-65523383D01*
X126495062Y-65485484D01*
X126465048Y-65421144D01*
X126474582Y-65350791D01*
X126520640Y-65296761D01*
X126589616Y-65276204D01*
X130564357Y-65276204D01*
X130632478Y-65296206D01*
G37*
%TD.AperFunction*%
%TA.AperFunction,Conductor*%
G36*
X135712478Y-65296206D02*
G01*
X135758971Y-65349862D01*
X135769075Y-65420136D01*
X135739581Y-65484716D01*
X135677605Y-65523738D01*
X135534482Y-65562892D01*
X135530534Y-65564576D01*
X135286536Y-65668650D01*
X135286532Y-65668652D01*
X135282584Y-65670336D01*
X135262679Y-65682249D01*
X135051279Y-65808768D01*
X135051275Y-65808771D01*
X135047597Y-65810972D01*
X134833872Y-65982198D01*
X134645362Y-66180846D01*
X134485556Y-66403240D01*
X134357411Y-66645265D01*
X134355939Y-66649288D01*
X134355937Y-66649292D01*
X134348868Y-66668610D01*
X134263297Y-66902441D01*
X134204958Y-67170011D01*
X134183471Y-67443022D01*
X134199236Y-67716424D01*
X134200061Y-67720629D01*
X134200062Y-67720637D01*
X134210681Y-67774761D01*
X134251959Y-67985157D01*
X134253346Y-67989207D01*
X134253347Y-67989212D01*
X134338910Y-68239120D01*
X134340666Y-68244248D01*
X134463714Y-68488903D01*
X134466140Y-68492432D01*
X134466143Y-68492438D01*
X134616397Y-68711057D01*
X134618828Y-68714594D01*
X134803136Y-68917147D01*
X134806431Y-68919902D01*
X134806432Y-68919903D01*
X134990421Y-69073741D01*
X135029851Y-69132782D01*
X135031102Y-69203767D01*
X134993776Y-69264160D01*
X134929725Y-69294786D01*
X134909599Y-69296404D01*
X132399759Y-69296404D01*
X132331638Y-69276402D01*
X132285145Y-69222746D01*
X132275041Y-69152472D01*
X132304535Y-69087892D01*
X132322013Y-69071250D01*
X132392942Y-69015635D01*
X132463643Y-68960198D01*
X132505363Y-68917147D01*
X132651240Y-68766613D01*
X132654223Y-68763535D01*
X132656756Y-68760087D01*
X132656760Y-68760082D01*
X132813811Y-68546282D01*
X132816349Y-68542827D01*
X132843708Y-68492438D01*
X132944972Y-68305934D01*
X132944973Y-68305932D01*
X132947022Y-68302158D01*
X133043823Y-68045981D01*
X133104961Y-67779037D01*
X133108783Y-67736219D01*
X133129085Y-67508731D01*
X133129085Y-67508729D01*
X133129305Y-67506265D01*
X133129747Y-67464104D01*
X133128019Y-67438752D01*
X133111413Y-67195159D01*
X133111412Y-67195153D01*
X133111121Y-67190882D01*
X133055586Y-66922716D01*
X132964171Y-66664569D01*
X132838567Y-66421216D01*
X132828594Y-66407025D01*
X132683562Y-66200666D01*
X132681099Y-66197161D01*
X132494679Y-65996549D01*
X132491364Y-65993835D01*
X132491360Y-65993832D01*
X132329858Y-65861644D01*
X132282759Y-65823094D01*
X132049258Y-65680005D01*
X132045322Y-65678277D01*
X131802427Y-65571653D01*
X131802423Y-65571652D01*
X131798499Y-65569929D01*
X131635097Y-65523383D01*
X131575062Y-65485484D01*
X131545048Y-65421144D01*
X131554582Y-65350791D01*
X131600640Y-65296761D01*
X131669616Y-65276204D01*
X135644357Y-65276204D01*
X135712478Y-65296206D01*
G37*
%TD.AperFunction*%
%TA.AperFunction,Conductor*%
G36*
X138489104Y-65296206D02*
G01*
X138510078Y-65313109D01*
X139688349Y-66491379D01*
X139722374Y-66553691D01*
X139725254Y-66580474D01*
X139725254Y-69012238D01*
X139732009Y-69074420D01*
X139738904Y-69092811D01*
X139751411Y-69126174D01*
X139756594Y-69196981D01*
X139722673Y-69259350D01*
X139660418Y-69293479D01*
X139633429Y-69296404D01*
X137479759Y-69296404D01*
X137411638Y-69276402D01*
X137365145Y-69222746D01*
X137355041Y-69152472D01*
X137384535Y-69087892D01*
X137402013Y-69071250D01*
X137472942Y-69015635D01*
X137543643Y-68960198D01*
X137585363Y-68917147D01*
X137731240Y-68766613D01*
X137734223Y-68763535D01*
X137736756Y-68760087D01*
X137736760Y-68760082D01*
X137893811Y-68546282D01*
X137896349Y-68542827D01*
X137923708Y-68492438D01*
X138024972Y-68305934D01*
X138024973Y-68305932D01*
X138027022Y-68302158D01*
X138123823Y-68045981D01*
X138184961Y-67779037D01*
X138188783Y-67736219D01*
X138209085Y-67508731D01*
X138209085Y-67508729D01*
X138209305Y-67506265D01*
X138209747Y-67464104D01*
X138208019Y-67438752D01*
X138191413Y-67195159D01*
X138191412Y-67195153D01*
X138191121Y-67190882D01*
X138135586Y-66922716D01*
X138044171Y-66664569D01*
X137918567Y-66421216D01*
X137908594Y-66407025D01*
X137763562Y-66200666D01*
X137761099Y-66197161D01*
X137574679Y-65996549D01*
X137571364Y-65993835D01*
X137571360Y-65993832D01*
X137409858Y-65861644D01*
X137362759Y-65823094D01*
X137129258Y-65680005D01*
X137125322Y-65678277D01*
X136882427Y-65571653D01*
X136882423Y-65571652D01*
X136878499Y-65569929D01*
X136715097Y-65523383D01*
X136655062Y-65485484D01*
X136625048Y-65421144D01*
X136634582Y-65350791D01*
X136680640Y-65296761D01*
X136749616Y-65276204D01*
X138420983Y-65276204D01*
X138489104Y-65296206D01*
G37*
%TD.AperFunction*%
%TA.AperFunction,Conductor*%
G36*
X163210366Y-57625406D02*
G01*
X163239156Y-57652499D01*
X163239741Y-57651992D01*
X163386004Y-57820842D01*
X163557880Y-57963536D01*
X163631709Y-58006678D01*
X163680433Y-58058316D01*
X163693504Y-58128099D01*
X163666773Y-58193871D01*
X163626316Y-58227231D01*
X163618211Y-58231450D01*
X163609492Y-58236940D01*
X163439187Y-58364809D01*
X163431480Y-58371652D01*
X163284344Y-58525621D01*
X163277858Y-58533631D01*
X163157852Y-58709553D01*
X163152754Y-58718527D01*
X163063092Y-58911687D01*
X163059529Y-58921374D01*
X163004143Y-59121087D01*
X163005666Y-59129511D01*
X163018046Y-59132904D01*
X164467754Y-59132904D01*
X164535875Y-59152906D01*
X164582368Y-59206562D01*
X164593754Y-59258904D01*
X164593754Y-59514904D01*
X164573752Y-59583025D01*
X164520096Y-59629518D01*
X164467754Y-59640904D01*
X163022979Y-59640904D01*
X163009448Y-59644877D01*
X163008011Y-59654870D01*
X163038319Y-59789350D01*
X163041399Y-59799179D01*
X163121524Y-59996507D01*
X163126167Y-60005698D01*
X163237448Y-60187292D01*
X163243531Y-60195603D01*
X163382967Y-60356571D01*
X163390334Y-60363787D01*
X163554188Y-60499820D01*
X163562635Y-60505735D01*
X163746510Y-60613183D01*
X163755796Y-60617633D01*
X163954755Y-60693607D01*
X163964664Y-60696486D01*
X164050988Y-60714049D01*
X164113754Y-60747230D01*
X164148616Y-60809078D01*
X164144507Y-60879955D01*
X164114963Y-60926614D01*
X161319278Y-63722299D01*
X161256966Y-63756325D01*
X161230183Y-63759204D01*
X161198661Y-63759204D01*
X161130540Y-63739202D01*
X161084047Y-63685546D01*
X161073943Y-63615272D01*
X161105025Y-63548894D01*
X161162775Y-63484756D01*
X161162776Y-63484755D01*
X161167194Y-63479848D01*
X161225468Y-63378914D01*
X161259377Y-63320183D01*
X161259378Y-63320182D01*
X161262681Y-63314460D01*
X161321696Y-63132832D01*
X161322855Y-63121811D01*
X161340968Y-62949469D01*
X161341658Y-62942904D01*
X161333137Y-62861832D01*
X161322386Y-62759539D01*
X161322386Y-62759537D01*
X161321696Y-62752976D01*
X161262681Y-62571348D01*
X161203535Y-62468904D01*
X161186654Y-62405905D01*
X161186654Y-59415903D01*
X161203535Y-59352903D01*
X161259377Y-59256183D01*
X161259378Y-59256182D01*
X161262681Y-59250460D01*
X161321696Y-59068832D01*
X161341658Y-58878904D01*
X161329198Y-58760356D01*
X161322386Y-58695539D01*
X161322386Y-58695537D01*
X161321696Y-58688976D01*
X161262681Y-58507348D01*
X161167194Y-58341960D01*
X161089009Y-58255126D01*
X161043829Y-58204949D01*
X161043828Y-58204948D01*
X161039407Y-58200038D01*
X160925893Y-58117565D01*
X160890248Y-58091667D01*
X160890247Y-58091666D01*
X160884906Y-58087786D01*
X160878880Y-58085103D01*
X160878873Y-58085099D01*
X160816002Y-58057108D01*
X160761906Y-58011128D01*
X160747417Y-57980937D01*
X160705923Y-57853233D01*
X160703881Y-57846948D01*
X160673545Y-57794404D01*
X160656807Y-57725408D01*
X160680028Y-57658316D01*
X160735835Y-57614429D01*
X160782664Y-57605404D01*
X163142245Y-57605404D01*
X163210366Y-57625406D01*
G37*
%TD.AperFunction*%
%TA.AperFunction,Conductor*%
G36*
X167149361Y-45487706D02*
G01*
X167195854Y-45541362D01*
X167205958Y-45611636D01*
X167182066Y-45669269D01*
X167176860Y-45676216D01*
X167153939Y-45706799D01*
X167102809Y-45843188D01*
X167096054Y-45905370D01*
X167096054Y-47701638D01*
X167102809Y-47763820D01*
X167153939Y-47900209D01*
X167241293Y-48016765D01*
X167357849Y-48104119D01*
X167366258Y-48107271D01*
X167366259Y-48107272D01*
X167475514Y-48148230D01*
X167532279Y-48190871D01*
X167556979Y-48257433D01*
X167541772Y-48326782D01*
X167522379Y-48353263D01*
X167399144Y-48482221D01*
X167392658Y-48490231D01*
X167272652Y-48666153D01*
X167267554Y-48675127D01*
X167177892Y-48868287D01*
X167174329Y-48877974D01*
X167118943Y-49077687D01*
X167120466Y-49086111D01*
X167132846Y-49089504D01*
X168582554Y-49089504D01*
X168650675Y-49109506D01*
X168697168Y-49163162D01*
X168708554Y-49215504D01*
X168708554Y-49471504D01*
X168688552Y-49539625D01*
X168634896Y-49586118D01*
X168582554Y-49597504D01*
X167137779Y-49597504D01*
X167124248Y-49601477D01*
X167122811Y-49611470D01*
X167153119Y-49745950D01*
X167156199Y-49755779D01*
X167236324Y-49953107D01*
X167240967Y-49962298D01*
X167352248Y-50143892D01*
X167358331Y-50152203D01*
X167497767Y-50313171D01*
X167505134Y-50320387D01*
X167668988Y-50456420D01*
X167677435Y-50462335D01*
X167746523Y-50502707D01*
X167795247Y-50554346D01*
X167808318Y-50624129D01*
X167781587Y-50689900D01*
X167741138Y-50723256D01*
X167728161Y-50730011D01*
X167724028Y-50733114D01*
X167724025Y-50733116D01*
X167553654Y-50861034D01*
X167549519Y-50864139D01*
X167395183Y-51025642D01*
X167392269Y-51029914D01*
X167392268Y-51029915D01*
X167325704Y-51127494D01*
X167269297Y-51210184D01*
X167175242Y-51412809D01*
X167115543Y-51628074D01*
X167091805Y-51850199D01*
X167104664Y-52073219D01*
X167105801Y-52078265D01*
X167105802Y-52078271D01*
X167126362Y-52169500D01*
X167153776Y-52291143D01*
X167237820Y-52498120D01*
X167354541Y-52688592D01*
X167500804Y-52857442D01*
X167672680Y-53000136D01*
X167865554Y-53112842D01*
X167870379Y-53114684D01*
X167870380Y-53114685D01*
X167943166Y-53142479D01*
X168074246Y-53192534D01*
X168079314Y-53193565D01*
X168079317Y-53193566D01*
X168186571Y-53215387D01*
X168293151Y-53237071D01*
X168298326Y-53237261D01*
X168298328Y-53237261D01*
X168511227Y-53245068D01*
X168511231Y-53245068D01*
X168516391Y-53245257D01*
X168521511Y-53244601D01*
X168521513Y-53244601D01*
X168732842Y-53217529D01*
X168732843Y-53217529D01*
X168737970Y-53216872D01*
X168742920Y-53215387D01*
X168946983Y-53154165D01*
X168946988Y-53154163D01*
X168951938Y-53152678D01*
X169152548Y-53054400D01*
X169334414Y-52924677D01*
X169492650Y-52766993D01*
X169547032Y-52691312D01*
X169603025Y-52647665D01*
X169673729Y-52641219D01*
X169736693Y-52674021D01*
X169771928Y-52735658D01*
X169775354Y-52764839D01*
X169775354Y-55505236D01*
X169755352Y-55573357D01*
X169701696Y-55619850D01*
X169631422Y-55629954D01*
X169566842Y-55600460D01*
X169556160Y-55590035D01*
X169412705Y-55432380D01*
X169412702Y-55432377D01*
X169409224Y-55428555D01*
X169405173Y-55425356D01*
X169405169Y-55425352D01*
X169237968Y-55293304D01*
X169237964Y-55293302D01*
X169233913Y-55290102D01*
X169217139Y-55280842D01*
X169181690Y-55261273D01*
X169038343Y-55182142D01*
X169033474Y-55180418D01*
X169033470Y-55180416D01*
X168832641Y-55109299D01*
X168832637Y-55109298D01*
X168827766Y-55107573D01*
X168822673Y-55106666D01*
X168822670Y-55106665D01*
X168612927Y-55069304D01*
X168612921Y-55069303D01*
X168607838Y-55068398D01*
X168534006Y-55067496D01*
X168389635Y-55065732D01*
X168389633Y-55065732D01*
X168384465Y-55065669D01*
X168163645Y-55099459D01*
X167951310Y-55168861D01*
X167753161Y-55272011D01*
X167749028Y-55275114D01*
X167749025Y-55275116D01*
X167651850Y-55348077D01*
X167574519Y-55406139D01*
X167516951Y-55466380D01*
X167450190Y-55536242D01*
X167420183Y-55567642D01*
X167417269Y-55571914D01*
X167417268Y-55571915D01*
X167404753Y-55590261D01*
X167294297Y-55752184D01*
X167200242Y-55954809D01*
X167140543Y-56170074D01*
X167116805Y-56392199D01*
X167117102Y-56397352D01*
X167117102Y-56397355D01*
X167128008Y-56586492D01*
X167129664Y-56615219D01*
X167130801Y-56620265D01*
X167130802Y-56620271D01*
X167154858Y-56727012D01*
X167178776Y-56833143D01*
X167262820Y-57040120D01*
X167379541Y-57230592D01*
X167525804Y-57399442D01*
X167697680Y-57542136D01*
X167732825Y-57562673D01*
X167770999Y-57584980D01*
X167819723Y-57636618D01*
X167832794Y-57706401D01*
X167806063Y-57772173D01*
X167765609Y-57805531D01*
X167753161Y-57812011D01*
X167749028Y-57815114D01*
X167749025Y-57815116D01*
X167651850Y-57888077D01*
X167574519Y-57946139D01*
X167541265Y-57980937D01*
X167441726Y-58085099D01*
X167420183Y-58107642D01*
X167389917Y-58152011D01*
X167335009Y-58197011D01*
X167285831Y-58207004D01*
X167215824Y-58207004D01*
X167196874Y-58205571D01*
X167182639Y-58203405D01*
X167182635Y-58203405D01*
X167175405Y-58202305D01*
X167168113Y-58202898D01*
X167168110Y-58202898D01*
X167122736Y-58206589D01*
X167112521Y-58207004D01*
X167104461Y-58207004D01*
X167100827Y-58207428D01*
X167100821Y-58207428D01*
X167087796Y-58208947D01*
X167076234Y-58210295D01*
X167071886Y-58210725D01*
X167049813Y-58212520D01*
X167006416Y-58216050D01*
X167006413Y-58216051D01*
X166999118Y-58216644D01*
X166992154Y-58218900D01*
X166986215Y-58220087D01*
X166980344Y-58221474D01*
X166973073Y-58222322D01*
X166966197Y-58224818D01*
X166966188Y-58224820D01*
X166904456Y-58247229D01*
X166900352Y-58248639D01*
X166830855Y-58271152D01*
X166824600Y-58274948D01*
X166819141Y-58277447D01*
X166813693Y-58280175D01*
X166806817Y-58282671D01*
X166745764Y-58322699D01*
X166742091Y-58325017D01*
X166679647Y-58362909D01*
X166671271Y-58370306D01*
X166671247Y-58370279D01*
X166668253Y-58372934D01*
X166665022Y-58375636D01*
X166658902Y-58379648D01*
X166653870Y-58384960D01*
X166605626Y-58435887D01*
X166603248Y-58438329D01*
X165880036Y-59161541D01*
X165817724Y-59195567D01*
X165746909Y-59190502D01*
X165690073Y-59147955D01*
X165668737Y-59103142D01*
X165630968Y-58952779D01*
X165627648Y-58943028D01*
X165542726Y-58747718D01*
X165537859Y-58738643D01*
X165422180Y-58559830D01*
X165415890Y-58551661D01*
X165272560Y-58394144D01*
X165265027Y-58387119D01*
X165097893Y-58255126D01*
X165089310Y-58249424D01*
X165052356Y-58229024D01*
X165002385Y-58178591D01*
X164987613Y-58109149D01*
X165012729Y-58042743D01*
X165040081Y-58016136D01*
X165106787Y-57968555D01*
X165219614Y-57888077D01*
X165377850Y-57730393D01*
X165408726Y-57687425D01*
X165505189Y-57553181D01*
X165508207Y-57548981D01*
X165513224Y-57538831D01*
X165604890Y-57353357D01*
X165604891Y-57353355D01*
X165607184Y-57348715D01*
X165672124Y-57134973D01*
X165701283Y-56913494D01*
X165702910Y-56846904D01*
X165684606Y-56624265D01*
X165630185Y-56407606D01*
X165541108Y-56202744D01*
X165467138Y-56088404D01*
X165422576Y-56019521D01*
X165422574Y-56019518D01*
X165419768Y-56015181D01*
X165269424Y-55849955D01*
X165265373Y-55846756D01*
X165265369Y-55846752D01*
X165098168Y-55714704D01*
X165098164Y-55714702D01*
X165094113Y-55711502D01*
X165052807Y-55688700D01*
X165002838Y-55638268D01*
X164988066Y-55568825D01*
X165013182Y-55502420D01*
X165040534Y-55475813D01*
X165106787Y-55428555D01*
X165219614Y-55348077D01*
X165377850Y-55190393D01*
X165437348Y-55107593D01*
X165505189Y-55013181D01*
X165508207Y-55008981D01*
X165607184Y-54808715D01*
X165672124Y-54594973D01*
X165701283Y-54373494D01*
X165702910Y-54306904D01*
X165684606Y-54084265D01*
X165630185Y-53867606D01*
X165541108Y-53662744D01*
X165467138Y-53548404D01*
X165422576Y-53479521D01*
X165422574Y-53479518D01*
X165419768Y-53475181D01*
X165269424Y-53309955D01*
X165265373Y-53306756D01*
X165265369Y-53306752D01*
X165098168Y-53174704D01*
X165098164Y-53174702D01*
X165094113Y-53171502D01*
X165052807Y-53148700D01*
X165002838Y-53098268D01*
X164988066Y-53028825D01*
X165013182Y-52962420D01*
X165040534Y-52935813D01*
X165084357Y-52904554D01*
X165219614Y-52808077D01*
X165377850Y-52650393D01*
X165437348Y-52567593D01*
X165505189Y-52473181D01*
X165508207Y-52468981D01*
X165596100Y-52291143D01*
X165604890Y-52273357D01*
X165604891Y-52273355D01*
X165607184Y-52268715D01*
X165665046Y-52078271D01*
X165670619Y-52059927D01*
X165670619Y-52059925D01*
X165672124Y-52054973D01*
X165701283Y-51833494D01*
X165702910Y-51766904D01*
X165684606Y-51544265D01*
X165630185Y-51327606D01*
X165541108Y-51122744D01*
X165475872Y-51021905D01*
X165422576Y-50939521D01*
X165422574Y-50939518D01*
X165419768Y-50935181D01*
X165375522Y-50886555D01*
X165272552Y-50773392D01*
X165241500Y-50709546D01*
X165249895Y-50639047D01*
X165295071Y-50584279D01*
X165321515Y-50570610D01*
X165428051Y-50530671D01*
X165436459Y-50527519D01*
X165553015Y-50440165D01*
X165640369Y-50323609D01*
X165691499Y-50187220D01*
X165698254Y-50125038D01*
X165698254Y-48328770D01*
X165691499Y-48266588D01*
X165640369Y-48130199D01*
X165553015Y-48013643D01*
X165436459Y-47926289D01*
X165300070Y-47875159D01*
X165237888Y-47868404D01*
X163441620Y-47868404D01*
X163379438Y-47875159D01*
X163243049Y-47926289D01*
X163126493Y-48013643D01*
X163039139Y-48130199D01*
X162988009Y-48266588D01*
X162981254Y-48328770D01*
X162981254Y-49031533D01*
X162961252Y-49099654D01*
X162907596Y-49146147D01*
X162837322Y-49156251D01*
X162772742Y-49126757D01*
X162766159Y-49120628D01*
X161367524Y-47721993D01*
X161355138Y-47707581D01*
X161346605Y-47695986D01*
X161346600Y-47695981D01*
X161342262Y-47690086D01*
X161336684Y-47685347D01*
X161336681Y-47685344D01*
X161301986Y-47655869D01*
X161294470Y-47648939D01*
X161288775Y-47643244D01*
X161282634Y-47638386D01*
X161266503Y-47625623D01*
X161263099Y-47622832D01*
X161213051Y-47580313D01*
X161213049Y-47580312D01*
X161207469Y-47575571D01*
X161200953Y-47572243D01*
X161195904Y-47568876D01*
X161190775Y-47565709D01*
X161185038Y-47561170D01*
X161118879Y-47530249D01*
X161114979Y-47528343D01*
X161049946Y-47495135D01*
X161042838Y-47493396D01*
X161037195Y-47491297D01*
X161031432Y-47489380D01*
X161024804Y-47486282D01*
X160953337Y-47471417D01*
X160949053Y-47470447D01*
X160878144Y-47453096D01*
X160872542Y-47452748D01*
X160872539Y-47452748D01*
X160866990Y-47452404D01*
X160866992Y-47452368D01*
X160862999Y-47452129D01*
X160858807Y-47451755D01*
X160851639Y-47450264D01*
X160785429Y-47452055D01*
X160774233Y-47452358D01*
X160770826Y-47452404D01*
X159322654Y-47452404D01*
X159254533Y-47432402D01*
X159208040Y-47378746D01*
X159196654Y-47326404D01*
X159196654Y-45797970D01*
X159189899Y-45735788D01*
X159153215Y-45637934D01*
X159148032Y-45567127D01*
X159181953Y-45504758D01*
X159244208Y-45470628D01*
X159271197Y-45467704D01*
X167081240Y-45467704D01*
X167149361Y-45487706D01*
G37*
%TD.AperFunction*%
%TA.AperFunction,Conductor*%
G36*
X163210366Y-55085406D02*
G01*
X163239156Y-55112499D01*
X163239741Y-55111992D01*
X163386004Y-55280842D01*
X163557880Y-55423536D01*
X163566469Y-55428555D01*
X163631199Y-55466380D01*
X163679923Y-55518018D01*
X163692994Y-55587801D01*
X163666263Y-55653573D01*
X163625809Y-55686931D01*
X163613361Y-55693411D01*
X163609228Y-55696514D01*
X163609225Y-55696516D01*
X163528829Y-55756879D01*
X163434719Y-55827539D01*
X163280383Y-55989042D01*
X163250117Y-56033411D01*
X163195209Y-56078411D01*
X163146031Y-56088404D01*
X159727725Y-56088404D01*
X159659604Y-56068402D01*
X159638630Y-56051499D01*
X158867630Y-55280499D01*
X158833604Y-55218187D01*
X158838669Y-55147372D01*
X158881216Y-55090536D01*
X158947736Y-55065725D01*
X158956725Y-55065404D01*
X163142245Y-55065404D01*
X163210366Y-55085406D01*
G37*
%TD.AperFunction*%
%TA.AperFunction,Conductor*%
G36*
X160485504Y-48989406D02*
G01*
X160506478Y-49006309D01*
X162959203Y-51459034D01*
X162993229Y-51521346D01*
X162995395Y-51561517D01*
X162977005Y-51733599D01*
X162977302Y-51738752D01*
X162977302Y-51738755D01*
X162982765Y-51833494D01*
X162989864Y-51956619D01*
X162991001Y-51961665D01*
X162991002Y-51961671D01*
X163010873Y-52049843D01*
X163038976Y-52174543D01*
X163123020Y-52381520D01*
X163239741Y-52571992D01*
X163386004Y-52740842D01*
X163557880Y-52883536D01*
X163622049Y-52921033D01*
X163631199Y-52926380D01*
X163679923Y-52978018D01*
X163692994Y-53047801D01*
X163666263Y-53113573D01*
X163625809Y-53146931D01*
X163613361Y-53153411D01*
X163609228Y-53156514D01*
X163609225Y-53156516D01*
X163503312Y-53236038D01*
X163434719Y-53287539D01*
X163280383Y-53449042D01*
X163250117Y-53493411D01*
X163195209Y-53538411D01*
X163146031Y-53548404D01*
X158813325Y-53548404D01*
X158745204Y-53528402D01*
X158724230Y-53511499D01*
X154397230Y-49184499D01*
X154363204Y-49122187D01*
X154368269Y-49051372D01*
X154410816Y-48994536D01*
X154477336Y-48969725D01*
X154486325Y-48969404D01*
X160417383Y-48969404D01*
X160485504Y-48989406D01*
G37*
%TD.AperFunction*%
%TD*%
M02*
