%TF.GenerationSoftware,KiCad,Pcbnew,(6.0.0)*%
%TF.CreationDate,2022-10-01T22:30:54+02:00*%
%TF.ProjectId,012-Amesis-ColdSartE85,3031322d-416d-4657-9369-732d436f6c64,v0.01_Golf 1.6L 16v *%
%TF.SameCoordinates,Original*%
%TF.FileFunction,Legend,Top*%
%TF.FilePolarity,Positive*%
%FSLAX46Y46*%
G04 Gerber Fmt 4.6, Leading zero omitted, Abs format (unit mm)*
G04 Created by KiCad (PCBNEW (6.0.0)) date 2022-10-01 22:30:54*
%MOMM*%
%LPD*%
G01*
G04 APERTURE LIST*
%ADD10C,0.200000*%
%ADD11C,0.100000*%
%ADD12C,0.175000*%
%ADD13C,0.300000*%
%ADD14C,0.150000*%
%ADD15C,0.120000*%
G04 APERTURE END LIST*
D10*
X161698249Y-64170104D02*
X161603011Y-64122484D01*
X161460154Y-64122484D01*
X161317296Y-64170104D01*
X161222058Y-64265342D01*
X161174439Y-64360580D01*
X161126820Y-64551056D01*
X161126820Y-64693913D01*
X161174439Y-64884389D01*
X161222058Y-64979627D01*
X161317296Y-65074865D01*
X161460154Y-65122484D01*
X161555392Y-65122484D01*
X161698249Y-65074865D01*
X161745868Y-65027246D01*
X161745868Y-64693913D01*
X161555392Y-64693913D01*
X162174439Y-65122484D02*
X162174439Y-64122484D01*
X162745868Y-65122484D01*
X162745868Y-64122484D01*
X163222058Y-65122484D02*
X163222058Y-64122484D01*
X163460154Y-64122484D01*
X163603011Y-64170104D01*
X163698249Y-64265342D01*
X163745868Y-64360580D01*
X163793487Y-64551056D01*
X163793487Y-64693913D01*
X163745868Y-64884389D01*
X163698249Y-64979627D01*
X163603011Y-65074865D01*
X163460154Y-65122484D01*
X163222058Y-65122484D01*
X125185449Y-70761284D02*
X125185449Y-69761284D01*
X125661639Y-70094618D02*
X125661639Y-70761284D01*
X125661639Y-70189856D02*
X125709258Y-70142237D01*
X125804496Y-70094618D01*
X125947354Y-70094618D01*
X126042592Y-70142237D01*
X126090211Y-70237475D01*
X126090211Y-70761284D01*
X126566401Y-70761284D02*
X126566401Y-69761284D01*
X126947354Y-69761284D01*
X127042592Y-69808904D01*
X127090211Y-69856523D01*
X127137830Y-69951761D01*
X127137830Y-70094618D01*
X127090211Y-70189856D01*
X127042592Y-70237475D01*
X126947354Y-70285094D01*
X126566401Y-70285094D01*
X127994973Y-70094618D02*
X127994973Y-70761284D01*
X127566401Y-70094618D02*
X127566401Y-70618427D01*
X127614020Y-70713665D01*
X127709258Y-70761284D01*
X127852115Y-70761284D01*
X127947354Y-70713665D01*
X127994973Y-70666046D01*
X128328306Y-70094618D02*
X128709258Y-70094618D01*
X128471163Y-69761284D02*
X128471163Y-70618427D01*
X128518782Y-70713665D01*
X128614020Y-70761284D01*
X128709258Y-70761284D01*
X129804496Y-70761284D02*
X129804496Y-69761284D01*
X130233068Y-70475570D02*
X130709258Y-70475570D01*
X130137830Y-70761284D02*
X130471163Y-69761284D01*
X130804496Y-70761284D01*
X130994973Y-69761284D02*
X131566401Y-69761284D01*
X131280687Y-70761284D02*
X131280687Y-69761284D01*
D11*
X162822058Y-55125951D02*
X162022058Y-55125951D01*
X162822058Y-54744999D02*
X162022058Y-54744999D01*
X162822058Y-54287856D01*
X162022058Y-54287856D01*
X162745868Y-53449761D02*
X162783963Y-53487856D01*
X162822058Y-53602142D01*
X162822058Y-53678332D01*
X162783963Y-53792618D01*
X162707773Y-53868808D01*
X162631582Y-53906904D01*
X162479201Y-53944999D01*
X162364915Y-53944999D01*
X162212534Y-53906904D01*
X162136344Y-53868808D01*
X162060154Y-53792618D01*
X162022058Y-53678332D01*
X162022058Y-53602142D01*
X162060154Y-53487856D01*
X162098249Y-53449761D01*
D10*
X144578325Y-69812084D02*
X144768801Y-69812084D01*
X144864039Y-69859704D01*
X144959277Y-69954942D01*
X145006896Y-70145418D01*
X145006896Y-70478751D01*
X144959277Y-70669227D01*
X144864039Y-70764465D01*
X144768801Y-70812084D01*
X144578325Y-70812084D01*
X144483087Y-70764465D01*
X144387849Y-70669227D01*
X144340230Y-70478751D01*
X144340230Y-70145418D01*
X144387849Y-69954942D01*
X144483087Y-69859704D01*
X144578325Y-69812084D01*
X145864039Y-70145418D02*
X145864039Y-70812084D01*
X145435468Y-70145418D02*
X145435468Y-70669227D01*
X145483087Y-70764465D01*
X145578325Y-70812084D01*
X145721182Y-70812084D01*
X145816420Y-70764465D01*
X145864039Y-70716846D01*
X146197373Y-70145418D02*
X146578325Y-70145418D01*
X146340230Y-69812084D02*
X146340230Y-70669227D01*
X146387849Y-70764465D01*
X146483087Y-70812084D01*
X146578325Y-70812084D01*
X146911658Y-70812084D02*
X146911658Y-69812084D01*
X147292611Y-69812084D01*
X147387849Y-69859704D01*
X147435468Y-69907323D01*
X147483087Y-70002561D01*
X147483087Y-70145418D01*
X147435468Y-70240656D01*
X147387849Y-70288275D01*
X147292611Y-70335894D01*
X146911658Y-70335894D01*
X148340230Y-70145418D02*
X148340230Y-70812084D01*
X147911658Y-70145418D02*
X147911658Y-70669227D01*
X147959277Y-70764465D01*
X148054515Y-70812084D01*
X148197373Y-70812084D01*
X148292611Y-70764465D01*
X148340230Y-70716846D01*
X148673563Y-70145418D02*
X149054515Y-70145418D01*
X148816420Y-69812084D02*
X148816420Y-70669227D01*
X148864039Y-70764465D01*
X148959277Y-70812084D01*
X149054515Y-70812084D01*
X150006896Y-70145418D02*
X150387849Y-70145418D01*
X150149754Y-69812084D02*
X150149754Y-70669227D01*
X150197373Y-70764465D01*
X150292611Y-70812084D01*
X150387849Y-70812084D01*
X150864039Y-70812084D02*
X150768801Y-70764465D01*
X150721182Y-70716846D01*
X150673563Y-70621608D01*
X150673563Y-70335894D01*
X150721182Y-70240656D01*
X150768801Y-70193037D01*
X150864039Y-70145418D01*
X151006896Y-70145418D01*
X151102134Y-70193037D01*
X151149754Y-70240656D01*
X151197373Y-70335894D01*
X151197373Y-70621608D01*
X151149754Y-70716846D01*
X151102134Y-70764465D01*
X151006896Y-70812084D01*
X150864039Y-70812084D01*
X152387849Y-70288275D02*
X152721182Y-70288275D01*
X152864039Y-70812084D02*
X152387849Y-70812084D01*
X152387849Y-69812084D01*
X152864039Y-69812084D01*
X153864039Y-70716846D02*
X153816420Y-70764465D01*
X153673563Y-70812084D01*
X153578325Y-70812084D01*
X153435468Y-70764465D01*
X153340230Y-70669227D01*
X153292611Y-70573989D01*
X153244992Y-70383513D01*
X153244992Y-70240656D01*
X153292611Y-70050180D01*
X153340230Y-69954942D01*
X153435468Y-69859704D01*
X153578325Y-69812084D01*
X153673563Y-69812084D01*
X153816420Y-69859704D01*
X153864039Y-69907323D01*
X154292611Y-69812084D02*
X154292611Y-70621608D01*
X154340230Y-70716846D01*
X154387849Y-70764465D01*
X154483087Y-70812084D01*
X154673563Y-70812084D01*
X154768801Y-70764465D01*
X154816420Y-70716846D01*
X154864039Y-70621608D01*
X154864039Y-69812084D01*
X164452534Y-46586846D02*
X165166820Y-46586846D01*
X165309677Y-46634465D01*
X165404915Y-46729704D01*
X165452534Y-46872561D01*
X165452534Y-46967799D01*
X165452534Y-46110656D02*
X164452534Y-46110656D01*
X164452534Y-45729704D01*
X164500154Y-45634465D01*
X164547773Y-45586846D01*
X164643011Y-45539227D01*
X164785868Y-45539227D01*
X164881106Y-45586846D01*
X164928725Y-45634465D01*
X164976344Y-45729704D01*
X164976344Y-46110656D01*
X165808134Y-62380827D02*
X164808134Y-62380827D01*
X165522420Y-61952256D02*
X165522420Y-61476065D01*
X165808134Y-62047494D02*
X164808134Y-61714161D01*
X165808134Y-61380827D01*
X164808134Y-61190351D02*
X164808134Y-60618923D01*
X165808134Y-60904637D02*
X164808134Y-60904637D01*
D11*
X151455658Y-54979913D02*
X152255658Y-54713246D01*
X151455658Y-54446580D01*
X151455658Y-54256104D02*
X152255658Y-54065627D01*
X151684230Y-53913246D01*
X152255658Y-53760865D01*
X151455658Y-53570389D01*
D10*
X151210858Y-64170104D02*
X151115620Y-64122484D01*
X150972763Y-64122484D01*
X150829906Y-64170104D01*
X150734668Y-64265342D01*
X150687049Y-64360580D01*
X150639430Y-64551056D01*
X150639430Y-64693913D01*
X150687049Y-64884389D01*
X150734668Y-64979627D01*
X150829906Y-65074865D01*
X150972763Y-65122484D01*
X151068001Y-65122484D01*
X151210858Y-65074865D01*
X151258477Y-65027246D01*
X151258477Y-64693913D01*
X151068001Y-64693913D01*
X152115620Y-64122484D02*
X151925144Y-64122484D01*
X151829906Y-64170104D01*
X151782287Y-64217723D01*
X151687049Y-64360580D01*
X151639430Y-64551056D01*
X151639430Y-64932008D01*
X151687049Y-65027246D01*
X151734668Y-65074865D01*
X151829906Y-65122484D01*
X152020382Y-65122484D01*
X152115620Y-65074865D01*
X152163239Y-65027246D01*
X152210858Y-64932008D01*
X152210858Y-64693913D01*
X152163239Y-64598675D01*
X152115620Y-64551056D01*
X152020382Y-64503437D01*
X151829906Y-64503437D01*
X151734668Y-64551056D01*
X151687049Y-64598675D01*
X151639430Y-64693913D01*
X152591811Y-64217723D02*
X152639430Y-64170104D01*
X152734668Y-64122484D01*
X152972763Y-64122484D01*
X153068001Y-64170104D01*
X153115620Y-64217723D01*
X153163239Y-64312961D01*
X153163239Y-64408199D01*
X153115620Y-64551056D01*
X152544192Y-65122484D01*
X153163239Y-65122484D01*
D11*
X166162249Y-49607875D02*
X166124154Y-49569780D01*
X166086058Y-49493589D01*
X166086058Y-49303113D01*
X166124154Y-49226923D01*
X166162249Y-49188827D01*
X166238439Y-49150732D01*
X166314630Y-49150732D01*
X166428915Y-49188827D01*
X166886058Y-49645970D01*
X166886058Y-49150732D01*
D10*
X166968725Y-65122484D02*
X166397296Y-65122484D01*
X166683011Y-65122484D02*
X166683011Y-64122484D01*
X166587773Y-64265342D01*
X166492534Y-64360580D01*
X166397296Y-64408199D01*
X167349677Y-64217723D02*
X167397296Y-64170104D01*
X167492534Y-64122484D01*
X167730630Y-64122484D01*
X167825868Y-64170104D01*
X167873487Y-64217723D01*
X167921106Y-64312961D01*
X167921106Y-64408199D01*
X167873487Y-64551056D01*
X167302058Y-65122484D01*
X167921106Y-65122484D01*
X168254439Y-64455818D02*
X168492534Y-65122484D01*
X168730630Y-64455818D01*
D11*
X162022058Y-49595189D02*
X162022058Y-49976142D01*
X162403011Y-50014237D01*
X162364915Y-49976142D01*
X162326820Y-49899951D01*
X162326820Y-49709475D01*
X162364915Y-49633284D01*
X162403011Y-49595189D01*
X162479201Y-49557094D01*
X162669677Y-49557094D01*
X162745868Y-49595189D01*
X162783963Y-49633284D01*
X162822058Y-49709475D01*
X162822058Y-49899951D01*
X162783963Y-49976142D01*
X162745868Y-50014237D01*
X162288725Y-49290427D02*
X162822058Y-49099951D01*
X162288725Y-48909475D01*
D10*
X120781658Y-64271704D02*
X120686420Y-64224084D01*
X120543563Y-64224084D01*
X120400706Y-64271704D01*
X120305468Y-64366942D01*
X120257849Y-64462180D01*
X120210230Y-64652656D01*
X120210230Y-64795513D01*
X120257849Y-64985989D01*
X120305468Y-65081227D01*
X120400706Y-65176465D01*
X120543563Y-65224084D01*
X120638801Y-65224084D01*
X120781658Y-65176465D01*
X120829277Y-65128846D01*
X120829277Y-64795513D01*
X120638801Y-64795513D01*
X121210230Y-64319323D02*
X121257849Y-64271704D01*
X121353087Y-64224084D01*
X121591182Y-64224084D01*
X121686420Y-64271704D01*
X121734039Y-64319323D01*
X121781658Y-64414561D01*
X121781658Y-64509799D01*
X121734039Y-64652656D01*
X121162611Y-65224084D01*
X121781658Y-65224084D01*
X120375258Y-57624704D02*
X120280020Y-57577084D01*
X120137163Y-57577084D01*
X119994306Y-57624704D01*
X119899068Y-57719942D01*
X119851449Y-57815180D01*
X119803830Y-58005656D01*
X119803830Y-58148513D01*
X119851449Y-58338989D01*
X119899068Y-58434227D01*
X119994306Y-58529465D01*
X120137163Y-58577084D01*
X120232401Y-58577084D01*
X120375258Y-58529465D01*
X120422877Y-58481846D01*
X120422877Y-58148513D01*
X120232401Y-58148513D01*
X120803830Y-57672323D02*
X120851449Y-57624704D01*
X120946687Y-57577084D01*
X121184782Y-57577084D01*
X121280020Y-57624704D01*
X121327639Y-57672323D01*
X121375258Y-57767561D01*
X121375258Y-57862799D01*
X121327639Y-58005656D01*
X120756211Y-58577084D01*
X121375258Y-58577084D01*
X123327639Y-58053275D02*
X124089544Y-58053275D01*
X124089544Y-58338989D02*
X123327639Y-58338989D01*
X125184782Y-57577084D02*
X125756211Y-57577084D01*
X125470496Y-58577084D02*
X125470496Y-57577084D01*
X126232401Y-58577084D02*
X126137163Y-58529465D01*
X126089544Y-58481846D01*
X126041925Y-58386608D01*
X126041925Y-58100894D01*
X126089544Y-58005656D01*
X126137163Y-57958037D01*
X126232401Y-57910418D01*
X126375258Y-57910418D01*
X126470496Y-57958037D01*
X126518115Y-58005656D01*
X126565734Y-58100894D01*
X126565734Y-58386608D01*
X126518115Y-58481846D01*
X126470496Y-58529465D01*
X126375258Y-58577084D01*
X126232401Y-58577084D01*
X128327639Y-58481846D02*
X128280020Y-58529465D01*
X128137163Y-58577084D01*
X128041925Y-58577084D01*
X127899068Y-58529465D01*
X127803830Y-58434227D01*
X127756211Y-58338989D01*
X127708592Y-58148513D01*
X127708592Y-58005656D01*
X127756211Y-57815180D01*
X127803830Y-57719942D01*
X127899068Y-57624704D01*
X128041925Y-57577084D01*
X128137163Y-57577084D01*
X128280020Y-57624704D01*
X128327639Y-57672323D01*
X128899068Y-58577084D02*
X128803830Y-58529465D01*
X128756211Y-58434227D01*
X128756211Y-57577084D01*
X129708592Y-57910418D02*
X129708592Y-58577084D01*
X129280020Y-57910418D02*
X129280020Y-58434227D01*
X129327639Y-58529465D01*
X129422877Y-58577084D01*
X129565734Y-58577084D01*
X129660973Y-58529465D01*
X129708592Y-58481846D01*
X130137163Y-58529465D02*
X130232401Y-58577084D01*
X130422877Y-58577084D01*
X130518115Y-58529465D01*
X130565734Y-58434227D01*
X130565734Y-58386608D01*
X130518115Y-58291370D01*
X130422877Y-58243751D01*
X130280020Y-58243751D01*
X130184782Y-58196132D01*
X130137163Y-58100894D01*
X130137163Y-58053275D01*
X130184782Y-57958037D01*
X130280020Y-57910418D01*
X130422877Y-57910418D01*
X130518115Y-57958037D01*
X130851449Y-57910418D02*
X131232401Y-57910418D01*
X130994306Y-57577084D02*
X130994306Y-58434227D01*
X131041925Y-58529465D01*
X131137163Y-58577084D01*
X131232401Y-58577084D01*
X131946687Y-58529465D02*
X131851449Y-58577084D01*
X131660973Y-58577084D01*
X131565734Y-58529465D01*
X131518115Y-58434227D01*
X131518115Y-58053275D01*
X131565734Y-57958037D01*
X131660973Y-57910418D01*
X131851449Y-57910418D01*
X131946687Y-57958037D01*
X131994306Y-58053275D01*
X131994306Y-58148513D01*
X131518115Y-58243751D01*
X132422877Y-58577084D02*
X132422877Y-57910418D01*
X132422877Y-58100894D02*
X132470496Y-58005656D01*
X132518115Y-57958037D01*
X132613354Y-57910418D01*
X132708592Y-57910418D01*
X120375258Y-59234704D02*
X120280020Y-59187084D01*
X120137163Y-59187084D01*
X119994306Y-59234704D01*
X119899068Y-59329942D01*
X119851449Y-59425180D01*
X119803830Y-59615656D01*
X119803830Y-59758513D01*
X119851449Y-59948989D01*
X119899068Y-60044227D01*
X119994306Y-60139465D01*
X120137163Y-60187084D01*
X120232401Y-60187084D01*
X120375258Y-60139465D01*
X120422877Y-60091846D01*
X120422877Y-59758513D01*
X120232401Y-59758513D01*
X121280020Y-59187084D02*
X121089544Y-59187084D01*
X120994306Y-59234704D01*
X120946687Y-59282323D01*
X120851449Y-59425180D01*
X120803830Y-59615656D01*
X120803830Y-59996608D01*
X120851449Y-60091846D01*
X120899068Y-60139465D01*
X120994306Y-60187084D01*
X121184782Y-60187084D01*
X121280020Y-60139465D01*
X121327639Y-60091846D01*
X121375258Y-59996608D01*
X121375258Y-59758513D01*
X121327639Y-59663275D01*
X121280020Y-59615656D01*
X121184782Y-59568037D01*
X120994306Y-59568037D01*
X120899068Y-59615656D01*
X120851449Y-59663275D01*
X120803830Y-59758513D01*
X121756211Y-59282323D02*
X121803830Y-59234704D01*
X121899068Y-59187084D01*
X122137163Y-59187084D01*
X122232401Y-59234704D01*
X122280020Y-59282323D01*
X122327639Y-59377561D01*
X122327639Y-59472799D01*
X122280020Y-59615656D01*
X121708592Y-60187084D01*
X122327639Y-60187084D01*
X123518115Y-59663275D02*
X124280020Y-59663275D01*
X124280020Y-59948989D02*
X123518115Y-59948989D01*
X125375258Y-59187084D02*
X125946687Y-59187084D01*
X125660973Y-60187084D02*
X125660973Y-59187084D01*
X126422877Y-60187084D02*
X126327639Y-60139465D01*
X126280020Y-60091846D01*
X126232401Y-59996608D01*
X126232401Y-59710894D01*
X126280020Y-59615656D01*
X126327639Y-59568037D01*
X126422877Y-59520418D01*
X126565734Y-59520418D01*
X126660973Y-59568037D01*
X126708592Y-59615656D01*
X126756211Y-59710894D01*
X126756211Y-59996608D01*
X126708592Y-60091846D01*
X126660973Y-60139465D01*
X126565734Y-60187084D01*
X126422877Y-60187084D01*
X127946687Y-59663275D02*
X128280020Y-59663275D01*
X128422877Y-60187084D02*
X127946687Y-60187084D01*
X127946687Y-59187084D01*
X128422877Y-59187084D01*
X129422877Y-60091846D02*
X129375258Y-60139465D01*
X129232401Y-60187084D01*
X129137163Y-60187084D01*
X128994306Y-60139465D01*
X128899068Y-60044227D01*
X128851449Y-59948989D01*
X128803830Y-59758513D01*
X128803830Y-59615656D01*
X128851449Y-59425180D01*
X128899068Y-59329942D01*
X128994306Y-59234704D01*
X129137163Y-59187084D01*
X129232401Y-59187084D01*
X129375258Y-59234704D01*
X129422877Y-59282323D01*
X129851449Y-59187084D02*
X129851449Y-59996608D01*
X129899068Y-60091846D01*
X129946687Y-60139465D01*
X130041925Y-60187084D01*
X130232401Y-60187084D01*
X130327639Y-60139465D01*
X130375258Y-60091846D01*
X130422877Y-59996608D01*
X130422877Y-59187084D01*
X146588058Y-64220904D02*
X146492820Y-64173284D01*
X146349963Y-64173284D01*
X146207106Y-64220904D01*
X146111868Y-64316142D01*
X146064249Y-64411380D01*
X146016630Y-64601856D01*
X146016630Y-64744713D01*
X146064249Y-64935189D01*
X146111868Y-65030427D01*
X146207106Y-65125665D01*
X146349963Y-65173284D01*
X146445201Y-65173284D01*
X146588058Y-65125665D01*
X146635677Y-65078046D01*
X146635677Y-64744713D01*
X146445201Y-64744713D01*
X147016630Y-64268523D02*
X147064249Y-64220904D01*
X147159487Y-64173284D01*
X147397582Y-64173284D01*
X147492820Y-64220904D01*
X147540439Y-64268523D01*
X147588058Y-64363761D01*
X147588058Y-64458999D01*
X147540439Y-64601856D01*
X146969011Y-65173284D01*
X147588058Y-65173284D01*
D11*
X166886058Y-46509132D02*
X166886058Y-46966275D01*
X166886058Y-46737704D02*
X166086058Y-46737704D01*
X166200344Y-46813894D01*
X166276534Y-46890084D01*
X166314630Y-46966275D01*
X162745868Y-51900237D02*
X162783963Y-51938332D01*
X162822058Y-52052618D01*
X162822058Y-52128808D01*
X162783963Y-52243094D01*
X162707773Y-52319284D01*
X162631582Y-52357380D01*
X162479201Y-52395475D01*
X162364915Y-52395475D01*
X162212534Y-52357380D01*
X162136344Y-52319284D01*
X162060154Y-52243094D01*
X162022058Y-52128808D01*
X162022058Y-52052618D01*
X162060154Y-51938332D01*
X162098249Y-51900237D01*
X162783963Y-51595475D02*
X162822058Y-51481189D01*
X162822058Y-51290713D01*
X162783963Y-51214523D01*
X162745868Y-51176427D01*
X162669677Y-51138332D01*
X162593487Y-51138332D01*
X162517296Y-51176427D01*
X162479201Y-51214523D01*
X162441106Y-51290713D01*
X162403011Y-51443094D01*
X162364915Y-51519284D01*
X162326820Y-51557380D01*
X162250630Y-51595475D01*
X162174439Y-51595475D01*
X162098249Y-51557380D01*
X162060154Y-51519284D01*
X162022058Y-51443094D01*
X162022058Y-51252618D01*
X162060154Y-51138332D01*
X166086058Y-52287570D02*
X166086058Y-51792332D01*
X166390820Y-52058999D01*
X166390820Y-51944713D01*
X166428915Y-51868523D01*
X166467011Y-51830427D01*
X166543201Y-51792332D01*
X166733677Y-51792332D01*
X166809868Y-51830427D01*
X166847963Y-51868523D01*
X166886058Y-51944713D01*
X166886058Y-52173284D01*
X166847963Y-52249475D01*
X166809868Y-52287570D01*
X162022058Y-57894523D02*
X162669677Y-57894523D01*
X162745868Y-57856427D01*
X162783963Y-57818332D01*
X162822058Y-57742142D01*
X162822058Y-57589761D01*
X162783963Y-57513570D01*
X162745868Y-57475475D01*
X162669677Y-57437380D01*
X162022058Y-57437380D01*
X161983963Y-56484999D02*
X163012534Y-57170713D01*
X162822058Y-56218332D02*
X162022058Y-56218332D01*
X162022058Y-56027856D01*
X162060154Y-55913570D01*
X162136344Y-55837380D01*
X162212534Y-55799284D01*
X162364915Y-55761189D01*
X162479201Y-55761189D01*
X162631582Y-55799284D01*
X162707773Y-55837380D01*
X162783963Y-55913570D01*
X162822058Y-56027856D01*
X162822058Y-56218332D01*
D10*
X130433658Y-64220904D02*
X130338420Y-64173284D01*
X130195563Y-64173284D01*
X130052706Y-64220904D01*
X129957468Y-64316142D01*
X129909849Y-64411380D01*
X129862230Y-64601856D01*
X129862230Y-64744713D01*
X129909849Y-64935189D01*
X129957468Y-65030427D01*
X130052706Y-65125665D01*
X130195563Y-65173284D01*
X130290801Y-65173284D01*
X130433658Y-65125665D01*
X130481277Y-65078046D01*
X130481277Y-64744713D01*
X130290801Y-64744713D01*
X131338420Y-64173284D02*
X131147944Y-64173284D01*
X131052706Y-64220904D01*
X131005087Y-64268523D01*
X130909849Y-64411380D01*
X130862230Y-64601856D01*
X130862230Y-64982808D01*
X130909849Y-65078046D01*
X130957468Y-65125665D01*
X131052706Y-65173284D01*
X131243182Y-65173284D01*
X131338420Y-65125665D01*
X131386039Y-65078046D01*
X131433658Y-64982808D01*
X131433658Y-64744713D01*
X131386039Y-64649475D01*
X131338420Y-64601856D01*
X131243182Y-64554237D01*
X131052706Y-64554237D01*
X130957468Y-64601856D01*
X130909849Y-64649475D01*
X130862230Y-64744713D01*
X131814611Y-64268523D02*
X131862230Y-64220904D01*
X131957468Y-64173284D01*
X132195563Y-64173284D01*
X132290801Y-64220904D01*
X132338420Y-64268523D01*
X132386039Y-64363761D01*
X132386039Y-64458999D01*
X132338420Y-64601856D01*
X131766992Y-65173284D01*
X132386039Y-65173284D01*
X156240058Y-64220904D02*
X156144820Y-64173284D01*
X156001963Y-64173284D01*
X155859106Y-64220904D01*
X155763868Y-64316142D01*
X155716249Y-64411380D01*
X155668630Y-64601856D01*
X155668630Y-64744713D01*
X155716249Y-64935189D01*
X155763868Y-65030427D01*
X155859106Y-65125665D01*
X156001963Y-65173284D01*
X156097201Y-65173284D01*
X156240058Y-65125665D01*
X156287677Y-65078046D01*
X156287677Y-64744713D01*
X156097201Y-64744713D01*
X157144820Y-64173284D02*
X156954344Y-64173284D01*
X156859106Y-64220904D01*
X156811487Y-64268523D01*
X156716249Y-64411380D01*
X156668630Y-64601856D01*
X156668630Y-64982808D01*
X156716249Y-65078046D01*
X156763868Y-65125665D01*
X156859106Y-65173284D01*
X157049582Y-65173284D01*
X157144820Y-65125665D01*
X157192439Y-65078046D01*
X157240058Y-64982808D01*
X157240058Y-64744713D01*
X157192439Y-64649475D01*
X157144820Y-64601856D01*
X157049582Y-64554237D01*
X156859106Y-64554237D01*
X156763868Y-64601856D01*
X156716249Y-64649475D01*
X156668630Y-64744713D01*
X157621011Y-64268523D02*
X157668630Y-64220904D01*
X157763868Y-64173284D01*
X158001963Y-64173284D01*
X158097201Y-64220904D01*
X158144820Y-64268523D01*
X158192439Y-64363761D01*
X158192439Y-64458999D01*
X158144820Y-64601856D01*
X157573392Y-65173284D01*
X158192439Y-65173284D01*
X125810858Y-64271704D02*
X125715620Y-64224084D01*
X125572763Y-64224084D01*
X125429906Y-64271704D01*
X125334668Y-64366942D01*
X125287049Y-64462180D01*
X125239430Y-64652656D01*
X125239430Y-64795513D01*
X125287049Y-64985989D01*
X125334668Y-65081227D01*
X125429906Y-65176465D01*
X125572763Y-65224084D01*
X125668001Y-65224084D01*
X125810858Y-65176465D01*
X125858477Y-65128846D01*
X125858477Y-64795513D01*
X125668001Y-64795513D01*
X126239430Y-64319323D02*
X126287049Y-64271704D01*
X126382287Y-64224084D01*
X126620382Y-64224084D01*
X126715620Y-64271704D01*
X126763239Y-64319323D01*
X126810858Y-64414561D01*
X126810858Y-64509799D01*
X126763239Y-64652656D01*
X126191811Y-65224084D01*
X126810858Y-65224084D01*
X135462858Y-64271704D02*
X135367620Y-64224084D01*
X135224763Y-64224084D01*
X135081906Y-64271704D01*
X134986668Y-64366942D01*
X134939049Y-64462180D01*
X134891430Y-64652656D01*
X134891430Y-64795513D01*
X134939049Y-64985989D01*
X134986668Y-65081227D01*
X135081906Y-65176465D01*
X135224763Y-65224084D01*
X135320001Y-65224084D01*
X135462858Y-65176465D01*
X135510477Y-65128846D01*
X135510477Y-64795513D01*
X135320001Y-64795513D01*
X136367620Y-64224084D02*
X136177144Y-64224084D01*
X136081906Y-64271704D01*
X136034287Y-64319323D01*
X135939049Y-64462180D01*
X135891430Y-64652656D01*
X135891430Y-65033608D01*
X135939049Y-65128846D01*
X135986668Y-65176465D01*
X136081906Y-65224084D01*
X136272382Y-65224084D01*
X136367620Y-65176465D01*
X136415239Y-65128846D01*
X136462858Y-65033608D01*
X136462858Y-64795513D01*
X136415239Y-64700275D01*
X136367620Y-64652656D01*
X136272382Y-64605037D01*
X136081906Y-64605037D01*
X135986668Y-64652656D01*
X135939049Y-64700275D01*
X135891430Y-64795513D01*
X136843811Y-64319323D02*
X136891430Y-64271704D01*
X136986668Y-64224084D01*
X137224763Y-64224084D01*
X137320001Y-64271704D01*
X137367620Y-64319323D01*
X137415239Y-64414561D01*
X137415239Y-64509799D01*
X137367620Y-64652656D01*
X136796192Y-65224084D01*
X137415239Y-65224084D01*
D11*
X166187658Y-56592884D02*
X166187658Y-56973837D01*
X166568611Y-57011932D01*
X166530515Y-56973837D01*
X166492420Y-56897646D01*
X166492420Y-56707170D01*
X166530515Y-56630980D01*
X166568611Y-56592884D01*
X166644801Y-56554789D01*
X166835277Y-56554789D01*
X166911468Y-56592884D01*
X166949563Y-56630980D01*
X166987658Y-56707170D01*
X166987658Y-56897646D01*
X166949563Y-56973837D01*
X166911468Y-57011932D01*
X166187658Y-56326218D02*
X166987658Y-56059551D01*
X166187658Y-55792884D01*
X151557258Y-52306580D02*
X152357258Y-52039913D01*
X151557258Y-51773246D01*
X152357258Y-51125627D02*
X152357258Y-51506580D01*
X151557258Y-51506580D01*
X162060154Y-60047227D02*
X162022058Y-60123418D01*
X162022058Y-60237704D01*
X162060154Y-60351989D01*
X162136344Y-60428180D01*
X162212534Y-60466275D01*
X162364915Y-60504370D01*
X162479201Y-60504370D01*
X162631582Y-60466275D01*
X162707773Y-60428180D01*
X162783963Y-60351989D01*
X162822058Y-60237704D01*
X162822058Y-60161513D01*
X162783963Y-60047227D01*
X162745868Y-60009132D01*
X162479201Y-60009132D01*
X162479201Y-60161513D01*
X162822058Y-59666275D02*
X162022058Y-59666275D01*
X162822058Y-59209132D01*
X162022058Y-59209132D01*
X162822058Y-58828180D02*
X162022058Y-58828180D01*
X162022058Y-58637704D01*
X162060154Y-58523418D01*
X162136344Y-58447227D01*
X162212534Y-58409132D01*
X162364915Y-58371037D01*
X162479201Y-58371037D01*
X162631582Y-58409132D01*
X162707773Y-58447227D01*
X162783963Y-58523418D01*
X162822058Y-58637704D01*
X162822058Y-58828180D01*
X150466487Y-60062370D02*
X150799820Y-60062370D01*
X150399820Y-60262370D02*
X150633154Y-59562370D01*
X150866487Y-60262370D01*
X151099820Y-60262370D02*
X151099820Y-59795704D01*
X151099820Y-59929037D02*
X151133154Y-59862370D01*
X151166487Y-59829037D01*
X151233154Y-59795704D01*
X151299820Y-59795704D01*
X151833154Y-60262370D02*
X151833154Y-59562370D01*
X151833154Y-60229037D02*
X151766487Y-60262370D01*
X151633154Y-60262370D01*
X151566487Y-60229037D01*
X151533154Y-60195704D01*
X151499820Y-60129037D01*
X151499820Y-59929037D01*
X151533154Y-59862370D01*
X151566487Y-59829037D01*
X151633154Y-59795704D01*
X151766487Y-59795704D01*
X151833154Y-59829037D01*
X152466487Y-59795704D02*
X152466487Y-60262370D01*
X152166487Y-59795704D02*
X152166487Y-60162370D01*
X152199820Y-60229037D01*
X152266487Y-60262370D01*
X152366487Y-60262370D01*
X152433154Y-60229037D01*
X152466487Y-60195704D01*
X152799820Y-60262370D02*
X152799820Y-59795704D01*
X152799820Y-59562370D02*
X152766487Y-59595704D01*
X152799820Y-59629037D01*
X152833154Y-59595704D01*
X152799820Y-59562370D01*
X152799820Y-59629037D01*
X153133154Y-59795704D02*
X153133154Y-60262370D01*
X153133154Y-59862370D02*
X153166487Y-59829037D01*
X153233154Y-59795704D01*
X153333154Y-59795704D01*
X153399820Y-59829037D01*
X153433154Y-59895704D01*
X153433154Y-60262370D01*
X153866487Y-60262370D02*
X153799820Y-60229037D01*
X153766487Y-60195704D01*
X153733154Y-60129037D01*
X153733154Y-59929037D01*
X153766487Y-59862370D01*
X153799820Y-59829037D01*
X153866487Y-59795704D01*
X153966487Y-59795704D01*
X154033154Y-59829037D01*
X154066487Y-59862370D01*
X154099820Y-59929037D01*
X154099820Y-60129037D01*
X154066487Y-60195704D01*
X154033154Y-60229037D01*
X153966487Y-60262370D01*
X153866487Y-60262370D01*
X154933154Y-60262370D02*
X154933154Y-59562370D01*
X155333154Y-60262370D01*
X155333154Y-59562370D01*
X155966487Y-60262370D02*
X155966487Y-59895704D01*
X155933154Y-59829037D01*
X155866487Y-59795704D01*
X155733154Y-59795704D01*
X155666487Y-59829037D01*
X155966487Y-60229037D02*
X155899820Y-60262370D01*
X155733154Y-60262370D01*
X155666487Y-60229037D01*
X155633154Y-60162370D01*
X155633154Y-60095704D01*
X155666487Y-60029037D01*
X155733154Y-59995704D01*
X155899820Y-59995704D01*
X155966487Y-59962370D01*
X156299820Y-59795704D02*
X156299820Y-60262370D01*
X156299820Y-59862370D02*
X156333154Y-59829037D01*
X156399820Y-59795704D01*
X156499820Y-59795704D01*
X156566487Y-59829037D01*
X156599820Y-59895704D01*
X156599820Y-60262370D01*
X157033154Y-60262370D02*
X156966487Y-60229037D01*
X156933154Y-60195704D01*
X156899820Y-60129037D01*
X156899820Y-59929037D01*
X156933154Y-59862370D01*
X156966487Y-59829037D01*
X157033154Y-59795704D01*
X157133154Y-59795704D01*
X157199820Y-59829037D01*
X157233154Y-59862370D01*
X157266487Y-59929037D01*
X157266487Y-60129037D01*
X157233154Y-60195704D01*
X157199820Y-60229037D01*
X157133154Y-60262370D01*
X157033154Y-60262370D01*
X158499820Y-60262370D02*
X158266487Y-59929037D01*
X158099820Y-60262370D02*
X158099820Y-59562370D01*
X158366487Y-59562370D01*
X158433154Y-59595704D01*
X158466487Y-59629037D01*
X158499820Y-59695704D01*
X158499820Y-59795704D01*
X158466487Y-59862370D01*
X158433154Y-59895704D01*
X158366487Y-59929037D01*
X158099820Y-59929037D01*
X158733154Y-59562370D02*
X159166487Y-59562370D01*
X158933154Y-59829037D01*
X159033154Y-59829037D01*
X159099820Y-59862370D01*
X159133154Y-59895704D01*
X159166487Y-59962370D01*
X159166487Y-60129037D01*
X159133154Y-60195704D01*
X159099820Y-60229037D01*
X159033154Y-60262370D01*
X158833154Y-60262370D01*
X158766487Y-60229037D01*
X158733154Y-60195704D01*
X166987658Y-59577323D02*
X166187658Y-59577323D01*
X166759087Y-59234465D02*
X166759087Y-58853513D01*
X166987658Y-59310656D02*
X166187658Y-59043989D01*
X166987658Y-58777323D01*
X166187658Y-58624942D02*
X166187658Y-58167799D01*
X166987658Y-58396370D02*
X166187658Y-58396370D01*
D10*
X141558858Y-64220904D02*
X141463620Y-64173284D01*
X141320763Y-64173284D01*
X141177906Y-64220904D01*
X141082668Y-64316142D01*
X141035049Y-64411380D01*
X140987430Y-64601856D01*
X140987430Y-64744713D01*
X141035049Y-64935189D01*
X141082668Y-65030427D01*
X141177906Y-65125665D01*
X141320763Y-65173284D01*
X141416001Y-65173284D01*
X141558858Y-65125665D01*
X141606477Y-65078046D01*
X141606477Y-64744713D01*
X141416001Y-64744713D01*
X141987430Y-64268523D02*
X142035049Y-64220904D01*
X142130287Y-64173284D01*
X142368382Y-64173284D01*
X142463620Y-64220904D01*
X142511239Y-64268523D01*
X142558858Y-64363761D01*
X142558858Y-64458999D01*
X142511239Y-64601856D01*
X141939811Y-65173284D01*
X142558858Y-65173284D01*
D11*
X166174954Y-62085589D02*
X166136858Y-62161780D01*
X166136858Y-62276065D01*
X166174954Y-62390351D01*
X166251144Y-62466542D01*
X166327334Y-62504637D01*
X166479715Y-62542732D01*
X166594001Y-62542732D01*
X166746382Y-62504637D01*
X166822573Y-62466542D01*
X166898763Y-62390351D01*
X166936858Y-62276065D01*
X166936858Y-62199875D01*
X166898763Y-62085589D01*
X166860668Y-62047494D01*
X166594001Y-62047494D01*
X166594001Y-62199875D01*
X166403525Y-61704637D02*
X166936858Y-61704637D01*
X166479715Y-61704637D02*
X166441620Y-61666542D01*
X166403525Y-61590351D01*
X166403525Y-61476065D01*
X166441620Y-61399875D01*
X166517811Y-61361780D01*
X166936858Y-61361780D01*
X166936858Y-60637970D02*
X166136858Y-60637970D01*
X166898763Y-60637970D02*
X166936858Y-60714161D01*
X166936858Y-60866542D01*
X166898763Y-60942732D01*
X166860668Y-60980827D01*
X166784477Y-61018923D01*
X166555906Y-61018923D01*
X166479715Y-60980827D01*
X166441620Y-60942732D01*
X166403525Y-60866542D01*
X166403525Y-60714161D01*
X166441620Y-60637970D01*
X151455658Y-57634218D02*
X152255658Y-57367551D01*
X151455658Y-57100884D01*
X152255658Y-56834218D02*
X151455658Y-56834218D01*
X151836611Y-56834218D02*
X151836611Y-56377075D01*
X152255658Y-56377075D02*
X151455658Y-56377075D01*
D12*
X157579366Y-56742650D02*
X156879366Y-56742650D01*
X157579366Y-56342650D01*
X156879366Y-56342650D01*
X157579366Y-55909316D02*
X157546033Y-55975983D01*
X157512700Y-56009316D01*
X157446033Y-56042650D01*
X157246033Y-56042650D01*
X157179366Y-56009316D01*
X157146033Y-55975983D01*
X157112700Y-55909316D01*
X157112700Y-55809316D01*
X157146033Y-55742650D01*
X157179366Y-55709316D01*
X157246033Y-55675983D01*
X157446033Y-55675983D01*
X157512700Y-55709316D01*
X157546033Y-55742650D01*
X157579366Y-55809316D01*
X157579366Y-55909316D01*
X156879366Y-54109316D02*
X157379366Y-54109316D01*
X157479366Y-54142650D01*
X157546033Y-54209316D01*
X157579366Y-54309316D01*
X157579366Y-54375983D01*
X157579366Y-53775983D02*
X156879366Y-53775983D01*
X156879366Y-53509316D01*
X156912700Y-53442650D01*
X156946033Y-53409316D01*
X157012700Y-53375983D01*
X157112700Y-53375983D01*
X157179366Y-53409316D01*
X157212700Y-53442650D01*
X157246033Y-53509316D01*
X157246033Y-53775983D01*
X157212700Y-52009316D02*
X157212700Y-51475983D01*
X157412700Y-51475983D02*
X157412700Y-52009316D01*
X156879366Y-50475983D02*
X156879366Y-50409316D01*
X156912700Y-50342650D01*
X156946033Y-50309316D01*
X157012700Y-50275983D01*
X157146033Y-50242650D01*
X157312700Y-50242650D01*
X157446033Y-50275983D01*
X157512700Y-50309316D01*
X157546033Y-50342650D01*
X157579366Y-50409316D01*
X157579366Y-50475983D01*
X157546033Y-50542650D01*
X157512700Y-50575983D01*
X157446033Y-50609316D01*
X157312700Y-50642650D01*
X157146033Y-50642650D01*
X157012700Y-50609316D01*
X156946033Y-50575983D01*
X156912700Y-50542650D01*
X156879366Y-50475983D01*
X158006366Y-57075983D02*
X158506366Y-57075983D01*
X158606366Y-57109316D01*
X158673033Y-57175983D01*
X158706366Y-57275983D01*
X158706366Y-57342650D01*
X158706366Y-56742650D02*
X158006366Y-56742650D01*
X158006366Y-56475983D01*
X158039700Y-56409316D01*
X158073033Y-56375983D01*
X158139700Y-56342650D01*
X158239700Y-56342650D01*
X158306366Y-56375983D01*
X158339700Y-56409316D01*
X158373033Y-56475983D01*
X158373033Y-56742650D01*
X158706366Y-54609316D02*
X158706366Y-55009316D01*
X158706366Y-54809316D02*
X158006366Y-54809316D01*
X158106366Y-54875983D01*
X158173033Y-54942650D01*
X158206366Y-55009316D01*
X158706366Y-53742650D02*
X158706366Y-53775983D01*
X158673033Y-53842650D01*
X158573033Y-53942650D01*
X158373033Y-54109316D01*
X158273033Y-54175983D01*
X158173033Y-54209316D01*
X158106366Y-54209316D01*
X158039700Y-54175983D01*
X158006366Y-54109316D01*
X158006366Y-54075983D01*
X158039700Y-54009316D01*
X158106366Y-53975983D01*
X158139700Y-53975983D01*
X158206366Y-54009316D01*
X158239700Y-54042650D01*
X158373033Y-54242650D01*
X158406366Y-54275983D01*
X158473033Y-54309316D01*
X158573033Y-54309316D01*
X158639700Y-54275983D01*
X158673033Y-54242650D01*
X158706366Y-54175983D01*
X158706366Y-54075983D01*
X158673033Y-54009316D01*
X158639700Y-53975983D01*
X158506366Y-53875983D01*
X158406366Y-53842650D01*
X158339700Y-53842650D01*
X158073033Y-53475983D02*
X158039700Y-53442650D01*
X158006366Y-53375983D01*
X158006366Y-53209316D01*
X158039700Y-53142650D01*
X158073033Y-53109316D01*
X158139700Y-53075983D01*
X158206366Y-53075983D01*
X158306366Y-53109316D01*
X158706366Y-53509316D01*
X158706366Y-53075983D01*
X158339700Y-51709316D02*
X158339700Y-51175983D01*
X158539700Y-51175983D02*
X158539700Y-51709316D01*
X158439700Y-50309316D02*
X158439700Y-49775983D01*
X158706366Y-50042650D02*
X158173033Y-50042650D01*
X159133366Y-57075983D02*
X159633366Y-57075983D01*
X159733366Y-57109316D01*
X159800033Y-57175983D01*
X159833366Y-57275983D01*
X159833366Y-57342650D01*
X159833366Y-56742650D02*
X159133366Y-56742650D01*
X159133366Y-56475983D01*
X159166700Y-56409316D01*
X159200033Y-56375983D01*
X159266700Y-56342650D01*
X159366700Y-56342650D01*
X159433366Y-56375983D01*
X159466700Y-56409316D01*
X159500033Y-56475983D01*
X159500033Y-56742650D01*
X159200033Y-55009316D02*
X159166700Y-54975983D01*
X159133366Y-54909316D01*
X159133366Y-54742650D01*
X159166700Y-54675983D01*
X159200033Y-54642650D01*
X159266700Y-54609316D01*
X159333366Y-54609316D01*
X159433366Y-54642650D01*
X159833366Y-55042650D01*
X159833366Y-54609316D01*
X159833366Y-53742650D02*
X159833366Y-53775983D01*
X159800033Y-53842650D01*
X159700033Y-53942650D01*
X159500033Y-54109316D01*
X159400033Y-54175983D01*
X159300033Y-54209316D01*
X159233366Y-54209316D01*
X159166700Y-54175983D01*
X159133366Y-54109316D01*
X159133366Y-54075983D01*
X159166700Y-54009316D01*
X159233366Y-53975983D01*
X159266700Y-53975983D01*
X159333366Y-54009316D01*
X159366700Y-54042650D01*
X159500033Y-54242650D01*
X159533366Y-54275983D01*
X159600033Y-54309316D01*
X159700033Y-54309316D01*
X159766700Y-54275983D01*
X159800033Y-54242650D01*
X159833366Y-54175983D01*
X159833366Y-54075983D01*
X159800033Y-54009316D01*
X159766700Y-53975983D01*
X159633366Y-53875983D01*
X159533366Y-53842650D01*
X159466700Y-53842650D01*
X159133366Y-53509316D02*
X159133366Y-53075983D01*
X159400033Y-53309316D01*
X159400033Y-53209316D01*
X159433366Y-53142650D01*
X159466700Y-53109316D01*
X159533366Y-53075983D01*
X159700033Y-53075983D01*
X159766700Y-53109316D01*
X159800033Y-53142650D01*
X159833366Y-53209316D01*
X159833366Y-53409316D01*
X159800033Y-53475983D01*
X159766700Y-53509316D01*
X159466700Y-51709316D02*
X159466700Y-51175983D01*
X159666700Y-51175983D02*
X159666700Y-51709316D01*
X159566700Y-50309316D02*
X159566700Y-49775983D01*
X159833366Y-50042650D02*
X159300033Y-50042650D01*
X159566700Y-49442650D02*
X159566700Y-48909316D01*
X159833366Y-49175983D02*
X159300033Y-49175983D01*
X160260366Y-57075983D02*
X160760366Y-57075983D01*
X160860366Y-57109316D01*
X160927033Y-57175983D01*
X160960366Y-57275983D01*
X160960366Y-57342650D01*
X160960366Y-56742650D02*
X160260366Y-56742650D01*
X160260366Y-56475983D01*
X160293700Y-56409316D01*
X160327033Y-56375983D01*
X160393700Y-56342650D01*
X160493700Y-56342650D01*
X160560366Y-56375983D01*
X160593700Y-56409316D01*
X160627033Y-56475983D01*
X160627033Y-56742650D01*
X160960366Y-55142650D02*
X160960366Y-55542650D01*
X160960366Y-55342650D02*
X160260366Y-55342650D01*
X160360366Y-55409316D01*
X160427033Y-55475983D01*
X160460366Y-55542650D01*
X160960366Y-54275983D02*
X160960366Y-54309316D01*
X160927033Y-54375983D01*
X160827033Y-54475983D01*
X160627033Y-54642650D01*
X160527033Y-54709316D01*
X160427033Y-54742650D01*
X160360366Y-54742650D01*
X160293700Y-54709316D01*
X160260366Y-54642650D01*
X160260366Y-54609316D01*
X160293700Y-54542650D01*
X160360366Y-54509316D01*
X160393700Y-54509316D01*
X160460366Y-54542650D01*
X160493700Y-54575983D01*
X160627033Y-54775983D01*
X160660366Y-54809316D01*
X160727033Y-54842650D01*
X160827033Y-54842650D01*
X160893700Y-54809316D01*
X160927033Y-54775983D01*
X160960366Y-54709316D01*
X160960366Y-54609316D01*
X160927033Y-54542650D01*
X160893700Y-54509316D01*
X160760366Y-54409316D01*
X160660366Y-54375983D01*
X160593700Y-54375983D01*
X160327033Y-54009316D02*
X160293700Y-53975983D01*
X160260366Y-53909316D01*
X160260366Y-53742650D01*
X160293700Y-53675983D01*
X160327033Y-53642650D01*
X160393700Y-53609316D01*
X160460366Y-53609316D01*
X160560366Y-53642650D01*
X160960366Y-54042650D01*
X160960366Y-53609316D01*
X160960366Y-52742650D02*
X160960366Y-52775983D01*
X160927033Y-52842650D01*
X160827033Y-52942650D01*
X160627033Y-53109316D01*
X160527033Y-53175983D01*
X160427033Y-53209316D01*
X160360366Y-53209316D01*
X160293700Y-53175983D01*
X160260366Y-53109316D01*
X160260366Y-53075983D01*
X160293700Y-53009316D01*
X160360366Y-52975983D01*
X160393700Y-52975983D01*
X160460366Y-53009316D01*
X160493700Y-53042650D01*
X160627033Y-53242650D01*
X160660366Y-53275983D01*
X160727033Y-53309316D01*
X160827033Y-53309316D01*
X160893700Y-53275983D01*
X160927033Y-53242650D01*
X160960366Y-53175983D01*
X160960366Y-53075983D01*
X160927033Y-53009316D01*
X160893700Y-52975983D01*
X160760366Y-52875983D01*
X160660366Y-52842650D01*
X160593700Y-52842650D01*
X160260366Y-52509316D02*
X160260366Y-52075983D01*
X160527033Y-52309316D01*
X160527033Y-52209316D01*
X160560366Y-52142650D01*
X160593700Y-52109316D01*
X160660366Y-52075983D01*
X160827033Y-52075983D01*
X160893700Y-52109316D01*
X160927033Y-52142650D01*
X160960366Y-52209316D01*
X160960366Y-52409316D01*
X160927033Y-52475983D01*
X160893700Y-52509316D01*
X160593700Y-51242650D02*
X160593700Y-50709316D01*
X160793700Y-50709316D02*
X160793700Y-51242650D01*
X160693700Y-49842650D02*
X160693700Y-49309316D01*
X160960366Y-49575983D02*
X160427033Y-49575983D01*
X160693700Y-48975983D02*
X160693700Y-48442650D01*
X160960366Y-48709316D02*
X160427033Y-48709316D01*
X160693700Y-48109316D02*
X160693700Y-47575983D01*
X160960366Y-47842650D02*
X160427033Y-47842650D01*
D13*
%TO.C, *%
D14*
%TO.C,A1*%
X211419820Y-58409789D02*
X211419820Y-57933599D01*
X211705534Y-58505027D02*
X210705534Y-58171694D01*
X211705534Y-57838361D01*
X211705534Y-56981218D02*
X211705534Y-57552646D01*
X211705534Y-57266932D02*
X210705534Y-57266932D01*
X210848392Y-57362170D01*
X210943630Y-57457408D01*
X210991249Y-57552646D01*
%TO.C,J1*%
X210818220Y-79195084D02*
X210818220Y-79909370D01*
X210770601Y-80052227D01*
X210675363Y-80147465D01*
X210532506Y-80195084D01*
X210437268Y-80195084D01*
X211818220Y-80195084D02*
X211246792Y-80195084D01*
X211532506Y-80195084D02*
X211532506Y-79195084D01*
X211437268Y-79337942D01*
X211342030Y-79433180D01*
X211246792Y-79480799D01*
%TO.C,Jumpers_Option1*%
X210906220Y-62837484D02*
X210906220Y-63551770D01*
X210858601Y-63694627D01*
X210763363Y-63789865D01*
X210620506Y-63837484D01*
X210525268Y-63837484D01*
X211810982Y-63170818D02*
X211810982Y-63837484D01*
X211382411Y-63170818D02*
X211382411Y-63694627D01*
X211430030Y-63789865D01*
X211525268Y-63837484D01*
X211668125Y-63837484D01*
X211763363Y-63789865D01*
X211810982Y-63742246D01*
X212287173Y-63837484D02*
X212287173Y-63170818D01*
X212287173Y-63266056D02*
X212334792Y-63218437D01*
X212430030Y-63170818D01*
X212572887Y-63170818D01*
X212668125Y-63218437D01*
X212715744Y-63313675D01*
X212715744Y-63837484D01*
X212715744Y-63313675D02*
X212763363Y-63218437D01*
X212858601Y-63170818D01*
X213001458Y-63170818D01*
X213096696Y-63218437D01*
X213144315Y-63313675D01*
X213144315Y-63837484D01*
X213620506Y-63170818D02*
X213620506Y-64170818D01*
X213620506Y-63218437D02*
X213715744Y-63170818D01*
X213906220Y-63170818D01*
X214001458Y-63218437D01*
X214049077Y-63266056D01*
X214096696Y-63361294D01*
X214096696Y-63647008D01*
X214049077Y-63742246D01*
X214001458Y-63789865D01*
X213906220Y-63837484D01*
X213715744Y-63837484D01*
X213620506Y-63789865D01*
X214906220Y-63789865D02*
X214810982Y-63837484D01*
X214620506Y-63837484D01*
X214525268Y-63789865D01*
X214477649Y-63694627D01*
X214477649Y-63313675D01*
X214525268Y-63218437D01*
X214620506Y-63170818D01*
X214810982Y-63170818D01*
X214906220Y-63218437D01*
X214953839Y-63313675D01*
X214953839Y-63408913D01*
X214477649Y-63504151D01*
X215382411Y-63837484D02*
X215382411Y-63170818D01*
X215382411Y-63361294D02*
X215430030Y-63266056D01*
X215477649Y-63218437D01*
X215572887Y-63170818D01*
X215668125Y-63170818D01*
X215953839Y-63789865D02*
X216049077Y-63837484D01*
X216239554Y-63837484D01*
X216334792Y-63789865D01*
X216382411Y-63694627D01*
X216382411Y-63647008D01*
X216334792Y-63551770D01*
X216239554Y-63504151D01*
X216096696Y-63504151D01*
X216001458Y-63456532D01*
X215953839Y-63361294D01*
X215953839Y-63313675D01*
X216001458Y-63218437D01*
X216096696Y-63170818D01*
X216239554Y-63170818D01*
X216334792Y-63218437D01*
X216572887Y-63932723D02*
X217334792Y-63932723D01*
X217763363Y-62837484D02*
X217953839Y-62837484D01*
X218049077Y-62885104D01*
X218144315Y-62980342D01*
X218191934Y-63170818D01*
X218191934Y-63504151D01*
X218144315Y-63694627D01*
X218049077Y-63789865D01*
X217953839Y-63837484D01*
X217763363Y-63837484D01*
X217668125Y-63789865D01*
X217572887Y-63694627D01*
X217525268Y-63504151D01*
X217525268Y-63170818D01*
X217572887Y-62980342D01*
X217668125Y-62885104D01*
X217763363Y-62837484D01*
X218620506Y-63170818D02*
X218620506Y-64170818D01*
X218620506Y-63218437D02*
X218715744Y-63170818D01*
X218906220Y-63170818D01*
X219001458Y-63218437D01*
X219049077Y-63266056D01*
X219096696Y-63361294D01*
X219096696Y-63647008D01*
X219049077Y-63742246D01*
X219001458Y-63789865D01*
X218906220Y-63837484D01*
X218715744Y-63837484D01*
X218620506Y-63789865D01*
X219382411Y-63170818D02*
X219763363Y-63170818D01*
X219525268Y-62837484D02*
X219525268Y-63694627D01*
X219572887Y-63789865D01*
X219668125Y-63837484D01*
X219763363Y-63837484D01*
X220096696Y-63837484D02*
X220096696Y-63170818D01*
X220096696Y-62837484D02*
X220049077Y-62885104D01*
X220096696Y-62932723D01*
X220144315Y-62885104D01*
X220096696Y-62837484D01*
X220096696Y-62932723D01*
X220715744Y-63837484D02*
X220620506Y-63789865D01*
X220572887Y-63742246D01*
X220525268Y-63647008D01*
X220525268Y-63361294D01*
X220572887Y-63266056D01*
X220620506Y-63218437D01*
X220715744Y-63170818D01*
X220858601Y-63170818D01*
X220953839Y-63218437D01*
X221001458Y-63266056D01*
X221049077Y-63361294D01*
X221049077Y-63647008D01*
X221001458Y-63742246D01*
X220953839Y-63789865D01*
X220858601Y-63837484D01*
X220715744Y-63837484D01*
X221477649Y-63170818D02*
X221477649Y-63837484D01*
X221477649Y-63266056D02*
X221525268Y-63218437D01*
X221620506Y-63170818D01*
X221763363Y-63170818D01*
X221858601Y-63218437D01*
X221906220Y-63313675D01*
X221906220Y-63837484D01*
X222906220Y-63837484D02*
X222334792Y-63837484D01*
X222620506Y-63837484D02*
X222620506Y-62837484D01*
X222525268Y-62980342D01*
X222430030Y-63075580D01*
X222334792Y-63123199D01*
%TO.C,G2/G62_OutPut_IAT1*%
X211033363Y-81681104D02*
X210938125Y-81633484D01*
X210795268Y-81633484D01*
X210652411Y-81681104D01*
X210557173Y-81776342D01*
X210509554Y-81871580D01*
X210461934Y-82062056D01*
X210461934Y-82204913D01*
X210509554Y-82395389D01*
X210557173Y-82490627D01*
X210652411Y-82585865D01*
X210795268Y-82633484D01*
X210890506Y-82633484D01*
X211033363Y-82585865D01*
X211080982Y-82538246D01*
X211080982Y-82204913D01*
X210890506Y-82204913D01*
X211461934Y-81728723D02*
X211509554Y-81681104D01*
X211604792Y-81633484D01*
X211842887Y-81633484D01*
X211938125Y-81681104D01*
X211985744Y-81728723D01*
X212033363Y-81823961D01*
X212033363Y-81919199D01*
X211985744Y-82062056D01*
X211414315Y-82633484D01*
X212033363Y-82633484D01*
X213176220Y-81585865D02*
X212319077Y-82871580D01*
X214033363Y-81681104D02*
X213938125Y-81633484D01*
X213795268Y-81633484D01*
X213652411Y-81681104D01*
X213557173Y-81776342D01*
X213509554Y-81871580D01*
X213461934Y-82062056D01*
X213461934Y-82204913D01*
X213509554Y-82395389D01*
X213557173Y-82490627D01*
X213652411Y-82585865D01*
X213795268Y-82633484D01*
X213890506Y-82633484D01*
X214033363Y-82585865D01*
X214080982Y-82538246D01*
X214080982Y-82204913D01*
X213890506Y-82204913D01*
X214938125Y-81633484D02*
X214747649Y-81633484D01*
X214652411Y-81681104D01*
X214604792Y-81728723D01*
X214509554Y-81871580D01*
X214461934Y-82062056D01*
X214461934Y-82443008D01*
X214509554Y-82538246D01*
X214557173Y-82585865D01*
X214652411Y-82633484D01*
X214842887Y-82633484D01*
X214938125Y-82585865D01*
X214985744Y-82538246D01*
X215033363Y-82443008D01*
X215033363Y-82204913D01*
X214985744Y-82109675D01*
X214938125Y-82062056D01*
X214842887Y-82014437D01*
X214652411Y-82014437D01*
X214557173Y-82062056D01*
X214509554Y-82109675D01*
X214461934Y-82204913D01*
X215414315Y-81728723D02*
X215461934Y-81681104D01*
X215557173Y-81633484D01*
X215795268Y-81633484D01*
X215890506Y-81681104D01*
X215938125Y-81728723D01*
X215985744Y-81823961D01*
X215985744Y-81919199D01*
X215938125Y-82062056D01*
X215366696Y-82633484D01*
X215985744Y-82633484D01*
X216176220Y-82728723D02*
X216938125Y-82728723D01*
X217366696Y-81633484D02*
X217557173Y-81633484D01*
X217652411Y-81681104D01*
X217747649Y-81776342D01*
X217795268Y-81966818D01*
X217795268Y-82300151D01*
X217747649Y-82490627D01*
X217652411Y-82585865D01*
X217557173Y-82633484D01*
X217366696Y-82633484D01*
X217271458Y-82585865D01*
X217176220Y-82490627D01*
X217128601Y-82300151D01*
X217128601Y-81966818D01*
X217176220Y-81776342D01*
X217271458Y-81681104D01*
X217366696Y-81633484D01*
X218652411Y-81966818D02*
X218652411Y-82633484D01*
X218223839Y-81966818D02*
X218223839Y-82490627D01*
X218271458Y-82585865D01*
X218366696Y-82633484D01*
X218509554Y-82633484D01*
X218604792Y-82585865D01*
X218652411Y-82538246D01*
X218985744Y-81966818D02*
X219366696Y-81966818D01*
X219128601Y-81633484D02*
X219128601Y-82490627D01*
X219176220Y-82585865D01*
X219271458Y-82633484D01*
X219366696Y-82633484D01*
X219700030Y-82633484D02*
X219700030Y-81633484D01*
X220080982Y-81633484D01*
X220176220Y-81681104D01*
X220223839Y-81728723D01*
X220271458Y-81823961D01*
X220271458Y-81966818D01*
X220223839Y-82062056D01*
X220176220Y-82109675D01*
X220080982Y-82157294D01*
X219700030Y-82157294D01*
X221128601Y-81966818D02*
X221128601Y-82633484D01*
X220700030Y-81966818D02*
X220700030Y-82490627D01*
X220747649Y-82585865D01*
X220842887Y-82633484D01*
X220985744Y-82633484D01*
X221080982Y-82585865D01*
X221128601Y-82538246D01*
X221461934Y-81966818D02*
X221842887Y-81966818D01*
X221604792Y-81633484D02*
X221604792Y-82490627D01*
X221652411Y-82585865D01*
X221747649Y-82633484D01*
X221842887Y-82633484D01*
X221938125Y-82728723D02*
X222700030Y-82728723D01*
X222938125Y-82633484D02*
X222938125Y-81633484D01*
X223366696Y-82347770D02*
X223842887Y-82347770D01*
X223271458Y-82633484D02*
X223604792Y-81633484D01*
X223938125Y-82633484D01*
X224128601Y-81633484D02*
X224700030Y-81633484D01*
X224414315Y-82633484D02*
X224414315Y-81633484D01*
X225557173Y-82633484D02*
X224985744Y-82633484D01*
X225271458Y-82633484D02*
X225271458Y-81633484D01*
X225176220Y-81776342D01*
X225080982Y-81871580D01*
X224985744Y-81919199D01*
D13*
%TO.C, *%
D14*
%TO.C,IAT_Interne1*%
X210496449Y-74962684D02*
X210496449Y-73962684D01*
X210925020Y-74676970D02*
X211401211Y-74676970D01*
X210829782Y-74962684D02*
X211163115Y-73962684D01*
X211496449Y-74962684D01*
X211686925Y-73962684D02*
X212258354Y-73962684D01*
X211972639Y-74962684D02*
X211972639Y-73962684D01*
X212353592Y-75057923D02*
X213115496Y-75057923D01*
X213353592Y-74962684D02*
X213353592Y-73962684D01*
X213829782Y-74296018D02*
X213829782Y-74962684D01*
X213829782Y-74391256D02*
X213877401Y-74343637D01*
X213972639Y-74296018D01*
X214115496Y-74296018D01*
X214210734Y-74343637D01*
X214258354Y-74438875D01*
X214258354Y-74962684D01*
X214591687Y-74296018D02*
X214972639Y-74296018D01*
X214734544Y-73962684D02*
X214734544Y-74819827D01*
X214782163Y-74915065D01*
X214877401Y-74962684D01*
X214972639Y-74962684D01*
X215686925Y-74915065D02*
X215591687Y-74962684D01*
X215401211Y-74962684D01*
X215305973Y-74915065D01*
X215258354Y-74819827D01*
X215258354Y-74438875D01*
X215305973Y-74343637D01*
X215401211Y-74296018D01*
X215591687Y-74296018D01*
X215686925Y-74343637D01*
X215734544Y-74438875D01*
X215734544Y-74534113D01*
X215258354Y-74629351D01*
X216163115Y-74962684D02*
X216163115Y-74296018D01*
X216163115Y-74486494D02*
X216210734Y-74391256D01*
X216258354Y-74343637D01*
X216353592Y-74296018D01*
X216448830Y-74296018D01*
X216782163Y-74296018D02*
X216782163Y-74962684D01*
X216782163Y-74391256D02*
X216829782Y-74343637D01*
X216925020Y-74296018D01*
X217067877Y-74296018D01*
X217163115Y-74343637D01*
X217210734Y-74438875D01*
X217210734Y-74962684D01*
X218067877Y-74915065D02*
X217972639Y-74962684D01*
X217782163Y-74962684D01*
X217686925Y-74915065D01*
X217639306Y-74819827D01*
X217639306Y-74438875D01*
X217686925Y-74343637D01*
X217782163Y-74296018D01*
X217972639Y-74296018D01*
X218067877Y-74343637D01*
X218115496Y-74438875D01*
X218115496Y-74534113D01*
X217639306Y-74629351D01*
X219067877Y-74962684D02*
X218496449Y-74962684D01*
X218782163Y-74962684D02*
X218782163Y-73962684D01*
X218686925Y-74105542D01*
X218591687Y-74200780D01*
X218496449Y-74248399D01*
%TO.C,G2/G62_InPut_IAT1*%
X211096792Y-92247504D02*
X211001554Y-92199884D01*
X210858696Y-92199884D01*
X210715839Y-92247504D01*
X210620601Y-92342742D01*
X210572982Y-92437980D01*
X210525363Y-92628456D01*
X210525363Y-92771313D01*
X210572982Y-92961789D01*
X210620601Y-93057027D01*
X210715839Y-93152265D01*
X210858696Y-93199884D01*
X210953934Y-93199884D01*
X211096792Y-93152265D01*
X211144411Y-93104646D01*
X211144411Y-92771313D01*
X210953934Y-92771313D01*
X211525363Y-92295123D02*
X211572982Y-92247504D01*
X211668220Y-92199884D01*
X211906315Y-92199884D01*
X212001554Y-92247504D01*
X212049173Y-92295123D01*
X212096792Y-92390361D01*
X212096792Y-92485599D01*
X212049173Y-92628456D01*
X211477744Y-93199884D01*
X212096792Y-93199884D01*
X213239649Y-92152265D02*
X212382506Y-93437980D01*
X214096792Y-92247504D02*
X214001554Y-92199884D01*
X213858696Y-92199884D01*
X213715839Y-92247504D01*
X213620601Y-92342742D01*
X213572982Y-92437980D01*
X213525363Y-92628456D01*
X213525363Y-92771313D01*
X213572982Y-92961789D01*
X213620601Y-93057027D01*
X213715839Y-93152265D01*
X213858696Y-93199884D01*
X213953934Y-93199884D01*
X214096792Y-93152265D01*
X214144411Y-93104646D01*
X214144411Y-92771313D01*
X213953934Y-92771313D01*
X215001554Y-92199884D02*
X214811077Y-92199884D01*
X214715839Y-92247504D01*
X214668220Y-92295123D01*
X214572982Y-92437980D01*
X214525363Y-92628456D01*
X214525363Y-93009408D01*
X214572982Y-93104646D01*
X214620601Y-93152265D01*
X214715839Y-93199884D01*
X214906315Y-93199884D01*
X215001554Y-93152265D01*
X215049173Y-93104646D01*
X215096792Y-93009408D01*
X215096792Y-92771313D01*
X215049173Y-92676075D01*
X215001554Y-92628456D01*
X214906315Y-92580837D01*
X214715839Y-92580837D01*
X214620601Y-92628456D01*
X214572982Y-92676075D01*
X214525363Y-92771313D01*
X215477744Y-92295123D02*
X215525363Y-92247504D01*
X215620601Y-92199884D01*
X215858696Y-92199884D01*
X215953934Y-92247504D01*
X216001554Y-92295123D01*
X216049173Y-92390361D01*
X216049173Y-92485599D01*
X216001554Y-92628456D01*
X215430125Y-93199884D01*
X216049173Y-93199884D01*
X216239649Y-93295123D02*
X217001554Y-93295123D01*
X217239649Y-93199884D02*
X217239649Y-92199884D01*
X217715839Y-92533218D02*
X217715839Y-93199884D01*
X217715839Y-92628456D02*
X217763458Y-92580837D01*
X217858696Y-92533218D01*
X218001554Y-92533218D01*
X218096792Y-92580837D01*
X218144411Y-92676075D01*
X218144411Y-93199884D01*
X218620601Y-93199884D02*
X218620601Y-92199884D01*
X219001554Y-92199884D01*
X219096792Y-92247504D01*
X219144411Y-92295123D01*
X219192030Y-92390361D01*
X219192030Y-92533218D01*
X219144411Y-92628456D01*
X219096792Y-92676075D01*
X219001554Y-92723694D01*
X218620601Y-92723694D01*
X220049173Y-92533218D02*
X220049173Y-93199884D01*
X219620601Y-92533218D02*
X219620601Y-93057027D01*
X219668220Y-93152265D01*
X219763458Y-93199884D01*
X219906315Y-93199884D01*
X220001554Y-93152265D01*
X220049173Y-93104646D01*
X220382506Y-92533218D02*
X220763458Y-92533218D01*
X220525363Y-92199884D02*
X220525363Y-93057027D01*
X220572982Y-93152265D01*
X220668220Y-93199884D01*
X220763458Y-93199884D01*
X220858696Y-93295123D02*
X221620601Y-93295123D01*
X221858696Y-93199884D02*
X221858696Y-92199884D01*
X222287268Y-92914170D02*
X222763458Y-92914170D01*
X222192030Y-93199884D02*
X222525363Y-92199884D01*
X222858696Y-93199884D01*
X223049173Y-92199884D02*
X223620601Y-92199884D01*
X223334887Y-93199884D02*
X223334887Y-92199884D01*
X224477744Y-93199884D02*
X223906315Y-93199884D01*
X224192030Y-93199884D02*
X224192030Y-92199884D01*
X224096792Y-92342742D01*
X224001554Y-92437980D01*
X223906315Y-92485599D01*
%TO.C, *%
G36*
X145918031Y-57936033D02*
G01*
X145949422Y-58047890D01*
X145886762Y-58193584D01*
X145749541Y-58255293D01*
X145625635Y-58208268D01*
X145574860Y-58080602D01*
X145565865Y-57986306D01*
X145611898Y-57864429D01*
X145757644Y-57851351D01*
X145918031Y-57936033D01*
G37*
G36*
X140590861Y-58992116D02*
G01*
X140622958Y-59030418D01*
X140658850Y-59209977D01*
X140561964Y-59340754D01*
X140442652Y-59370198D01*
X140307173Y-59305911D01*
X140281302Y-59197054D01*
X140336980Y-59039775D01*
X140461449Y-58961082D01*
X140590861Y-58992116D01*
G37*
G36*
X146242596Y-51073683D02*
G01*
X146318338Y-51193161D01*
X146316991Y-51250338D01*
X146232861Y-51383463D01*
X146096395Y-51426263D01*
X145981874Y-51361087D01*
X145968033Y-51333264D01*
X145967390Y-51158863D01*
X145991324Y-51103572D01*
X146109011Y-51032743D01*
X146242596Y-51073683D01*
G37*
G36*
X147794159Y-57907071D02*
G01*
X147854330Y-58041058D01*
X147851220Y-58069130D01*
X147763252Y-58205093D01*
X147618812Y-58244652D01*
X147493205Y-58174751D01*
X147472075Y-58134863D01*
X147471093Y-57968309D01*
X147509221Y-57904158D01*
X147654289Y-57849459D01*
X147794159Y-57907071D01*
G37*
G36*
X144770735Y-48861341D02*
G01*
X144798751Y-48971541D01*
X144738481Y-49113994D01*
X144628282Y-49142010D01*
X144485828Y-49081740D01*
X144457812Y-48971541D01*
X144518082Y-48829087D01*
X144628282Y-48801071D01*
X144770735Y-48861341D01*
G37*
G36*
X148149205Y-58290736D02*
G01*
X148198496Y-58406295D01*
X148208147Y-58603084D01*
X148193852Y-58826139D01*
X148136072Y-58924721D01*
X148037677Y-58944024D01*
X147926150Y-58915433D01*
X147876859Y-58799874D01*
X147867208Y-58603084D01*
X147881503Y-58380029D01*
X147939283Y-58281448D01*
X148037677Y-58262145D01*
X148149205Y-58290736D01*
G37*
G36*
X140581288Y-48875891D02*
G01*
X140649535Y-49081762D01*
X140639241Y-49376406D01*
X140559980Y-49534057D01*
X140423569Y-49564257D01*
X140338125Y-49511362D01*
X140301321Y-49396261D01*
X140282104Y-49183326D01*
X140281302Y-49127805D01*
X140298002Y-48908772D01*
X140362205Y-48815114D01*
X140441835Y-48801071D01*
X140581288Y-48875891D01*
G37*
G36*
X147441033Y-49909125D02*
G01*
X146332980Y-49909125D01*
X146332980Y-48801071D01*
X147441033Y-48801071D01*
X147441033Y-49909125D01*
G37*
G36*
X146645903Y-52611677D02*
G01*
X146673919Y-52721876D01*
X146613649Y-52864330D01*
X146503449Y-52892346D01*
X146360996Y-52832076D01*
X146332980Y-52721876D01*
X146393250Y-52579423D01*
X146503449Y-52551406D01*
X146645903Y-52611677D01*
G37*
G36*
X145389467Y-52551406D02*
G01*
X145537236Y-52479539D01*
X145581246Y-52359628D01*
X145665924Y-52199267D01*
X145778732Y-52167849D01*
X145922212Y-52122749D01*
X145959856Y-52061306D01*
X145978453Y-51893579D01*
X145981386Y-51869527D01*
X146062370Y-51799954D01*
X146162510Y-51784292D01*
X146304963Y-51724022D01*
X146332980Y-51613823D01*
X146393909Y-51470636D01*
X146497521Y-51443353D01*
X146645290Y-51371486D01*
X146689300Y-51251574D01*
X146786362Y-51079259D01*
X146908315Y-51032559D01*
X147051563Y-51043992D01*
X147098374Y-51165622D01*
X147100094Y-51224337D01*
X147137767Y-51394382D01*
X147269523Y-51443351D01*
X147270563Y-51443353D01*
X147413017Y-51503623D01*
X147441033Y-51613823D01*
X147490975Y-51747499D01*
X147654120Y-51784292D01*
X147822353Y-51825325D01*
X147867208Y-51949018D01*
X147938654Y-52105572D01*
X148037677Y-52167849D01*
X148176223Y-52280861D01*
X148208147Y-52386680D01*
X148145108Y-52525024D01*
X148037677Y-52551406D01*
X147894491Y-52612336D01*
X147867208Y-52715948D01*
X147795341Y-52863717D01*
X147675429Y-52907727D01*
X147503114Y-53004789D01*
X147456414Y-53126742D01*
X147467846Y-53269990D01*
X147589477Y-53316801D01*
X147648192Y-53318521D01*
X147818237Y-53356194D01*
X147867206Y-53487950D01*
X147867208Y-53488990D01*
X147927478Y-53631444D01*
X148037677Y-53659460D01*
X148171354Y-53709402D01*
X148208147Y-53872547D01*
X148168194Y-54039642D01*
X148037677Y-54085635D01*
X147895224Y-54145905D01*
X147867208Y-54256104D01*
X147817266Y-54389780D01*
X147654120Y-54426574D01*
X147493479Y-54460466D01*
X147442417Y-54595682D01*
X147441033Y-54645911D01*
X147391644Y-54803191D01*
X147281911Y-54841554D01*
X147169489Y-54765115D01*
X147116161Y-54622723D01*
X147017482Y-54454797D01*
X146903074Y-54410507D01*
X146750534Y-54336031D01*
X146735730Y-54256104D01*
X147100094Y-54256104D01*
X147160364Y-54398558D01*
X147270563Y-54426574D01*
X147413017Y-54366304D01*
X147441033Y-54256104D01*
X147380763Y-54113651D01*
X147270563Y-54085635D01*
X147128110Y-54145905D01*
X147100094Y-54256104D01*
X146735730Y-54256104D01*
X146728590Y-54217553D01*
X146836154Y-54119327D01*
X146908315Y-54101015D01*
X147057159Y-54021720D01*
X147115585Y-53880713D01*
X147083594Y-53740632D01*
X146961185Y-53664115D01*
X146908315Y-53662795D01*
X146591306Y-53673775D01*
X146411064Y-53636835D01*
X146338433Y-53543165D01*
X146332980Y-53488990D01*
X147100094Y-53488990D01*
X147160364Y-53631444D01*
X147270563Y-53659460D01*
X147413017Y-53599190D01*
X147441033Y-53488990D01*
X147380763Y-53346537D01*
X147270563Y-53318521D01*
X147128110Y-53378791D01*
X147100094Y-53488990D01*
X146332980Y-53488990D01*
X146307883Y-53382460D01*
X146203676Y-53332085D01*
X145976977Y-53318586D01*
X145949422Y-53318521D01*
X145708892Y-53330145D01*
X145595279Y-53377227D01*
X145565893Y-53478080D01*
X145565865Y-53483062D01*
X145637732Y-53630831D01*
X145757644Y-53674841D01*
X145861285Y-53704114D01*
X145918946Y-53781527D01*
X145943899Y-53947312D01*
X145949418Y-54241698D01*
X145949422Y-54256104D01*
X145944385Y-54556228D01*
X145920422Y-54726206D01*
X145864262Y-54806269D01*
X145762631Y-54836648D01*
X145757644Y-54837368D01*
X145597793Y-54915224D01*
X145558041Y-55043059D01*
X145634539Y-55156517D01*
X145778953Y-55193688D01*
X145947815Y-55152062D01*
X145992040Y-55031801D01*
X146027978Y-54923304D01*
X146162838Y-54864507D01*
X146354288Y-54840023D01*
X146732635Y-54824413D01*
X146967662Y-54856732D01*
X147081163Y-54942507D01*
X147100094Y-55029147D01*
X147081207Y-55118384D01*
X146999630Y-55168144D01*
X146817981Y-55189528D01*
X146546067Y-55193688D01*
X146245071Y-55199515D01*
X146077217Y-55224168D01*
X146005368Y-55278409D01*
X145992040Y-55354217D01*
X146064031Y-55504202D01*
X146162510Y-55559325D01*
X146306806Y-55673557D01*
X146332980Y-55782353D01*
X146276762Y-55930102D01*
X146162510Y-55960802D01*
X146019323Y-56021732D01*
X145992040Y-56125344D01*
X145920173Y-56273113D01*
X145800261Y-56317123D01*
X145627946Y-56414185D01*
X145581246Y-56536138D01*
X145592679Y-56679386D01*
X145714309Y-56726197D01*
X145773024Y-56727917D01*
X145943069Y-56765590D01*
X145992039Y-56897346D01*
X145992040Y-56898386D01*
X146020631Y-57009914D01*
X146136190Y-57059205D01*
X146332980Y-57068856D01*
X146557680Y-57053583D01*
X146656531Y-56994283D01*
X146673919Y-56908327D01*
X146601928Y-56758343D01*
X146503449Y-56703220D01*
X146359153Y-56588987D01*
X146332980Y-56480191D01*
X146389197Y-56332443D01*
X146503449Y-56301742D01*
X146637125Y-56351684D01*
X146673919Y-56514829D01*
X146709123Y-56677032D01*
X146847738Y-56727017D01*
X146887006Y-56727917D01*
X147018498Y-56743814D01*
X147080798Y-56821957D01*
X147099280Y-57008020D01*
X147100094Y-57111474D01*
X147111247Y-57351166D01*
X147157562Y-57464510D01*
X147258317Y-57494884D01*
X147270563Y-57495031D01*
X147413017Y-57555301D01*
X147441033Y-57665500D01*
X147380763Y-57807954D01*
X147270563Y-57835970D01*
X147128110Y-57775700D01*
X147100094Y-57665500D01*
X147048729Y-57530621D01*
X146892349Y-57495031D01*
X146758879Y-57513943D01*
X146700540Y-57602485D01*
X146688998Y-57808358D01*
X146689322Y-57836871D01*
X146709383Y-58066752D01*
X146780373Y-58182148D01*
X146897067Y-58229668D01*
X147033282Y-58293268D01*
X147090707Y-58428069D01*
X147100094Y-58607424D01*
X147108892Y-58812782D01*
X147167017Y-58911161D01*
X147322058Y-58948938D01*
X147462342Y-58960432D01*
X147698838Y-58993030D01*
X147813448Y-59063458D01*
X147851827Y-59178420D01*
X147852024Y-59295923D01*
X147780746Y-59352238D01*
X147596413Y-59369378D01*
X147489579Y-59370198D01*
X147247630Y-59381002D01*
X147132285Y-59426011D01*
X147100368Y-59524123D01*
X147100094Y-59540668D01*
X147117361Y-59632924D01*
X147194275Y-59684358D01*
X147368503Y-59706562D01*
X147654120Y-59711138D01*
X147951941Y-59714874D01*
X148117824Y-59735959D01*
X148190282Y-59789204D01*
X148207828Y-59889423D01*
X148208147Y-59924225D01*
X148168194Y-60091320D01*
X148037677Y-60137312D01*
X147895224Y-60197583D01*
X147867208Y-60307782D01*
X147817266Y-60441458D01*
X147654120Y-60478252D01*
X147487025Y-60438299D01*
X147441033Y-60307782D01*
X147380763Y-60165329D01*
X147270563Y-60137312D01*
X147129055Y-60196575D01*
X147100094Y-60313710D01*
X147059355Y-60446027D01*
X146910506Y-60463179D01*
X146908315Y-60462872D01*
X146758374Y-60393207D01*
X146716537Y-60307782D01*
X146789091Y-60197517D01*
X146908315Y-60152693D01*
X147060408Y-60078982D01*
X147100094Y-59912369D01*
X147070602Y-59756007D01*
X146952797Y-59721619D01*
X146908315Y-59726519D01*
X146736000Y-59823581D01*
X146689300Y-59945534D01*
X146643861Y-60072098D01*
X146522385Y-60126968D01*
X146327051Y-60137312D01*
X146112724Y-60117969D01*
X145990915Y-60069780D01*
X145981386Y-60052078D01*
X145963000Y-59888888D01*
X145960077Y-59860299D01*
X145890826Y-59761205D01*
X145758890Y-59756931D01*
X145632615Y-59833254D01*
X145582110Y-59938942D01*
X145606464Y-60091597D01*
X145752580Y-60152029D01*
X145911156Y-60226369D01*
X145938813Y-60344234D01*
X145834532Y-60443010D01*
X145757644Y-60462872D01*
X145607500Y-60446724D01*
X145565869Y-60315725D01*
X145565865Y-60313710D01*
X145542528Y-60203793D01*
X145443229Y-60151777D01*
X145224037Y-60137459D01*
X145182308Y-60137312D01*
X144942616Y-60148466D01*
X144829272Y-60194781D01*
X144798898Y-60295536D01*
X144798751Y-60307782D01*
X144738481Y-60450236D01*
X144628282Y-60478252D01*
X144485828Y-60417982D01*
X144457812Y-60307782D01*
X144432716Y-60201252D01*
X144328508Y-60150877D01*
X144101809Y-60137378D01*
X144074255Y-60137312D01*
X143834562Y-60148466D01*
X143721218Y-60194781D01*
X143690844Y-60295536D01*
X143690698Y-60307782D01*
X143640756Y-60441458D01*
X143477610Y-60478252D01*
X143310515Y-60438299D01*
X143264523Y-60307782D01*
X143235932Y-60196255D01*
X143120373Y-60146964D01*
X142923584Y-60137312D01*
X142700528Y-60151608D01*
X142601947Y-60209388D01*
X142582644Y-60307782D01*
X142569826Y-60388774D01*
X142509742Y-60439102D01*
X142369946Y-60465974D01*
X142117994Y-60476601D01*
X141815530Y-60478252D01*
X141451065Y-60475404D01*
X141224593Y-60462052D01*
X141103668Y-60430986D01*
X141055845Y-60374997D01*
X141048416Y-60307782D01*
X141035598Y-60226790D01*
X140975514Y-60176463D01*
X140835718Y-60149591D01*
X140583766Y-60138963D01*
X140281302Y-60137312D01*
X139916837Y-60140161D01*
X139690365Y-60153513D01*
X139569440Y-60184579D01*
X139521616Y-60240568D01*
X139514188Y-60307782D01*
X139489091Y-60414312D01*
X139384884Y-60464687D01*
X139158185Y-60478187D01*
X139130631Y-60478252D01*
X138747073Y-60478252D01*
X138747073Y-59924225D01*
X139173248Y-59924225D01*
X139213201Y-60091320D01*
X139343718Y-60137312D01*
X139477394Y-60087371D01*
X139514188Y-59924225D01*
X139499184Y-59861474D01*
X141389355Y-59861474D01*
X141417691Y-60027594D01*
X141449125Y-60083436D01*
X141588463Y-60129076D01*
X141721498Y-60056923D01*
X141772464Y-59924225D01*
X144457812Y-59924225D01*
X144497765Y-60091320D01*
X144628282Y-60137312D01*
X144761958Y-60087371D01*
X144798751Y-59924225D01*
X144758798Y-59757130D01*
X144628282Y-59711138D01*
X144494606Y-59761080D01*
X144457812Y-59924225D01*
X141772464Y-59924225D01*
X141772912Y-59923058D01*
X141702790Y-59771509D01*
X141581134Y-59726519D01*
X141429294Y-59743885D01*
X141389355Y-59861474D01*
X139499184Y-59861474D01*
X139474234Y-59757130D01*
X139343718Y-59711138D01*
X139210042Y-59761080D01*
X139173248Y-59924225D01*
X138747073Y-59924225D01*
X138747073Y-58603084D01*
X139514188Y-58603084D01*
X139514188Y-59711138D01*
X140068214Y-59711138D01*
X140368045Y-59705825D01*
X140535208Y-59682159D01*
X140607371Y-59628550D01*
X140622241Y-59540668D01*
X140672183Y-59406992D01*
X140835329Y-59370198D01*
X141002424Y-59410152D01*
X141048416Y-59540668D01*
X141108686Y-59683122D01*
X141218886Y-59711138D01*
X141311141Y-59693871D01*
X141362576Y-59616957D01*
X141384780Y-59442728D01*
X141389218Y-59165680D01*
X142193452Y-59165680D01*
X142256524Y-59292303D01*
X142390865Y-59354818D01*
X142551199Y-59439249D01*
X142582644Y-59546596D01*
X142645768Y-59684804D01*
X142753114Y-59711138D01*
X142895567Y-59650868D01*
X142923584Y-59540668D01*
X142973525Y-59406992D01*
X143136671Y-59370198D01*
X143292915Y-59391907D01*
X143339664Y-59434125D01*
X143346251Y-59605599D01*
X143457457Y-59689680D01*
X143690698Y-59711138D01*
X143913753Y-59696843D01*
X144012334Y-59639063D01*
X144031637Y-59540668D01*
X143970708Y-59397481D01*
X143867096Y-59370198D01*
X143719327Y-59298331D01*
X143675317Y-59178420D01*
X143578255Y-59006105D01*
X143456302Y-58959404D01*
X143295968Y-58874973D01*
X143264523Y-58767626D01*
X143201399Y-58629418D01*
X143094053Y-58603084D01*
X142987523Y-58628180D01*
X142937148Y-58732388D01*
X142923649Y-58959087D01*
X142923584Y-58986641D01*
X142911959Y-59227171D01*
X142864877Y-59340785D01*
X142764024Y-59370171D01*
X142759042Y-59370198D01*
X142611273Y-59298331D01*
X142567263Y-59178420D01*
X142482589Y-59018067D01*
X142369557Y-58986641D01*
X142229880Y-59042198D01*
X142193452Y-59165680D01*
X141389218Y-59165680D01*
X141389355Y-59157111D01*
X141384042Y-58857281D01*
X141360376Y-58690118D01*
X141306768Y-58617955D01*
X141218886Y-58603084D01*
X141076432Y-58663354D01*
X141048416Y-58773554D01*
X141000097Y-58905836D01*
X140830993Y-58944022D01*
X140829079Y-58944024D01*
X140671484Y-58895195D01*
X140633420Y-58786362D01*
X140709956Y-58674007D01*
X140857508Y-58618465D01*
X141016905Y-58540444D01*
X141049901Y-58432615D01*
X141389355Y-58432615D01*
X141439297Y-58566291D01*
X141602443Y-58603084D01*
X141769538Y-58563131D01*
X141815530Y-58432615D01*
X141765588Y-58298938D01*
X141602443Y-58262145D01*
X141435348Y-58302098D01*
X141389355Y-58432615D01*
X141049901Y-58432615D01*
X141056075Y-58412439D01*
X140979037Y-58299010D01*
X140835329Y-58262145D01*
X140668233Y-58302098D01*
X140622241Y-58432615D01*
X140561971Y-58575068D01*
X140451771Y-58603084D01*
X140359516Y-58585817D01*
X140308081Y-58508903D01*
X140285877Y-58334675D01*
X140281302Y-58049057D01*
X140275989Y-57749227D01*
X140252323Y-57582064D01*
X140198714Y-57509901D01*
X140110832Y-57495031D01*
X139968378Y-57555301D01*
X139940362Y-57665500D01*
X139890420Y-57799176D01*
X139727275Y-57835970D01*
X139595783Y-57820073D01*
X139533484Y-57741930D01*
X139515001Y-57555867D01*
X139514188Y-57452413D01*
X139502731Y-57212189D01*
X139455927Y-57098672D01*
X139355126Y-57068916D01*
X139347612Y-57068856D01*
X139257532Y-57088629D01*
X139203426Y-57172314D01*
X139173108Y-57356463D01*
X139155834Y-57644192D01*
X139136840Y-57951815D01*
X139105405Y-58125733D01*
X139049026Y-58202708D01*
X138960161Y-58219527D01*
X138847241Y-58187818D01*
X138788343Y-58064170D01*
X138763710Y-57861951D01*
X138738550Y-57636246D01*
X138672693Y-57529235D01*
X138514704Y-57489482D01*
X138380153Y-57478394D01*
X138148127Y-57446419D01*
X138043428Y-57379863D01*
X138022577Y-57281943D01*
X138092215Y-57129518D01*
X138214355Y-57084237D01*
X138374689Y-56999805D01*
X138406134Y-56892458D01*
X138469258Y-56754251D01*
X138576604Y-56727917D01*
X138719057Y-56788187D01*
X138747073Y-56898386D01*
X138797015Y-57032062D01*
X138960161Y-57068856D01*
X139127256Y-57028903D01*
X139173248Y-56898386D01*
X140281302Y-56898386D01*
X140341572Y-57040840D01*
X140451771Y-57068856D01*
X140594649Y-57129337D01*
X140631302Y-57260635D01*
X140650053Y-57552694D01*
X140682420Y-57715721D01*
X140745065Y-57791122D01*
X140854654Y-57820307D01*
X140856637Y-57820590D01*
X140974140Y-57820787D01*
X141030455Y-57749509D01*
X141047595Y-57565175D01*
X141048416Y-57458341D01*
X141048416Y-57068856D01*
X141431973Y-57068856D01*
X141668658Y-57077688D01*
X141780797Y-57121101D01*
X141814065Y-57224469D01*
X141815530Y-57281943D01*
X141855483Y-57449038D01*
X141986000Y-57495031D01*
X142128453Y-57555301D01*
X142156469Y-57665500D01*
X142204871Y-57797854D01*
X142374148Y-57835969D01*
X142375485Y-57835970D01*
X142535126Y-57863796D01*
X142572632Y-57976122D01*
X142567263Y-58027749D01*
X142470201Y-58200064D01*
X142348248Y-58246764D01*
X142187915Y-58331195D01*
X142156469Y-58438543D01*
X142211832Y-58573896D01*
X142340084Y-58604295D01*
X142484475Y-58535479D01*
X142580489Y-58395664D01*
X142670383Y-58249966D01*
X142824219Y-58213068D01*
X142922801Y-58221586D01*
X143122798Y-58219828D01*
X143231116Y-58123346D01*
X143265895Y-58045449D01*
X143377128Y-57892165D01*
X143522438Y-57833013D01*
X143645505Y-57873926D01*
X143690698Y-58000696D01*
X143761844Y-58159690D01*
X143851965Y-58216606D01*
X144006948Y-58335745D01*
X144057072Y-58435437D01*
X144170640Y-58576886D01*
X144279362Y-58603084D01*
X144389921Y-58625539D01*
X144442599Y-58722174D01*
X144457566Y-58936894D01*
X144457812Y-58991542D01*
X144457812Y-59380000D01*
X144820060Y-59353790D01*
X145053873Y-59322169D01*
X145160228Y-59256965D01*
X145182308Y-59157111D01*
X145169725Y-59129570D01*
X145574468Y-59129570D01*
X145598255Y-59246428D01*
X145687812Y-59322777D01*
X145899549Y-59361865D01*
X146159835Y-59370198D01*
X146444175Y-59365755D01*
X146598011Y-59341367D01*
X146661275Y-59280452D01*
X146673900Y-59166423D01*
X146673919Y-59156692D01*
X146663806Y-59038826D01*
X146606824Y-58976249D01*
X146463011Y-58953242D01*
X146192402Y-58954084D01*
X146160628Y-58954789D01*
X145825676Y-58976638D01*
X145637689Y-59031061D01*
X145574468Y-59129570D01*
X145169725Y-59129570D01*
X145112670Y-59004685D01*
X144990530Y-58959404D01*
X144830197Y-58874973D01*
X144798751Y-58767626D01*
X144735627Y-58629418D01*
X144628282Y-58603084D01*
X145224926Y-58603084D01*
X146332980Y-58603084D01*
X146332980Y-57495031D01*
X145224926Y-57495031D01*
X145224926Y-58603084D01*
X144628282Y-58603084D01*
X144485828Y-58542814D01*
X144457812Y-58432615D01*
X144515773Y-58281025D01*
X144694155Y-58246840D01*
X144734825Y-58252051D01*
X144782727Y-58187253D01*
X144798751Y-58049057D01*
X144744063Y-57881280D01*
X144622902Y-57826637D01*
X144499627Y-57888978D01*
X144442431Y-58027749D01*
X144357757Y-58188101D01*
X144244724Y-58219527D01*
X144092299Y-58149889D01*
X144047018Y-58027749D01*
X143962587Y-57867416D01*
X143855239Y-57835970D01*
X143716232Y-57772111D01*
X143690698Y-57671429D01*
X143618831Y-57523660D01*
X143498919Y-57479650D01*
X143338567Y-57394976D01*
X143307141Y-57281943D01*
X143325764Y-57189980D01*
X143406144Y-57134928D01*
X143585043Y-57104283D01*
X143882476Y-57086270D01*
X144187014Y-57075831D01*
X144359092Y-57086499D01*
X144436505Y-57130873D01*
X144457049Y-57221552D01*
X144457812Y-57278049D01*
X144496249Y-57447089D01*
X144628282Y-57495031D01*
X144761958Y-57445089D01*
X144798751Y-57281943D01*
X144758798Y-57114848D01*
X144628282Y-57068856D01*
X144485095Y-57007927D01*
X144457812Y-56904314D01*
X144454929Y-56898386D01*
X145224926Y-56898386D01*
X145285196Y-57040840D01*
X145395396Y-57068856D01*
X145537849Y-57008586D01*
X145565865Y-56898386D01*
X145505595Y-56755933D01*
X145395396Y-56727917D01*
X145252942Y-56788187D01*
X145224926Y-56898386D01*
X144454929Y-56898386D01*
X144385945Y-56756545D01*
X144266033Y-56712536D01*
X144093718Y-56615474D01*
X144047018Y-56493521D01*
X144006477Y-56372892D01*
X143898122Y-56316649D01*
X143673474Y-56301830D01*
X143642152Y-56301742D01*
X143264523Y-56301742D01*
X143264523Y-55975008D01*
X143252359Y-55751560D01*
X143222249Y-55610773D01*
X143213573Y-55597324D01*
X143094895Y-55571655D01*
X142975928Y-55655963D01*
X142923584Y-55799452D01*
X142868734Y-55933169D01*
X142747233Y-55963561D01*
X142623651Y-55896117D01*
X142565644Y-55769024D01*
X142547664Y-55460640D01*
X142619408Y-55280375D01*
X142797394Y-55202395D01*
X142933520Y-55193688D01*
X143152584Y-55178460D01*
X143247614Y-55117356D01*
X143264523Y-55023219D01*
X143314465Y-54889543D01*
X143477610Y-54852749D01*
X143644705Y-54892702D01*
X143690698Y-55023219D01*
X143750968Y-55165672D01*
X143861167Y-55193688D01*
X144004045Y-55254169D01*
X144040698Y-55385467D01*
X144057767Y-55675668D01*
X144093603Y-55836890D01*
X144177362Y-55910306D01*
X144338202Y-55937092D01*
X144436503Y-55944395D01*
X144671326Y-55976634D01*
X144777848Y-56042813D01*
X144798751Y-56136173D01*
X144851344Y-56266752D01*
X145011839Y-56301742D01*
X145178934Y-56261789D01*
X145224926Y-56131272D01*
X145176524Y-55998919D01*
X145007247Y-55960803D01*
X145005910Y-55960802D01*
X144846270Y-55932977D01*
X144808763Y-55820651D01*
X144814132Y-55769024D01*
X144861304Y-55642858D01*
X144987836Y-55578322D01*
X145203617Y-55551036D01*
X145438440Y-55518797D01*
X145544962Y-55452618D01*
X145565865Y-55359257D01*
X145539134Y-55255496D01*
X145430395Y-55206474D01*
X145196825Y-55193707D01*
X145182308Y-55193688D01*
X144942616Y-55182535D01*
X144829272Y-55136220D01*
X144798898Y-55035465D01*
X144798751Y-55023219D01*
X144738481Y-54880765D01*
X144628282Y-54852749D01*
X144485828Y-54913019D01*
X144457812Y-55023219D01*
X144407870Y-55156895D01*
X144244724Y-55193688D01*
X144077629Y-55153735D01*
X144031637Y-55023219D01*
X143971367Y-54880765D01*
X143861167Y-54852749D01*
X143727491Y-54802807D01*
X143690698Y-54639661D01*
X143730651Y-54472566D01*
X143861167Y-54426574D01*
X144003621Y-54366304D01*
X144031637Y-54256104D01*
X144081579Y-54122428D01*
X144244724Y-54085635D01*
X144411819Y-54125588D01*
X144457812Y-54256104D01*
X144482908Y-54362635D01*
X144587116Y-54413010D01*
X144813815Y-54426509D01*
X144841369Y-54426574D01*
X145081061Y-54415420D01*
X145194405Y-54369106D01*
X145224779Y-54268351D01*
X145224926Y-54256104D01*
X145285196Y-54113651D01*
X145395396Y-54085635D01*
X145527977Y-54036970D01*
X145565865Y-53867647D01*
X145551691Y-53731945D01*
X145477921Y-53674231D01*
X145297686Y-53669692D01*
X145203617Y-53675868D01*
X144967121Y-53708467D01*
X144852511Y-53778894D01*
X144814132Y-53893856D01*
X144729701Y-54054189D01*
X144622353Y-54085635D01*
X144519169Y-54058537D01*
X144470430Y-53948786D01*
X144457824Y-53713692D01*
X144457812Y-53702078D01*
X144457812Y-53318521D01*
X144074255Y-53318521D01*
X143837570Y-53309689D01*
X143725431Y-53266276D01*
X143692163Y-53162908D01*
X143690698Y-53105433D01*
X143730651Y-52938338D01*
X143861167Y-52892346D01*
X144003621Y-52832076D01*
X144031637Y-52721876D01*
X144018155Y-52638989D01*
X143955486Y-52588359D01*
X143810298Y-52562145D01*
X143549259Y-52552503D01*
X143307141Y-52551406D01*
X142954330Y-52554799D01*
X142738771Y-52569996D01*
X142627296Y-52604532D01*
X142586740Y-52665938D01*
X142582644Y-52715948D01*
X142510777Y-52863717D01*
X142390865Y-52907727D01*
X142230513Y-52992401D01*
X142199087Y-53105433D01*
X142268725Y-53257859D01*
X142390865Y-53303140D01*
X142551199Y-53387571D01*
X142582644Y-53494919D01*
X142613420Y-53603010D01*
X142734900Y-53650666D01*
X142923584Y-53659460D01*
X143146639Y-53645165D01*
X143245220Y-53587385D01*
X143264523Y-53488990D01*
X143314465Y-53355314D01*
X143477610Y-53318521D01*
X143609102Y-53334418D01*
X143671402Y-53412561D01*
X143689884Y-53598624D01*
X143690698Y-53702078D01*
X143690698Y-54085635D01*
X142923584Y-54085635D01*
X142559119Y-54088483D01*
X142332647Y-54101835D01*
X142211722Y-54132901D01*
X142163898Y-54188890D01*
X142156469Y-54256104D01*
X142096199Y-54398558D01*
X141986000Y-54426574D01*
X141850723Y-54478413D01*
X141815530Y-54632559D01*
X141832534Y-54759814D01*
X141913864Y-54820106D01*
X142104999Y-54837858D01*
X142199087Y-54838543D01*
X142436046Y-54829411D01*
X142548314Y-54785734D01*
X142581368Y-54683087D01*
X142582644Y-54632559D01*
X142625545Y-54469099D01*
X142753114Y-54426574D01*
X142894256Y-54485424D01*
X142923584Y-54605024D01*
X142850506Y-54775185D01*
X142753114Y-54828052D01*
X142614408Y-54929322D01*
X142582644Y-55027231D01*
X142508515Y-55165981D01*
X142390865Y-55209069D01*
X142264700Y-55256241D01*
X142200164Y-55382773D01*
X142172877Y-55598554D01*
X142140638Y-55833377D01*
X142074459Y-55939899D01*
X141981099Y-55960802D01*
X141841368Y-56024135D01*
X141815530Y-56125344D01*
X141743663Y-56273113D01*
X141623751Y-56317123D01*
X141451436Y-56414185D01*
X141404736Y-56536138D01*
X141375212Y-56640222D01*
X141297106Y-56697890D01*
X141129961Y-56722626D01*
X140833323Y-56727916D01*
X140829400Y-56727917D01*
X140531515Y-56733343D01*
X140366114Y-56757468D01*
X140295352Y-56812064D01*
X140281302Y-56898386D01*
X139173248Y-56898386D01*
X139233518Y-56755933D01*
X139343718Y-56727917D01*
X139487293Y-56666776D01*
X139514188Y-56568101D01*
X139572692Y-56445592D01*
X139757541Y-56362770D01*
X140082740Y-56316027D01*
X140547661Y-56301742D01*
X140829664Y-56295257D01*
X140980741Y-56266874D01*
X141040219Y-56203206D01*
X141048416Y-56131272D01*
X141023320Y-56024742D01*
X140919112Y-55974367D01*
X140692413Y-55960867D01*
X140664859Y-55960802D01*
X140281302Y-55960802D01*
X140281302Y-55577245D01*
X140291493Y-55358230D01*
X140622241Y-55358230D01*
X140694108Y-55505999D01*
X140814020Y-55550008D01*
X140986335Y-55647070D01*
X141033035Y-55769024D01*
X141116481Y-55928801D01*
X141218886Y-55960802D01*
X141361464Y-55887345D01*
X141404736Y-55769024D01*
X141501798Y-55596709D01*
X141623751Y-55550008D01*
X141784085Y-55465577D01*
X141815530Y-55358230D01*
X141760699Y-55222114D01*
X141633273Y-55192028D01*
X141488856Y-55261638D01*
X141389355Y-55406776D01*
X141299613Y-55564869D01*
X141218886Y-55619863D01*
X141125678Y-55549269D01*
X141048416Y-55406776D01*
X140937008Y-55251723D01*
X140791858Y-55190588D01*
X140668567Y-55229704D01*
X140622241Y-55358230D01*
X140291493Y-55358230D01*
X140292455Y-55337553D01*
X140338770Y-55224209D01*
X140439525Y-55193835D01*
X140451771Y-55193688D01*
X140595301Y-55132560D01*
X140622241Y-55033160D01*
X140550250Y-54883175D01*
X140451771Y-54828052D01*
X140307475Y-54713819D01*
X140281302Y-54605024D01*
X140258524Y-54493925D01*
X140160796Y-54441340D01*
X139944020Y-54426753D01*
X139897745Y-54426574D01*
X139657215Y-54414950D01*
X139543601Y-54367868D01*
X139514215Y-54267015D01*
X139514188Y-54262033D01*
X139586055Y-54114264D01*
X139705966Y-54070254D01*
X139758437Y-54043984D01*
X140281302Y-54043984D01*
X140292514Y-54283307D01*
X140339047Y-54396324D01*
X140440244Y-54426445D01*
X140451771Y-54426574D01*
X140584125Y-54474976D01*
X140622240Y-54644253D01*
X140622241Y-54645590D01*
X140650067Y-54805230D01*
X140762393Y-54842737D01*
X140814020Y-54837368D01*
X140917661Y-54808095D01*
X140975322Y-54730682D01*
X141000275Y-54564897D01*
X141005794Y-54270511D01*
X141005798Y-54256104D01*
X141005798Y-53872716D01*
X141402844Y-53872716D01*
X141460456Y-54012586D01*
X141594443Y-54072757D01*
X141622515Y-54069647D01*
X141764765Y-53971357D01*
X141799542Y-53892620D01*
X141760549Y-53749134D01*
X141629066Y-53675852D01*
X141479593Y-53708712D01*
X141457543Y-53727648D01*
X141402844Y-53872716D01*
X141005798Y-53872716D01*
X141005798Y-53702078D01*
X140643550Y-53681735D01*
X140281302Y-53661393D01*
X140281302Y-54043984D01*
X139758437Y-54043984D01*
X139861249Y-53992511D01*
X139904474Y-53829930D01*
X139910915Y-53661393D01*
X139913845Y-53584730D01*
X139945579Y-53433735D01*
X140033520Y-53354180D01*
X140211513Y-53323305D01*
X140513402Y-53318345D01*
X140664859Y-53318521D01*
X141389355Y-53318521D01*
X141389355Y-52934964D01*
X141398187Y-52698278D01*
X141441600Y-52586139D01*
X141544968Y-52552871D01*
X141602443Y-52551406D01*
X141771623Y-52509480D01*
X141815530Y-52390878D01*
X141887521Y-52240893D01*
X141986000Y-52185770D01*
X142119170Y-52091910D01*
X142159388Y-51949120D01*
X142155683Y-51940556D01*
X143349758Y-51940556D01*
X143366634Y-52085810D01*
X143447758Y-52156410D01*
X143638872Y-52181729D01*
X143730550Y-52185060D01*
X143933394Y-52175608D01*
X144017093Y-52109885D01*
X144031637Y-51988943D01*
X144011593Y-51856856D01*
X143919749Y-51798166D01*
X143708532Y-51784321D01*
X143690698Y-51784292D01*
X143465107Y-51800056D01*
X143366155Y-51860173D01*
X143349758Y-51940556D01*
X142155683Y-51940556D01*
X142105658Y-51824917D01*
X141991928Y-51784292D01*
X141844159Y-51856159D01*
X141800149Y-51976071D01*
X141752977Y-52102236D01*
X141626445Y-52166772D01*
X141410664Y-52194059D01*
X141175841Y-52226298D01*
X141069319Y-52292477D01*
X141048416Y-52385837D01*
X140986906Y-52523679D01*
X140869966Y-52551406D01*
X140699805Y-52624484D01*
X140646938Y-52721876D01*
X140542723Y-52861157D01*
X140441830Y-52892346D01*
X140336032Y-52859909D01*
X140289489Y-52733964D01*
X140281302Y-52551406D01*
X140296154Y-52327435D01*
X140354782Y-52228690D01*
X140445843Y-52210467D01*
X140593612Y-52138600D01*
X140637622Y-52018688D01*
X140684794Y-51892523D01*
X140811326Y-51827987D01*
X141027107Y-51800700D01*
X141261930Y-51768461D01*
X141368452Y-51702282D01*
X141389355Y-51608922D01*
X141326214Y-51469429D01*
X141222780Y-51443353D01*
X141132700Y-51423580D01*
X141078593Y-51339895D01*
X141048276Y-51155746D01*
X141039956Y-51017178D01*
X141397879Y-51017178D01*
X142156469Y-51017178D01*
X142156469Y-51400735D01*
X142167066Y-51639529D01*
X142212535Y-51752555D01*
X142313390Y-51783908D01*
X142334919Y-51784292D01*
X142505080Y-51711215D01*
X142557947Y-51613823D01*
X142629265Y-51497044D01*
X142792893Y-51448751D01*
X142933525Y-51443353D01*
X143149092Y-51430887D01*
X143243266Y-51372691D01*
X143264505Y-51237572D01*
X143264523Y-51230266D01*
X143224570Y-51063170D01*
X143094053Y-51017178D01*
X142951600Y-50956908D01*
X142923584Y-50846708D01*
X142984513Y-50703522D01*
X143088125Y-50676239D01*
X143235894Y-50604372D01*
X143279904Y-50484460D01*
X143376966Y-50312145D01*
X143498919Y-50265445D01*
X143642167Y-50276877D01*
X143688978Y-50398508D01*
X143690698Y-50457223D01*
X143728371Y-50627268D01*
X143860127Y-50676237D01*
X143861167Y-50676239D01*
X144003621Y-50736509D01*
X144031637Y-50846708D01*
X144081579Y-50980384D01*
X144244724Y-51017178D01*
X144376216Y-51033076D01*
X144438516Y-51111219D01*
X144456998Y-51297282D01*
X144457812Y-51400735D01*
X144457812Y-51784292D01*
X145011839Y-51784292D01*
X145311669Y-51778979D01*
X145478832Y-51755313D01*
X145550995Y-51701705D01*
X145565865Y-51613823D01*
X145505595Y-51471369D01*
X145395396Y-51443353D01*
X145261720Y-51393411D01*
X145224926Y-51230266D01*
X145209028Y-51098774D01*
X145130885Y-51036474D01*
X144944822Y-51017992D01*
X144841369Y-51017178D01*
X144601676Y-51006024D01*
X144488332Y-50959710D01*
X144457958Y-50858955D01*
X144457812Y-50846708D01*
X144518082Y-50704255D01*
X144628282Y-50676239D01*
X144761958Y-50626297D01*
X144798751Y-50463151D01*
X144758798Y-50296056D01*
X144628282Y-50250064D01*
X144494606Y-50300006D01*
X144457812Y-50463151D01*
X144422608Y-50625355D01*
X144283993Y-50675339D01*
X144244724Y-50676239D01*
X144113233Y-50660341D01*
X144050933Y-50582198D01*
X144032451Y-50396135D01*
X144031637Y-50292682D01*
X144020483Y-50052989D01*
X143974169Y-49939645D01*
X143873414Y-49909271D01*
X143861167Y-49909125D01*
X143754637Y-49884029D01*
X143704262Y-49779821D01*
X143690763Y-49553122D01*
X143690698Y-49525568D01*
X143690698Y-49142010D01*
X143313069Y-49142010D01*
X143073852Y-49153898D01*
X142955866Y-49204870D01*
X142910634Y-49317888D01*
X142908203Y-49333789D01*
X142862479Y-49460188D01*
X142740136Y-49517036D01*
X142540026Y-49530721D01*
X142312965Y-49550250D01*
X142205388Y-49616907D01*
X142171850Y-49722500D01*
X142184448Y-49862156D01*
X142309002Y-49907638D01*
X142363629Y-49909125D01*
X142535765Y-49948719D01*
X142582644Y-50069653D01*
X142655978Y-50220157D01*
X142760527Y-50276699D01*
X142888998Y-50373420D01*
X142900630Y-50517015D01*
X142800982Y-50635704D01*
X142730826Y-50660201D01*
X142618319Y-50636674D01*
X142582852Y-50484346D01*
X142582644Y-50463473D01*
X142556438Y-50300444D01*
X142449538Y-50259727D01*
X142390865Y-50265445D01*
X142218550Y-50362507D01*
X142171850Y-50484460D01*
X142087419Y-50644793D01*
X141980071Y-50676239D01*
X141890834Y-50657353D01*
X141841074Y-50575775D01*
X141819690Y-50394126D01*
X141815530Y-50122212D01*
X141811665Y-49824310D01*
X141790400Y-49658373D01*
X141737231Y-49585918D01*
X141637654Y-49568465D01*
X141606704Y-49568185D01*
X141505572Y-49575327D01*
X141443848Y-49619249D01*
X141411809Y-49733692D01*
X141399728Y-49952396D01*
X141397879Y-50292682D01*
X141397879Y-51017178D01*
X141039956Y-51017178D01*
X141031001Y-50868017D01*
X141012008Y-50560393D01*
X140980573Y-50386476D01*
X140924194Y-50309501D01*
X140835329Y-50292682D01*
X140682903Y-50362320D01*
X140637622Y-50484460D01*
X140553191Y-50644793D01*
X140445843Y-50676239D01*
X140342659Y-50703336D01*
X140293920Y-50813087D01*
X140281313Y-51048182D01*
X140281302Y-51059796D01*
X140292455Y-51299488D01*
X140338770Y-51412832D01*
X140439525Y-51443206D01*
X140451771Y-51443353D01*
X140594225Y-51503623D01*
X140622241Y-51613823D01*
X140561971Y-51756276D01*
X140451771Y-51784292D01*
X140309318Y-51724022D01*
X140281302Y-51613823D01*
X140220457Y-51470745D01*
X140115733Y-51443353D01*
X140005991Y-51476717D01*
X139948048Y-51604647D01*
X139923954Y-51805601D01*
X139892332Y-52039414D01*
X139827128Y-52145769D01*
X139727275Y-52167849D01*
X139614985Y-52136602D01*
X139556093Y-52014395D01*
X139530595Y-51805601D01*
X139498356Y-51570778D01*
X139432177Y-51464256D01*
X139338817Y-51443353D01*
X139249058Y-51461943D01*
X139199009Y-51542671D01*
X139177482Y-51722970D01*
X139173248Y-51997380D01*
X139173248Y-52551406D01*
X139556805Y-52551406D01*
X139797335Y-52563031D01*
X139910948Y-52610113D01*
X139940335Y-52710966D01*
X139940362Y-52715948D01*
X139868013Y-52864398D01*
X139748584Y-52909346D01*
X139443243Y-52918360D01*
X139242214Y-52846994D01*
X139173248Y-52711940D01*
X139117598Y-52584485D01*
X138960161Y-52551406D01*
X138793066Y-52591360D01*
X138747073Y-52721876D01*
X138684851Y-52868332D01*
X138597912Y-52899449D01*
X138249920Y-52929963D01*
X138046588Y-52979902D01*
X138012089Y-53002275D01*
X137984558Y-53124116D01*
X138066968Y-53250935D01*
X138213854Y-53317645D01*
X138232989Y-53318521D01*
X138377268Y-53377449D01*
X138406134Y-53488990D01*
X138466404Y-53631444D01*
X138576604Y-53659460D01*
X138718112Y-53600198D01*
X138747073Y-53483062D01*
X138787980Y-53350619D01*
X138937133Y-53333781D01*
X138937981Y-53333901D01*
X139106146Y-53406114D01*
X139163817Y-53521819D01*
X139106063Y-53624535D01*
X138966410Y-53659460D01*
X138831175Y-53674476D01*
X138767104Y-53750069D01*
X138747996Y-53932055D01*
X138747073Y-54043017D01*
X138755905Y-54279702D01*
X138799318Y-54391841D01*
X138902686Y-54425109D01*
X138960161Y-54426574D01*
X139120839Y-54460496D01*
X139171877Y-54595794D01*
X139173248Y-54645761D01*
X139203800Y-54808269D01*
X139323389Y-54851446D01*
X139365026Y-54849414D01*
X139682036Y-54838434D01*
X139862278Y-54875374D01*
X139934909Y-54969044D01*
X139940362Y-55023219D01*
X139890420Y-55156895D01*
X139727275Y-55193688D01*
X139561506Y-55232372D01*
X139514193Y-55369891D01*
X139514188Y-55372138D01*
X139441110Y-55542299D01*
X139343718Y-55595166D01*
X139226939Y-55666484D01*
X139178646Y-55830112D01*
X139173248Y-55970743D01*
X139158524Y-56172007D01*
X139089719Y-56280929D01*
X138929883Y-56319285D01*
X138642066Y-56308855D01*
X138604526Y-56305944D01*
X138448786Y-56345585D01*
X138391439Y-56488287D01*
X138310321Y-56647050D01*
X138172480Y-56690229D01*
X138044235Y-56616950D01*
X137995340Y-56493521D01*
X138006773Y-56350272D01*
X138128403Y-56303462D01*
X138187118Y-56301742D01*
X138357163Y-56264069D01*
X138406133Y-56132313D01*
X138406134Y-56131272D01*
X138357733Y-55998919D01*
X138188455Y-55960803D01*
X138187118Y-55960802D01*
X138027478Y-55932977D01*
X137989972Y-55820651D01*
X137995340Y-55769024D01*
X138042512Y-55642858D01*
X138169044Y-55578322D01*
X138384825Y-55551036D01*
X138747073Y-55524826D01*
X138747073Y-54426574D01*
X138363516Y-54426574D01*
X138123824Y-54415420D01*
X138010480Y-54369106D01*
X137980106Y-54268351D01*
X137979959Y-54256104D01*
X137919689Y-54113651D01*
X137809490Y-54085635D01*
X137703612Y-54110307D01*
X137653124Y-54213103D01*
X137639142Y-54437195D01*
X137639020Y-54475292D01*
X137647698Y-54713808D01*
X137688387Y-54825033D01*
X137783071Y-54851850D01*
X137830798Y-54849414D01*
X138149345Y-54838749D01*
X138330314Y-54876484D01*
X138401787Y-54970813D01*
X138406134Y-55017290D01*
X138334267Y-55165059D01*
X138214355Y-55209069D01*
X138042716Y-55305551D01*
X137994687Y-55433067D01*
X137923073Y-55586033D01*
X137824217Y-55602801D01*
X137719245Y-55519239D01*
X137663631Y-55301884D01*
X137655428Y-55214262D01*
X137629218Y-54852749D01*
X137250562Y-54852749D01*
X137015793Y-54843648D01*
X136905298Y-54799115D01*
X136873149Y-54693305D01*
X136871906Y-54639661D01*
X136830836Y-54471389D01*
X136707364Y-54426574D01*
X136558914Y-54354225D01*
X136513966Y-54234796D01*
X136504952Y-53929456D01*
X136576318Y-53728427D01*
X136711372Y-53659460D01*
X136812323Y-53688075D01*
X136859958Y-53801999D01*
X136871906Y-54043017D01*
X136883445Y-54283390D01*
X136930384Y-54396955D01*
X137031208Y-54426532D01*
X137037475Y-54426574D01*
X137147217Y-54393210D01*
X137205160Y-54265280D01*
X137229253Y-54064326D01*
X137251582Y-53900678D01*
X137994446Y-53900678D01*
X138001070Y-54046818D01*
X138111846Y-54077132D01*
X138164916Y-54071148D01*
X138340823Y-53977424D01*
X138391647Y-53844416D01*
X138385023Y-53698277D01*
X138274248Y-53667963D01*
X138221178Y-53673947D01*
X138045270Y-53767670D01*
X137994446Y-53900678D01*
X137251582Y-53900678D01*
X137261425Y-53828543D01*
X137331251Y-53714136D01*
X137451823Y-53674240D01*
X137575433Y-53636311D01*
X137625574Y-53536500D01*
X137624650Y-53324405D01*
X137622293Y-53290683D01*
X137589561Y-53057308D01*
X137517501Y-52944889D01*
X137399641Y-52907074D01*
X137254449Y-52834106D01*
X137234826Y-52713690D01*
X137332494Y-52603947D01*
X137448112Y-52566787D01*
X137607798Y-52482018D01*
X137639020Y-52375008D01*
X137696263Y-52243625D01*
X137822915Y-52212557D01*
X137951362Y-52280709D01*
X138004656Y-52380937D01*
X138072278Y-52494892D01*
X138227399Y-52544123D01*
X138398154Y-52551406D01*
X138625114Y-52537357D01*
X138726671Y-52481369D01*
X138747073Y-52385837D01*
X138713710Y-52276095D01*
X138585780Y-52218153D01*
X138384825Y-52194059D01*
X138148330Y-52161460D01*
X138033719Y-52091033D01*
X137995340Y-51976071D01*
X137949901Y-51849507D01*
X137828426Y-51794637D01*
X137633092Y-51784292D01*
X137418764Y-51803636D01*
X137296955Y-51851825D01*
X137287426Y-51869527D01*
X137269041Y-52032716D01*
X137266117Y-52061306D01*
X137197842Y-52162578D01*
X137067789Y-52166020D01*
X136941507Y-52087149D01*
X136886686Y-51971489D01*
X136848756Y-51847880D01*
X136748946Y-51797738D01*
X136536851Y-51798662D01*
X136503129Y-51801019D01*
X136271815Y-51833141D01*
X136167778Y-51900248D01*
X136147409Y-51997380D01*
X136217047Y-52149805D01*
X136339188Y-52195086D01*
X136499521Y-52279518D01*
X136530966Y-52386865D01*
X136594091Y-52525072D01*
X136701436Y-52551406D01*
X136836897Y-52608577D01*
X136870663Y-52735140D01*
X136802734Y-52863677D01*
X136701436Y-52917043D01*
X136557139Y-53031276D01*
X136530966Y-53140071D01*
X136484774Y-53278894D01*
X136320562Y-53318516D01*
X136317879Y-53318521D01*
X136186387Y-53302623D01*
X136124088Y-53224480D01*
X136105605Y-53038417D01*
X136104792Y-52934964D01*
X136093638Y-52695271D01*
X136047323Y-52581927D01*
X135946568Y-52551553D01*
X135934322Y-52551406D01*
X135853330Y-52538589D01*
X135803002Y-52478505D01*
X135776130Y-52338709D01*
X135765503Y-52086756D01*
X135763852Y-51784292D01*
X135763852Y-51017178D01*
X137639020Y-51017178D01*
X137639020Y-51230266D01*
X137678973Y-51397361D01*
X137809490Y-51443353D01*
X137951943Y-51503623D01*
X137979959Y-51613823D01*
X138029901Y-51747499D01*
X138193047Y-51784292D01*
X138360824Y-51729604D01*
X138415467Y-51608443D01*
X138353126Y-51485168D01*
X138214355Y-51427972D01*
X138054003Y-51343298D01*
X138022577Y-51230266D01*
X138023778Y-51224337D01*
X139514188Y-51224337D01*
X139546854Y-51389154D01*
X139679032Y-51441736D01*
X139733203Y-51443353D01*
X139892844Y-51415527D01*
X139930350Y-51303201D01*
X139924982Y-51251574D01*
X139827919Y-51079259D01*
X139705966Y-51032559D01*
X139562718Y-51043992D01*
X139515907Y-51165622D01*
X139514188Y-51224337D01*
X138023778Y-51224337D01*
X138041200Y-51138302D01*
X138121580Y-51083250D01*
X138300479Y-51052605D01*
X138597912Y-51034593D01*
X138906048Y-51015370D01*
X139080266Y-50983509D01*
X139157117Y-50926826D01*
X139173248Y-50842814D01*
X139121224Y-50711604D01*
X138960161Y-50676239D01*
X138827913Y-50660008D01*
X138765758Y-50580661D01*
X138754528Y-50463151D01*
X139173248Y-50463151D01*
X139213201Y-50630246D01*
X139343718Y-50676239D01*
X139477394Y-50626297D01*
X139514188Y-50463151D01*
X139494278Y-50379882D01*
X139906282Y-50379882D01*
X139918642Y-50458660D01*
X139998055Y-50621111D01*
X140119572Y-50687029D01*
X140228171Y-50652328D01*
X140268832Y-50512918D01*
X140265921Y-50484460D01*
X140170323Y-50312625D01*
X140057867Y-50266881D01*
X139930000Y-50274209D01*
X139906282Y-50379882D01*
X139494278Y-50379882D01*
X139474234Y-50296056D01*
X139343718Y-50250064D01*
X139210042Y-50300006D01*
X139173248Y-50463151D01*
X138754528Y-50463151D01*
X138747750Y-50392220D01*
X138747073Y-50298610D01*
X138759022Y-50059280D01*
X138810089Y-49941222D01*
X138923104Y-49896020D01*
X138937981Y-49893744D01*
X139104109Y-49819735D01*
X139158071Y-49699073D01*
X139091589Y-49589879D01*
X138986452Y-49553457D01*
X138810868Y-49458290D01*
X138762454Y-49333789D01*
X138758442Y-49234363D01*
X138805018Y-49177010D01*
X138937140Y-49150199D01*
X139189763Y-49142395D01*
X139343718Y-49142010D01*
X139658738Y-49145196D01*
X139838264Y-49162443D01*
X139917251Y-49205283D01*
X139930656Y-49285251D01*
X139924982Y-49333789D01*
X139840307Y-49494142D01*
X139727275Y-49525568D01*
X139614985Y-49556815D01*
X139556093Y-49679022D01*
X139530595Y-49887816D01*
X139524016Y-50116241D01*
X139561649Y-50221640D01*
X139663314Y-50249699D01*
X139687736Y-50250064D01*
X139861478Y-50178714D01*
X139915665Y-50079594D01*
X139962016Y-49985654D01*
X140066242Y-49933922D01*
X140269471Y-49912486D01*
X140504330Y-49909125D01*
X141048416Y-49909125D01*
X141048416Y-49361026D01*
X141043258Y-49062823D01*
X141018794Y-48894535D01*
X140961540Y-48815708D01*
X140858010Y-48785886D01*
X140856637Y-48785690D01*
X140696285Y-48701016D01*
X140664859Y-48587984D01*
X140734497Y-48435558D01*
X140856637Y-48390277D01*
X141016970Y-48305846D01*
X141048416Y-48198498D01*
X141075153Y-48095828D01*
X141183729Y-48047000D01*
X141416688Y-48033992D01*
X141436874Y-48033957D01*
X141825331Y-48033957D01*
X141799122Y-48396205D01*
X141766986Y-48631929D01*
X141697209Y-48746319D01*
X141576151Y-48786343D01*
X141430959Y-48859311D01*
X141411336Y-48979727D01*
X141509004Y-49089470D01*
X141624622Y-49126630D01*
X141774276Y-49110183D01*
X141815529Y-48978252D01*
X141815530Y-48977469D01*
X141872800Y-48831040D01*
X141986000Y-48801071D01*
X142128453Y-48861341D01*
X142156469Y-48971541D01*
X142206411Y-49105217D01*
X142369557Y-49142010D01*
X142538419Y-49100384D01*
X142582644Y-48980123D01*
X142618582Y-48871627D01*
X142753442Y-48812829D01*
X142944892Y-48788345D01*
X143323239Y-48772735D01*
X143558266Y-48805054D01*
X143671767Y-48890829D01*
X143690698Y-48977469D01*
X143753822Y-49115676D01*
X143861167Y-49142010D01*
X144003621Y-49202281D01*
X144031637Y-49312480D01*
X144056733Y-49419010D01*
X144160941Y-49469385D01*
X144387640Y-49482885D01*
X144415194Y-49482950D01*
X144651879Y-49491782D01*
X144764018Y-49535195D01*
X144797286Y-49638563D01*
X144798751Y-49696037D01*
X144833955Y-49858240D01*
X144972570Y-49908225D01*
X145011839Y-49909125D01*
X145126385Y-49918839D01*
X145190186Y-49973659D01*
X145218055Y-50112097D01*
X145224803Y-50372666D01*
X145224926Y-50463151D01*
X145230239Y-50762982D01*
X145253905Y-50930145D01*
X145307513Y-51002308D01*
X145395396Y-51017178D01*
X145530407Y-51068700D01*
X145565865Y-51224337D01*
X145615825Y-51397387D01*
X145757644Y-51458733D01*
X145907585Y-51528398D01*
X145949422Y-51613823D01*
X145876868Y-51724088D01*
X145757644Y-51768912D01*
X145604011Y-51844698D01*
X145565865Y-52003308D01*
X145549053Y-52131263D01*
X145468273Y-52191886D01*
X145278012Y-52209760D01*
X145182308Y-52210467D01*
X144942616Y-52221621D01*
X144829272Y-52267935D01*
X144798898Y-52368690D01*
X144798751Y-52380937D01*
X144738481Y-52523390D01*
X144628282Y-52551406D01*
X144485828Y-52611677D01*
X144457812Y-52721876D01*
X144518741Y-52865063D01*
X144622353Y-52892346D01*
X144770122Y-52964213D01*
X144814132Y-53084125D01*
X144898806Y-53244477D01*
X145011839Y-53275903D01*
X145110246Y-53262865D01*
X145166994Y-53197735D01*
X145197031Y-53041489D01*
X145215300Y-52755102D01*
X145215865Y-52743185D01*
X145224265Y-52721876D01*
X145565865Y-52721876D01*
X145590961Y-52828406D01*
X145695169Y-52878781D01*
X145921868Y-52892281D01*
X145949422Y-52892346D01*
X146186108Y-52901178D01*
X146298247Y-52944591D01*
X146331515Y-53047959D01*
X146332980Y-53105433D01*
X146387668Y-53273211D01*
X146508829Y-53327853D01*
X146632104Y-53265512D01*
X146689300Y-53126742D01*
X146786362Y-52954427D01*
X146908315Y-52907727D01*
X147034879Y-52862288D01*
X147089749Y-52740812D01*
X147100094Y-52545478D01*
X147114934Y-52324799D01*
X147174662Y-52228330D01*
X147270563Y-52210467D01*
X147404239Y-52160525D01*
X147441033Y-51997380D01*
X147386344Y-51829602D01*
X147265184Y-51774960D01*
X147141909Y-51837300D01*
X147084713Y-51976071D01*
X147037541Y-52102236D01*
X146911009Y-52166772D01*
X146695228Y-52194059D01*
X146460405Y-52226298D01*
X146353883Y-52292477D01*
X146332980Y-52385837D01*
X146306249Y-52489598D01*
X146197509Y-52538621D01*
X145963940Y-52551388D01*
X145949422Y-52551406D01*
X145709730Y-52562560D01*
X145596386Y-52608875D01*
X145566012Y-52709630D01*
X145565865Y-52721876D01*
X145224265Y-52721876D01*
X145278439Y-52584448D01*
X145389467Y-52551406D01*
G37*
G36*
X138410574Y-48033957D02*
G01*
X138363516Y-50633621D01*
X135763852Y-50680679D01*
X135763852Y-50250064D01*
X136104792Y-50250064D01*
X137979959Y-50250064D01*
X137979959Y-48374896D01*
X136104792Y-48374896D01*
X136104792Y-50250064D01*
X135763852Y-50250064D01*
X135763852Y-48033957D01*
X138410574Y-48033957D01*
G37*
G36*
X137176808Y-53014862D02*
G01*
X137180428Y-53019734D01*
X137253696Y-53194881D01*
X137174780Y-53297236D01*
X137037345Y-53318521D01*
X136897789Y-53255172D01*
X136871906Y-53153081D01*
X136921789Y-52974291D01*
X137039428Y-52921300D01*
X137176808Y-53014862D01*
G37*
G36*
X137639020Y-49909125D02*
G01*
X136530966Y-49909125D01*
X136530966Y-48801071D01*
X137639020Y-48801071D01*
X137639020Y-49909125D01*
G37*
G36*
X138406134Y-57835970D02*
G01*
X138406134Y-60478252D01*
X135763852Y-60478252D01*
X135763852Y-60137312D01*
X136104792Y-60137312D01*
X137979959Y-60137312D01*
X137979959Y-58262145D01*
X136104792Y-58262145D01*
X136104792Y-60137312D01*
X135763852Y-60137312D01*
X135763852Y-57835970D01*
X138406134Y-57835970D01*
G37*
G36*
X147794159Y-51088279D02*
G01*
X147854330Y-51222266D01*
X147851220Y-51250338D01*
X147763252Y-51386301D01*
X147618812Y-51425860D01*
X147493205Y-51355959D01*
X147472075Y-51316071D01*
X147471093Y-51149517D01*
X147509221Y-51085366D01*
X147654289Y-51030667D01*
X147794159Y-51088279D01*
G37*
G36*
X148144208Y-54877845D02*
G01*
X148194583Y-54982053D01*
X148208082Y-55208752D01*
X148208147Y-55236306D01*
X148177732Y-55501577D01*
X148093569Y-55626838D01*
X147966286Y-55599870D01*
X147924031Y-55563040D01*
X147887227Y-55447938D01*
X147868010Y-55235004D01*
X147867208Y-55179483D01*
X147882866Y-54962147D01*
X147945492Y-54868658D01*
X148037677Y-54852749D01*
X148144208Y-54877845D01*
G37*
G36*
X143267473Y-57536128D02*
G01*
X143308235Y-57661551D01*
X143292149Y-57716451D01*
X143184933Y-57824523D01*
X143040873Y-57826625D01*
X142936855Y-57733386D01*
X142923584Y-57665500D01*
X142984670Y-57521771D01*
X143079848Y-57495031D01*
X143267473Y-57536128D01*
G37*
G36*
X144767482Y-55235720D02*
G01*
X144783371Y-55378791D01*
X144712839Y-55549453D01*
X144595951Y-55605576D01*
X144516411Y-55564815D01*
X144450186Y-55411180D01*
X144496521Y-55262115D01*
X144631262Y-55193712D01*
X144634210Y-55193688D01*
X144767482Y-55235720D01*
G37*
G36*
X147806546Y-55646884D02*
G01*
X147851827Y-55769024D01*
X147936258Y-55929357D01*
X148043606Y-55960802D01*
X148171741Y-56020240D01*
X148211657Y-56148078D01*
X148160007Y-56268605D01*
X148058986Y-56308667D01*
X147854618Y-56319951D01*
X147696738Y-56329975D01*
X147443427Y-56330263D01*
X147291872Y-56317123D01*
X147146045Y-56242202D01*
X147095060Y-56115007D01*
X147143865Y-56000248D01*
X147264635Y-55960802D01*
X147412404Y-55888935D01*
X147456414Y-55769024D01*
X147541088Y-55608671D01*
X147654120Y-55577245D01*
X147806546Y-55646884D01*
G37*
G36*
X143018153Y-56355739D02*
G01*
X143231558Y-56400361D01*
X143321324Y-56476829D01*
X143332936Y-56638350D01*
X143327506Y-56717600D01*
X143304023Y-57026239D01*
X142559777Y-57050866D01*
X142202557Y-57060067D01*
X141982572Y-57054345D01*
X141866789Y-57027080D01*
X141822176Y-56971652D01*
X141815530Y-56901705D01*
X141874132Y-56756995D01*
X141986000Y-56727917D01*
X142129575Y-56666776D01*
X142156469Y-56568101D01*
X142233384Y-56433692D01*
X142442560Y-56351558D01*
X142751648Y-56329673D01*
X143018153Y-56355739D01*
G37*
G36*
X136033869Y-53747175D02*
G01*
X136089411Y-53894727D01*
X136072964Y-54044381D01*
X135941033Y-54085634D01*
X135940250Y-54085635D01*
X135804179Y-54040106D01*
X135763919Y-53877255D01*
X135763852Y-53866298D01*
X135812681Y-53708703D01*
X135921514Y-53670639D01*
X136033869Y-53747175D01*
G37*
G36*
X137639020Y-59711138D02*
G01*
X136530966Y-59711138D01*
X136530966Y-58603084D01*
X137639020Y-58603084D01*
X137639020Y-59711138D01*
G37*
G36*
X139867877Y-48048131D02*
G01*
X139925591Y-48121901D01*
X139930130Y-48302136D01*
X139923954Y-48396205D01*
X139891356Y-48632701D01*
X139820928Y-48747311D01*
X139705966Y-48785690D01*
X139588463Y-48785888D01*
X139532148Y-48714609D01*
X139515008Y-48530276D01*
X139514188Y-48423442D01*
X139522518Y-48184607D01*
X139564480Y-48070565D01*
X139665529Y-48035834D01*
X139732176Y-48033957D01*
X139867877Y-48048131D01*
G37*
G36*
X139100199Y-48445997D02*
G01*
X139160370Y-48579984D01*
X139157260Y-48608056D01*
X139069293Y-48744019D01*
X138924852Y-48783578D01*
X138799245Y-48713677D01*
X138778115Y-48673789D01*
X138777133Y-48507235D01*
X138815261Y-48443084D01*
X138960330Y-48388385D01*
X139100199Y-48445997D01*
G37*
G36*
X143245433Y-49558774D02*
G01*
X143305428Y-49686313D01*
X143332020Y-49887816D01*
X143342912Y-50114783D01*
X143307934Y-50219490D01*
X143201954Y-50248879D01*
X143138076Y-50250064D01*
X142998431Y-50236618D01*
X142938784Y-50164953D01*
X142933440Y-49988084D01*
X142939991Y-49887816D01*
X142971949Y-49653459D01*
X143037680Y-49547010D01*
X143133935Y-49525568D01*
X143245433Y-49558774D01*
G37*
G36*
X142509595Y-48445997D02*
G01*
X142569766Y-48579984D01*
X142566656Y-48608056D01*
X142478689Y-48744019D01*
X142334248Y-48783578D01*
X142208641Y-48713677D01*
X142187511Y-48673789D01*
X142186529Y-48507235D01*
X142224657Y-48443084D01*
X142369726Y-48388385D01*
X142509595Y-48445997D01*
G37*
G36*
X147794159Y-57139957D02*
G01*
X147854330Y-57273944D01*
X147851220Y-57302016D01*
X147763252Y-57437979D01*
X147618812Y-57477538D01*
X147493205Y-57407637D01*
X147472075Y-57367748D01*
X147471093Y-57201195D01*
X147509221Y-57137044D01*
X147654289Y-57082345D01*
X147794159Y-57139957D01*
G37*
G36*
X140594225Y-48094227D02*
G01*
X140622241Y-48204427D01*
X140561971Y-48346880D01*
X140451771Y-48374896D01*
X140309318Y-48314626D01*
X140281302Y-48204427D01*
X140341572Y-48061973D01*
X140451771Y-48033957D01*
X140594225Y-48094227D01*
G37*
G36*
X144770735Y-48094227D02*
G01*
X144798751Y-48204427D01*
X144738481Y-48346880D01*
X144628282Y-48374896D01*
X144485828Y-48314626D01*
X144457812Y-48204427D01*
X144518082Y-48061973D01*
X144628282Y-48033957D01*
X144770735Y-48094227D01*
G37*
G36*
X143887773Y-48045111D02*
G01*
X144001117Y-48091425D01*
X144031491Y-48192180D01*
X144031637Y-48204427D01*
X144001625Y-48317819D01*
X143881593Y-48366596D01*
X143704903Y-48374896D01*
X143479661Y-48361280D01*
X143335478Y-48327589D01*
X143321346Y-48318073D01*
X143249211Y-48180544D01*
X143332755Y-48083138D01*
X143559756Y-48036480D01*
X143648080Y-48033957D01*
X143887773Y-48045111D01*
G37*
G36*
X144384763Y-48445997D02*
G01*
X144444934Y-48579984D01*
X144441824Y-48608056D01*
X144353856Y-48744019D01*
X144209416Y-48783578D01*
X144083809Y-48713677D01*
X144062679Y-48673789D01*
X144061697Y-48507235D01*
X144099825Y-48443084D01*
X144244893Y-48388385D01*
X144384763Y-48445997D01*
G37*
G36*
X143248278Y-53003120D02*
G01*
X143325544Y-53129053D01*
X143312196Y-53225106D01*
X143178795Y-53313066D01*
X143025319Y-53278220D01*
X142952208Y-53184939D01*
X142958100Y-53016607D01*
X142998110Y-52954196D01*
X143118770Y-52927271D01*
X143248278Y-53003120D01*
G37*
G36*
X148208147Y-48033957D02*
G01*
X148208147Y-50676239D01*
X145565865Y-50676239D01*
X145565865Y-50250064D01*
X145992040Y-50250064D01*
X147867208Y-50250064D01*
X147867208Y-48374896D01*
X145992040Y-48374896D01*
X145992040Y-50250064D01*
X145565865Y-50250064D01*
X145565865Y-48033957D01*
X148208147Y-48033957D01*
G37*
G36*
X136126100Y-54442982D02*
G01*
X136353666Y-54467845D01*
X136462161Y-54532062D01*
X136502625Y-54686087D01*
X136514330Y-54826767D01*
X136539490Y-55052473D01*
X136605346Y-55159484D01*
X136763336Y-55199237D01*
X136897887Y-55210325D01*
X137129913Y-55242300D01*
X137234611Y-55308855D01*
X137255463Y-55406776D01*
X137185824Y-55559201D01*
X137063684Y-55604482D01*
X136903351Y-55688914D01*
X136871906Y-55796261D01*
X136926710Y-55932172D01*
X137047981Y-55964164D01*
X137171007Y-55897183D01*
X137228226Y-55769024D01*
X137312900Y-55608671D01*
X137425933Y-55577245D01*
X137508450Y-55591705D01*
X137561165Y-55656918D01*
X137592646Y-55805631D01*
X137611458Y-56070595D01*
X137621029Y-56323051D01*
X137645657Y-57068856D01*
X137264709Y-57068856D01*
X137024161Y-57080567D01*
X136905102Y-57130739D01*
X136859293Y-57241934D01*
X136856525Y-57259764D01*
X136784312Y-57427928D01*
X136668607Y-57485600D01*
X136565892Y-57427845D01*
X136530966Y-57288193D01*
X136568520Y-57117990D01*
X136699948Y-57068859D01*
X136701436Y-57068856D01*
X136843890Y-57008586D01*
X136871906Y-56898386D01*
X136810976Y-56755199D01*
X136707364Y-56727917D01*
X136559595Y-56656049D01*
X136515586Y-56536138D01*
X136430911Y-56375785D01*
X136317879Y-56344359D01*
X136225915Y-56362983D01*
X136170863Y-56443362D01*
X136140219Y-56622262D01*
X136122206Y-56919695D01*
X136102983Y-57227831D01*
X136071122Y-57402048D01*
X136014439Y-57478900D01*
X135930427Y-57495031D01*
X135851008Y-57481222D01*
X135801743Y-57418163D01*
X135775541Y-57273404D01*
X135765310Y-57014496D01*
X135763852Y-56732817D01*
X135763852Y-55970604D01*
X136126100Y-55944395D01*
X136360078Y-55912670D01*
X136466463Y-55847305D01*
X136488349Y-55748572D01*
X136459301Y-55637431D01*
X136342484Y-55588080D01*
X136147409Y-55578102D01*
X135921748Y-55562362D01*
X135814820Y-55499073D01*
X135779233Y-55385467D01*
X135795380Y-55235323D01*
X135926379Y-55193692D01*
X135928394Y-55193688D01*
X136074823Y-55136418D01*
X136104792Y-55023219D01*
X136044521Y-54880765D01*
X135934322Y-54852749D01*
X135801740Y-54804084D01*
X135763852Y-54634761D01*
X135778026Y-54499059D01*
X135851796Y-54441346D01*
X136032031Y-54436806D01*
X136126100Y-54442982D01*
G37*
D15*
%TO.C,A1*%
X156618154Y-47916104D02*
X156618154Y-45246104D01*
X121058154Y-60616104D02*
X121058154Y-63286104D01*
X156618154Y-47916104D02*
X121058154Y-47916104D01*
X159158154Y-47916104D02*
X159158154Y-45246104D01*
X156618154Y-45246104D02*
X118388154Y-45246104D01*
X161828154Y-45246104D02*
X159158154Y-45246104D01*
X121058154Y-47916104D02*
X121058154Y-45246104D01*
X159158154Y-60616104D02*
X159158154Y-63286104D01*
X118388154Y-63286104D02*
X161828154Y-63286104D01*
X159158154Y-60616104D02*
X121058154Y-60616104D01*
X156618154Y-47916104D02*
X159158154Y-47916104D01*
X118388154Y-45246104D02*
X118388154Y-63286104D01*
X161828154Y-63286104D02*
X161828154Y-45246104D01*
%TO.C,J1*%
X170130954Y-70004104D02*
X159970954Y-70004104D01*
X159970954Y-71274104D02*
X170130954Y-71274104D01*
X170130954Y-63654104D02*
X159970954Y-63654104D01*
X170130954Y-71274104D02*
X170130954Y-63654104D01*
X159970954Y-63654104D02*
X159970954Y-71274104D01*
%TO.C,Jumpers_Option1*%
X167124554Y-53213504D02*
X169784554Y-53213504D01*
X169784554Y-48073504D02*
X169784554Y-53213504D01*
X167124554Y-45473504D02*
X168454554Y-45473504D01*
X167124554Y-48073504D02*
X167124554Y-53213504D01*
X167124554Y-48073504D02*
X169784554Y-48073504D01*
X167124554Y-46803504D02*
X167124554Y-45473504D01*
%TO.C,G2/G62_OutPut_IAT1*%
X139193754Y-63654104D02*
X139193754Y-71274104D01*
X139193754Y-71274104D02*
X159513754Y-71274104D01*
X139193754Y-63654104D02*
X159513754Y-63654104D01*
X159513754Y-71274104D02*
X159513754Y-63654104D01*
%TO.C, *%
G36*
X128264836Y-51721768D02*
G01*
X128629541Y-51724606D01*
X128654456Y-51748023D01*
X128678002Y-51781983D01*
X128691961Y-51826734D01*
X128696060Y-51876238D01*
X128690025Y-51924458D01*
X128673583Y-51965354D01*
X128664842Y-51977381D01*
X128642374Y-52003515D01*
X128336171Y-52008324D01*
X128029969Y-52013133D01*
X128027190Y-52097286D01*
X128024411Y-52181440D01*
X127900132Y-52181440D01*
X127900132Y-51862305D01*
X128025160Y-51862305D01*
X128028353Y-51880741D01*
X128031723Y-51886653D01*
X128042709Y-51888294D01*
X128070370Y-51889598D01*
X128112147Y-51890527D01*
X128165482Y-51891043D01*
X128227817Y-51891106D01*
X128296593Y-51890680D01*
X128298611Y-51890660D01*
X128376049Y-51889853D01*
X128436385Y-51889013D01*
X128481750Y-51887964D01*
X128514276Y-51886527D01*
X128536094Y-51884522D01*
X128549336Y-51881772D01*
X128556133Y-51878098D01*
X128558619Y-51873322D01*
X128558935Y-51868869D01*
X128558307Y-51863204D01*
X128555020Y-51858748D01*
X128546969Y-51855329D01*
X128532047Y-51852776D01*
X128508150Y-51850915D01*
X128473171Y-51849577D01*
X128425006Y-51848587D01*
X128361549Y-51847775D01*
X128292047Y-51847078D01*
X128213455Y-51846382D01*
X128151997Y-51846058D01*
X128105574Y-51846225D01*
X128072087Y-51847004D01*
X128049435Y-51848514D01*
X128035520Y-51850875D01*
X128028242Y-51854206D01*
X128025502Y-51858628D01*
X128025160Y-51862305D01*
X127900132Y-51862305D01*
X127900132Y-51718931D01*
X128264836Y-51721768D01*
G37*
G36*
X123822282Y-53460577D02*
G01*
X122677792Y-53460577D01*
X122677792Y-53354784D01*
X123822282Y-53354784D01*
X123822282Y-53460577D01*
G37*
G36*
X122002331Y-50547303D02*
G01*
X122030153Y-50551030D01*
X122041011Y-50559401D01*
X122036023Y-50574184D01*
X122016310Y-50597146D01*
X121999314Y-50614178D01*
X121938551Y-50683398D01*
X121881765Y-50766362D01*
X121832067Y-50857598D01*
X121792574Y-50951633D01*
X121774535Y-51009106D01*
X121747138Y-51144766D01*
X121738781Y-51277792D01*
X121749495Y-51408509D01*
X121779314Y-51537245D01*
X121828271Y-51664324D01*
X121843999Y-51696857D01*
X121867620Y-51738942D01*
X121898650Y-51787513D01*
X121933512Y-51837568D01*
X121968633Y-51884106D01*
X122000436Y-51922127D01*
X122018029Y-51940273D01*
X122034698Y-51957853D01*
X122042866Y-51970459D01*
X122043032Y-51971530D01*
X122034122Y-51974968D01*
X122010214Y-51977620D01*
X121975539Y-51979117D01*
X121954069Y-51979314D01*
X121865107Y-51979157D01*
X121815592Y-51909587D01*
X121737935Y-51785640D01*
X121678501Y-51657122D01*
X121636461Y-51522117D01*
X121624727Y-51467949D01*
X121616982Y-51412955D01*
X121611893Y-51346343D01*
X121609539Y-51274226D01*
X121610000Y-51202719D01*
X121613356Y-51137937D01*
X121619686Y-51085991D01*
X121619736Y-51085714D01*
X121652026Y-50953762D01*
X121699680Y-50825102D01*
X121760710Y-50704404D01*
X121821756Y-50611372D01*
X121869817Y-50546453D01*
X121956425Y-50546453D01*
X122002331Y-50547303D01*
G37*
G36*
X132353066Y-51844825D02*
G01*
X131688116Y-51844825D01*
X131691189Y-51866465D01*
X131694263Y-51888104D01*
X132023664Y-51890635D01*
X132353066Y-51893166D01*
X132353066Y-52008071D01*
X132023664Y-52010602D01*
X131694263Y-52013133D01*
X131691189Y-52034772D01*
X131688116Y-52056412D01*
X132353066Y-52056412D01*
X132353066Y-52181440D01*
X131564425Y-52181440D01*
X131564425Y-51719797D01*
X132353066Y-51719797D01*
X132353066Y-51844825D01*
G37*
G36*
X124326483Y-52349748D02*
G01*
X124265882Y-52416576D01*
X124186441Y-52514215D01*
X124123412Y-52615043D01*
X124074043Y-52723919D01*
X124047837Y-52801773D01*
X124032070Y-52870731D01*
X124021170Y-52951731D01*
X124015518Y-53038111D01*
X124015494Y-53123210D01*
X124021481Y-53200364D01*
X124024031Y-53218066D01*
X124052150Y-53336469D01*
X124097316Y-53453437D01*
X124157524Y-53564858D01*
X124230774Y-53666620D01*
X124257477Y-53697392D01*
X124284793Y-53727835D01*
X124306439Y-53752780D01*
X124319647Y-53768989D01*
X124322396Y-53773337D01*
X124313475Y-53775321D01*
X124289496Y-53776879D01*
X124254635Y-53777799D01*
X124230980Y-53777957D01*
X124139564Y-53777957D01*
X124091544Y-53713038D01*
X124019460Y-53600573D01*
X123960249Y-53476744D01*
X123915782Y-53345966D01*
X123892944Y-53244331D01*
X123885131Y-53179561D01*
X123881568Y-53103897D01*
X123882066Y-53023222D01*
X123886435Y-52943421D01*
X123894488Y-52870379D01*
X123906036Y-52809981D01*
X123906995Y-52806286D01*
X123937232Y-52709507D01*
X123975711Y-52613423D01*
X124020137Y-52522751D01*
X124068217Y-52442205D01*
X124114116Y-52380616D01*
X124145121Y-52344162D01*
X124326483Y-52349748D01*
G37*
G36*
X123358382Y-51158582D02*
G01*
X123351785Y-51137405D01*
X123353149Y-51114157D01*
X123361839Y-51098733D01*
X123362233Y-51098479D01*
X123373659Y-51095148D01*
X123402016Y-51088311D01*
X123445402Y-51078390D01*
X123501919Y-51065802D01*
X123569666Y-51050967D01*
X123646743Y-51034305D01*
X123731249Y-51016236D01*
X123816461Y-50998194D01*
X123924918Y-50975402D01*
X124016113Y-50956484D01*
X124091589Y-50941280D01*
X124152891Y-50929632D01*
X124201563Y-50921382D01*
X124239151Y-50916369D01*
X124267199Y-50914437D01*
X124287252Y-50915425D01*
X124300853Y-50919174D01*
X124309549Y-50925527D01*
X124314882Y-50934323D01*
X124318399Y-50945405D01*
X124318688Y-50946544D01*
X124321681Y-50961491D01*
X124321590Y-50975118D01*
X124316897Y-50988779D01*
X124306086Y-51003830D01*
X124287641Y-51021627D01*
X124260046Y-51043526D01*
X124221783Y-51070882D01*
X124171338Y-51105051D01*
X124107193Y-51147390D01*
X124058258Y-51179394D01*
X123987776Y-51224924D01*
X123924127Y-51265071D01*
X123869080Y-51298776D01*
X123824403Y-51324979D01*
X123791863Y-51342622D01*
X123773228Y-51350646D01*
X123771908Y-51350929D01*
X123758477Y-51351285D01*
X123740843Y-51347815D01*
X123716638Y-51339567D01*
X123683490Y-51325586D01*
X123639030Y-51304918D01*
X123580887Y-51276609D01*
X123552990Y-51262794D01*
X123497617Y-51234949D01*
X123448071Y-51209401D01*
X123406964Y-51187548D01*
X123376906Y-51170790D01*
X123367954Y-51165185D01*
X123639225Y-51165185D01*
X123655577Y-51177903D01*
X123687411Y-51195883D01*
X123687636Y-51196000D01*
X123718650Y-51211798D01*
X123742497Y-51223462D01*
X123754527Y-51228723D01*
X123754959Y-51228817D01*
X123764330Y-51223956D01*
X123786454Y-51210356D01*
X123818140Y-51190036D01*
X123856194Y-51165012D01*
X123860753Y-51161978D01*
X123897702Y-51136799D01*
X123926766Y-51115906D01*
X123945338Y-51101257D01*
X123950813Y-51094811D01*
X123950285Y-51094672D01*
X123937052Y-51096564D01*
X123909074Y-51101696D01*
X123870403Y-51109234D01*
X123825093Y-51118344D01*
X123777198Y-51128190D01*
X123730770Y-51137939D01*
X123689862Y-51146755D01*
X123658527Y-51153804D01*
X123640820Y-51158252D01*
X123639548Y-51158657D01*
X123639225Y-51165185D01*
X123367954Y-51165185D01*
X123360509Y-51160523D01*
X123358382Y-51158582D01*
G37*
G36*
X122799354Y-50027105D02*
G01*
X122844260Y-50092731D01*
X122885541Y-50153392D01*
X122921970Y-50207256D01*
X122952316Y-50252491D01*
X122975352Y-50287267D01*
X122989847Y-50309752D01*
X122994587Y-50318036D01*
X122985795Y-50320729D01*
X122961334Y-50322965D01*
X122924766Y-50324536D01*
X122879657Y-50325233D01*
X122871227Y-50325249D01*
X122747282Y-50325249D01*
X122626144Y-50142516D01*
X122591273Y-50090247D01*
X122559869Y-50043810D01*
X122533493Y-50005461D01*
X122513707Y-49977459D01*
X122502073Y-49962061D01*
X122499732Y-49959782D01*
X122493157Y-49967455D01*
X122477617Y-49988967D01*
X122454670Y-50022055D01*
X122425873Y-50064457D01*
X122392787Y-50113911D01*
X122373840Y-50142516D01*
X122253223Y-50325249D01*
X122128892Y-50325249D01*
X122082520Y-50324941D01*
X122044004Y-50324096D01*
X122016924Y-50322839D01*
X122004862Y-50321291D01*
X122004562Y-50320995D01*
X122009784Y-50312346D01*
X122024644Y-50289618D01*
X122047930Y-50254616D01*
X122078432Y-50209145D01*
X122114940Y-50155009D01*
X122156242Y-50094014D01*
X122199701Y-50030063D01*
X122394839Y-49743386D01*
X122604705Y-49743386D01*
X122799354Y-50027105D01*
G37*
G36*
X124886549Y-52299255D02*
G01*
X124884130Y-52322124D01*
X124880814Y-52360178D01*
X124876921Y-52409404D01*
X124872770Y-52465789D01*
X124869324Y-52515651D01*
X124857567Y-52691171D01*
X124806377Y-52691171D01*
X124775965Y-52690088D01*
X124760348Y-52685887D01*
X124755158Y-52677135D01*
X124754980Y-52674341D01*
X124754166Y-52659640D01*
X124752034Y-52629192D01*
X124748839Y-52586421D01*
X124744835Y-52534750D01*
X124740826Y-52484394D01*
X124736290Y-52426840D01*
X124732339Y-52374330D01*
X124729235Y-52330529D01*
X124727238Y-52299104D01*
X124726606Y-52284829D01*
X124726334Y-52258381D01*
X124892016Y-52258381D01*
X124886549Y-52299255D01*
G37*
G36*
X134209257Y-51844825D02*
G01*
X133882260Y-51844825D01*
X133882260Y-52181440D01*
X133747614Y-52181440D01*
X133747614Y-51844825D01*
X133420616Y-51844825D01*
X133420616Y-51719797D01*
X134209257Y-51719797D01*
X134209257Y-51844825D01*
G37*
G36*
X121427645Y-52345467D02*
G01*
X121457028Y-52346881D01*
X121473521Y-52348926D01*
X121475595Y-52350038D01*
X121469739Y-52359005D01*
X121453899Y-52379281D01*
X121430668Y-52407623D01*
X121409302Y-52432987D01*
X121326775Y-52543506D01*
X121261173Y-52660762D01*
X121212964Y-52783298D01*
X121182613Y-52909656D01*
X121170589Y-53038381D01*
X121176337Y-53159582D01*
X121200494Y-53293690D01*
X121241088Y-53418765D01*
X121298825Y-53536388D01*
X121374415Y-53648139D01*
X121419383Y-53702602D01*
X121444435Y-53731763D01*
X121463738Y-53755361D01*
X121474394Y-53769802D01*
X121475595Y-53772329D01*
X121466684Y-53774776D01*
X121442771Y-53776686D01*
X121408089Y-53777790D01*
X121386584Y-53777957D01*
X121337802Y-53776836D01*
X121306204Y-53773306D01*
X121289861Y-53767119D01*
X121288004Y-53765224D01*
X121203711Y-53641279D01*
X121137622Y-53517318D01*
X121088831Y-53391110D01*
X121056436Y-53260426D01*
X121042522Y-53159889D01*
X121038716Y-53028124D01*
X121051549Y-52894896D01*
X121080083Y-52763385D01*
X121123383Y-52636774D01*
X121180513Y-52518242D01*
X121250535Y-52410972D01*
X121270333Y-52385814D01*
X121303767Y-52344939D01*
X121389681Y-52344939D01*
X121427645Y-52345467D01*
G37*
G36*
X122042759Y-52289638D02*
G01*
X122041910Y-52309251D01*
X122039721Y-52344242D01*
X122036459Y-52390821D01*
X122032385Y-52445198D01*
X122028539Y-52494011D01*
X122024047Y-52550274D01*
X122020133Y-52600256D01*
X122017049Y-52640651D01*
X122015050Y-52668154D01*
X122014385Y-52679149D01*
X122004884Y-52687384D01*
X121976812Y-52690993D01*
X121965790Y-52691171D01*
X121933249Y-52688804D01*
X121915676Y-52682162D01*
X121913671Y-52679149D01*
X121911862Y-52666001D01*
X121909167Y-52637020D01*
X121905856Y-52595577D01*
X121902203Y-52545040D01*
X121899119Y-52498820D01*
X121895242Y-52441076D01*
X121891341Y-52387502D01*
X121887732Y-52342108D01*
X121884729Y-52308907D01*
X121883070Y-52294447D01*
X121877843Y-52258381D01*
X122043032Y-52258381D01*
X122042759Y-52289638D01*
G37*
G36*
X126399791Y-51844825D02*
G01*
X126073361Y-51844825D01*
X125970858Y-51845126D01*
X125887022Y-51846025D01*
X125821969Y-51847520D01*
X125775817Y-51849607D01*
X125748680Y-51852281D01*
X125740727Y-51854864D01*
X125740841Y-51869698D01*
X125746146Y-51878908D01*
X125752207Y-51882964D01*
X125764217Y-51886181D01*
X125784132Y-51888649D01*
X125813908Y-51890459D01*
X125855501Y-51891700D01*
X125910868Y-51892461D01*
X125981964Y-51892834D01*
X126050667Y-51892913D01*
X126343565Y-51892913D01*
X126371678Y-51921026D01*
X126385188Y-51935650D01*
X126393478Y-51949829D01*
X126397800Y-51968644D01*
X126399409Y-51997174D01*
X126399577Y-52034032D01*
X126397830Y-52084299D01*
X126391793Y-52119630D01*
X126379827Y-52144143D01*
X126360289Y-52161956D01*
X126345122Y-52170697D01*
X126329973Y-52173933D01*
X126298056Y-52176573D01*
X126248898Y-52178629D01*
X126182031Y-52180114D01*
X126096981Y-52181042D01*
X125993279Y-52181427D01*
X125967632Y-52181440D01*
X125611150Y-52181440D01*
X125611150Y-52056412D01*
X125938449Y-52056412D01*
X126027203Y-52056333D01*
X126098613Y-52056039D01*
X126154573Y-52055441D01*
X126196974Y-52054453D01*
X126227707Y-52052988D01*
X126248665Y-52050956D01*
X126261740Y-52048273D01*
X126268823Y-52044848D01*
X126271657Y-52041015D01*
X126270133Y-52023578D01*
X126264142Y-52017118D01*
X126251406Y-52014949D01*
X126221968Y-52012974D01*
X126178359Y-52011267D01*
X126123111Y-52009903D01*
X126058758Y-52008956D01*
X125987830Y-52008500D01*
X125968927Y-52008471D01*
X125880879Y-52008283D01*
X125810038Y-52007592D01*
X125754377Y-52006052D01*
X125711867Y-52003319D01*
X125680482Y-51999049D01*
X125658193Y-51992897D01*
X125642974Y-51984518D01*
X125632796Y-51973568D01*
X125625632Y-51959701D01*
X125621810Y-51949476D01*
X125613481Y-51908974D01*
X125611744Y-51860632D01*
X125616412Y-51813618D01*
X125625230Y-51781656D01*
X125632161Y-51766500D01*
X125640308Y-51754045D01*
X125651501Y-51744024D01*
X125667570Y-51736175D01*
X125690347Y-51730233D01*
X125721662Y-51725932D01*
X125763345Y-51723009D01*
X125817227Y-51721198D01*
X125885140Y-51720236D01*
X125968912Y-51719857D01*
X126053249Y-51719797D01*
X126399791Y-51719797D01*
X126399791Y-51844825D01*
G37*
G36*
X125223141Y-52380616D02*
G01*
X125272558Y-52447540D01*
X125320452Y-52528969D01*
X125364529Y-52620186D01*
X125402493Y-52716476D01*
X125430262Y-52806286D01*
X125442053Y-52865549D01*
X125450363Y-52937879D01*
X125455004Y-53017390D01*
X125455786Y-53098198D01*
X125452521Y-53174419D01*
X125445020Y-53240167D01*
X125444313Y-53244331D01*
X125412342Y-53377443D01*
X125364201Y-53506969D01*
X125301761Y-53628497D01*
X125245712Y-53713038D01*
X125197693Y-53777957D01*
X125106277Y-53777957D01*
X125067004Y-53777506D01*
X125036181Y-53776294D01*
X125017984Y-53774532D01*
X125014861Y-53773337D01*
X125020924Y-53764731D01*
X125037268Y-53745234D01*
X125061123Y-53718086D01*
X125079779Y-53697392D01*
X125156895Y-53599721D01*
X125221630Y-53491035D01*
X125271983Y-53375444D01*
X125305951Y-53257059D01*
X125313226Y-53218066D01*
X125320815Y-53144022D01*
X125322297Y-53060326D01*
X125318052Y-52973639D01*
X125308462Y-52890624D01*
X125293906Y-52817942D01*
X125289419Y-52801773D01*
X125247494Y-52685007D01*
X125193707Y-52579467D01*
X125125306Y-52480294D01*
X125071375Y-52416576D01*
X125010774Y-52349748D01*
X125192136Y-52344162D01*
X125223141Y-52380616D01*
G37*
G36*
X126611377Y-52181440D02*
G01*
X126486349Y-52181440D01*
X126486349Y-51719797D01*
X126611377Y-51719797D01*
X126611377Y-52181440D01*
G37*
G36*
X122410690Y-52419475D02*
G01*
X122484909Y-52538826D01*
X122545228Y-52669145D01*
X122589946Y-52806528D01*
X122602432Y-52859479D01*
X122608384Y-52901015D01*
X122612363Y-52956431D01*
X122614377Y-53020475D01*
X122614433Y-53087892D01*
X122612539Y-53153431D01*
X122608701Y-53211838D01*
X122602927Y-53257860D01*
X122601885Y-53263417D01*
X122564040Y-53404924D01*
X122508256Y-53541078D01*
X122435624Y-53669349D01*
X122412477Y-53703421D01*
X122359858Y-53777957D01*
X122268768Y-53777957D01*
X122229573Y-53777211D01*
X122198835Y-53775207D01*
X122180736Y-53772295D01*
X122177678Y-53770342D01*
X122184053Y-53760141D01*
X122200679Y-53741083D01*
X122221396Y-53719849D01*
X122261222Y-53675679D01*
X122303858Y-53619806D01*
X122344970Y-53558387D01*
X122380226Y-53497579D01*
X122386904Y-53484621D01*
X122436414Y-53364856D01*
X122468500Y-53239054D01*
X122483102Y-53109457D01*
X122480157Y-52978310D01*
X122459603Y-52847857D01*
X122421379Y-52720341D01*
X122408853Y-52688698D01*
X122372027Y-52613312D01*
X122324070Y-52534571D01*
X122269796Y-52459883D01*
X122229914Y-52413215D01*
X122205509Y-52386164D01*
X122187197Y-52364550D01*
X122178132Y-52352137D01*
X122177678Y-52350867D01*
X122186592Y-52348300D01*
X122210527Y-52346293D01*
X122245270Y-52345124D01*
X122267499Y-52344939D01*
X122357320Y-52344939D01*
X122410690Y-52419475D01*
G37*
G36*
X123088178Y-51820363D02*
G01*
X123123072Y-51761045D01*
X123155776Y-51705918D01*
X123184961Y-51657256D01*
X123209303Y-51617338D01*
X123227473Y-51588437D01*
X123238145Y-51572831D01*
X123240269Y-51570725D01*
X123246628Y-51578707D01*
X123261165Y-51601136D01*
X123282552Y-51635738D01*
X123309460Y-51680236D01*
X123340564Y-51732356D01*
X123374535Y-51789822D01*
X123410046Y-51850359D01*
X123445769Y-51911692D01*
X123480377Y-51971545D01*
X123512542Y-52027643D01*
X123540936Y-52077712D01*
X123564233Y-52119474D01*
X123581104Y-52150656D01*
X123590223Y-52168982D01*
X123591461Y-52172643D01*
X123582671Y-52177041D01*
X123559597Y-52180195D01*
X123527182Y-52181439D01*
X123526271Y-52181440D01*
X123503676Y-52181219D01*
X123484593Y-52179722D01*
X123466007Y-52175705D01*
X123444904Y-52167920D01*
X123418268Y-52155120D01*
X123383085Y-52136059D01*
X123336340Y-52109490D01*
X123295728Y-52086104D01*
X123130373Y-51990767D01*
X123075008Y-52086104D01*
X123019643Y-52181440D01*
X122954510Y-52181440D01*
X122921936Y-52180252D01*
X122898579Y-52177133D01*
X122889384Y-52172753D01*
X122889378Y-52172636D01*
X122894032Y-52161732D01*
X122907110Y-52136810D01*
X122927286Y-52100147D01*
X122953231Y-52054017D01*
X122983620Y-52000698D01*
X123017125Y-51942466D01*
X123049612Y-51886438D01*
X123197785Y-51886438D01*
X123198666Y-51887812D01*
X123207972Y-51893899D01*
X123229316Y-51906991D01*
X123258173Y-51924315D01*
X123259654Y-51925196D01*
X123297584Y-51946886D01*
X123320768Y-51957943D01*
X123330211Y-51958772D01*
X123328938Y-51953023D01*
X123322524Y-51941907D01*
X123308889Y-51918549D01*
X123290566Y-51887283D01*
X123283437Y-51875143D01*
X123241920Y-51804476D01*
X123224498Y-51827055D01*
X123209409Y-51850326D01*
X123199592Y-51872268D01*
X123197785Y-51886438D01*
X123049612Y-51886438D01*
X123052420Y-51881595D01*
X123088178Y-51820363D01*
G37*
G36*
X124610650Y-52299255D02*
G01*
X124609797Y-52320783D01*
X124607562Y-52358166D01*
X124604189Y-52408091D01*
X124599917Y-52467248D01*
X124594989Y-52532324D01*
X124589646Y-52600008D01*
X124584128Y-52666988D01*
X124582276Y-52688767D01*
X124573497Y-52690145D01*
X124551302Y-52691015D01*
X124534418Y-52691171D01*
X124505965Y-52690438D01*
X124491216Y-52686051D01*
X124484645Y-52674726D01*
X124481792Y-52659914D01*
X124479490Y-52639824D01*
X124476355Y-52604580D01*
X124472710Y-52558229D01*
X124468880Y-52504818D01*
X124466557Y-52469967D01*
X124462835Y-52414689D01*
X124459178Y-52364421D01*
X124455889Y-52323066D01*
X124453274Y-52294526D01*
X124452101Y-52284829D01*
X124447905Y-52258381D01*
X124610923Y-52258381D01*
X124610650Y-52299255D01*
G37*
G36*
X121465978Y-51575533D02*
G01*
X120658102Y-51575533D01*
X120658102Y-51450505D01*
X121465978Y-51450505D01*
X121465978Y-51575533D01*
G37*
G36*
X127486576Y-51844825D02*
G01*
X127159277Y-51844825D01*
X127070523Y-51844904D01*
X126999113Y-51845198D01*
X126943153Y-51845796D01*
X126900752Y-51846784D01*
X126870019Y-51848249D01*
X126849061Y-51850281D01*
X126835986Y-51852964D01*
X126828903Y-51856389D01*
X126826069Y-51860222D01*
X126827594Y-51877659D01*
X126833584Y-51884119D01*
X126846275Y-51886258D01*
X126875709Y-51888209D01*
X126919397Y-51889901D01*
X126974848Y-51891264D01*
X127039570Y-51892227D01*
X127111073Y-51892718D01*
X127137199Y-51892766D01*
X127427391Y-51892913D01*
X127456984Y-51922506D01*
X127471448Y-51938056D01*
X127480220Y-51952688D01*
X127484718Y-51971722D01*
X127486362Y-52000477D01*
X127486576Y-52033446D01*
X127484485Y-52086191D01*
X127477232Y-52123449D01*
X127463343Y-52148610D01*
X127441347Y-52165065D01*
X127426801Y-52171103D01*
X127407847Y-52174158D01*
X127370426Y-52176707D01*
X127315301Y-52178731D01*
X127243235Y-52180208D01*
X127154990Y-52181118D01*
X127051328Y-52181440D01*
X126697935Y-52181440D01*
X126697935Y-52056412D01*
X127025235Y-52056412D01*
X127113988Y-52056333D01*
X127185399Y-52056039D01*
X127241358Y-52055441D01*
X127283759Y-52054453D01*
X127314493Y-52052988D01*
X127335451Y-52050956D01*
X127348525Y-52048273D01*
X127355608Y-52044848D01*
X127358442Y-52041015D01*
X127356918Y-52023578D01*
X127350927Y-52017118D01*
X127338218Y-52014967D01*
X127308782Y-52013006D01*
X127265126Y-52011308D01*
X127209758Y-52009945D01*
X127145184Y-52008988D01*
X127073913Y-52008511D01*
X127050749Y-52008471D01*
X126955649Y-52008056D01*
X126877410Y-52006927D01*
X126816568Y-52005105D01*
X126773657Y-52002607D01*
X126749212Y-51999451D01*
X126744577Y-51997932D01*
X126722580Y-51975898D01*
X126707034Y-51938448D01*
X126698979Y-51888627D01*
X126698077Y-51861965D01*
X126701343Y-51812159D01*
X126712097Y-51776735D01*
X126732183Y-51751686D01*
X126755775Y-51736643D01*
X126766208Y-51732197D01*
X126779310Y-51728602D01*
X126797092Y-51725770D01*
X126821566Y-51723611D01*
X126854744Y-51722036D01*
X126898639Y-51720958D01*
X126955262Y-51720288D01*
X127026627Y-51719937D01*
X127114744Y-51719816D01*
X127137939Y-51719812D01*
X127486576Y-51719797D01*
X127486576Y-51844825D01*
G37*
G36*
X125820091Y-51077902D02*
G01*
X125823872Y-51101782D01*
X125826990Y-51125566D01*
X125830212Y-51156651D01*
X125829367Y-51173691D01*
X125823150Y-51181675D01*
X125811363Y-51185358D01*
X125796843Y-51187419D01*
X125765517Y-51191116D01*
X125719721Y-51196198D01*
X125661791Y-51202414D01*
X125594063Y-51209513D01*
X125518874Y-51217244D01*
X125447651Y-51224445D01*
X125366877Y-51232589D01*
X125290688Y-51240346D01*
X125221573Y-51247459D01*
X125162019Y-51253667D01*
X125114515Y-51258713D01*
X125081549Y-51262337D01*
X125066814Y-51264106D01*
X125027401Y-51269517D01*
X125021113Y-51209354D01*
X125018207Y-51177904D01*
X125016855Y-51155438D01*
X125017247Y-51147287D01*
X125027323Y-51145676D01*
X125054049Y-51142485D01*
X125094997Y-51137955D01*
X125147741Y-51132329D01*
X125209852Y-51125851D01*
X125278902Y-51118761D01*
X125352464Y-51111303D01*
X125428110Y-51103719D01*
X125503412Y-51096251D01*
X125575943Y-51089142D01*
X125643274Y-51082634D01*
X125702978Y-51076970D01*
X125752628Y-51072392D01*
X125789795Y-51069142D01*
X125812052Y-51067464D01*
X125817495Y-51067375D01*
X125820091Y-51077902D01*
G37*
G36*
X124280684Y-50004844D02*
G01*
X124324725Y-50069599D01*
X124365970Y-50130297D01*
X124402998Y-50184841D01*
X124434386Y-50231135D01*
X124458714Y-50267080D01*
X124474558Y-50290582D01*
X124479626Y-50298179D01*
X124497401Y-50325249D01*
X124369024Y-50324862D01*
X124240646Y-50324475D01*
X124121857Y-50142128D01*
X124087489Y-50089783D01*
X124056472Y-50043321D01*
X124030368Y-50005021D01*
X124010741Y-49977160D01*
X123999153Y-49962015D01*
X123996828Y-49959921D01*
X123989981Y-49967645D01*
X123974209Y-49989218D01*
X123951084Y-50022371D01*
X123922177Y-50064834D01*
X123889060Y-50114339D01*
X123870370Y-50142605D01*
X123750150Y-50325149D01*
X123622459Y-50325199D01*
X123494767Y-50325249D01*
X123611356Y-50154538D01*
X123652880Y-50093679D01*
X123697243Y-50028560D01*
X123740969Y-49964292D01*
X123780578Y-49905987D01*
X123810937Y-49861202D01*
X123893930Y-49738578D01*
X124099517Y-49738578D01*
X124280684Y-50004844D01*
G37*
G36*
X131427915Y-51921568D02*
G01*
X131424971Y-52123340D01*
X131398313Y-52149985D01*
X131371656Y-52176631D01*
X131006397Y-52179367D01*
X130641139Y-52182102D01*
X130641139Y-52056412D01*
X130967107Y-52056412D01*
X131055750Y-52056330D01*
X131127047Y-52056026D01*
X131182889Y-52055415D01*
X131225164Y-52054408D01*
X131255762Y-52052920D01*
X131276573Y-52050864D01*
X131289485Y-52048153D01*
X131296389Y-52044701D01*
X131298913Y-52041199D01*
X131300910Y-52026718D01*
X131302613Y-51996670D01*
X131303894Y-51954726D01*
X131304627Y-51904553D01*
X131304751Y-51872891D01*
X131304751Y-51719797D01*
X131430859Y-51719797D01*
X131427915Y-51921568D01*
G37*
G36*
X129133585Y-51719812D02*
G01*
X129225902Y-51719892D01*
X129300997Y-51720181D01*
X129360881Y-51720769D01*
X129407567Y-51721744D01*
X129443066Y-51723194D01*
X129469392Y-51725209D01*
X129488556Y-51727876D01*
X129502570Y-51731285D01*
X129513447Y-51735524D01*
X129515749Y-51736643D01*
X129542144Y-51754032D01*
X129559441Y-51777225D01*
X129569247Y-51810123D01*
X129573168Y-51856628D01*
X129573447Y-51876822D01*
X129573019Y-51915390D01*
X129570499Y-51940417D01*
X129564298Y-51957592D01*
X129552825Y-51972601D01*
X129544201Y-51981485D01*
X129514814Y-52010872D01*
X129530761Y-52050473D01*
X129544539Y-52084840D01*
X129559935Y-52123461D01*
X129564817Y-52135757D01*
X129582925Y-52181440D01*
X129451591Y-52181440D01*
X129372737Y-52008324D01*
X128909976Y-52008324D01*
X128909976Y-52181440D01*
X128784948Y-52181440D01*
X128784948Y-51892913D01*
X128909976Y-51892913D01*
X129167246Y-51892766D01*
X129236199Y-51892419D01*
X129299176Y-51891517D01*
X129353514Y-51890145D01*
X129396545Y-51888388D01*
X129425605Y-51886331D01*
X129437940Y-51884119D01*
X129446583Y-51869223D01*
X129445455Y-51860222D01*
X129441881Y-51855627D01*
X129433697Y-51852035D01*
X129418798Y-51849325D01*
X129395077Y-51847379D01*
X129360428Y-51846075D01*
X129312747Y-51845295D01*
X129249927Y-51844918D01*
X129174761Y-51844825D01*
X128909976Y-51844825D01*
X128909976Y-51892913D01*
X128784948Y-51892913D01*
X128784948Y-51719797D01*
X129133585Y-51719812D01*
G37*
G36*
X129708249Y-51946779D02*
G01*
X129708712Y-51888861D01*
X129710326Y-51846505D01*
X129713455Y-51816056D01*
X129718464Y-51793856D01*
X129725080Y-51777502D01*
X129733511Y-51762454D01*
X129743559Y-51750217D01*
X129757151Y-51740527D01*
X129776213Y-51733117D01*
X129802672Y-51727718D01*
X129838453Y-51724066D01*
X129885485Y-51721893D01*
X129945692Y-51720933D01*
X130021002Y-51720919D01*
X130113341Y-51721584D01*
X130128069Y-51721719D01*
X130437649Y-51724606D01*
X130462561Y-51748023D01*
X130480226Y-51769211D01*
X130492828Y-51796416D01*
X130500900Y-51832544D01*
X130504971Y-51880505D01*
X130505571Y-51943205D01*
X130504780Y-51979471D01*
X130502053Y-52042323D01*
X130497348Y-52088888D01*
X130489631Y-52122089D01*
X130477870Y-52144852D01*
X130461032Y-52160099D01*
X130438084Y-52170757D01*
X130437100Y-52171103D01*
X130417847Y-52174269D01*
X130380451Y-52176897D01*
X130325999Y-52178955D01*
X130255576Y-52180410D01*
X130170268Y-52181228D01*
X130098715Y-52181404D01*
X130012917Y-52181326D01*
X129944199Y-52181037D01*
X129890405Y-52180421D01*
X129849380Y-52179360D01*
X129818970Y-52177737D01*
X129797018Y-52175437D01*
X129781370Y-52172343D01*
X129769870Y-52168338D01*
X129760363Y-52163305D01*
X129759983Y-52163075D01*
X129741347Y-52148740D01*
X129727639Y-52129823D01*
X129718167Y-52103431D01*
X129712239Y-52066675D01*
X129709164Y-52016661D01*
X129708594Y-51975363D01*
X129833633Y-51975363D01*
X129834856Y-52009835D01*
X129837467Y-52034704D01*
X129839159Y-52041351D01*
X129842670Y-52045945D01*
X129850663Y-52049477D01*
X129865265Y-52052051D01*
X129888603Y-52053767D01*
X129922805Y-52054728D01*
X129969996Y-52055036D01*
X130032306Y-52054794D01*
X130106047Y-52054160D01*
X130367038Y-52051603D01*
X130367038Y-51849634D01*
X130108030Y-51847069D01*
X130026485Y-51846464D01*
X129962377Y-51846489D01*
X129913917Y-51847209D01*
X129879316Y-51848690D01*
X129856785Y-51850995D01*
X129844535Y-51854189D01*
X129841290Y-51856687D01*
X129837626Y-51871951D01*
X129835084Y-51900659D01*
X129833731Y-51937050D01*
X129833633Y-51975363D01*
X129708594Y-51975363D01*
X129708251Y-51950499D01*
X129708249Y-51946779D01*
G37*
G36*
X122182487Y-50969273D02*
G01*
X122182522Y-50952597D01*
X122183622Y-50938784D01*
X122187279Y-50927922D01*
X122194987Y-50920096D01*
X122208238Y-50915395D01*
X122228524Y-50913904D01*
X122257339Y-50915710D01*
X122296175Y-50920900D01*
X122346524Y-50929561D01*
X122409879Y-50941779D01*
X122487733Y-50957642D01*
X122581578Y-50977235D01*
X122681656Y-50998281D01*
X122786357Y-51020529D01*
X122879846Y-51040860D01*
X122960938Y-51058996D01*
X123028450Y-51074659D01*
X123081197Y-51087571D01*
X123117995Y-51097454D01*
X123137659Y-51104032D01*
X123140644Y-51105900D01*
X123148425Y-51133413D01*
X123137610Y-51158937D01*
X123132222Y-51164420D01*
X123117205Y-51174408D01*
X123088687Y-51190453D01*
X123049826Y-51211010D01*
X123003784Y-51234533D01*
X122953720Y-51259476D01*
X122902796Y-51284293D01*
X122854171Y-51307438D01*
X122811007Y-51327365D01*
X122776464Y-51342530D01*
X122753701Y-51351385D01*
X122746617Y-51353020D01*
X122723409Y-51349992D01*
X122711344Y-51347843D01*
X122698747Y-51341782D01*
X122672199Y-51326438D01*
X122633805Y-51303116D01*
X122585672Y-51273121D01*
X122529906Y-51237759D01*
X122468614Y-51198336D01*
X122437243Y-51177958D01*
X122313799Y-51097513D01*
X122546699Y-51097513D01*
X122552696Y-51103747D01*
X122571310Y-51117737D01*
X122598848Y-51137036D01*
X122631621Y-51159200D01*
X122665935Y-51181785D01*
X122698101Y-51202344D01*
X122724427Y-51218434D01*
X122741220Y-51227609D01*
X122744968Y-51228834D01*
X122755344Y-51224515D01*
X122778080Y-51213565D01*
X122808484Y-51198251D01*
X122812001Y-51196445D01*
X122843412Y-51179471D01*
X122859112Y-51168473D01*
X122861033Y-51161767D01*
X122855280Y-51158745D01*
X122833247Y-51152944D01*
X122799216Y-51145117D01*
X122757017Y-51136025D01*
X122710480Y-51126428D01*
X122663434Y-51117085D01*
X122619710Y-51108757D01*
X122583138Y-51102204D01*
X122557547Y-51098186D01*
X122546769Y-51097462D01*
X122546699Y-51097513D01*
X122313799Y-51097513D01*
X122182487Y-51011940D01*
X122182487Y-50969273D01*
G37*
G36*
X120717215Y-51071728D02*
G01*
X120759959Y-51074929D01*
X120815762Y-51079641D01*
X120882601Y-51085690D01*
X120958454Y-51092901D01*
X121041299Y-51101099D01*
X121083967Y-51105438D01*
X121482897Y-51146363D01*
X121478649Y-51185427D01*
X121473512Y-51226021D01*
X121468058Y-51250823D01*
X121461038Y-51263255D01*
X121451203Y-51266737D01*
X121448964Y-51266673D01*
X121435989Y-51265448D01*
X121406038Y-51262422D01*
X121361263Y-51257817D01*
X121303816Y-51251856D01*
X121235849Y-51244764D01*
X121159514Y-51236764D01*
X121076963Y-51228079D01*
X121052422Y-51225492D01*
X120672528Y-51185409D01*
X120672743Y-51131001D01*
X120673851Y-51100249D01*
X120676484Y-51077931D01*
X120678997Y-51070554D01*
X120689554Y-51070211D01*
X120717215Y-51071728D01*
G37*
G36*
X121770457Y-52299255D02*
G01*
X121768037Y-52322124D01*
X121764722Y-52360178D01*
X121760828Y-52409404D01*
X121756678Y-52465789D01*
X121753232Y-52515651D01*
X121741475Y-52691171D01*
X121690284Y-52691171D01*
X121659873Y-52690088D01*
X121644256Y-52685887D01*
X121639066Y-52677135D01*
X121638888Y-52674341D01*
X121638074Y-52659640D01*
X121635942Y-52629192D01*
X121632746Y-52586421D01*
X121628743Y-52534750D01*
X121624734Y-52484394D01*
X121620198Y-52426840D01*
X121616247Y-52374330D01*
X121613142Y-52330529D01*
X121611145Y-52299104D01*
X121610514Y-52284829D01*
X121610241Y-52258381D01*
X121775924Y-52258381D01*
X121770457Y-52299255D01*
G37*
G36*
X124601082Y-50548016D02*
G01*
X124622035Y-50549355D01*
X124626023Y-50550190D01*
X124638222Y-50561146D01*
X124657435Y-50585630D01*
X124681525Y-50620255D01*
X124708352Y-50661631D01*
X124735778Y-50706370D01*
X124761664Y-50751083D01*
X124783872Y-50792381D01*
X124799468Y-50825026D01*
X124846611Y-50957375D01*
X124876424Y-51095233D01*
X124888816Y-51235954D01*
X124883696Y-51376893D01*
X124860973Y-51515402D01*
X124827191Y-51630815D01*
X124795388Y-51719797D01*
X125524592Y-51719797D01*
X125524592Y-51844825D01*
X124850024Y-51844825D01*
X124853098Y-51866465D01*
X124856171Y-51888104D01*
X125190381Y-51890633D01*
X125524592Y-51893162D01*
X125524592Y-52008075D01*
X125190381Y-52010604D01*
X124856171Y-52013133D01*
X124853098Y-52034772D01*
X124850024Y-52056412D01*
X125524592Y-52056412D01*
X125524592Y-52181440D01*
X124726788Y-52181440D01*
X124724156Y-52017192D01*
X124721525Y-51852944D01*
X124680650Y-51910929D01*
X124639776Y-51968914D01*
X124639776Y-52181440D01*
X124515420Y-52181440D01*
X124509938Y-51984280D01*
X124478681Y-51981266D01*
X124457398Y-51977545D01*
X124447512Y-51972527D01*
X124447424Y-51972054D01*
X124453602Y-51962236D01*
X124469445Y-51943764D01*
X124482759Y-51929669D01*
X124503161Y-51907358D01*
X124511657Y-51892098D01*
X124510596Y-51878028D01*
X124507009Y-51869154D01*
X124502042Y-51859399D01*
X124495398Y-51852678D01*
X124483799Y-51848425D01*
X124463966Y-51846077D01*
X124432622Y-51845067D01*
X124386488Y-51844830D01*
X124365881Y-51844825D01*
X124235838Y-51844825D01*
X124235838Y-52181440D01*
X124110809Y-52181440D01*
X124110809Y-51844825D01*
X123982896Y-51844825D01*
X123920428Y-51845688D01*
X123876542Y-51848309D01*
X123850659Y-51852736D01*
X123843441Y-51856366D01*
X123838514Y-51869369D01*
X123835007Y-51897820D01*
X123832842Y-51942872D01*
X123831938Y-52005677D01*
X123831900Y-52024674D01*
X123831900Y-52181440D01*
X123706871Y-52181440D01*
X123706871Y-51985577D01*
X123706987Y-51919001D01*
X123707500Y-51868866D01*
X123708661Y-51832378D01*
X123710719Y-51806742D01*
X123713924Y-51789164D01*
X123718526Y-51776850D01*
X123724774Y-51767006D01*
X123726623Y-51764604D01*
X123736327Y-51753526D01*
X123747603Y-51744384D01*
X123762257Y-51737013D01*
X123782094Y-51731245D01*
X123808919Y-51726915D01*
X123844536Y-51723856D01*
X123890752Y-51721900D01*
X123949370Y-51720883D01*
X124022197Y-51720637D01*
X124111037Y-51720996D01*
X124192999Y-51721592D01*
X124288960Y-51722431D01*
X124367563Y-51723318D01*
X124430684Y-51724347D01*
X124480201Y-51725608D01*
X124517990Y-51727194D01*
X124545929Y-51729196D01*
X124565893Y-51731707D01*
X124579760Y-51734819D01*
X124589407Y-51738623D01*
X124593877Y-51741228D01*
X124610953Y-51751191D01*
X124621664Y-51749964D01*
X124632960Y-51735284D01*
X124638185Y-51726802D01*
X124661051Y-51683398D01*
X124685492Y-51626804D01*
X124709240Y-51562673D01*
X124728594Y-51501629D01*
X124737092Y-51469728D01*
X124743092Y-51439291D01*
X124747006Y-51405897D01*
X124749246Y-51365126D01*
X124750224Y-51312558D01*
X124750378Y-51267771D01*
X124750006Y-51204201D01*
X124748608Y-51155246D01*
X124745753Y-51116295D01*
X124741015Y-51082737D01*
X124733965Y-51049962D01*
X124728061Y-51027332D01*
X124683426Y-50899586D01*
X124621501Y-50777884D01*
X124544004Y-50665323D01*
X124496403Y-50609561D01*
X124442766Y-50551262D01*
X124528488Y-50548459D01*
X124568188Y-50547687D01*
X124601082Y-50548016D01*
G37*
G36*
X125832354Y-51575533D02*
G01*
X125024478Y-51575533D01*
X125024478Y-51450505D01*
X125832354Y-51450505D01*
X125832354Y-51575533D01*
G37*
G36*
X133285970Y-51844573D02*
G01*
X132956568Y-51847103D01*
X132627167Y-51849634D01*
X132621707Y-52056412D01*
X133285970Y-52056412D01*
X133285970Y-52181440D01*
X132927716Y-52181099D01*
X132827611Y-52180830D01*
X132745309Y-52180200D01*
X132679378Y-52179162D01*
X132628387Y-52177669D01*
X132590906Y-52175675D01*
X132565504Y-52173133D01*
X132550751Y-52169996D01*
X132547739Y-52168695D01*
X132528041Y-52156109D01*
X132513632Y-52141432D01*
X132503702Y-52121604D01*
X132497441Y-52093567D01*
X132494039Y-52054264D01*
X132492686Y-52000636D01*
X132492521Y-51960236D01*
X132493495Y-51885747D01*
X132496420Y-51830343D01*
X132501299Y-51793972D01*
X132504824Y-51782044D01*
X132511004Y-51767920D01*
X132517694Y-51756323D01*
X132526733Y-51746989D01*
X132539961Y-51739651D01*
X132559219Y-51734044D01*
X132586346Y-51729904D01*
X132623184Y-51726965D01*
X132671571Y-51724962D01*
X132733348Y-51723629D01*
X132810356Y-51722701D01*
X132904433Y-51721913D01*
X132922907Y-51721768D01*
X133285970Y-51718931D01*
X133285970Y-51844573D01*
G37*
%TO.C,IAT_Interne1*%
X169809554Y-60235504D02*
X169809554Y-55095504D01*
X169809554Y-60235504D02*
X167149554Y-60235504D01*
X168479554Y-62835504D02*
X167149554Y-62835504D01*
X169809554Y-55095504D02*
X167149554Y-55095504D01*
X167149554Y-62835504D02*
X167149554Y-61505504D01*
X167149554Y-60235504D02*
X167149554Y-55095504D01*
%TO.C,G2/G62_InPut_IAT1*%
X118416554Y-63654104D02*
X118416554Y-71274104D01*
X118416554Y-71274104D02*
X138736554Y-71274104D01*
X118416554Y-63654104D02*
X138736554Y-63654104D01*
X138736554Y-71274104D02*
X138736554Y-63654104D01*
%TD*%
M02*
