%TF.GenerationSoftware,KiCad,Pcbnew,(6.0.0)*%
%TF.CreationDate,2022-10-01T22:30:54+02:00*%
%TF.ProjectId,012-Amesis-ColdSartE85,3031322d-416d-4657-9369-732d436f6c64,v0.01_Golf 1.6L 16v *%
%TF.SameCoordinates,Original*%
%TF.FileFunction,Soldermask,Top*%
%TF.FilePolarity,Negative*%
%FSLAX46Y46*%
G04 Gerber Fmt 4.6, Leading zero omitted, Abs format (unit mm)*
G04 Created by KiCad (PCBNEW (6.0.0)) date 2022-10-01 22:30:54*
%MOMM*%
%LPD*%
G01*
G04 APERTURE LIST*
%ADD10R,1.600000X1.600000*%
%ADD11O,1.600000X1.600000*%
%ADD12R,3.000000X3.000000*%
%ADD13C,3.000000*%
%ADD14R,1.700000X1.700000*%
%ADD15O,1.700000X1.700000*%
G04 APERTURE END LIST*
D10*
%TO.C,A1*%
X157888154Y-46646104D03*
D11*
X155348154Y-46646104D03*
X152808154Y-46646104D03*
X150268154Y-46646104D03*
X147728154Y-46646104D03*
X145188154Y-46646104D03*
X142648154Y-46646104D03*
X140108154Y-46646104D03*
X137568154Y-46646104D03*
X135028154Y-46646104D03*
X132488154Y-46646104D03*
X129948154Y-46646104D03*
X127408154Y-46646104D03*
X124868154Y-46646104D03*
X122328154Y-46646104D03*
X122328154Y-61886104D03*
X124868154Y-61886104D03*
X127408154Y-61886104D03*
X129948154Y-61886104D03*
X132488154Y-61886104D03*
X135028154Y-61886104D03*
X137568154Y-61886104D03*
X140108154Y-61886104D03*
X142648154Y-61886104D03*
X145188154Y-61886104D03*
X147728154Y-61886104D03*
X150268154Y-61886104D03*
X152808154Y-61886104D03*
X155348154Y-61886104D03*
X157888154Y-61886104D03*
%TD*%
D12*
%TO.C,J1*%
X162510954Y-67464104D03*
D13*
X167590954Y-67464104D03*
%TD*%
D14*
%TO.C,Jumpers_Option1*%
X168454554Y-46803504D03*
D15*
X168454554Y-49343504D03*
X168454554Y-51883504D03*
%TD*%
D12*
%TO.C,G2/G62_OutPut_IAT1*%
X141733754Y-67464104D03*
D13*
X146813754Y-67464104D03*
X151893754Y-67464104D03*
X156973754Y-67464104D03*
%TD*%
D14*
%TO.C,IAT_Interne1*%
X168479554Y-61505504D03*
D15*
X168479554Y-58965504D03*
X168479554Y-56425504D03*
%TD*%
D12*
%TO.C,G2/G62_InPut_IAT1*%
X120956554Y-67464104D03*
D13*
X126036554Y-67464104D03*
X131116554Y-67464104D03*
X136196554Y-67464104D03*
%TD*%
D14*
%TO.C,J2*%
X164339754Y-49226904D03*
D15*
X164339754Y-51766904D03*
X164339754Y-54306904D03*
X164339754Y-56846904D03*
X164339754Y-59386904D03*
%TD*%
D14*
%TO.C,J3*%
X149861754Y-51766904D03*
D15*
X149861754Y-54306904D03*
X149861754Y-56846904D03*
%TD*%
M02*
