%FSLAX45Y45*%
G04 Gerber Fmt 4.5, Leading zero omitted, Abs format (unit mm)*
G04 Created by KiCad (PCBNEW (6.0.0)) date 2022-10-01 22:30:49*
%MOMM*%
%LPD*%
G01*
G04 APERTURE LIST*
%TA.AperFunction,Profile*%
%ADD10C,0.100000*%
%TD*%
%ADD11C,0.200000*%
G04 APERTURE END LIST*
D10*
X11821335Y-7147730D02*
X17028335Y-7147730D01*
X17028335Y-7147730D02*
X17028335Y-4495970D01*
X17028335Y-4495970D02*
X11821335Y-4495970D01*
X11821335Y-4495970D02*
X11821335Y-7147730D01*
D11*
X12073954Y-7463206D02*
X12073954Y-7263206D01*
X12121573Y-7263206D01*
X12150145Y-7272730D01*
X12169192Y-7291778D01*
X12178716Y-7310826D01*
X12188240Y-7348921D01*
X12188240Y-7377492D01*
X12178716Y-7415587D01*
X12169192Y-7434635D01*
X12150145Y-7453683D01*
X12121573Y-7463206D01*
X12073954Y-7463206D01*
X12273954Y-7463206D02*
X12273954Y-7329873D01*
X12273954Y-7367968D02*
X12283478Y-7348921D01*
X12293002Y-7339397D01*
X12312050Y-7329873D01*
X12331097Y-7329873D01*
X12397764Y-7463206D02*
X12397764Y-7329873D01*
X12397764Y-7263206D02*
X12388240Y-7272730D01*
X12397764Y-7282254D01*
X12407288Y-7272730D01*
X12397764Y-7263206D01*
X12397764Y-7282254D01*
X12521573Y-7463206D02*
X12502526Y-7453683D01*
X12493002Y-7434635D01*
X12493002Y-7263206D01*
X12626335Y-7463206D02*
X12607288Y-7453683D01*
X12597764Y-7434635D01*
X12597764Y-7263206D01*
X12854907Y-7463206D02*
X12854907Y-7263206D01*
X12921573Y-7406064D01*
X12988240Y-7263206D01*
X12988240Y-7463206D01*
X13169192Y-7463206D02*
X13169192Y-7358445D01*
X13159669Y-7339397D01*
X13140621Y-7329873D01*
X13102526Y-7329873D01*
X13083478Y-7339397D01*
X13169192Y-7453683D02*
X13150145Y-7463206D01*
X13102526Y-7463206D01*
X13083478Y-7453683D01*
X13073954Y-7434635D01*
X13073954Y-7415587D01*
X13083478Y-7396540D01*
X13102526Y-7387016D01*
X13150145Y-7387016D01*
X13169192Y-7377492D01*
X13264431Y-7329873D02*
X13264431Y-7529873D01*
X13264431Y-7339397D02*
X13283478Y-7329873D01*
X13321573Y-7329873D01*
X13340621Y-7339397D01*
X13350145Y-7348921D01*
X13359669Y-7367968D01*
X13359669Y-7425111D01*
X13350145Y-7444159D01*
X13340621Y-7453683D01*
X13321573Y-7463206D01*
X13283478Y-7463206D01*
X13264431Y-7453683D01*
X13445383Y-7444159D02*
X13454907Y-7453683D01*
X13445383Y-7463206D01*
X13435859Y-7453683D01*
X13445383Y-7444159D01*
X13445383Y-7463206D01*
X13445383Y-7339397D02*
X13454907Y-7348921D01*
X13445383Y-7358445D01*
X13435859Y-7348921D01*
X13445383Y-7339397D01*
X13445383Y-7358445D01*
M02*
