M48
; DRILL file {KiCad (6.0.0)} date Sat Oct  1 22:30:51 2022
; FORMAT={-:-/ absolute / inch / decimal}
; #@! TF.CreationDate,2022-10-01T22:30:51+02:00
; #@! TF.GenerationSoftware,Kicad,Pcbnew,(6.0.0)
; #@! TF.FileFunction,Plated,1,2,PTH
FMAT,2
INCH
; #@! TA.AperFunction,Plated,PTH,ViaDrill
T1C0.0157
; #@! TA.AperFunction,Plated,PTH,ComponentDrill
T2C0.0394
; #@! TA.AperFunction,Plated,PTH,ComponentDrill
T3C0.0598
%
G90
G05
T1
X4.8521Y-1.9441
X4.8681Y-2.7321
X4.9161Y-2.3501
X4.9841Y-1.9061
X5.0581Y-2.6141
X5.2581Y-2.7141
X5.3681Y-1.8881
X5.4421Y-2.5841
X5.9601Y-1.8961
X5.9921Y-1.8961
X6.2501Y-2.7341
X6.2621Y-2.0421
X6.2921Y-2.5001
X6.2941Y-2.2921
X6.3001Y-1.8321
X6.3161Y-2.3181
X6.3161Y-2.4781
X6.3221Y-2.2046
X6.3961Y-1.9041
X6.5121Y-2.7321
T2
X4.8161Y-1.8365
X4.8161Y-2.4365
X4.9161Y-1.8365
X4.9161Y-2.4365
X5.0161Y-1.8365
X5.0161Y-2.4365
X5.1161Y-1.8365
X5.1161Y-2.4365
X5.2161Y-1.8365
X5.2161Y-2.4365
X5.3161Y-1.8365
X5.3161Y-2.4365
X5.4161Y-1.8365
X5.4161Y-2.4365
X5.5161Y-1.8365
X5.5161Y-2.4365
X5.6161Y-1.8365
X5.6161Y-2.4365
X5.7161Y-1.8365
X5.7161Y-2.4365
X5.8161Y-1.8365
X5.8161Y-2.4365
X5.9001Y-2.0381
X5.9001Y-2.1381
X5.9001Y-2.2381
X5.9161Y-1.8365
X5.9161Y-2.4365
X6.0161Y-1.8365
X6.0161Y-2.4365
X6.1161Y-1.8365
X6.1161Y-2.4365
X6.2161Y-1.8365
X6.2161Y-2.4365
X6.4701Y-1.9381
X6.4701Y-2.0381
X6.4701Y-2.1381
X6.4701Y-2.2381
X6.4701Y-2.3381
X6.6321Y-1.8427
X6.6321Y-1.9427
X6.6321Y-2.0427
X6.6331Y-2.2215
X6.6331Y-2.3215
X6.6331Y-2.4215
T3
X4.7621Y-2.6561
X4.9621Y-2.6561
X5.1621Y-2.6561
X5.3621Y-2.6561
X5.5801Y-2.6561
X5.7801Y-2.6561
X5.9801Y-2.6561
X6.1801Y-2.6561
X6.3981Y-2.6561
X6.5981Y-2.6561
T0
M30
