M48
; DRILL file {KiCad (6.0.0)} date Sat Oct  1 21:34:53 2022
; FORMAT={-:-/ absolute / inch / decimal}
; #@! TF.CreationDate,2022-10-01T21:34:53+02:00
; #@! TF.GenerationSoftware,Kicad,Pcbnew,(6.0.0)
; #@! TF.FileFunction,Plated,1,2,PTH
FMAT,2
INCH
; #@! TA.AperFunction,Plated,PTH,ViaDrill
T1C0.0157
; #@! TA.AperFunction,Plated,PTH,ComponentDrill
T2C0.0394
; #@! TA.AperFunction,Plated,PTH,ComponentDrill
T3C0.0598
%
G90
G05
T1
X4.8198Y-1.1738
X4.82Y-2.286
X4.8358Y-1.9618
X4.836Y-3.074
X4.8838Y-1.5798
X4.884Y-2.692
X4.9518Y-1.1358
X4.952Y-2.248
X5.0258Y-1.8438
X5.026Y-2.956
X5.2258Y-1.9438
X5.226Y-3.056
X5.3358Y-1.1178
X5.336Y-2.23
X5.4098Y-1.8138
X5.41Y-2.926
X5.9278Y-1.1258
X5.928Y-2.238
X5.9598Y-1.1258
X5.96Y-2.238
X6.2178Y-1.9638
X6.218Y-3.076
X6.2298Y-1.2718
X6.23Y-2.384
X6.2598Y-1.7298
X6.26Y-2.842
X6.2618Y-1.5218
X6.262Y-2.634
X6.2678Y-1.0618
X6.268Y-2.174
X6.2838Y-1.5478
X6.2838Y-1.7078
X6.284Y-2.66
X6.284Y-2.82
X6.2898Y-1.4344
X6.29Y-2.5466
X6.3638Y-1.1338
X6.364Y-2.246
X6.4798Y-1.9618
X6.48Y-3.074
T2
X4.7838Y-1.0662
X4.7838Y-1.6662
X4.784Y-2.1784
X4.784Y-2.7784
X4.8838Y-1.0662
X4.8838Y-1.6662
X4.884Y-2.1784
X4.884Y-2.7784
X4.9838Y-1.0662
X4.9838Y-1.6662
X4.984Y-2.1784
X4.984Y-2.7784
X5.0838Y-1.0662
X5.0838Y-1.6662
X5.084Y-2.1784
X5.084Y-2.7784
X5.1838Y-1.0662
X5.1838Y-1.6662
X5.184Y-2.1784
X5.184Y-2.7784
X5.2838Y-1.0662
X5.2838Y-1.6662
X5.284Y-2.1784
X5.284Y-2.7784
X5.3838Y-1.0662
X5.3838Y-1.6662
X5.384Y-2.1784
X5.384Y-2.7784
X5.4838Y-1.0662
X5.4838Y-1.6662
X5.484Y-2.1784
X5.484Y-2.7784
X5.5838Y-1.0662
X5.5838Y-1.6662
X5.584Y-2.1784
X5.584Y-2.7784
X5.6838Y-1.0662
X5.6838Y-1.6662
X5.684Y-2.1784
X5.684Y-2.7784
X5.7838Y-1.0662
X5.7838Y-1.6662
X5.784Y-2.1784
X5.784Y-2.7784
X5.8678Y-1.2678
X5.8678Y-1.3678
X5.8678Y-1.4678
X5.868Y-2.38
X5.868Y-2.48
X5.868Y-2.58
X5.8838Y-1.0662
X5.8838Y-1.6662
X5.884Y-2.1784
X5.884Y-2.7784
X5.9838Y-1.0662
X5.9838Y-1.6662
X5.984Y-2.1784
X5.984Y-2.7784
X6.0838Y-1.0662
X6.0838Y-1.6662
X6.084Y-2.1784
X6.084Y-2.7784
X6.1838Y-1.0662
X6.1838Y-1.6662
X6.184Y-2.1784
X6.184Y-2.7784
X6.4378Y-1.1678
X6.4378Y-1.2678
X6.4378Y-1.3678
X6.4378Y-1.4678
X6.4378Y-1.5678
X6.438Y-2.28
X6.438Y-2.38
X6.438Y-2.48
X6.438Y-2.58
X6.438Y-2.68
X6.5998Y-1.0724
X6.5998Y-1.1724
X6.5998Y-1.2724
X6.6Y-2.1846
X6.6Y-2.2846
X6.6Y-2.3846
X6.6008Y-1.4512
X6.6008Y-1.5512
X6.6008Y-1.6512
X6.601Y-2.5634
X6.601Y-2.6634
X6.601Y-2.7634
T3
X4.7298Y-1.8858
X4.73Y-2.998
X4.9298Y-1.8858
X4.93Y-2.998
X5.1298Y-1.8858
X5.13Y-2.998
X5.3298Y-1.8858
X5.33Y-2.998
X5.5478Y-1.8858
X5.548Y-2.998
X5.7478Y-1.8858
X5.748Y-2.998
X5.9478Y-1.8858
X5.948Y-2.998
X6.1478Y-1.8858
X6.148Y-2.998
X6.3658Y-1.8858
X6.366Y-2.998
X6.5658Y-1.8858
X6.566Y-2.998
T0
M30
