%FSLAX45Y45*%
G04 Gerber Fmt 4.5, Leading zero omitted, Abs format (unit mm)*
G04 Created by KiCad (PCBNEW (6.0.0)) date 2022-10-01 21:34:54*
%MOMM*%
%LPD*%
G01*
G04 APERTURE LIST*
%TA.AperFunction,Profile*%
%ADD10C,0.100000*%
%TD*%
%ADD11C,0.200000*%
%ADD12C,0.040000*%
%ADD13C,0.100000*%
%ADD14C,0.152000*%
G04 APERTURE END LIST*
D10*
X11739380Y-8026400D02*
X16946880Y-8026400D01*
X16946880Y-8026400D02*
X16946880Y-2539500D01*
X16946880Y-2539500D02*
X11739380Y-2539500D01*
X11739380Y-2539500D02*
X11739380Y-8026400D01*
D11*
D12*
X12222300Y-2961460D02*
X12262300Y-3001460D01*
X12262300Y-2961460D02*
X12222300Y-3001460D01*
X12222800Y-5786440D02*
X12262800Y-5826440D01*
X12262800Y-5786440D02*
X12222800Y-5826440D01*
X12262940Y-4962980D02*
X12302940Y-5002980D01*
X12302940Y-4962980D02*
X12262940Y-5002980D01*
X12263440Y-7787960D02*
X12303440Y-7827960D01*
X12303440Y-7787960D02*
X12263440Y-7827960D01*
X12384860Y-3992700D02*
X12424860Y-4032700D01*
X12424860Y-3992700D02*
X12384860Y-4032700D01*
X12385360Y-6817680D02*
X12425360Y-6857680D01*
X12425360Y-6817680D02*
X12385360Y-6857680D01*
X12557580Y-2864940D02*
X12597580Y-2904940D01*
X12597580Y-2864940D02*
X12557580Y-2904940D01*
X12558080Y-5689920D02*
X12598080Y-5729920D01*
X12598080Y-5689920D02*
X12558080Y-5729920D01*
X12745540Y-4663260D02*
X12785540Y-4703260D01*
X12785540Y-4663260D02*
X12745540Y-4703260D01*
X12746040Y-7488240D02*
X12786040Y-7528240D01*
X12786040Y-7488240D02*
X12746040Y-7528240D01*
X13253540Y-4917260D02*
X13293540Y-4957260D01*
X13293540Y-4917260D02*
X13253540Y-4957260D01*
X13254040Y-7742240D02*
X13294040Y-7782240D01*
X13294040Y-7742240D02*
X13254040Y-7782240D01*
X13532940Y-2819220D02*
X13572940Y-2859220D01*
X13572940Y-2819220D02*
X13532940Y-2859220D01*
X13533440Y-5644200D02*
X13573440Y-5684200D01*
X13573440Y-5644200D02*
X13533440Y-5684200D01*
X13720900Y-4587060D02*
X13760900Y-4627060D01*
X13760900Y-4587060D02*
X13720900Y-4627060D01*
X13721400Y-7412040D02*
X13761400Y-7452040D01*
X13761400Y-7412040D02*
X13721400Y-7452040D01*
X15036620Y-2839540D02*
X15076620Y-2879540D01*
X15076620Y-2839540D02*
X15036620Y-2879540D01*
X15037120Y-5664520D02*
X15077120Y-5704520D01*
X15077120Y-5664520D02*
X15037120Y-5704520D01*
X15117900Y-2839540D02*
X15157900Y-2879540D01*
X15157900Y-2839540D02*
X15117900Y-2879540D01*
X15118400Y-5664520D02*
X15158400Y-5704520D01*
X15158400Y-5664520D02*
X15118400Y-5704520D01*
X15773220Y-4968060D02*
X15813220Y-5008060D01*
X15813220Y-4968060D02*
X15773220Y-5008060D01*
X15773720Y-7793040D02*
X15813720Y-7833040D01*
X15813720Y-7793040D02*
X15773720Y-7833040D01*
X15803700Y-3210380D02*
X15843700Y-3250380D01*
X15843700Y-3210380D02*
X15803700Y-3250380D01*
X15804200Y-6035360D02*
X15844200Y-6075360D01*
X15844200Y-6035360D02*
X15804200Y-6075360D01*
X15879900Y-4373700D02*
X15919900Y-4413700D01*
X15919900Y-4373700D02*
X15879900Y-4413700D01*
X15880400Y-7198680D02*
X15920400Y-7238680D01*
X15920400Y-7198680D02*
X15880400Y-7238680D01*
X15884980Y-3845380D02*
X15924980Y-3885380D01*
X15924980Y-3845380D02*
X15884980Y-3885380D01*
X15885480Y-6670360D02*
X15925480Y-6710360D01*
X15925480Y-6670360D02*
X15885480Y-6710360D01*
X15900220Y-2676980D02*
X15940220Y-2716980D01*
X15940220Y-2676980D02*
X15900220Y-2716980D01*
X15900720Y-5501960D02*
X15940720Y-5541960D01*
X15940720Y-5501960D02*
X15900720Y-5541960D01*
X15940860Y-3911420D02*
X15980860Y-3951420D01*
X15980860Y-3911420D02*
X15940860Y-3951420D01*
X15940860Y-4317820D02*
X15980860Y-4357820D01*
X15980860Y-4317820D02*
X15940860Y-4357820D01*
X15941360Y-6736400D02*
X15981360Y-6776400D01*
X15981360Y-6736400D02*
X15941360Y-6776400D01*
X15941360Y-7142800D02*
X15981360Y-7182800D01*
X15981360Y-7142800D02*
X15941360Y-7182800D01*
X15956100Y-3623270D02*
X15996100Y-3663270D01*
X15996100Y-3623270D02*
X15956100Y-3663270D01*
X15956600Y-6448250D02*
X15996600Y-6488250D01*
X15996600Y-6448250D02*
X15956600Y-6488250D01*
X16144060Y-2859860D02*
X16184060Y-2899860D01*
X16184060Y-2859860D02*
X16144060Y-2899860D01*
X16144560Y-5684840D02*
X16184560Y-5724840D01*
X16184560Y-5684840D02*
X16144560Y-5724840D01*
X16438700Y-4962980D02*
X16478700Y-5002980D01*
X16478700Y-4962980D02*
X16438700Y-5002980D01*
X16439200Y-7787960D02*
X16479200Y-7827960D01*
X16479200Y-7787960D02*
X16439200Y-7827960D01*
D13*
X12200860Y-2708140D02*
G75*
G03*
X12200860Y-2708140I-50000J0D01*
G01*
X12200860Y-4232140D02*
G75*
G03*
X12200860Y-4232140I-50000J0D01*
G01*
X12201360Y-5533120D02*
G75*
G03*
X12201360Y-5533120I-50000J0D01*
G01*
X12201360Y-7057120D02*
G75*
G03*
X12201360Y-7057120I-50000J0D01*
G01*
X12454860Y-2708140D02*
G75*
G03*
X12454860Y-2708140I-50000J0D01*
G01*
X12454860Y-4232140D02*
G75*
G03*
X12454860Y-4232140I-50000J0D01*
G01*
X12455360Y-5533120D02*
G75*
G03*
X12455360Y-5533120I-50000J0D01*
G01*
X12455360Y-7057120D02*
G75*
G03*
X12455360Y-7057120I-50000J0D01*
G01*
X12708860Y-2708140D02*
G75*
G03*
X12708860Y-2708140I-50000J0D01*
G01*
X12708860Y-4232140D02*
G75*
G03*
X12708860Y-4232140I-50000J0D01*
G01*
X12709360Y-5533120D02*
G75*
G03*
X12709360Y-5533120I-50000J0D01*
G01*
X12709360Y-7057120D02*
G75*
G03*
X12709360Y-7057120I-50000J0D01*
G01*
X12962860Y-2708140D02*
G75*
G03*
X12962860Y-2708140I-50000J0D01*
G01*
X12962860Y-4232140D02*
G75*
G03*
X12962860Y-4232140I-50000J0D01*
G01*
X12963360Y-5533120D02*
G75*
G03*
X12963360Y-5533120I-50000J0D01*
G01*
X12963360Y-7057120D02*
G75*
G03*
X12963360Y-7057120I-50000J0D01*
G01*
X13216860Y-2708140D02*
G75*
G03*
X13216860Y-2708140I-50000J0D01*
G01*
X13216860Y-4232140D02*
G75*
G03*
X13216860Y-4232140I-50000J0D01*
G01*
X13217360Y-5533120D02*
G75*
G03*
X13217360Y-5533120I-50000J0D01*
G01*
X13217360Y-7057120D02*
G75*
G03*
X13217360Y-7057120I-50000J0D01*
G01*
X13470860Y-2708140D02*
G75*
G03*
X13470860Y-2708140I-50000J0D01*
G01*
X13470860Y-4232140D02*
G75*
G03*
X13470860Y-4232140I-50000J0D01*
G01*
X13471360Y-5533120D02*
G75*
G03*
X13471360Y-5533120I-50000J0D01*
G01*
X13471360Y-7057120D02*
G75*
G03*
X13471360Y-7057120I-50000J0D01*
G01*
X13724860Y-2708140D02*
G75*
G03*
X13724860Y-2708140I-50000J0D01*
G01*
X13724860Y-4232140D02*
G75*
G03*
X13724860Y-4232140I-50000J0D01*
G01*
X13725360Y-5533120D02*
G75*
G03*
X13725360Y-5533120I-50000J0D01*
G01*
X13725360Y-7057120D02*
G75*
G03*
X13725360Y-7057120I-50000J0D01*
G01*
X13978860Y-2708140D02*
G75*
G03*
X13978860Y-2708140I-50000J0D01*
G01*
X13978860Y-4232140D02*
G75*
G03*
X13978860Y-4232140I-50000J0D01*
G01*
X13979360Y-5533120D02*
G75*
G03*
X13979360Y-5533120I-50000J0D01*
G01*
X13979360Y-7057120D02*
G75*
G03*
X13979360Y-7057120I-50000J0D01*
G01*
X14232860Y-2708140D02*
G75*
G03*
X14232860Y-2708140I-50000J0D01*
G01*
X14232860Y-4232140D02*
G75*
G03*
X14232860Y-4232140I-50000J0D01*
G01*
X14233360Y-5533120D02*
G75*
G03*
X14233360Y-5533120I-50000J0D01*
G01*
X14233360Y-7057120D02*
G75*
G03*
X14233360Y-7057120I-50000J0D01*
G01*
X14486860Y-2708140D02*
G75*
G03*
X14486860Y-2708140I-50000J0D01*
G01*
X14486860Y-4232140D02*
G75*
G03*
X14486860Y-4232140I-50000J0D01*
G01*
X14487360Y-5533120D02*
G75*
G03*
X14487360Y-5533120I-50000J0D01*
G01*
X14487360Y-7057120D02*
G75*
G03*
X14487360Y-7057120I-50000J0D01*
G01*
X14740860Y-2708140D02*
G75*
G03*
X14740860Y-2708140I-50000J0D01*
G01*
X14740860Y-4232140D02*
G75*
G03*
X14740860Y-4232140I-50000J0D01*
G01*
X14741360Y-5533120D02*
G75*
G03*
X14741360Y-5533120I-50000J0D01*
G01*
X14741360Y-7057120D02*
G75*
G03*
X14741360Y-7057120I-50000J0D01*
G01*
X14954220Y-3220220D02*
G75*
G03*
X14954220Y-3220220I-50000J0D01*
G01*
X14954220Y-3474220D02*
G75*
G03*
X14954220Y-3474220I-50000J0D01*
G01*
X14954220Y-3728220D02*
G75*
G03*
X14954220Y-3728220I-50000J0D01*
G01*
X14954720Y-6045200D02*
G75*
G03*
X14954720Y-6045200I-50000J0D01*
G01*
X14954720Y-6299200D02*
G75*
G03*
X14954720Y-6299200I-50000J0D01*
G01*
X14954720Y-6553200D02*
G75*
G03*
X14954720Y-6553200I-50000J0D01*
G01*
X14994860Y-2708140D02*
G75*
G03*
X14994860Y-2708140I-50000J0D01*
G01*
X14994860Y-4232140D02*
G75*
G03*
X14994860Y-4232140I-50000J0D01*
G01*
X14995360Y-5533120D02*
G75*
G03*
X14995360Y-5533120I-50000J0D01*
G01*
X14995360Y-7057120D02*
G75*
G03*
X14995360Y-7057120I-50000J0D01*
G01*
X15248860Y-2708140D02*
G75*
G03*
X15248860Y-2708140I-50000J0D01*
G01*
X15248860Y-4232140D02*
G75*
G03*
X15248860Y-4232140I-50000J0D01*
G01*
X15249360Y-5533120D02*
G75*
G03*
X15249360Y-5533120I-50000J0D01*
G01*
X15249360Y-7057120D02*
G75*
G03*
X15249360Y-7057120I-50000J0D01*
G01*
X15502860Y-2708140D02*
G75*
G03*
X15502860Y-2708140I-50000J0D01*
G01*
X15502860Y-4232140D02*
G75*
G03*
X15502860Y-4232140I-50000J0D01*
G01*
X15503360Y-5533120D02*
G75*
G03*
X15503360Y-5533120I-50000J0D01*
G01*
X15503360Y-7057120D02*
G75*
G03*
X15503360Y-7057120I-50000J0D01*
G01*
X15756860Y-2708140D02*
G75*
G03*
X15756860Y-2708140I-50000J0D01*
G01*
X15756860Y-4232140D02*
G75*
G03*
X15756860Y-4232140I-50000J0D01*
G01*
X15757360Y-5533120D02*
G75*
G03*
X15757360Y-5533120I-50000J0D01*
G01*
X15757360Y-7057120D02*
G75*
G03*
X15757360Y-7057120I-50000J0D01*
G01*
X16402020Y-2966220D02*
G75*
G03*
X16402020Y-2966220I-50000J0D01*
G01*
X16402020Y-3220220D02*
G75*
G03*
X16402020Y-3220220I-50000J0D01*
G01*
X16402020Y-3474220D02*
G75*
G03*
X16402020Y-3474220I-50000J0D01*
G01*
X16402020Y-3728220D02*
G75*
G03*
X16402020Y-3728220I-50000J0D01*
G01*
X16402020Y-3982220D02*
G75*
G03*
X16402020Y-3982220I-50000J0D01*
G01*
X16402520Y-5791200D02*
G75*
G03*
X16402520Y-5791200I-50000J0D01*
G01*
X16402520Y-6045200D02*
G75*
G03*
X16402520Y-6045200I-50000J0D01*
G01*
X16402520Y-6299200D02*
G75*
G03*
X16402520Y-6299200I-50000J0D01*
G01*
X16402520Y-6553200D02*
G75*
G03*
X16402520Y-6553200I-50000J0D01*
G01*
X16402520Y-6807200D02*
G75*
G03*
X16402520Y-6807200I-50000J0D01*
G01*
X16813500Y-2723880D02*
G75*
G03*
X16813500Y-2723880I-50000J0D01*
G01*
X16813500Y-2977880D02*
G75*
G03*
X16813500Y-2977880I-50000J0D01*
G01*
X16813500Y-3231880D02*
G75*
G03*
X16813500Y-3231880I-50000J0D01*
G01*
X16814000Y-5548860D02*
G75*
G03*
X16814000Y-5548860I-50000J0D01*
G01*
X16814000Y-5802860D02*
G75*
G03*
X16814000Y-5802860I-50000J0D01*
G01*
X16814000Y-6056860D02*
G75*
G03*
X16814000Y-6056860I-50000J0D01*
G01*
X16816000Y-3686080D02*
G75*
G03*
X16816000Y-3686080I-50000J0D01*
G01*
X16816000Y-3940080D02*
G75*
G03*
X16816000Y-3940080I-50000J0D01*
G01*
X16816000Y-4194080D02*
G75*
G03*
X16816000Y-4194080I-50000J0D01*
G01*
X16816500Y-6511060D02*
G75*
G03*
X16816500Y-6511060I-50000J0D01*
G01*
X16816500Y-6765060D02*
G75*
G03*
X16816500Y-6765060I-50000J0D01*
G01*
X16816500Y-7019060D02*
G75*
G03*
X16816500Y-7019060I-50000J0D01*
G01*
D14*
X12013700Y-4713940D02*
X12013700Y-4865940D01*
X11937700Y-4789940D02*
X12089700Y-4789940D01*
X12014200Y-7538920D02*
X12014200Y-7690920D01*
X11938200Y-7614920D02*
X12090200Y-7614920D01*
X12521700Y-4713940D02*
X12521700Y-4865940D01*
X12445700Y-4789940D02*
X12597700Y-4789940D01*
X12522200Y-7538920D02*
X12522200Y-7690920D01*
X12446200Y-7614920D02*
X12598200Y-7614920D01*
X13029700Y-4713940D02*
X13029700Y-4865940D01*
X12953700Y-4789940D02*
X13105700Y-4789940D01*
X13030200Y-7538920D02*
X13030200Y-7690920D01*
X12954200Y-7614920D02*
X13106200Y-7614920D01*
X13537700Y-4713940D02*
X13537700Y-4865940D01*
X13461700Y-4789940D02*
X13613700Y-4789940D01*
X13538200Y-7538920D02*
X13538200Y-7690920D01*
X13462200Y-7614920D02*
X13614200Y-7614920D01*
X14091420Y-4713940D02*
X14091420Y-4865940D01*
X14015420Y-4789940D02*
X14167420Y-4789940D01*
X14091920Y-7538920D02*
X14091920Y-7690920D01*
X14015920Y-7614920D02*
X14167920Y-7614920D01*
X14599420Y-4713940D02*
X14599420Y-4865940D01*
X14523420Y-4789940D02*
X14675420Y-4789940D01*
X14599920Y-7538920D02*
X14599920Y-7690920D01*
X14523920Y-7614920D02*
X14675920Y-7614920D01*
X15107420Y-4713940D02*
X15107420Y-4865940D01*
X15031420Y-4789940D02*
X15183420Y-4789940D01*
X15107920Y-7538920D02*
X15107920Y-7690920D01*
X15031920Y-7614920D02*
X15183920Y-7614920D01*
X15615420Y-4713940D02*
X15615420Y-4865940D01*
X15539420Y-4789940D02*
X15691420Y-4789940D01*
X15615920Y-7538920D02*
X15615920Y-7690920D01*
X15539920Y-7614920D02*
X15691920Y-7614920D01*
X16169140Y-4713940D02*
X16169140Y-4865940D01*
X16093140Y-4789940D02*
X16245140Y-4789940D01*
X16169640Y-7538920D02*
X16169640Y-7690920D01*
X16093640Y-7614920D02*
X16245640Y-7614920D01*
X16677140Y-4713940D02*
X16677140Y-4865940D01*
X16601140Y-4789940D02*
X16753140Y-4789940D01*
X16677640Y-7538920D02*
X16677640Y-7690920D01*
X16601640Y-7614920D02*
X16753640Y-7614920D01*
D11*
X11991999Y-8341876D02*
X11991999Y-8141876D01*
X12039618Y-8141876D01*
X12068189Y-8151400D01*
X12087237Y-8170448D01*
X12096761Y-8189495D01*
X12106285Y-8227590D01*
X12106285Y-8256162D01*
X12096761Y-8294257D01*
X12087237Y-8313305D01*
X12068189Y-8332352D01*
X12039618Y-8341876D01*
X11991999Y-8341876D01*
X12191999Y-8341876D02*
X12191999Y-8208543D01*
X12191999Y-8246638D02*
X12201523Y-8227590D01*
X12211047Y-8218067D01*
X12230094Y-8208543D01*
X12249142Y-8208543D01*
X12315808Y-8341876D02*
X12315808Y-8208543D01*
X12315808Y-8141876D02*
X12306285Y-8151400D01*
X12315808Y-8160924D01*
X12325332Y-8151400D01*
X12315808Y-8141876D01*
X12315808Y-8160924D01*
X12439618Y-8341876D02*
X12420570Y-8332352D01*
X12411047Y-8313305D01*
X12411047Y-8141876D01*
X12544380Y-8341876D02*
X12525332Y-8332352D01*
X12515808Y-8313305D01*
X12515808Y-8141876D01*
X12772951Y-8341876D02*
X12772951Y-8141876D01*
X12839618Y-8284733D01*
X12906285Y-8141876D01*
X12906285Y-8341876D01*
X13087237Y-8341876D02*
X13087237Y-8237114D01*
X13077713Y-8218067D01*
X13058666Y-8208543D01*
X13020570Y-8208543D01*
X13001523Y-8218067D01*
X13087237Y-8332352D02*
X13068189Y-8341876D01*
X13020570Y-8341876D01*
X13001523Y-8332352D01*
X12991999Y-8313305D01*
X12991999Y-8294257D01*
X13001523Y-8275209D01*
X13020570Y-8265686D01*
X13068189Y-8265686D01*
X13087237Y-8256162D01*
X13182475Y-8208543D02*
X13182475Y-8408543D01*
X13182475Y-8218067D02*
X13201523Y-8208543D01*
X13239618Y-8208543D01*
X13258666Y-8218067D01*
X13268189Y-8227590D01*
X13277713Y-8246638D01*
X13277713Y-8303781D01*
X13268189Y-8322828D01*
X13258666Y-8332352D01*
X13239618Y-8341876D01*
X13201523Y-8341876D01*
X13182475Y-8332352D01*
X13363428Y-8322828D02*
X13372951Y-8332352D01*
X13363428Y-8341876D01*
X13353904Y-8332352D01*
X13363428Y-8322828D01*
X13363428Y-8341876D01*
X13363428Y-8218067D02*
X13372951Y-8227590D01*
X13363428Y-8237114D01*
X13353904Y-8227590D01*
X13363428Y-8218067D01*
X13363428Y-8237114D01*
D12*
X11694380Y-8651400D02*
X11734380Y-8691400D01*
X11734380Y-8651400D02*
X11694380Y-8691400D01*
D11*
X12030094Y-8561876D02*
X12049142Y-8561876D01*
X12068189Y-8571400D01*
X12077713Y-8580924D01*
X12087237Y-8599971D01*
X12096761Y-8638067D01*
X12096761Y-8685686D01*
X12087237Y-8723781D01*
X12077713Y-8742829D01*
X12068189Y-8752352D01*
X12049142Y-8761876D01*
X12030094Y-8761876D01*
X12011047Y-8752352D01*
X12001523Y-8742829D01*
X11991999Y-8723781D01*
X11982475Y-8685686D01*
X11982475Y-8638067D01*
X11991999Y-8599971D01*
X12001523Y-8580924D01*
X12011047Y-8571400D01*
X12030094Y-8561876D01*
X12182475Y-8742829D02*
X12191999Y-8752352D01*
X12182475Y-8761876D01*
X12172951Y-8752352D01*
X12182475Y-8742829D01*
X12182475Y-8761876D01*
X12363428Y-8628543D02*
X12363428Y-8761876D01*
X12315808Y-8552352D02*
X12268189Y-8695210D01*
X12391999Y-8695210D01*
X12506285Y-8561876D02*
X12525332Y-8561876D01*
X12544380Y-8571400D01*
X12553904Y-8580924D01*
X12563428Y-8599971D01*
X12572951Y-8638067D01*
X12572951Y-8685686D01*
X12563428Y-8723781D01*
X12553904Y-8742829D01*
X12544380Y-8752352D01*
X12525332Y-8761876D01*
X12506285Y-8761876D01*
X12487237Y-8752352D01*
X12477713Y-8742829D01*
X12468189Y-8723781D01*
X12458666Y-8685686D01*
X12458666Y-8638067D01*
X12468189Y-8599971D01*
X12477713Y-8580924D01*
X12487237Y-8571400D01*
X12506285Y-8561876D01*
X12696761Y-8561876D02*
X12715808Y-8561876D01*
X12734856Y-8571400D01*
X12744380Y-8580924D01*
X12753904Y-8599971D01*
X12763428Y-8638067D01*
X12763428Y-8685686D01*
X12753904Y-8723781D01*
X12744380Y-8742829D01*
X12734856Y-8752352D01*
X12715808Y-8761876D01*
X12696761Y-8761876D01*
X12677713Y-8752352D01*
X12668189Y-8742829D01*
X12658666Y-8723781D01*
X12649142Y-8685686D01*
X12649142Y-8638067D01*
X12658666Y-8599971D01*
X12668189Y-8580924D01*
X12677713Y-8571400D01*
X12696761Y-8561876D01*
X12849142Y-8761876D02*
X12849142Y-8628543D01*
X12849142Y-8647590D02*
X12858666Y-8638067D01*
X12877713Y-8628543D01*
X12906285Y-8628543D01*
X12925332Y-8638067D01*
X12934856Y-8657114D01*
X12934856Y-8761876D01*
X12934856Y-8657114D02*
X12944380Y-8638067D01*
X12963428Y-8628543D01*
X12991999Y-8628543D01*
X13011047Y-8638067D01*
X13020570Y-8657114D01*
X13020570Y-8761876D01*
X13115808Y-8761876D02*
X13115808Y-8628543D01*
X13115808Y-8647590D02*
X13125332Y-8638067D01*
X13144380Y-8628543D01*
X13172951Y-8628543D01*
X13191999Y-8638067D01*
X13201523Y-8657114D01*
X13201523Y-8761876D01*
X13201523Y-8657114D02*
X13211047Y-8638067D01*
X13230094Y-8628543D01*
X13258666Y-8628543D01*
X13277713Y-8638067D01*
X13287237Y-8657114D01*
X13287237Y-8761876D01*
X13677713Y-8552352D02*
X13506285Y-8809495D01*
X13934856Y-8561876D02*
X13953904Y-8561876D01*
X13972951Y-8571400D01*
X13982475Y-8580924D01*
X13991999Y-8599971D01*
X14001523Y-8638067D01*
X14001523Y-8685686D01*
X13991999Y-8723781D01*
X13982475Y-8742829D01*
X13972951Y-8752352D01*
X13953904Y-8761876D01*
X13934856Y-8761876D01*
X13915808Y-8752352D01*
X13906285Y-8742829D01*
X13896761Y-8723781D01*
X13887237Y-8685686D01*
X13887237Y-8638067D01*
X13896761Y-8599971D01*
X13906285Y-8580924D01*
X13915808Y-8571400D01*
X13934856Y-8561876D01*
X14087237Y-8742829D02*
X14096761Y-8752352D01*
X14087237Y-8761876D01*
X14077713Y-8752352D01*
X14087237Y-8742829D01*
X14087237Y-8761876D01*
X14220570Y-8561876D02*
X14239618Y-8561876D01*
X14258666Y-8571400D01*
X14268189Y-8580924D01*
X14277713Y-8599971D01*
X14287237Y-8638067D01*
X14287237Y-8685686D01*
X14277713Y-8723781D01*
X14268189Y-8742829D01*
X14258666Y-8752352D01*
X14239618Y-8761876D01*
X14220570Y-8761876D01*
X14201523Y-8752352D01*
X14191999Y-8742829D01*
X14182475Y-8723781D01*
X14172951Y-8685686D01*
X14172951Y-8638067D01*
X14182475Y-8599971D01*
X14191999Y-8580924D01*
X14201523Y-8571400D01*
X14220570Y-8561876D01*
X14477713Y-8761876D02*
X14363428Y-8761876D01*
X14420570Y-8761876D02*
X14420570Y-8561876D01*
X14401523Y-8590448D01*
X14382475Y-8609495D01*
X14363428Y-8619019D01*
X14658666Y-8561876D02*
X14563428Y-8561876D01*
X14553904Y-8657114D01*
X14563428Y-8647590D01*
X14582475Y-8638067D01*
X14630094Y-8638067D01*
X14649142Y-8647590D01*
X14658666Y-8657114D01*
X14668189Y-8676162D01*
X14668189Y-8723781D01*
X14658666Y-8742829D01*
X14649142Y-8752352D01*
X14630094Y-8761876D01*
X14582475Y-8761876D01*
X14563428Y-8752352D01*
X14553904Y-8742829D01*
X14734856Y-8561876D02*
X14868189Y-8561876D01*
X14782475Y-8761876D01*
X14934856Y-8561876D02*
X14934856Y-8599971D01*
X15011047Y-8561876D02*
X15011047Y-8599971D01*
X15306285Y-8838067D02*
X15296761Y-8828543D01*
X15277713Y-8799971D01*
X15268189Y-8780924D01*
X15258666Y-8752352D01*
X15249142Y-8704733D01*
X15249142Y-8666638D01*
X15258666Y-8619019D01*
X15268189Y-8590448D01*
X15277713Y-8571400D01*
X15296761Y-8542829D01*
X15306285Y-8533305D01*
X15468189Y-8628543D02*
X15468189Y-8761876D01*
X15420570Y-8552352D02*
X15372951Y-8695210D01*
X15496761Y-8695210D01*
X15611047Y-8561876D02*
X15630094Y-8561876D01*
X15649142Y-8571400D01*
X15658666Y-8580924D01*
X15668189Y-8599971D01*
X15677713Y-8638067D01*
X15677713Y-8685686D01*
X15668189Y-8723781D01*
X15658666Y-8742829D01*
X15649142Y-8752352D01*
X15630094Y-8761876D01*
X15611047Y-8761876D01*
X15591999Y-8752352D01*
X15582475Y-8742829D01*
X15572951Y-8723781D01*
X15563428Y-8685686D01*
X15563428Y-8638067D01*
X15572951Y-8599971D01*
X15582475Y-8580924D01*
X15591999Y-8571400D01*
X15611047Y-8561876D01*
X15915808Y-8761876D02*
X15915808Y-8561876D01*
X16001523Y-8761876D02*
X16001523Y-8657114D01*
X15991999Y-8638067D01*
X15972951Y-8628543D01*
X15944380Y-8628543D01*
X15925332Y-8638067D01*
X15915808Y-8647590D01*
X16125332Y-8761876D02*
X16106285Y-8752352D01*
X16096761Y-8742829D01*
X16087237Y-8723781D01*
X16087237Y-8666638D01*
X16096761Y-8647590D01*
X16106285Y-8638067D01*
X16125332Y-8628543D01*
X16153904Y-8628543D01*
X16172951Y-8638067D01*
X16182475Y-8647590D01*
X16191999Y-8666638D01*
X16191999Y-8723781D01*
X16182475Y-8742829D01*
X16172951Y-8752352D01*
X16153904Y-8761876D01*
X16125332Y-8761876D01*
X16306285Y-8761876D02*
X16287237Y-8752352D01*
X16277713Y-8733305D01*
X16277713Y-8561876D01*
X16458666Y-8752352D02*
X16439618Y-8761876D01*
X16401523Y-8761876D01*
X16382475Y-8752352D01*
X16372951Y-8733305D01*
X16372951Y-8657114D01*
X16382475Y-8638067D01*
X16401523Y-8628543D01*
X16439618Y-8628543D01*
X16458666Y-8638067D01*
X16468189Y-8657114D01*
X16468189Y-8676162D01*
X16372951Y-8695210D01*
X16544380Y-8752352D02*
X16563428Y-8761876D01*
X16601523Y-8761876D01*
X16620570Y-8752352D01*
X16630094Y-8733305D01*
X16630094Y-8723781D01*
X16620570Y-8704733D01*
X16601523Y-8695210D01*
X16572951Y-8695210D01*
X16553904Y-8685686D01*
X16544380Y-8666638D01*
X16544380Y-8657114D01*
X16553904Y-8638067D01*
X16572951Y-8628543D01*
X16601523Y-8628543D01*
X16620570Y-8638067D01*
X16696761Y-8838067D02*
X16706285Y-8828543D01*
X16725332Y-8799971D01*
X16734856Y-8780924D01*
X16744380Y-8752352D01*
X16753904Y-8704733D01*
X16753904Y-8666638D01*
X16744380Y-8619019D01*
X16734856Y-8590448D01*
X16725332Y-8571400D01*
X16706285Y-8542829D01*
X16696761Y-8533305D01*
D13*
X11734380Y-8935400D02*
G75*
G03*
X11734380Y-8935400I-50000J0D01*
G01*
D11*
X12096761Y-9025876D02*
X11982475Y-9025876D01*
X12039618Y-9025876D02*
X12039618Y-8825876D01*
X12020570Y-8854448D01*
X12001523Y-8873495D01*
X11982475Y-8883019D01*
X12182475Y-9006829D02*
X12191999Y-9016352D01*
X12182475Y-9025876D01*
X12172951Y-9016352D01*
X12182475Y-9006829D01*
X12182475Y-9025876D01*
X12315808Y-8825876D02*
X12334856Y-8825876D01*
X12353904Y-8835400D01*
X12363428Y-8844924D01*
X12372951Y-8863971D01*
X12382475Y-8902067D01*
X12382475Y-8949686D01*
X12372951Y-8987781D01*
X12363428Y-9006829D01*
X12353904Y-9016352D01*
X12334856Y-9025876D01*
X12315808Y-9025876D01*
X12296761Y-9016352D01*
X12287237Y-9006829D01*
X12277713Y-8987781D01*
X12268189Y-8949686D01*
X12268189Y-8902067D01*
X12277713Y-8863971D01*
X12287237Y-8844924D01*
X12296761Y-8835400D01*
X12315808Y-8825876D01*
X12506285Y-8825876D02*
X12525332Y-8825876D01*
X12544380Y-8835400D01*
X12553904Y-8844924D01*
X12563428Y-8863971D01*
X12572951Y-8902067D01*
X12572951Y-8949686D01*
X12563428Y-8987781D01*
X12553904Y-9006829D01*
X12544380Y-9016352D01*
X12525332Y-9025876D01*
X12506285Y-9025876D01*
X12487237Y-9016352D01*
X12477713Y-9006829D01*
X12468189Y-8987781D01*
X12458666Y-8949686D01*
X12458666Y-8902067D01*
X12468189Y-8863971D01*
X12477713Y-8844924D01*
X12487237Y-8835400D01*
X12506285Y-8825876D01*
X12696761Y-8825876D02*
X12715808Y-8825876D01*
X12734856Y-8835400D01*
X12744380Y-8844924D01*
X12753904Y-8863971D01*
X12763428Y-8902067D01*
X12763428Y-8949686D01*
X12753904Y-8987781D01*
X12744380Y-9006829D01*
X12734856Y-9016352D01*
X12715808Y-9025876D01*
X12696761Y-9025876D01*
X12677713Y-9016352D01*
X12668189Y-9006829D01*
X12658666Y-8987781D01*
X12649142Y-8949686D01*
X12649142Y-8902067D01*
X12658666Y-8863971D01*
X12668189Y-8844924D01*
X12677713Y-8835400D01*
X12696761Y-8825876D01*
X12849142Y-9025876D02*
X12849142Y-8892543D01*
X12849142Y-8911590D02*
X12858666Y-8902067D01*
X12877713Y-8892543D01*
X12906285Y-8892543D01*
X12925332Y-8902067D01*
X12934856Y-8921114D01*
X12934856Y-9025876D01*
X12934856Y-8921114D02*
X12944380Y-8902067D01*
X12963428Y-8892543D01*
X12991999Y-8892543D01*
X13011047Y-8902067D01*
X13020570Y-8921114D01*
X13020570Y-9025876D01*
X13115808Y-9025876D02*
X13115808Y-8892543D01*
X13115808Y-8911590D02*
X13125332Y-8902067D01*
X13144380Y-8892543D01*
X13172951Y-8892543D01*
X13191999Y-8902067D01*
X13201523Y-8921114D01*
X13201523Y-9025876D01*
X13201523Y-8921114D02*
X13211047Y-8902067D01*
X13230094Y-8892543D01*
X13258666Y-8892543D01*
X13277713Y-8902067D01*
X13287237Y-8921114D01*
X13287237Y-9025876D01*
X13677713Y-8816352D02*
X13506285Y-9073495D01*
X13934856Y-8825876D02*
X13953904Y-8825876D01*
X13972951Y-8835400D01*
X13982475Y-8844924D01*
X13991999Y-8863971D01*
X14001523Y-8902067D01*
X14001523Y-8949686D01*
X13991999Y-8987781D01*
X13982475Y-9006829D01*
X13972951Y-9016352D01*
X13953904Y-9025876D01*
X13934856Y-9025876D01*
X13915808Y-9016352D01*
X13906285Y-9006829D01*
X13896761Y-8987781D01*
X13887237Y-8949686D01*
X13887237Y-8902067D01*
X13896761Y-8863971D01*
X13906285Y-8844924D01*
X13915808Y-8835400D01*
X13934856Y-8825876D01*
X14087237Y-9006829D02*
X14096761Y-9016352D01*
X14087237Y-9025876D01*
X14077713Y-9016352D01*
X14087237Y-9006829D01*
X14087237Y-9025876D01*
X14220570Y-8825876D02*
X14239618Y-8825876D01*
X14258666Y-8835400D01*
X14268189Y-8844924D01*
X14277713Y-8863971D01*
X14287237Y-8902067D01*
X14287237Y-8949686D01*
X14277713Y-8987781D01*
X14268189Y-9006829D01*
X14258666Y-9016352D01*
X14239618Y-9025876D01*
X14220570Y-9025876D01*
X14201523Y-9016352D01*
X14191999Y-9006829D01*
X14182475Y-8987781D01*
X14172951Y-8949686D01*
X14172951Y-8902067D01*
X14182475Y-8863971D01*
X14191999Y-8844924D01*
X14201523Y-8835400D01*
X14220570Y-8825876D01*
X14353904Y-8825876D02*
X14477713Y-8825876D01*
X14411047Y-8902067D01*
X14439618Y-8902067D01*
X14458666Y-8911590D01*
X14468189Y-8921114D01*
X14477713Y-8940162D01*
X14477713Y-8987781D01*
X14468189Y-9006829D01*
X14458666Y-9016352D01*
X14439618Y-9025876D01*
X14382475Y-9025876D01*
X14363428Y-9016352D01*
X14353904Y-9006829D01*
X14572951Y-9025876D02*
X14611047Y-9025876D01*
X14630094Y-9016352D01*
X14639618Y-9006829D01*
X14658666Y-8978257D01*
X14668189Y-8940162D01*
X14668189Y-8863971D01*
X14658666Y-8844924D01*
X14649142Y-8835400D01*
X14630094Y-8825876D01*
X14591999Y-8825876D01*
X14572951Y-8835400D01*
X14563428Y-8844924D01*
X14553904Y-8863971D01*
X14553904Y-8911590D01*
X14563428Y-8930638D01*
X14572951Y-8940162D01*
X14591999Y-8949686D01*
X14630094Y-8949686D01*
X14649142Y-8940162D01*
X14658666Y-8930638D01*
X14668189Y-8911590D01*
X14839618Y-8892543D02*
X14839618Y-9025876D01*
X14791999Y-8816352D02*
X14744380Y-8959210D01*
X14868189Y-8959210D01*
X14934856Y-8825876D02*
X14934856Y-8863971D01*
X15011047Y-8825876D02*
X15011047Y-8863971D01*
X15306285Y-9102067D02*
X15296761Y-9092543D01*
X15277713Y-9063971D01*
X15268189Y-9044924D01*
X15258666Y-9016352D01*
X15249142Y-8968733D01*
X15249142Y-8930638D01*
X15258666Y-8883019D01*
X15268189Y-8854448D01*
X15277713Y-8835400D01*
X15296761Y-8806829D01*
X15306285Y-8797305D01*
X15411047Y-8911590D02*
X15391999Y-8902067D01*
X15382475Y-8892543D01*
X15372951Y-8873495D01*
X15372951Y-8863971D01*
X15382475Y-8844924D01*
X15391999Y-8835400D01*
X15411047Y-8825876D01*
X15449142Y-8825876D01*
X15468189Y-8835400D01*
X15477713Y-8844924D01*
X15487237Y-8863971D01*
X15487237Y-8873495D01*
X15477713Y-8892543D01*
X15468189Y-8902067D01*
X15449142Y-8911590D01*
X15411047Y-8911590D01*
X15391999Y-8921114D01*
X15382475Y-8930638D01*
X15372951Y-8949686D01*
X15372951Y-8987781D01*
X15382475Y-9006829D01*
X15391999Y-9016352D01*
X15411047Y-9025876D01*
X15449142Y-9025876D01*
X15468189Y-9016352D01*
X15477713Y-9006829D01*
X15487237Y-8987781D01*
X15487237Y-8949686D01*
X15477713Y-8930638D01*
X15468189Y-8921114D01*
X15449142Y-8911590D01*
X15601523Y-8911590D02*
X15582475Y-8902067D01*
X15572951Y-8892543D01*
X15563428Y-8873495D01*
X15563428Y-8863971D01*
X15572951Y-8844924D01*
X15582475Y-8835400D01*
X15601523Y-8825876D01*
X15639618Y-8825876D01*
X15658666Y-8835400D01*
X15668189Y-8844924D01*
X15677713Y-8863971D01*
X15677713Y-8873495D01*
X15668189Y-8892543D01*
X15658666Y-8902067D01*
X15639618Y-8911590D01*
X15601523Y-8911590D01*
X15582475Y-8921114D01*
X15572951Y-8930638D01*
X15563428Y-8949686D01*
X15563428Y-8987781D01*
X15572951Y-9006829D01*
X15582475Y-9016352D01*
X15601523Y-9025876D01*
X15639618Y-9025876D01*
X15658666Y-9016352D01*
X15668189Y-9006829D01*
X15677713Y-8987781D01*
X15677713Y-8949686D01*
X15668189Y-8930638D01*
X15658666Y-8921114D01*
X15639618Y-8911590D01*
X15915808Y-9025876D02*
X15915808Y-8825876D01*
X16001523Y-9025876D02*
X16001523Y-8921114D01*
X15991999Y-8902067D01*
X15972951Y-8892543D01*
X15944380Y-8892543D01*
X15925332Y-8902067D01*
X15915808Y-8911590D01*
X16125332Y-9025876D02*
X16106285Y-9016352D01*
X16096761Y-9006829D01*
X16087237Y-8987781D01*
X16087237Y-8930638D01*
X16096761Y-8911590D01*
X16106285Y-8902067D01*
X16125332Y-8892543D01*
X16153904Y-8892543D01*
X16172951Y-8902067D01*
X16182475Y-8911590D01*
X16191999Y-8930638D01*
X16191999Y-8987781D01*
X16182475Y-9006829D01*
X16172951Y-9016352D01*
X16153904Y-9025876D01*
X16125332Y-9025876D01*
X16306285Y-9025876D02*
X16287237Y-9016352D01*
X16277713Y-8997305D01*
X16277713Y-8825876D01*
X16458666Y-9016352D02*
X16439618Y-9025876D01*
X16401523Y-9025876D01*
X16382475Y-9016352D01*
X16372951Y-8997305D01*
X16372951Y-8921114D01*
X16382475Y-8902067D01*
X16401523Y-8892543D01*
X16439618Y-8892543D01*
X16458666Y-8902067D01*
X16468189Y-8921114D01*
X16468189Y-8940162D01*
X16372951Y-8959210D01*
X16544380Y-9016352D02*
X16563428Y-9025876D01*
X16601523Y-9025876D01*
X16620570Y-9016352D01*
X16630094Y-8997305D01*
X16630094Y-8987781D01*
X16620570Y-8968733D01*
X16601523Y-8959210D01*
X16572951Y-8959210D01*
X16553904Y-8949686D01*
X16544380Y-8930638D01*
X16544380Y-8921114D01*
X16553904Y-8902067D01*
X16572951Y-8892543D01*
X16601523Y-8892543D01*
X16620570Y-8902067D01*
X16696761Y-9102067D02*
X16706285Y-9092543D01*
X16725332Y-9063971D01*
X16734856Y-9044924D01*
X16744380Y-9016352D01*
X16753904Y-8968733D01*
X16753904Y-8930638D01*
X16744380Y-8883019D01*
X16734856Y-8854448D01*
X16725332Y-8835400D01*
X16706285Y-8806829D01*
X16696761Y-8797305D01*
D14*
X11658380Y-9123400D02*
X11658380Y-9275400D01*
X11582380Y-9199400D02*
X11734380Y-9199400D01*
D11*
X12096761Y-9289876D02*
X11982475Y-9289876D01*
X12039618Y-9289876D02*
X12039618Y-9089876D01*
X12020570Y-9118448D01*
X12001523Y-9137495D01*
X11982475Y-9147019D01*
X12182475Y-9270829D02*
X12191999Y-9280352D01*
X12182475Y-9289876D01*
X12172951Y-9280352D01*
X12182475Y-9270829D01*
X12182475Y-9289876D01*
X12372951Y-9089876D02*
X12277713Y-9089876D01*
X12268189Y-9185114D01*
X12277713Y-9175590D01*
X12296761Y-9166067D01*
X12344380Y-9166067D01*
X12363428Y-9175590D01*
X12372951Y-9185114D01*
X12382475Y-9204162D01*
X12382475Y-9251781D01*
X12372951Y-9270829D01*
X12363428Y-9280352D01*
X12344380Y-9289876D01*
X12296761Y-9289876D01*
X12277713Y-9280352D01*
X12268189Y-9270829D01*
X12458666Y-9108924D02*
X12468189Y-9099400D01*
X12487237Y-9089876D01*
X12534856Y-9089876D01*
X12553904Y-9099400D01*
X12563428Y-9108924D01*
X12572951Y-9127971D01*
X12572951Y-9147019D01*
X12563428Y-9175590D01*
X12449142Y-9289876D01*
X12572951Y-9289876D01*
X12696761Y-9089876D02*
X12715808Y-9089876D01*
X12734856Y-9099400D01*
X12744380Y-9108924D01*
X12753904Y-9127971D01*
X12763428Y-9166067D01*
X12763428Y-9213686D01*
X12753904Y-9251781D01*
X12744380Y-9270829D01*
X12734856Y-9280352D01*
X12715808Y-9289876D01*
X12696761Y-9289876D01*
X12677713Y-9280352D01*
X12668189Y-9270829D01*
X12658666Y-9251781D01*
X12649142Y-9213686D01*
X12649142Y-9166067D01*
X12658666Y-9127971D01*
X12668189Y-9108924D01*
X12677713Y-9099400D01*
X12696761Y-9089876D01*
X12849142Y-9289876D02*
X12849142Y-9156543D01*
X12849142Y-9175590D02*
X12858666Y-9166067D01*
X12877713Y-9156543D01*
X12906285Y-9156543D01*
X12925332Y-9166067D01*
X12934856Y-9185114D01*
X12934856Y-9289876D01*
X12934856Y-9185114D02*
X12944380Y-9166067D01*
X12963428Y-9156543D01*
X12991999Y-9156543D01*
X13011047Y-9166067D01*
X13020570Y-9185114D01*
X13020570Y-9289876D01*
X13115808Y-9289876D02*
X13115808Y-9156543D01*
X13115808Y-9175590D02*
X13125332Y-9166067D01*
X13144380Y-9156543D01*
X13172951Y-9156543D01*
X13191999Y-9166067D01*
X13201523Y-9185114D01*
X13201523Y-9289876D01*
X13201523Y-9185114D02*
X13211047Y-9166067D01*
X13230094Y-9156543D01*
X13258666Y-9156543D01*
X13277713Y-9166067D01*
X13287237Y-9185114D01*
X13287237Y-9289876D01*
X13677713Y-9080352D02*
X13506285Y-9337495D01*
X13934856Y-9089876D02*
X13953904Y-9089876D01*
X13972951Y-9099400D01*
X13982475Y-9108924D01*
X13991999Y-9127971D01*
X14001523Y-9166067D01*
X14001523Y-9213686D01*
X13991999Y-9251781D01*
X13982475Y-9270829D01*
X13972951Y-9280352D01*
X13953904Y-9289876D01*
X13934856Y-9289876D01*
X13915808Y-9280352D01*
X13906285Y-9270829D01*
X13896761Y-9251781D01*
X13887237Y-9213686D01*
X13887237Y-9166067D01*
X13896761Y-9127971D01*
X13906285Y-9108924D01*
X13915808Y-9099400D01*
X13934856Y-9089876D01*
X14087237Y-9270829D02*
X14096761Y-9280352D01*
X14087237Y-9289876D01*
X14077713Y-9280352D01*
X14087237Y-9270829D01*
X14087237Y-9289876D01*
X14220570Y-9089876D02*
X14239618Y-9089876D01*
X14258666Y-9099400D01*
X14268189Y-9108924D01*
X14277713Y-9127971D01*
X14287237Y-9166067D01*
X14287237Y-9213686D01*
X14277713Y-9251781D01*
X14268189Y-9270829D01*
X14258666Y-9280352D01*
X14239618Y-9289876D01*
X14220570Y-9289876D01*
X14201523Y-9280352D01*
X14191999Y-9270829D01*
X14182475Y-9251781D01*
X14172951Y-9213686D01*
X14172951Y-9166067D01*
X14182475Y-9127971D01*
X14191999Y-9108924D01*
X14201523Y-9099400D01*
X14220570Y-9089876D01*
X14468189Y-9089876D02*
X14372951Y-9089876D01*
X14363428Y-9185114D01*
X14372951Y-9175590D01*
X14391999Y-9166067D01*
X14439618Y-9166067D01*
X14458666Y-9175590D01*
X14468189Y-9185114D01*
X14477713Y-9204162D01*
X14477713Y-9251781D01*
X14468189Y-9270829D01*
X14458666Y-9280352D01*
X14439618Y-9289876D01*
X14391999Y-9289876D01*
X14372951Y-9280352D01*
X14363428Y-9270829D01*
X14572951Y-9289876D02*
X14611047Y-9289876D01*
X14630094Y-9280352D01*
X14639618Y-9270829D01*
X14658666Y-9242257D01*
X14668189Y-9204162D01*
X14668189Y-9127971D01*
X14658666Y-9108924D01*
X14649142Y-9099400D01*
X14630094Y-9089876D01*
X14591999Y-9089876D01*
X14572951Y-9099400D01*
X14563428Y-9108924D01*
X14553904Y-9127971D01*
X14553904Y-9175590D01*
X14563428Y-9194638D01*
X14572951Y-9204162D01*
X14591999Y-9213686D01*
X14630094Y-9213686D01*
X14649142Y-9204162D01*
X14658666Y-9194638D01*
X14668189Y-9175590D01*
X14782475Y-9175590D02*
X14763428Y-9166067D01*
X14753904Y-9156543D01*
X14744380Y-9137495D01*
X14744380Y-9127971D01*
X14753904Y-9108924D01*
X14763428Y-9099400D01*
X14782475Y-9089876D01*
X14820570Y-9089876D01*
X14839618Y-9099400D01*
X14849142Y-9108924D01*
X14858666Y-9127971D01*
X14858666Y-9137495D01*
X14849142Y-9156543D01*
X14839618Y-9166067D01*
X14820570Y-9175590D01*
X14782475Y-9175590D01*
X14763428Y-9185114D01*
X14753904Y-9194638D01*
X14744380Y-9213686D01*
X14744380Y-9251781D01*
X14753904Y-9270829D01*
X14763428Y-9280352D01*
X14782475Y-9289876D01*
X14820570Y-9289876D01*
X14839618Y-9280352D01*
X14849142Y-9270829D01*
X14858666Y-9251781D01*
X14858666Y-9213686D01*
X14849142Y-9194638D01*
X14839618Y-9185114D01*
X14820570Y-9175590D01*
X14934856Y-9089876D02*
X14934856Y-9127971D01*
X15011047Y-9089876D02*
X15011047Y-9127971D01*
X15306285Y-9366067D02*
X15296761Y-9356543D01*
X15277713Y-9327971D01*
X15268189Y-9308924D01*
X15258666Y-9280352D01*
X15249142Y-9232733D01*
X15249142Y-9194638D01*
X15258666Y-9147019D01*
X15268189Y-9118448D01*
X15277713Y-9099400D01*
X15296761Y-9070829D01*
X15306285Y-9061305D01*
X15372951Y-9108924D02*
X15382475Y-9099400D01*
X15401523Y-9089876D01*
X15449142Y-9089876D01*
X15468189Y-9099400D01*
X15477713Y-9108924D01*
X15487237Y-9127971D01*
X15487237Y-9147019D01*
X15477713Y-9175590D01*
X15363428Y-9289876D01*
X15487237Y-9289876D01*
X15611047Y-9089876D02*
X15630094Y-9089876D01*
X15649142Y-9099400D01*
X15658666Y-9108924D01*
X15668189Y-9127971D01*
X15677713Y-9166067D01*
X15677713Y-9213686D01*
X15668189Y-9251781D01*
X15658666Y-9270829D01*
X15649142Y-9280352D01*
X15630094Y-9289876D01*
X15611047Y-9289876D01*
X15591999Y-9280352D01*
X15582475Y-9270829D01*
X15572951Y-9251781D01*
X15563428Y-9213686D01*
X15563428Y-9166067D01*
X15572951Y-9127971D01*
X15582475Y-9108924D01*
X15591999Y-9099400D01*
X15611047Y-9089876D01*
X15915808Y-9289876D02*
X15915808Y-9089876D01*
X16001523Y-9289876D02*
X16001523Y-9185114D01*
X15991999Y-9166067D01*
X15972951Y-9156543D01*
X15944380Y-9156543D01*
X15925332Y-9166067D01*
X15915808Y-9175590D01*
X16125332Y-9289876D02*
X16106285Y-9280352D01*
X16096761Y-9270829D01*
X16087237Y-9251781D01*
X16087237Y-9194638D01*
X16096761Y-9175590D01*
X16106285Y-9166067D01*
X16125332Y-9156543D01*
X16153904Y-9156543D01*
X16172951Y-9166067D01*
X16182475Y-9175590D01*
X16191999Y-9194638D01*
X16191999Y-9251781D01*
X16182475Y-9270829D01*
X16172951Y-9280352D01*
X16153904Y-9289876D01*
X16125332Y-9289876D01*
X16306285Y-9289876D02*
X16287237Y-9280352D01*
X16277713Y-9261305D01*
X16277713Y-9089876D01*
X16458666Y-9280352D02*
X16439618Y-9289876D01*
X16401523Y-9289876D01*
X16382475Y-9280352D01*
X16372951Y-9261305D01*
X16372951Y-9185114D01*
X16382475Y-9166067D01*
X16401523Y-9156543D01*
X16439618Y-9156543D01*
X16458666Y-9166067D01*
X16468189Y-9185114D01*
X16468189Y-9204162D01*
X16372951Y-9223210D01*
X16544380Y-9280352D02*
X16563428Y-9289876D01*
X16601523Y-9289876D01*
X16620570Y-9280352D01*
X16630094Y-9261305D01*
X16630094Y-9251781D01*
X16620570Y-9232733D01*
X16601523Y-9223210D01*
X16572951Y-9223210D01*
X16553904Y-9213686D01*
X16544380Y-9194638D01*
X16544380Y-9185114D01*
X16553904Y-9166067D01*
X16572951Y-9156543D01*
X16601523Y-9156543D01*
X16620570Y-9166067D01*
X16696761Y-9366067D02*
X16706285Y-9356543D01*
X16725332Y-9327971D01*
X16734856Y-9308924D01*
X16744380Y-9280352D01*
X16753904Y-9232733D01*
X16753904Y-9194638D01*
X16744380Y-9147019D01*
X16734856Y-9118448D01*
X16725332Y-9099400D01*
X16706285Y-9070829D01*
X16696761Y-9061305D01*
M02*
